<svg xmlns="http://www.w3.org/2000/svg" xmlns:xlink="http://www.w3.org/1999/xlink" width="153.333" height="162" viewBox="0 0 153.333 162">
  <defs>
    <clipPath id="clip-path">
      <rect id="Rectángulo_5260" data-name="Rectángulo 5260" width="153.333" height="162" fill="#12263f"/>
    </clipPath>
  </defs>
  <g id="Grupo_56551" data-name="Grupo 56551" clip-path="url(#clip-path)">
    <path id="Trazado_100696" data-name="Trazado 100696" d="M44.088,67.571a15.64,15.64,0,1,1,15.64-15.64,15.658,15.658,0,0,1-15.64,15.64m0-26.269A10.629,10.629,0,1,0,54.717,51.931,10.642,10.642,0,0,0,44.088,41.3" transform="translate(74.022 94.43)" fill="#12263f"/>
    <path id="Trazado_100697" data-name="Trazado 100697" d="M78.626,71.2a2.505,2.505,0,0,1-2.064-3.923L88.024,50.55a3.037,3.037,0,0,0-.14-3.3l-10.417-14.9A3.649,3.649,0,0,0,74.794,30.8a3.612,3.612,0,0,0-2.9,1.055,3.651,3.651,0,0,0-.544,4.47l7.269,12.031a2.5,2.5,0,0,1-.058,2.684L71.588,61.5a2.511,2.511,0,0,1-2.936.965,30.793,30.793,0,0,0-20.848,0,2.509,2.509,0,0,1-2.936-.965L37.9,51.04a2.5,2.5,0,0,1-.058-2.684l7.269-12.031a3.651,3.651,0,0,0-6.116-3.98l-10.417,14.9a3.062,3.062,0,0,0-.083,3.389l11.4,16.634a2.507,2.507,0,0,1-4.135,2.835L24.3,53.385a8.1,8.1,0,0,1,.169-9.009l10.417-14.9A8.661,8.661,0,0,1,49.393,38.92L42.949,49.585l5.032,7.553a35.832,35.832,0,0,1,20.5,0l5.032-7.553L67.064,38.92a8.661,8.661,0,0,1,14.509-9.444l10.417,14.9a8.072,8.072,0,0,1,.227,8.922L80.694,70.109A2.509,2.509,0,0,1,78.626,71.2" transform="translate(59.881 67.07)" fill="#12263f"/>
    <path id="Trazado_100698" data-name="Trazado 100698" d="M21.074,67.571a15.64,15.64,0,1,1,15.64-15.64,15.658,15.658,0,0,1-15.64,15.64m0-26.269A10.629,10.629,0,1,0,31.7,51.931,10.642,10.642,0,0,0,21.074,41.3" transform="translate(14.139 94.43)" fill="#12263f"/>
    <path id="Trazado_100699" data-name="Trazado 100699" d="M55.612,71.2a2.505,2.505,0,0,1-2.064-3.923l11.465-16.72a3.05,3.05,0,0,0-.144-3.307L54.453,32.35a3.651,3.651,0,0,0-6.116,3.98l7.269,12.027a2.508,2.508,0,0,1-.058,2.687L48.574,61.5a2.506,2.506,0,0,1-2.936.965,30.793,30.793,0,0,0-20.848,0,2.5,2.5,0,0,1-2.936-.965l-6.973-10.46a2.515,2.515,0,0,1-.061-2.687L22.092,36.33a3.651,3.651,0,0,0-6.116-3.98L5.559,47.247a3.068,3.068,0,0,0-.086,3.393l11.4,16.634a2.5,2.5,0,0,1-4.131,2.831L1.284,53.385a8.1,8.1,0,0,1,.169-9.009l10.417-14.9A8.66,8.66,0,0,1,26.379,38.92L19.931,49.589l5.036,7.55a35.832,35.832,0,0,1,20.5,0l5.032-7.55L44.05,38.92a8.66,8.66,0,0,1,14.509-9.441l10.417,14.9A8.072,8.072,0,0,1,69.2,53.3L57.68,70.109A2.509,2.509,0,0,1,55.612,71.2" transform="translate(-0.001 67.07)" fill="#12263f"/>
    <path id="Trazado_100700" data-name="Trazado 100700" d="M32.581,31.28a15.64,15.64,0,1,1,15.64-15.64,15.658,15.658,0,0,1-15.64,15.64m0-26.269A10.629,10.629,0,1,0,43.21,15.64,10.642,10.642,0,0,0,32.581,5.01" transform="translate(44.08 0.001)" fill="#12263f"/>
    <path id="Trazado_100701" data-name="Trazado 100701" d="M30.485,51.043c-.252,0-.508-.011-.764-.032a8.638,8.638,0,0,1-6.34-3.667l-10.417-14.9a8.078,8.078,0,0,1-.227-8.922L23.342,8.05a2.506,2.506,0,0,1,4.135,2.831L16.93,26.268a3.036,3.036,0,0,0,.14,3.307l10.417,14.9a3.651,3.651,0,0,0,6.116-3.98L26.332,28.466a2.515,2.515,0,0,1,.061-2.687l6.973-10.46a2.5,2.5,0,0,1,2.936-.965,30.793,30.793,0,0,0,20.848,0,2.5,2.5,0,0,1,2.932.965l6.977,10.46a2.508,2.508,0,0,1,.058,2.687L59.848,40.493a3.651,3.651,0,0,0,6.116,3.98l10.417-14.9a3.075,3.075,0,0,0,.086-3.393l-10.493-15.3A2.5,2.5,0,1,1,70.107,8.05L80.653,23.437a8.1,8.1,0,0,1-.166,9.009l-10.417,14.9A8.661,8.661,0,0,1,55.558,37.9l6.448-10.669-5.032-7.55a35.832,35.832,0,0,1-20.5,0l-5.036,7.55L37.891,37.9a8.661,8.661,0,0,1-7.406,13.14" transform="translate(29.935 18.109)" fill="#12263f"/>
    <path id="Trazado_100702" data-name="Trazado 100702" d="M7.937,60.374A2.506,2.506,0,0,1,5.43,57.867V14.117A2.509,2.509,0,0,1,7.937,11.61H29.823a2.505,2.505,0,0,1,0,5.01H10.44V57.867a2.5,2.5,0,0,1-2.5,2.507" transform="translate(14.129 30.21)" fill="#12263f"/>
    <path id="Trazado_100703" data-name="Trazado 100703" d="M54.059,60.374a2.5,2.5,0,0,1-2.5-2.507V16.62H32.177a2.505,2.505,0,1,1,0-5.01H54.059a2.506,2.506,0,0,1,2.5,2.507v43.75a2.5,2.5,0,0,1-2.5,2.507" transform="translate(77.201 30.21)" fill="#12263f"/>
    <path id="Trazado_100704" data-name="Trazado 100704" d="M40.491,21.093h-20.2a2.505,2.505,0,1,1,0-5.01h20.2a2.505,2.505,0,0,1,0,5.01" transform="translate(46.274 41.849)" fill="#12263f"/>
    <path id="Trazado_100705" data-name="Trazado 100705" d="M48.172,42.454H19.053a2.5,2.5,0,0,1-2.507-2.5V20.244a2.505,2.505,0,0,1,5.01,0v17.2H45.668V20.482a2.505,2.505,0,0,1,5.01,0V39.951a2.506,2.506,0,0,1-2.507,2.5" transform="translate(43.053 46.163)" fill="#12263f"/>
    <path id="Trazado_100706" data-name="Trazado 100706" d="M45.659,38.787h-26.2a2.505,2.505,0,0,1,0-5.01h26.2a2.505,2.505,0,0,1,0,5.01" transform="translate(44.106 87.889)" fill="#12263f"/>
  </g>
</svg>
