<svg xmlns="http://www.w3.org/2000/svg" xmlns:xlink="http://www.w3.org/1999/xlink" width="95" height="95" viewBox="0 0 95 95">
  <defs>
    <clipPath id="clip-path">
      <rect id="Rectángulo_34752" data-name="Rectángulo 34752" width="52.456" height="52.455" transform="translate(0 0)" fill="#12263f"/>
    </clipPath>
  </defs>
  <g id="Grupo_59082" data-name="Grupo 59082" transform="translate(-1173 -7156)">
    <circle id="Elipse_4072" data-name="Elipse 4072" cx="47.5" cy="47.5" r="47.5" transform="translate(1173 7156)" fill="#cce951"/>
    <g id="Grupo_58979" data-name="Grupo 58979" transform="translate(1194 7177)">
      <g id="Grupo_58978" data-name="Grupo 58978" clip-path="url(#clip-path)">
        <path id="Trazado_115110" data-name="Trazado 115110" d="M26.228,11.4a.844.844,0,0,1-.844-.844V.844a.844.844,0,1,1,1.688,0v9.707a.844.844,0,0,1-.844.844" fill="#12263f"/>
        <path id="Trazado_115111" data-name="Trazado 115111" d="M11.987,27.072H.844a.844.844,0,1,1,0-1.688H11.987a.844.844,0,0,1,0,1.688" fill="#12263f"/>
        <path id="Trazado_115112" data-name="Trazado 115112" d="M28.024,35.746A9.027,9.027,0,1,1,34.409,33.1a8.969,8.969,0,0,1-6.385,2.644m0-16.37a7.341,7.341,0,1,0,5.191,2.15,7.3,7.3,0,0,0-5.191-2.15" fill="#12263f"/>
        <path id="Trazado_115113" data-name="Trazado 115113" d="M46.862,49.442A3.856,3.856,0,0,1,44.116,48.3L33.854,38.044a12.751,12.751,0,1,1,5.495-5.495l10.262,10.26a3.886,3.886,0,0,1-2.749,6.633M34,36.155a.839.839,0,0,1,.6.247L45.309,47.111a2.251,2.251,0,0,0,3.108,0,2.2,2.2,0,0,0,0-3.108L37.708,33.294a.844.844,0,0,1-.132-1.021,11.061,11.061,0,1,0-4,4A.846.846,0,0,1,34,36.155" fill="#12263f"/>
        <path id="Trazado_115114" data-name="Trazado 115114" d="M37.371,41.21a.844.844,0,0,1-.6-1.441l4.3-4.3a.844.844,0,0,1,1.194,1.194l-4.3,4.3a.841.841,0,0,1-.6.247" fill="#12263f"/>
        <path id="Trazado_115115" data-name="Trazado 115115" d="M26.228,52.455a.844.844,0,0,1-.844-.844V41.9a.844.844,0,0,1,1.688,0v9.707a.844.844,0,0,1-.844.844" fill="#12263f"/>
        <path id="Trazado_115116" data-name="Trazado 115116" d="M51.612,27.561H39.93a.844.844,0,1,1,0-1.688H51.612a.844.844,0,1,1,0,1.688" fill="#12263f"/>
        <path id="Trazado_115117" data-name="Trazado 115117" d="M26.228,52.455a26.247,26.247,0,0,1-7.877-1.205.85.85,0,0,1-.339-.205c-5.123-5.052-8.3-14.561-8.3-24.818s3.182-19.766,8.3-24.818a.836.836,0,0,1,.339-.2,26.453,26.453,0,0,1,15.754,0,.836.836,0,0,1,.339.2c3.863,3.808,6.7,10.271,7.8,17.73a.844.844,0,0,1-1.671.245C39.544,12.375,36.936,6.33,33.4,2.755a24.769,24.769,0,0,0-14.35,0C14.325,7.538,11.4,16.5,11.4,26.227s2.93,18.69,7.658,23.473a24.769,24.769,0,0,0,14.35,0,20.081,20.081,0,0,0,3.007-4.006.844.844,0,1,1,1.458.851,21.559,21.559,0,0,1-3.423,4.5.86.86,0,0,1-.34.205,26.247,26.247,0,0,1-7.877,1.205" fill="#12263f"/>
        <path id="Trazado_115118" data-name="Trazado 115118" d="M26.228,42.749c-10.257,0-19.767-3.182-24.818-8.305a.836.836,0,0,1-.2-.339,26.327,26.327,0,0,1,0-15.754.847.847,0,0,1,.2-.34c5.051-5.122,14.561-8.3,24.818-8.3s19.767,3.182,24.818,8.3a.847.847,0,0,1,.2.34,26.327,26.327,0,0,1,0,15.754.836.836,0,0,1-.2.339,20.777,20.777,0,0,1-3.79,2.988.844.844,0,1,1-.9-1.431,19.307,19.307,0,0,0,3.34-2.6,24.657,24.657,0,0,0,0-14.35C44.918,14.325,35.951,11.4,26.228,11.4s-18.69,2.93-23.473,7.658a24.658,24.658,0,0,0,0,14.35c4.783,4.728,13.75,7.658,23.473,7.658a46.848,46.848,0,0,0,7.383-.577.844.844,0,1,1,.267,1.667,48.554,48.554,0,0,1-7.65.6" fill="#12263f"/>
        <path id="Trazado_115119" data-name="Trazado 115119" d="M35.9,35.95a.844.844,0,0,1-.6-1.441L37.709,32.1A.844.844,0,0,1,38.9,33.294L36.494,35.7a.841.841,0,0,1-.6.247" fill="#12263f"/>
        <path id="Trazado_115120" data-name="Trazado 115120" d="M26.228,52.455A26.238,26.238,0,1,1,47.44,41.646a.844.844,0,0,1-1.279.1l-8.452-8.453a.843.843,0,0,1-.133-1.021,11.063,11.063,0,1,0-4,4A.843.843,0,0,1,34.6,36.4l8.609,8.609a.842.842,0,0,1-.052,1.241,26.236,26.236,0,0,1-16.93,6.2m0-50.767A24.54,24.54,0,1,0,41.356,45.544l-7.5-7.5a12.748,12.748,0,1,1,5.5-5.495l7.292,7.293A24.535,24.535,0,0,0,26.228,1.688" fill="#12263f"/>
      </g>
    </g>
  </g>
</svg>
