<svg id="Grupo_56556" data-name="Grupo 56556" xmlns="http://www.w3.org/2000/svg" xmlns:xlink="http://www.w3.org/1999/xlink" width="118.045" height="89.985" viewBox="0 0 118.045 89.985">
  <defs>
    <clipPath id="clip-path">
      <rect id="Rectángulo_5262" data-name="Rectángulo 5262" width="118.045" height="89.985" fill="#12263f"/>
    </clipPath>
  </defs>
  <g id="Grupo_56555" data-name="Grupo 56555" transform="translate(0 0)" clip-path="url(#clip-path)">
    <path id="Trazado_100727" data-name="Trazado 100727" d="M33.325,47.387H1.931A1.931,1.931,0,0,1,0,45.453v-.914A23.223,23.223,0,0,1,40.342,28.846a1.932,1.932,0,1,1-2.847,2.611A19.362,19.362,0,0,0,3.889,43.522H33.325a1.932,1.932,0,1,1,0,3.864" transform="translate(0 37.898)" fill="#12263f"/>
    <path id="Trazado_100728" data-name="Trazado 100728" d="M16.062,36.043A12.034,12.034,0,1,1,28.1,24.008,12.049,12.049,0,0,1,16.062,36.043m0-20.2a8.17,8.17,0,1,0,8.17,8.17,8.18,8.18,0,0,0-8.17-8.17" transform="translate(7.162 21.29)" fill="#12263f"/>
    <path id="Trazado_100729" data-name="Trazado 100729" d="M57.4,49.077H14.818a1.93,1.93,0,0,1-1.931-1.931v-.914a23.223,23.223,0,1,1,46.445,0v.914A1.93,1.93,0,0,1,57.4,49.077M16.776,45.213H55.443a19.36,19.36,0,0,0-38.667,0" transform="translate(22.913 40.908)" fill="#12263f"/>
    <path id="Trazado_100730" data-name="Trazado 100730" d="M66.707,47.387H35.313a1.932,1.932,0,0,1,0-3.864H64.748A19.362,19.362,0,0,0,31.143,31.457,1.932,1.932,0,1,1,28.3,28.846,23.223,23.223,0,0,1,68.637,44.539v.914a1.931,1.931,0,0,1-1.931,1.933" transform="translate(49.408 37.898)" fill="#12263f"/>
    <path id="Trazado_100731" data-name="Trazado 100731" d="M41.834,36.043A12.034,12.034,0,1,1,53.868,24.008,12.046,12.046,0,0,1,41.834,36.043m0-20.2A8.17,8.17,0,1,0,50,24.008a8.18,8.18,0,0,0-8.17-8.17" transform="translate(52.988 21.29)" fill="#12263f"/>
    <path id="Trazado_100732" data-name="Trazado 100732" d="M28.949,37.735A12.034,12.034,0,1,1,40.984,25.7,12.047,12.047,0,0,1,28.949,37.735m0-20.2a8.17,8.17,0,1,0,8.17,8.17,8.18,8.18,0,0,0-8.17-8.17" transform="translate(30.075 24.298)" fill="#12263f"/>
    <path id="Trazado_100733" data-name="Trazado 100733" d="M48.965,25.339A1.927,1.927,0,0,1,47.879,25L41.839,20.9H32.433a5.072,5.072,0,0,1-5.067-5.067V8.515a5.072,5.072,0,0,1,5.067-5.067h13.4A5.072,5.072,0,0,1,50.9,8.515v14.89a1.933,1.933,0,0,1-1.931,1.933M32.433,7.312a1.2,1.2,0,0,0-1.2,1.2V15.83a1.2,1.2,0,0,0,1.2,1.2h10a1.941,1.941,0,0,1,1.086.333l3.514,2.389V8.515a1.206,1.206,0,0,0-1.206-1.2Z" transform="translate(48.657 6.131)" fill="#12263f"/>
    <path id="Trazado_100734" data-name="Trazado 100734" d="M8.49,25.339a1.933,1.933,0,0,1-1.931-1.933V8.515a5.072,5.072,0,0,1,5.067-5.067h13.4a5.072,5.072,0,0,1,5.067,5.067V15.83A5.072,5.072,0,0,1,25.022,20.9h-9.4L9.579,25a1.942,1.942,0,0,1-1.089.336M11.626,7.312a1.2,1.2,0,0,0-1.2,1.2v11.24l3.511-2.389a1.95,1.95,0,0,1,1.089-.333h10a1.2,1.2,0,0,0,1.2-1.2V8.515a1.2,1.2,0,0,0-1.2-1.2Z" transform="translate(11.662 6.131)" fill="#12263f"/>
    <path id="Trazado_100735" data-name="Trazado 100735" d="M29.918,27.419a1.932,1.932,0,0,1-1.556-.786l-4.2-5.7H21.359a5.072,5.072,0,0,1-5.067-5.067V5.067A5.072,5.072,0,0,1,21.359,0H38.48a5.072,5.072,0,0,1,5.067,5.067v10.8a5.072,5.072,0,0,1-5.067,5.067H35.435l-3.928,5.656a1.931,1.931,0,0,1-1.561.831ZM21.359,3.864a1.2,1.2,0,0,0-1.2,1.2v10.8a1.2,1.2,0,0,0,1.2,1.2h3.784a1.932,1.932,0,0,1,1.556.786l3.175,4.311L32.838,17.9a1.932,1.932,0,0,1,1.586-.831H38.48a1.2,1.2,0,0,0,1.2-1.2V5.067a1.2,1.2,0,0,0-1.2-1.2Z" transform="translate(28.967 0)" fill="#12263f"/>
    <path id="Trazado_100736" data-name="Trazado 100736" d="M27.932,6.583H21.226a1.932,1.932,0,0,1,0-3.864h6.706a1.932,1.932,0,1,1,0,3.864" transform="translate(34.306 4.835)" fill="#12263f"/>
    <path id="Trazado_100737" data-name="Trazado 100737" d="M38.336,9.82H31.63a1.932,1.932,0,0,1,0-3.864h6.706a1.932,1.932,0,0,1,0,3.864" transform="translate(52.805 10.59)" fill="#12263f"/>
    <path id="Trazado_100738" data-name="Trazado 100738" d="M17.4,9.82h-6.7a1.932,1.932,0,1,1,0-3.864h6.7a1.932,1.932,0,0,1,0,3.864" transform="translate(15.573 10.59)" fill="#12263f"/>
  </g>
</svg>
