<svg xmlns="http://www.w3.org/2000/svg" xmlns:xlink="http://www.w3.org/1999/xlink" width="105" height="105" viewBox="0 0 105 105">
  <defs>
    <clipPath id="clip-path">
      <rect id="Rect치ngulo_34828" data-name="Rect치ngulo 34828" width="76.591" height="48.556" fill="none"/>
    </clipPath>
    <clipPath id="clip-path-3">
      <rect id="Rect치ngulo_34826" data-name="Rect치ngulo 34826" width="14.566" height="35.822" fill="none"/>
    </clipPath>
  </defs>
  <g id="Grupo_59140" data-name="Grupo 59140" transform="translate(-275 -8241)">
    <circle id="Elipse_4084" data-name="Elipse 4084" cx="52.5" cy="52.5" r="52.5" transform="translate(275 8241)" fill="#1dd1ff"/>
    <g id="Grupo_59106" data-name="Grupo 59106" transform="translate(289 8269.243)">
      <g id="Grupo_59105" data-name="Grupo 59105" clip-path="url(#clip-path)">
        <g id="Grupo_59104" data-name="Grupo 59104" transform="translate(0 0)">
          <g id="Grupo_59103" data-name="Grupo 59103" clip-path="url(#clip-path)">
            <path id="Trazado_115702" data-name="Trazado 115702" d="M75.21,15.067a5.853,5.853,0,0,1-1.193.885L28.871,42.008c-2.848,1.654-7.159,1.828-9.641.4L1.429,32.136a4.641,4.641,0,0,1-.5-.346,6.587,6.587,0,0,1,1.193-.867L47.267,4.849c2.868-1.655,7.16-1.828,9.642-.4L74.71,14.72a4.759,4.759,0,0,1,.5.347" transform="translate(0.226 0.849)" fill="#3b4951"/>
            <path id="Trazado_115703" data-name="Trazado 115703" d="M76.591,13.644a3.147,3.147,0,0,1-1.155,2.271,5.819,5.819,0,0,1-1.193.885L29.1,42.857c-2.848,1.655-7.159,1.828-9.641.4L1.655,32.984a4.624,4.624,0,0,1-.5-.346A2.589,2.589,0,0,1,0,30.579c0-1.1.788-2.251,2.348-3.156L47.494,1.367c2.868-1.654,7.159-1.828,9.641-.4l17.8,10.276a2.848,2.848,0,0,1,1.655,2.405" transform="translate(0 0.001)" fill="#5d7280"/>
            <path id="Trazado_115704" data-name="Trazado 115704" d="M71.04,16.707l-42.1,24.3a9.87,9.87,0,0,1-8.933,0L4.344,31.967c-2.466-1.424-2.466-3.733,0-5.157l42.1-24.3a6.855,6.855,0,0,1,1.766-.711,8.665,8.665,0,0,1,1.684-.3A9.459,9.459,0,0,1,55.374,2.5L71.04,11.549c1.934,1.117,2.349,2.781,1.234,4.138a4.085,4.085,0,0,1-1.234,1.02" transform="translate(0.608 0.352)" fill="#fff"/>
            <path id="Trazado_115705" data-name="Trazado 115705" d="M63.317,15.687,39.251,1.793a9.978,9.978,0,0,1,7.167.711L62.083,11.55c1.934,1.117,2.349,2.781,1.234,4.138" transform="translate(9.564 0.352)" fill="#69c3fa"/>
            <path id="Trazado_115706" data-name="Trazado 115706" d="M55,7.473l-5.2-3,.677-.389,5.2,3Z" transform="translate(12.134 0.995)" fill="#3b4951"/>
            <path id="Trazado_115707" data-name="Trazado 115707" d="M54.7,9.98,46.273,5.117c-.3-.172-.259-.47.083-.669A1.289,1.289,0,0,1,47.516,4.4l8.422,4.861c.3.172.26.471-.083.669A1.285,1.285,0,0,1,54.7,9.98" transform="translate(11.227 1.045)" fill="#fff"/>
            <path id="Trazado_115708" data-name="Trazado 115708" d="M29.594,35.739l-.65.376a9.872,9.872,0,0,1-8.932,0L4.345,27.07c-2.466-1.424-2.466-3.733,0-5.157L5,21.538Z" transform="translate(0.608 5.249)" fill="#d7daff"/>
            <path id="Trazado_115709" data-name="Trazado 115709" d="M12.607,29.914l-1.869-1.079c-.55-.317-.48-.871.153-1.236a2.381,2.381,0,0,1,2.142-.088l1.869,1.08c.548.316.48.869-.153,1.236a2.381,2.381,0,0,1-2.142.088" transform="translate(2.526 6.652)" fill="#aeb2f4"/>
            <path id="Trazado_115710" data-name="Trazado 115710" d="M17.282,32.613l-.307-.178c-.548-.316-.48-.871.153-1.236a2.381,2.381,0,0,1,2.142-.088l.307.178c.55.316.48.869-.153,1.236a2.381,2.381,0,0,1-2.142.088" transform="translate(4.046 7.529)" fill="#aeb2f4"/>
            <path id="Trazado_115711" data-name="Trazado 115711" d="M5.756,25.959l.307.178a2.377,2.377,0,0,0,2.142-.09c.633-.366.7-.919.153-1.236l-.307-.177a2.378,2.378,0,0,0-2.14.088c-.634.366-.7.919-.154,1.236" transform="translate(1.312 5.951)" fill="#aeb2f4"/>
            <path id="Trazado_115712" data-name="Trazado 115712" d="M48.387,24.251l-21.642-12.5L41.652,3.15,63.3,15.645Z" transform="translate(6.517 0.768)" fill="#419ae8"/>
            <path id="Trazado_115713" data-name="Trazado 115713" d="M31.263,16.031l-7.273-4.2,1.523-.881,7.273,4.2Z" transform="translate(5.846 2.669)" fill="#3b4951"/>
            <path id="Trazado_115714" data-name="Trazado 115714" d="M35.416,18.429,31.054,15.91l1.525-.879,4.36,2.518Z" transform="translate(7.567 3.663)" fill="#3b4951"/>
            <path id="Trazado_115715" data-name="Trazado 115715" d="M43.734,25.333l-21.642-12.5.728-.42,21.642,12.5Z" transform="translate(5.383 3.026)" fill="#3b4951"/>
            <path id="Trazado_115716" data-name="Trazado 115716" d="M42.174,26.234l-21.642-12.5.728-.42L42.9,25.814Z" transform="translate(5.003 3.246)" fill="#3b4951"/>
            <path id="Trazado_115717" data-name="Trazado 115717" d="M40.613,27.136,18.971,14.64l.728-.42,21.642,12.5Z" transform="translate(4.623 3.465)" fill="#3b4951"/>
            <path id="Trazado_115718" data-name="Trazado 115718" d="M33.988,25.113,17.41,15.541l.728-.42,16.578,9.571Z" transform="translate(4.242 3.685)" fill="#3b4951"/>
            <path id="Trazado_115719" data-name="Trazado 115719" d="M21.363,30.364,11.692,24.78c-.74-.427-.647-1.173.206-1.665A3.2,3.2,0,0,1,14.784,23l9.672,5.583c.739.428.647,1.173-.208,1.667a3.21,3.21,0,0,1-2.885.119" transform="translate(2.727 5.533)" fill="#e50000"/>
            <path id="Trazado_115720" data-name="Trazado 115720" d="M19.991,28.453l-6.177-3.566c-.276-.16-.241-.439.078-.623a1.2,1.2,0,0,1,1.077-.045l6.177,3.567c.276.159.241.438-.077.622a1.2,1.2,0,0,1-1.078.045" transform="translate(3.321 5.876)" fill="#fff"/>
            <path id="Trazado_115721" data-name="Trazado 115721" d="M48.883,15.931a12.888,12.888,0,0,1-11.658,0c-3.22-1.859-3.22-4.873,0-6.731a12.88,12.88,0,0,1,11.658,0c3.22,1.858,3.22,4.871,0,6.731" transform="translate(8.482 1.902)" fill="#eaa73a"/>
            <path id="Trazado_115722" data-name="Trazado 115722" d="M48.162,15.519a1.464,1.464,0,0,1-.25.124,10.672,10.672,0,0,1-4.666,1.135c-.234,0-.466,0-.684-.009A10.49,10.49,0,0,1,37.9,15.654a1.969,1.969,0,0,1-.266-.134,1.451,1.451,0,0,1-.233-.154,3.583,3.583,0,0,1-1.934-2.694,2.926,2.926,0,0,1-.016-.394,3.688,3.688,0,0,1,1.966-2.7,1.336,1.336,0,0,1,.216-.144A1.969,1.969,0,0,1,37.9,9.3a10.772,10.772,0,0,1,4.666-1.135c.234,0,.45.01.684.01A10.6,10.6,0,0,1,47.895,9.3a1.915,1.915,0,0,1,.267.134,1.54,1.54,0,0,1,.233.154,3.657,3.657,0,0,1,1.951,2.685c0,.134.016.26.016.394a3.719,3.719,0,0,1-1.967,2.694,1.451,1.451,0,0,1-.233.154" transform="translate(8.637 1.991)" fill="#de8f00"/>
            <path id="Trazado_115723" data-name="Trazado 115723" d="M47.912,15.645l-4.666-2.694V16.78c-.234,0-.466,0-.684-.01V12.961L37.9,15.655a1.837,1.837,0,0,1-.266-.136,1.517,1.517,0,0,1-.234-.153l4.666-2.694h-6.6a2.909,2.909,0,0,1-.016-.394h6.632L37.413,9.583a1.26,1.26,0,0,1,.216-.144A1.717,1.717,0,0,1,37.9,9.3L42.562,12V8.169c.234,0,.45.009.684.009L43.229,12,47.895,9.3a1.677,1.677,0,0,1,.267.134,1.373,1.373,0,0,1,.233.154L43.73,12.287l6.615-.01c0,.136.017.26.017.394H43.729l4.666,2.694a1.54,1.54,0,0,1-.233.154,1.672,1.672,0,0,1-.25.124" transform="translate(8.637 1.991)" fill="#eaa73a"/>
            <path id="Trazado_115724" data-name="Trazado 115724" d="M44.941,12.629a1.273,1.273,0,0,1-1.153,0,.351.351,0,0,1,0-.665,1.273,1.273,0,0,1,1.153,0,.351.351,0,0,1,0,.665" transform="translate(10.611 2.882)" fill="#e50000"/>
            <path id="Trazado_115725" data-name="Trazado 115725" d="M38.2,12.708a1.273,1.273,0,0,1-1.153,0,.351.351,0,0,1,0-.665,1.273,1.273,0,0,1,1.153,0,.351.351,0,0,1,0,.665" transform="translate(8.97 2.901)" fill="#e50000"/>
            <path id="Trazado_115726" data-name="Trazado 115726" d="M42.684,10.656a1.273,1.273,0,0,1-1.153,0,.351.351,0,0,1,0-.665,1.273,1.273,0,0,1,1.153,0,.351.351,0,0,1,0,.665" transform="translate(10.061 2.401)" fill="#e50000"/>
            <path id="Trazado_115727" data-name="Trazado 115727" d="M39.717,14.012a1.273,1.273,0,0,1-1.153,0,.351.351,0,0,1,0-.665,1.273,1.273,0,0,1,1.153,0,.351.351,0,0,1,0,.665" transform="translate(9.339 3.219)" fill="#e50000"/>
            <path id="Trazado_115728" data-name="Trazado 115728" d="M45.459,11.366a1.273,1.273,0,0,1-1.153,0,.351.351,0,0,1,0-.665,1.273,1.273,0,0,1,1.153,0,.351.351,0,0,1,0,.665" transform="translate(10.738 2.574)" fill="#e50000"/>
            <path id="Trazado_115729" data-name="Trazado 115729" d="M39.466,11.031a1.273,1.273,0,0,1-1.153,0,.351.351,0,0,1,0-.665,1.273,1.273,0,0,1,1.153,0,.351.351,0,0,1,0,.665" transform="translate(9.277 2.493)" fill="#e50000"/>
            <path id="Trazado_115730" data-name="Trazado 115730" d="M43.252,13.88a.929.929,0,0,1-.9.343.361.361,0,0,1-.214-.608.928.928,0,0,1,.9-.343.36.36,0,0,1,.214.608" transform="translate(10.245 3.23)" fill="#3b4951"/>
            <path id="Trazado_115731" data-name="Trazado 115731" d="M40.98,14.9c-.45.114-.925.066-1.06-.109s.123-.41.573-.525.925-.067,1.06.108-.122.412-.573.526" transform="translate(9.719 3.461)" fill="#3b4951"/>
            <path id="Trazado_115732" data-name="Trazado 115732" d="M40.541,12.482a.93.93,0,0,1-.9.343.361.361,0,0,1-.214-.608.928.928,0,0,1,.9-.343.361.361,0,0,1,.214.608" transform="translate(9.585 2.889)" fill="#3b4951"/>
            <path id="Trazado_115733" data-name="Trazado 115733" d="M40.033,9.174c.437.132.667.376.514.546a1.228,1.228,0,0,1-1.07.07c-.437-.132-.667-.376-.514-.546a1.221,1.221,0,0,1,1.07-.07" transform="translate(9.483 2.216)" fill="#3b4951"/>
            <path id="Trazado_115734" data-name="Trazado 115734" d="M44.535,9.457a.433.433,0,0,1-.412.573.74.74,0,0,1-.766-.435.433.433,0,0,1,.412-.573.74.74,0,0,1,.766.435" transform="translate(10.558 2.198)" fill="#3b4951"/>
            <path id="Trazado_115735" data-name="Trazado 115735" d="M20.395,22.427a8,8,0,0,1-7.233,0c-2-1.153-2-3.022,0-4.176a7.992,7.992,0,0,1,7.233,0c2,1.153,2,3.022,0,4.175" transform="translate(2.842 4.237)" fill="#de8f00"/>
            <path id="Trazado_115736" data-name="Trazado 115736" d="M19.649,22a1.5,1.5,0,0,1-.233.116,6.736,6.736,0,0,1-5.6,0A1.409,1.409,0,0,1,13.582,22a.555.555,0,0,1-.2-.154,1.762,1.762,0,0,1-.017-3.224,1.081,1.081,0,0,1,.2-.134.865.865,0,0,1,.266-.116,6.623,6.623,0,0,1,5.567,0,.865.865,0,0,1,.266.116,1.147,1.147,0,0,1,.2.134,1.758,1.758,0,0,1-.016,3.224.559.559,0,0,1-.2.154" transform="translate(3.003 4.329)" fill="#eaa73a"/>
            <path id="Trazado_115737" data-name="Trazado 115737" d="M19.658,18.507,13.609,22a1.412,1.412,0,0,1-.234-.116.541.541,0,0,1-.2-.153l6.016-3.474a.836.836,0,0,1,.266.116,1.081,1.081,0,0,1,.2.134" transform="translate(3.211 4.449)" fill="#de8f00"/>
            <path id="Trazado_115738" data-name="Trazado 115738" d="M19.445,21.885a1.5,1.5,0,0,1-.233.116l-6.05-3.493a1.081,1.081,0,0,1,.2-.134.865.865,0,0,1,.266-.116l6.017,3.474a.559.559,0,0,1-.2.154" transform="translate(3.207 4.449)" fill="#de8f00"/>
            <path id="Trazado_115739" data-name="Trazado 115739" d="M34.337,28.884,20.984,21.174l.728-.42,13.353,7.709Z" transform="translate(5.113 5.058)" fill="#3b4951"/>
            <path id="Trazado_115740" data-name="Trazado 115740" d="M32.776,29.785,19.423,22.075l.728-.42L33.5,29.364Z" transform="translate(4.733 5.277)" fill="#3b4951"/>
            <path id="Trazado_115741" data-name="Trazado 115741" d="M28.091,28.882,17.862,22.976l.729-.42,10.228,5.906Z" transform="translate(4.352 5.497)" fill="#3b4951"/>
            <g id="Grupo_59102" data-name="Grupo 59102" transform="translate(35.934 1.846)" opacity="0.5">
              <g id="Grupo_59101" data-name="Grupo 59101">
                <g id="Grupo_59100" data-name="Grupo 59100" clip-path="url(#clip-path-3)">
                  <path id="Trazado_115742" data-name="Trazado 115742" d="M43.46,28.907l-14.548,8.4L28.894,8.912,40.009,2.5a6.866,6.866,0,0,1,1.767-.713,8.669,8.669,0,0,1,1.683-.3Z" transform="translate(-28.893 -1.484)" fill="#fff"/>
                </g>
              </g>
            </g>
            <path id="Trazado_115743" data-name="Trazado 115743" d="M76.591,10.971V15.32c0,1.1-.788,2.252-2.348,3.137L29.1,44.533a11.187,11.187,0,0,1-5.176,1.347,8.852,8.852,0,0,1-4.465-.961L1.655,34.642A2.848,2.848,0,0,1,0,32.236v-4.33a2.589,2.589,0,0,0,1.155,2.06,4.624,4.624,0,0,0,.5.346l17.8,10.276a8.84,8.84,0,0,0,4.465.963A10.981,10.981,0,0,0,29.1,40.183L74.243,14.127a5.819,5.819,0,0,0,1.193-.885,3.147,3.147,0,0,0,1.155-2.271" transform="translate(0 2.674)" fill="#3b4951"/>
            <path id="Trazado_115744" data-name="Trazado 115744" d="M71.9,10.971V15.32c0,1.1-.788,2.252-2.348,3.137L24.41,44.533a11.187,11.187,0,0,1-5.176,1.347V41.55a10.981,10.981,0,0,0,5.176-1.367L69.556,14.127a5.819,5.819,0,0,0,1.193-.885A3.147,3.147,0,0,0,71.9,10.971" transform="translate(4.687 2.674)" fill="#2c353b"/>
          </g>
        </g>
      </g>
    </g>
  </g>
</svg>
