<svg xmlns="http://www.w3.org/2000/svg" xmlns:xlink="http://www.w3.org/1999/xlink" width="105" height="105" viewBox="0 0 105 105">
  <defs>
    <clipPath id="clip-path">
      <rect id="Rectángulo_34825" data-name="Rectángulo 34825" width="71.773" height="47" fill="none"/>
    </clipPath>
    <clipPath id="clip-path-2">
      <rect id="Rectángulo_34824" data-name="Rectángulo 34824" width="71.772" height="47" fill="none"/>
    </clipPath>
    <clipPath id="clip-path-3">
      <rect id="Rectángulo_34823" data-name="Rectángulo 34823" width="32.69" height="27.494" fill="none"/>
    </clipPath>
  </defs>
  <g id="Grupo_59142" data-name="Grupo 59142" transform="translate(-905 -8243)">
    <circle id="Elipse_4086" data-name="Elipse 4086" cx="52.5" cy="52.5" r="52.5" transform="translate(905 8243)" fill="#1dd1ff"/>
    <g id="Grupo_59099" data-name="Grupo 59099" transform="translate(922 8272)">
      <g id="Grupo_59098" data-name="Grupo 59098" clip-path="url(#clip-path)">
        <g id="Grupo_59097" data-name="Grupo 59097" transform="translate(0 0)">
          <g id="Grupo_59096" data-name="Grupo 59096" clip-path="url(#clip-path-2)">
            <path id="Trazado_115654" data-name="Trazado 115654" d="M71.027,28.56a4.272,4.272,0,0,1-.652.476L46.14,43a5.933,5.933,0,0,1-5.372.229L.821,20.176A2.3,2.3,0,0,1,.557,20a2.663,2.663,0,0,1,.652-.494L25.426,5.522a6.02,6.02,0,0,1,5.39-.211L70.745,28.366a1.6,1.6,0,0,1,.282.194" transform="translate(0.094 0.804)" fill="#3b4951"/>
            <path id="Trazado_115655" data-name="Trazado 115655" d="M71.774,27.628a1.758,1.758,0,0,1-.653,1.285,4.12,4.12,0,0,1-.652.476L46.234,43.356a5.929,5.929,0,0,1-5.372.228L.916,20.53a2.222,2.222,0,0,1-.265-.176A1.479,1.479,0,0,1,0,19.313v-.352A2.452,2.452,0,0,1,1.3,17.43L25.52,3.445a5.972,5.972,0,0,1,5.391-.229L70.839,26.271a1.6,1.6,0,0,1,.935,1.356" transform="translate(0 0.451)" fill="#5d7280"/>
            <path id="Trazado_115656" data-name="Trazado 115656" d="M67.864,28.9,45.275,41.945a4,4,0,0,1-1.189.44L2.123,18.159a2.144,2.144,0,0,1,.763-.687L25.475,4.431Z" transform="translate(0.357 0.747)" fill="#7dea5d"/>
            <path id="Trazado_115657" data-name="Trazado 115657" d="M64.79,28.85l-.3.159-15.447-8.93-12.311-7.1L22.114,4.544l.282-.176a5.524,5.524,0,0,1,4.984.018l11.378,6.57,12.312,7.1,13.72,7.926c1.374.792,1.374,2.079,0,2.871" transform="translate(3.724 0.637)" fill="#fff"/>
            <path id="Trazado_115658" data-name="Trazado 115658" d="M33.312,10.437,24.558,5.382c-.377-.217-.331-.6.105-.851a1.641,1.641,0,0,1,1.473-.061L34.89,9.526c.379.218.331.6-.105.851a1.635,1.635,0,0,1-1.472.061" transform="translate(4.092 0.729)" fill="#d7daff"/>
            <path id="Trazado_115659" data-name="Trazado 115659" d="M42.776,15.9l-8.755-5.054c-.377-.217-.329-.6.106-.851A1.641,1.641,0,0,1,35.6,9.936l8.753,5.054c.377.217.331.6-.105.851a1.638,1.638,0,0,1-1.473.061" transform="translate(5.686 1.649)" fill="#d7daff"/>
            <path id="Trazado_115660" data-name="Trazado 115660" d="M57.492,24.4l-3.484-2.012c-.377-.217-.331-.6.105-.851a1.641,1.641,0,0,1,1.473-.061l3.484,2.012c.377.217.331.6-.105.851a1.638,1.638,0,0,1-1.473.061" transform="translate(9.051 3.592)" fill="#ed484f"/>
            <path id="Trazado_115661" data-name="Trazado 115661" d="M44.117,40.413a5.485,5.485,0,0,1-3.77-.44l-6.27-3.61L21.783,29.246,2.937,18.379c-1.021-.6-1.286-1.462-.776-2.2L22.876,28.154l12.31,7.1Z" transform="translate(0.321 2.724)" fill="#6fd450"/>
            <path id="Trazado_115662" data-name="Trazado 115662" d="M58.293,27.849l-13.163,7.6c-1.892-.511-3.509-1.285-2.975-2.351,1.144-2.281-6.7-2.457-7.429-5.434-.748-2.968,10.555,2.554,11.227-1.619.518-3.241,8.77.22,12.339,1.805" transform="translate(5.841 4.16)" fill="#69c3fa"/>
            <path id="Trazado_115663" data-name="Trazado 115663" d="M13.851,27.158l-1.571-.907c6.33-6.3,5.079-13.695,3.63-17.79l1.814-1.048c1.617,4.14,3.554,12.62-3.873,19.744" transform="translate(2.068 1.249)" fill="#69c3fa"/>
            <path id="Trazado_115664" data-name="Trazado 115664" d="M13.668,11.779l.6,3.155-3.883.492-.176-2.873Z" transform="translate(1.719 1.984)" fill="#d7daff"/>
            <path id="Trazado_115665" data-name="Trazado 115665" d="M14.327,15.728l-.779,2.665-2.521-.373.735-2.371Z" transform="translate(1.857 2.636)" fill="#d7daff"/>
            <path id="Trazado_115666" data-name="Trazado 115666" d="M7.454,18.246l-1.68-.97,3.049-1.761,1.68.97Z" transform="translate(0.972 2.613)" fill="#d7daff"/>
            <path id="Trazado_115667" data-name="Trazado 115667" d="M9.086,19l1.68-.97,3.049,1.761-1.68.97Z" transform="translate(1.53 3.036)" fill="#d7daff"/>
            <path id="Trazado_115668" data-name="Trazado 115668" d="M19.525,29.653l-.809-.467c8.48-8.277,3.2-19.6,1.112-23.275l.855-.493a27,27,0,0,1,3.752,11.872,4.166,4.166,0,0,1,0,.616,15.378,15.378,0,0,1-4.911,11.748" transform="translate(3.151 0.913)" fill="#aeb2f4"/>
            <path id="Trazado_115669" data-name="Trazado 115669" d="M44.352,15.574a41.74,41.74,0,0,1-8.313,1.136c-.366.018-.731.035-1.083.044A81.109,81.109,0,0,1,23.7,16.279c-.336-.035-.534-.062-.61-.071l.243-.6c.015.008.153.018.367.053,2.1.229,12.294,1.233,19.8-.581Z" transform="translate(3.888 2.54)" fill="#aeb2f4"/>
            <path id="Trazado_115670" data-name="Trazado 115670" d="M34.225,22.643c1.316-1.795-1.083-6.267-1.109-6.313l1.032-.186c.1.193,2.539,4.737,1.069,6.742Z" transform="translate(5.576 2.719)" fill="#aeb2f4"/>
            <path id="Trazado_115671" data-name="Trazado 115671" d="M26.5,30.891l-.9-.52a11.626,11.626,0,0,1,3.2-4.438l.887.369a10.273,10.273,0,0,0-2.746,3.647c-.107.2-.214.4-.306.616-.047.114-.106.221-.137.326" transform="translate(4.31 4.367)" fill="#aeb2f4"/>
            <path id="Trazado_115672" data-name="Trazado 115672" d="M26.023,30.363l.262-.6a8.337,8.337,0,0,0,7.177-2.9l.974.27c-3.273,3.928-8.361,3.24-8.413,3.232" transform="translate(4.382 4.523)" fill="#aeb2f4"/>
            <path id="Trazado_115673" data-name="Trazado 115673" d="M27.823,19.45l-3.2-.218.321-1.563,3.2.218Z" transform="translate(4.146 2.975)" fill="#d7daff"/>
            <path id="Trazado_115674" data-name="Trazado 115674" d="M27.93,21.763l-3.2-.218.321-1.563,3.2.218Z" transform="translate(4.164 3.365)" fill="#d7daff"/>
            <path id="Trazado_115675" data-name="Trazado 115675" d="M26.225,24.332l-2.812-.908,1.331-1.374,2.812.908Z" transform="translate(3.942 3.713)" fill="#d7daff"/>
            <path id="Trazado_115676" data-name="Trazado 115676" d="M32.626,19.32l-3.219.082-.12-1.571,3.219-.083Z" transform="translate(4.931 2.989)" fill="#d7daff"/>
            <path id="Trazado_115677" data-name="Trazado 115677" d="M32.092,21.878l-3.219.082-.12-1.571,3.219-.083Z" transform="translate(4.841 3.419)" fill="#d7daff"/>
            <path id="Trazado_115678" data-name="Trazado 115678" d="M31.008,24.847l-2.922-.784,1.147-1.427,2.923.783Z" transform="translate(4.729 3.812)" fill="#d7daff"/>
            <path id="Trazado_115679" data-name="Trazado 115679" d="M25.9,9.562,22.98,8.778l1.149-1.427,2.922.783Z" transform="translate(3.869 1.238)" fill="#d7daff"/>
            <path id="Trazado_115680" data-name="Trazado 115680" d="M39.6,35.21l-2.922-.784L37.826,33l2.923.783Z" transform="translate(6.176 5.557)" fill="#d7daff"/>
            <path id="Trazado_115681" data-name="Trazado 115681" d="M42.426,16.773l-5.584.821.519,1.45,5.668-.876Z" transform="translate(6.204 2.825)" fill="#d7daff"/>
            <path id="Trazado_115682" data-name="Trazado 115682" d="M43.545,18.968l-5.584.821.52,1.45,5.667-.876Z" transform="translate(6.392 3.194)" fill="#d7daff"/>
            <path id="Trazado_115683" data-name="Trazado 115683" d="M44.566,21.724l-5.752-.2L38.545,23l5.861.159Z" transform="translate(6.49 3.625)" fill="#d7daff"/>
            <path id="Trazado_115684" data-name="Trazado 115684" d="M38.713,31.307,34.4,29.1l-1.786,1.063,4.44,2.214Z" transform="translate(5.491 4.9)" fill="#d7daff"/>
            <path id="Trazado_115685" data-name="Trazado 115685" d="M36.576,32.691l-4.314-2.206-1.786,1.063,4.44,2.214Z" transform="translate(5.131 5.133)" fill="#d7daff"/>
            <path id="Trazado_115686" data-name="Trazado 115686" d="M25.48,9.977l.086,4.969,2.07.054.333-4.724Z" transform="translate(4.29 1.68)" fill="#d7daff"/>
            <path id="Trazado_115687" data-name="Trazado 115687" d="M29.091,10.58l2.07,4.824L33.2,15.18l-1.563-4.641Z" transform="translate(4.898 1.775)" fill="#d7daff"/>
            <path id="Trazado_115688" data-name="Trazado 115688" d="M71.774,25.23v2.448a2.2,2.2,0,0,1-1.305,1.744L46.234,43.407a5.651,5.651,0,0,1-2.607.722,4.827,4.827,0,0,1-2.766-.493L.916,20.563A1.6,1.6,0,0,1,0,19.347V16.916a1.479,1.479,0,0,0,.651,1.04,2.222,2.222,0,0,0,.265.176L40.862,41.187a4.828,4.828,0,0,0,2.766.512,5.619,5.619,0,0,0,2.607-.74L70.468,26.991a4.12,4.12,0,0,0,.652-.476,1.758,1.758,0,0,0,.653-1.285" transform="translate(0 2.849)" fill="#3b4951"/>
            <path id="Trazado_115689" data-name="Trazado 115689" d="M65.486,24.032V26.48a2.2,2.2,0,0,1-1.305,1.744L39.947,42.208a5.651,5.651,0,0,1-2.607.722V40.5a5.619,5.619,0,0,0,2.607-.74L64.181,25.793a4.12,4.12,0,0,0,.652-.476,1.758,1.758,0,0,0,.653-1.285" transform="translate(6.287 4.047)" fill="#2c353b"/>
            <path id="Trazado_115690" data-name="Trazado 115690" d="M21.547,8.67a.439.439,0,0,1-.411-.284c-.19-.5-.311-.806-.313-.809a.443.443,0,0,1,.247-.573.448.448,0,0,1,.573.247s.123.31.317.821a.441.441,0,0,1-.255.568.413.413,0,0,1-.157.029" transform="translate(3.501 1.175)" fill="#ed484f"/>
            <path id="Trazado_115691" data-name="Trazado 115691" d="M42.631,28.56c-.273,0-.543-.007-.812-.021a.443.443,0,0,1-.416-.465.416.416,0,0,1,.465-.416,14.983,14.983,0,0,0,1.7-.008.449.449,0,0,1,.466.414.444.444,0,0,1-.415.466q-.5.03-.986.03m-2.518-.216a.429.429,0,0,1-.077-.006,9.849,9.849,0,0,1-1.765-.479.44.44,0,0,1-.252-.569.432.432,0,0,1,.569-.252,9.1,9.1,0,0,0,1.6.433.44.44,0,0,1-.077.873m5.21-.02a.44.44,0,0,1-.077-.874,11.533,11.533,0,0,0,1.628-.411.441.441,0,1,1,.282.835,12.457,12.457,0,0,1-1.755.443.43.43,0,0,1-.077.007m-8.389-1.319a.444.444,0,0,1-.3-.123,2.227,2.227,0,0,1-.747-1.622,2.049,2.049,0,0,1,.025-.327.441.441,0,0,1,.87.138.855.855,0,0,0-.014.18,1.358,1.358,0,0,0,.474.994.441.441,0,0,1-.3.759m-.322-3.285a.359.359,0,0,1-.062-.006.439.439,0,0,1-.374-.5,11.731,11.731,0,0,0,.146-1.65.452.452,0,0,1,.44-.452.43.43,0,0,1,.44.426v.026a12.261,12.261,0,0,1-.157,1.774.439.439,0,0,1-.435.379m-.143-3.447a.441.441,0,0,1-.414-.29,6.6,6.6,0,0,0-.773-1.434.441.441,0,0,1,.113-.613.446.446,0,0,1,.612.115,7.318,7.318,0,0,1,.874,1.63.439.439,0,0,1-.262.564.435.435,0,0,1-.151.028M25.923,18.415a.441.441,0,0,1-.072-.876c.5-.082,1.068-.213,1.672-.362a.43.43,0,0,1,.533.32.437.437,0,0,1-.32.533c-.631.157-1.221.294-1.74.38a.518.518,0,0,1-.072.006m-1.707-.084a.437.437,0,0,1-.254-.082,1.1,1.1,0,0,1-.45-.96c.006-.091.007-.153.007-.217a5.37,5.37,0,0,0-.058-.783.441.441,0,1,1,.874-.117,6.839,6.839,0,0,1,.065.9c0,.084,0,.167-.008.247,0,.154.058.194.078.209a.441.441,0,0,1-.255.8m5.113-.7a.44.44,0,0,1-.1-.869c.582-.138,1.17-.263,1.74-.358a.452.452,0,0,1,.507.363.443.443,0,0,1-.363.507c-.551.091-1.119.213-1.684.344a.414.414,0,0,1-.1.013m5.141-.155a.456.456,0,0,1-.208-.051,3.24,3.24,0,0,0-1.49-.3.44.44,0,0,1,0-.881h0a4.063,4.063,0,0,1,1.9.4.441.441,0,0,1-.208.83M23.563,14.958a.44.44,0,0,1-.428-.338c-.13-.536-.284-1.1-.451-1.665a.441.441,0,0,1,.846-.248c.171.58.328,1.157.462,1.707a.44.44,0,0,1-.326.53.382.382,0,0,1-.1.013m-.98-3.351a.439.439,0,0,1-.418-.3c-.19-.58-.383-1.137-.562-1.643a.44.44,0,1,1,.828-.3c.182.512.379,1.076.57,1.663a.441.441,0,0,1-.28.556.447.447,0,0,1-.138.022" transform="translate(3.633 1.528)" fill="#ed484f"/>
            <path id="Trazado_115692" data-name="Trazado 115692" d="M44.8,24.762a.441.441,0,0,1-.225-.819,5.321,5.321,0,0,0,.669-.467.441.441,0,0,1,.561.681,6.546,6.546,0,0,1-.779.543.449.449,0,0,1-.225.062" transform="translate(7.47 3.937)" fill="#ed484f"/>
            <path id="Trazado_115693" data-name="Trazado 115693" d="M21.4.137,22.682.88a1.437,1.437,0,0,0-1.448.143L19.955.279A1.434,1.434,0,0,1,21.4.137" transform="translate(3.36 0)" fill="#ed484f"/>
            <path id="Trazado_115694" data-name="Trazado 115694" d="M21.342.915c1.124-.648,2.036-.129,2.041,1.163s-1.918,6.051-2.02,6.3c-.1-.133-2.045-2.66-2.048-3.953A4.465,4.465,0,0,1,21.342.915" transform="translate(3.252 0.108)" fill="#b70000"/>
            <path id="Trazado_115695" data-name="Trazado 115695" d="M21.548,8.446,20.268,7.7c-.1-.133-2.045-2.662-2.048-3.953A4.463,4.463,0,0,1,20.247.239l1.279.743A4.465,4.465,0,0,0,19.5,4.493c0,1.292,1.945,3.819,2.048,3.953" transform="translate(3.068 0.041)" fill="#ed484f"/>
            <path id="Trazado_115696" data-name="Trazado 115696" d="M22.833,2.3a3.305,3.305,0,0,1-1.494,2.589c-.826.477-1.5.091-1.5-.863a3.3,3.3,0,0,1,1.5-2.589c.825-.477,1.494-.09,1.494.863" transform="translate(3.341 0.208)" fill="#fff"/>
            <g id="Grupo_59095" data-name="Grupo 59095" transform="translate(22.104 11.592)" opacity="0.3">
              <g id="Grupo_59094" data-name="Grupo 59094">
                <g id="Grupo_59093" data-name="Grupo 59093" clip-path="url(#clip-path-3)">
                  <path id="Trazado_115697" data-name="Trazado 115697" d="M51.608,17.019l-20.4,20.4L18.918,30.3,39.3,9.922Z" transform="translate(-18.918 -9.921)" fill="#fff"/>
                </g>
              </g>
            </g>
            <path id="Trazado_115698" data-name="Trazado 115698" d="M46.23,17l1.279.743a1.437,1.437,0,0,0-1.448.143l-1.279-.743A1.434,1.434,0,0,1,46.23,17" transform="translate(7.54 2.84)" fill="#ed484f"/>
            <path id="Trazado_115699" data-name="Trazado 115699" d="M46.169,17.778c1.124-.648,2.036-.129,2.04,1.163s-1.917,6.05-2.019,6.3c-.1-.133-2.045-2.66-2.048-3.953a4.465,4.465,0,0,1,2.027-3.511" transform="translate(7.433 2.947)" fill="#b70000"/>
            <path id="Trazado_115700" data-name="Trazado 115700" d="M46.375,25.309,45.1,24.566c-.1-.133-2.045-2.66-2.048-3.953A4.465,4.465,0,0,1,45.074,17.1l1.279.743a4.467,4.467,0,0,0-2.027,3.511c0,1.292,1.947,3.819,2.048,3.953" transform="translate(7.248 2.88)" fill="#ed484f"/>
            <path id="Trazado_115701" data-name="Trazado 115701" d="M47.66,19.165a3.3,3.3,0,0,1-1.5,2.589c-.825.477-1.494.091-1.494-.862a3.308,3.308,0,0,1,1.494-2.59c.826-.477,1.5-.09,1.5.863" transform="translate(7.522 3.048)" fill="#fff"/>
          </g>
        </g>
      </g>
    </g>
  </g>
</svg>
