<svg xmlns="http://www.w3.org/2000/svg" xmlns:xlink="http://www.w3.org/1999/xlink" width="118.045" height="118.045" viewBox="0 0 118.045 118.045">
  <defs>
    <clipPath id="clip-path">
      <rect id="Rectángulo_5263" data-name="Rectángulo 5263" width="118.045" height="118.045" fill="#12263f"/>
    </clipPath>
  </defs>
  <g id="Grupo_56557" data-name="Grupo 56557" clip-path="url(#clip-path)">
    <path id="Trazado_100739" data-name="Trazado 100739" d="M59.025,44.793H15.3a1.822,1.822,0,0,1-1.823-1.823A23.417,23.417,0,0,1,30.118,20.586,1.825,1.825,0,1,1,31.2,24.071a19.81,19.81,0,0,0-14,17.075H57.119A20.318,20.318,0,0,0,44.382,24.029a1.823,1.823,0,1,1,1.314-3.4A24.017,24.017,0,0,1,60.848,42.97a1.822,1.822,0,0,1-1.823,1.823" transform="translate(21.86 33.265)" fill="#12263f"/>
    <path id="Trazado_100740" data-name="Trazado 100740" d="M30.08,35.239A12.241,12.241,0,1,1,42.322,23,12.255,12.255,0,0,1,30.08,35.239m0-20.835A8.594,8.594,0,1,0,38.674,23,8.6,8.6,0,0,0,30.08,14.4" transform="translate(28.942 17.45)" fill="#12263f"/>
    <path id="Trazado_100741" data-name="Trazado 100741" d="M58.989,118.046a14.811,14.811,0,0,1-1.629-.092A14.341,14.341,0,0,1,45.866,97.982a1.426,1.426,0,0,0-1.311-1.993H23.88a1.823,1.823,0,0,1-1.823-1.825V73.494a1.43,1.43,0,0,0-.656-1.212,1.373,1.373,0,0,0-1.309-.113,14.217,14.217,0,0,1-5.748,1.2,14.349,14.349,0,1,1,5.719-27.507,1.424,1.424,0,0,0,1.993-1.309V23.883a1.824,1.824,0,0,1,1.823-1.825H44.552a1.44,1.44,0,0,0,1.214-.656,1.361,1.361,0,0,0,.11-1.306,14.351,14.351,0,0,1,3.59-16.45A14.344,14.344,0,0,1,72.179,20.065a1.426,1.426,0,0,0,1.311,1.993H94.163a1.827,1.827,0,0,1,1.825,1.825V44.555a1.426,1.426,0,0,0,1.993,1.311,14.346,14.346,0,1,1,5.719,27.5,14.208,14.208,0,0,1-5.748-1.2,1.366,1.366,0,0,0-1.309.113,1.43,1.43,0,0,0-.656,1.212v20.67a1.825,1.825,0,0,1-1.825,1.825H73.493a1.44,1.44,0,0,0-1.214.656,1.369,1.369,0,0,0-.11,1.306,14.355,14.355,0,0,1-3.59,16.453,14.408,14.408,0,0,1-9.59,3.643M25.7,92.341h18.85a5.074,5.074,0,0,1,4.655,7.1,10.693,10.693,0,0,0,8.56,14.887A10.7,10.7,0,0,0,68.828,99.419a5,5,0,0,1,.4-4.768,5.075,5.075,0,0,1,4.267-2.31H92.34V73.494a5.079,5.079,0,0,1,2.308-4.267,5,5,0,0,1,4.77-.4,10.6,10.6,0,0,0,4.282.894,10.716,10.716,0,0,0,7.98-3.574,10.609,10.609,0,0,0,2.646-8.379,10.692,10.692,0,0,0-14.887-8.56,5.073,5.073,0,0,1-7.1-4.655V25.705H73.491a5.072,5.072,0,0,1-4.652-7.1A10.7,10.7,0,0,0,60.274,3.716,10.7,10.7,0,0,0,49.217,18.627a5,5,0,0,1-.4,4.768,5.075,5.075,0,0,1-4.267,2.31H25.7v18.85a5.072,5.072,0,0,1-7.1,4.652A10.7,10.7,0,0,0,3.716,57.77,10.7,10.7,0,0,0,18.627,68.828a5.011,5.011,0,0,1,4.768.4,5.075,5.075,0,0,1,2.31,4.267Z" transform="translate(0 -0.001)" fill="#12263f"/>
    <path id="Trazado_100742" data-name="Trazado 100742" d="M12.924,25.221A1.822,1.822,0,0,1,11.1,23.4V13.184a1.824,1.824,0,0,1,1.823-1.825h9.241a1.824,1.824,0,0,1,0,3.648H14.749V23.4a1.824,1.824,0,0,1-1.825,1.823" transform="translate(18.01 18.428)" fill="#12263f"/>
    <path id="Trazado_100743" data-name="Trazado 100743" d="M40.063,25.221A1.824,1.824,0,0,1,38.238,23.4V15.007H30.822a1.824,1.824,0,0,1,0-3.648h9.241a1.824,1.824,0,0,1,1.823,1.825V23.4a1.822,1.822,0,0,1-1.823,1.823" transform="translate(47.048 18.428)" fill="#12263f"/>
    <path id="Trazado_100744" data-name="Trazado 100744" d="M40.063,42.231H30.822a1.824,1.824,0,0,1,0-3.648h7.416V30.194a1.824,1.824,0,1,1,3.648,0V40.409a1.822,1.822,0,0,1-1.823,1.823" transform="translate(47.048 46.026)" fill="#12263f"/>
    <path id="Trazado_100745" data-name="Trazado 100745" d="M22.165,42.231H12.924A1.822,1.822,0,0,1,11.1,40.409V30.194a1.824,1.824,0,1,1,3.648,0v8.389h7.416a1.824,1.824,0,0,1,0,3.648" transform="translate(18.01 46.026)" fill="#12263f"/>
  </g>
</svg>
