<svg xmlns="http://www.w3.org/2000/svg" xmlns:xlink="http://www.w3.org/1999/xlink" width="74" height="74" viewBox="0 0 74 74">
  <defs>
    <clipPath id="clip-path">
      <rect id="Rectángulo_34773" data-name="Rectángulo 34773" width="31.105" height="56.297" fill="none"/>
    </clipPath>
  </defs>
  <g id="Grupo_59148" data-name="Grupo 59148" transform="translate(-296 -10276)">
    <g id="Elipse_4078" data-name="Elipse 4078" transform="translate(296 10276)" fill="#fff" stroke="#12263f" stroke-width="3">
      <circle cx="37" cy="37" r="37" stroke="none"/>
      <circle cx="37" cy="37" r="35.5" fill="none"/>
    </g>
    <g id="Grupo_58993" data-name="Grupo 58993" transform="translate(317 10285)">
      <g id="Grupo_58992" data-name="Grupo 58992" clip-path="url(#clip-path)">
        <path id="Trazado_115157" data-name="Trazado 115157" d="M2.708,15.568C.4,11.909,1.114,8.947,4.975,9.194,4.413,6.342,6.347,3.153,9.74,4.506c.094-2.109,2.221-3.224,3.985-3.1a3.612,3.612,0,0,1,2.655,2.185,4.635,4.635,0,0,1,6.945,3.029c.276,2.14,1.454,11.043,1.454,11.043,2.282-.972,3.676-.132,4.271,1.519.551,1.226,2.977,9.133,2.756,10.236a10.121,10.121,0,0,1-2.26,3.739c-1.1,1.348-6.45,9.072-6.615,9.93s1.874,7.539,2.536,12.364a21.636,21.636,0,0,1-16.2,0S8.828,44.3,7.426,43.966c-2.347-.555-4.515-9.142-4.849-13.973s.131-14.425.131-14.425Z" transform="translate(-1.052 -1.054)" fill="#ffb681"/>
        <path id="Trazado_115158" data-name="Trazado 115158" d="M16.372,56.3A21.494,21.494,0,0,1,8.063,54.7a.342.342,0,0,1-.2-.3c0-.027-.108-2.738-.379-5.486-.516-5.229-1.13-5.649-1.2-5.68C3.583,42.6,1.5,33.473,1.184,28.963S1.26,15.676,1.309,14.6C-.028,12.444-.359,10.478.4,9.2A3.279,3.279,0,0,1,3.521,7.784,4.832,4.832,0,0,1,5.01,3.554,3.507,3.507,0,0,1,8.4,2.988a3.3,3.3,0,0,1,1.083-1.9A4.515,4.515,0,0,1,12.7.01a3.678,3.678,0,0,1,2.767,2.034,4.857,4.857,0,0,1,4.253-.111,4.621,4.621,0,0,1,2.894,3.582c.239,1.85,1.159,8.809,1.4,10.617a3.582,3.582,0,0,1,2.658-.046A3.153,3.153,0,0,1,28.313,18c.52,1.172,3.021,9.2,2.774,10.431a10.461,10.461,0,0,1-2.331,3.888c-1.267,1.55-6.387,9.038-6.544,9.779a27.505,27.505,0,0,0,.83,4.032c.6,2.5,1.351,5.614,1.709,8.221a.342.342,0,0,1-.21.363,21.618,21.618,0,0,1-8.17,1.585m-7.832-2.13a21.573,21.573,0,0,0,15.5.01c-.366-2.518-1.081-5.487-1.659-7.889-.626-2.6-.923-3.871-.836-4.321.194-1.007,5.766-8.957,6.686-10.081a9.993,9.993,0,0,0,2.19-3.59c.188-.941-2.119-8.664-2.733-10.029a.232.232,0,0,1-.01-.024,2.468,2.468,0,0,0-1.283-1.531,3.2,3.2,0,0,0-2.533.21.342.342,0,0,1-.473-.269c-.012-.089-1.181-8.928-1.454-11.044a3.95,3.95,0,0,0-2.484-3.047,4.123,4.123,0,0,0-3.924.251.341.341,0,0,1-.507-.131A3.265,3.265,0,0,0,12.641.691a3.8,3.8,0,0,0-2.708.9,2.626,2.626,0,0,0-.9,1.875.341.341,0,0,1-.467.3,2.933,2.933,0,0,0-3.115.31A4.216,4.216,0,0,0,4.257,8.074a.342.342,0,0,1-.357.407C2.462,8.388,1.457,8.758.988,9.548c-.624,1.05-.269,2.834.949,4.772A.342.342,0,0,1,2,14.53c0,.1-.46,9.629-.131,14.385.35,5.05,2.543,13.181,4.587,13.664.362.086,1.113.263,1.7,6.164.236,2.358.353,4.714.384,5.423" transform="translate(0 0)" fill="#734c37"/>
        <path id="Trazado_115159" data-name="Trazado 115159" d="M62.252,19.31a2.63,2.63,0,0,1-.74.285,2.294,2.294,0,0,1-.483.053,2.1,2.1,0,0,1-.836-.171,2.715,2.715,0,0,1-.988-.758,4.562,4.562,0,0,1-.519-.763,9.507,9.507,0,0,1-.849-2.323c-.014-.057-.027-.112-.041-.166-.808-3.352-.84-4.547-.171-5.734a2.72,2.72,0,0,1,.606-.744.341.341,0,1,1,.446.517,2.121,2.121,0,0,0-.458.562c-.567,1.006-.505,2.168.28,5.392,0,0,0,.007,0,.011a8.641,8.641,0,0,0,.82,2.218c.007.009.011.02.018.032a2.547,2.547,0,0,0,1.123,1.127,1.479,1.479,0,0,0,1,.057,1.918,1.918,0,0,0,.446-.187c1.173-.672.981-1.965.71-3.122l-.018-.08c-.294-1.259-.774-2.865-.779-2.881a.343.343,0,0,1,.073-.328l.72-.8a.342.342,0,1,1,.508.458l-.592.656c.137.465.5,1.712.736,2.739l.018.077c.221.938.679,2.89-1.036,3.871" transform="translate(-43.172 -6.726)" fill="#734c37"/>
        <path id="Trazado_115160" data-name="Trazado 115160" d="M29.421,54.4c-.347,3.346-4.617,4.391-6.433.354-.073-.159-.2-.652-.014-.732a.341.341,0,0,1,.451.171c1.71,3.763,5.511,2.511,5.324-.312a.676.676,0,0,0-.007-.087.342.342,0,0,1,.679-.089,2.937,2.937,0,0,1,0,.695" transform="translate(-17.282 -40.343)" fill="#734c37"/>
        <path id="Trazado_115161" data-name="Trazado 115161" d="M41.836,20.716a3.008,3.008,0,0,1-.171.833,3.642,3.642,0,0,1-1.671,2,2.361,2.361,0,0,1-1.186.339,2.086,2.086,0,0,1-.813-.166,2.006,2.006,0,0,1-.223-.109A2.847,2.847,0,0,1,37.1,23.1a6.274,6.274,0,0,1-1.4-2.782c-.007-.032-.016-.064-.025-.1-.228-.861-.451-1.646-.647-2.341a28.255,28.255,0,0,1-1.088-4.848.341.341,0,0,1,.679-.068,27.949,27.949,0,0,0,1.068,4.73c.189.672.4,1.43.624,2.259.009.03.016.062.025.093.43,1.63,1.116,2.714,1.927,3.051a1.517,1.517,0,0,0,1.4-.134,2.927,2.927,0,0,0,1.494-2.172c0-.053.007-.084.007-.091a.348.348,0,0,1,.353-.33.341.341,0,0,1,.276.155c.007.009.011.02.018.032a.335.335,0,0,1,.036.164" transform="translate(-25.631 -9.558)" fill="#734c37"/>
        <path id="Trazado_115162" data-name="Trazado 115162" d="M68.964,101.3v0a.344.344,0,0,1-.034.2.328.328,0,0,1-.075.1.206.206,0,0,1-.025.021.3.3,0,0,1-.057.034l-.034.014a.037.037,0,0,1-.023.007c-6.651,2.081-7.765,10.151-7.9,11.424,0,.011,0,.023,0,.032-.007.082-.011.13-.011.137a.341.341,0,0,1-.339.319l-.025,0a.34.34,0,0,1-.317-.364c0-.009.009-.127.034-.332.009-.068.018-.146.03-.232.28-2.052,1.669-9.106,7.715-11.417.2-.078.412-.15.626-.216a.357.357,0,0,1,.239.011.042.042,0,0,0,.014.009.411.411,0,0,1,.041.025.244.244,0,0,1,.039.03.2.2,0,0,1,.022.023.258.258,0,0,1,.037.05.284.284,0,0,1,.02.036s0,.007,0,.011a.328.328,0,0,1,.023.08" transform="translate(-45.411 -76.302)" fill="#734c37"/>
        <path id="Trazado_115163" data-name="Trazado 115163" d="M90.971,95.548v0a.344.344,0,0,1-.034.2.328.328,0,0,1-.075.1.206.206,0,0,1-.025.021.3.3,0,0,1-.057.034l-.034.014a.037.037,0,0,1-.023.007.306.306,0,0,1-.091.014.343.343,0,0,1-.153-.036,2.1,2.1,0,0,1-.574-.414,2.323,2.323,0,0,1-.622-1.3,2.192,2.192,0,0,1-.027-.474.347.347,0,0,1,.212-.3.328.328,0,0,1,.15-.023.342.342,0,0,1,.319.362,1.562,1.562,0,0,0,.009.223,1.582,1.582,0,0,0,.824,1.3.042.042,0,0,0,.014.009.409.409,0,0,1,.041.025.244.244,0,0,1,.039.03.2.2,0,0,1,.023.023.259.259,0,0,1,.037.05.285.285,0,0,1,.02.036s0,.007,0,.011a.328.328,0,0,1,.023.08" transform="translate(-67.419 -70.546)" fill="#734c37"/>
        <path id="Trazado_115164" data-name="Trazado 115164" d="M72.019,72.787a10.245,10.245,0,0,1-1.856.865c-.209.073-.43.143-.663.207a7.3,7.3,0,0,1-1.9.273c-.1,0-.2,0-.3-.007a4.3,4.3,0,0,1-3.268-1.913,5.245,5.245,0,0,1-.97-2.965,1.835,1.835,0,0,1,.542-1.482,3,3,0,0,1,2.4-.239c.241.039.471.075.681.1.07.007.143.011.221.011a11.832,11.832,0,0,0,3.329-.822c.3-.1.608-.207.927-.312a.342.342,0,1,1,.214.649c-.319.1-.626.21-.922.31a15.941,15.941,0,0,1-2.974.82,3.905,3.905,0,0,1-.859.023c-.232-.021-.48-.061-.724-.1-.692-.109-1.48-.235-1.851.082a1.239,1.239,0,0,0-.3.963,4.516,4.516,0,0,0,.735,2.391,3.7,3.7,0,0,0,2.856,1.8,6.6,6.6,0,0,0,2.348-.353,9.977,9.977,0,0,0,1.972-.881.341.341,0,1,1,.362.578" transform="translate(-47.636 -50.219)" fill="#734c37"/>
        <path id="Trazado_115165" data-name="Trazado 115165" d="M10.587,40.8A1.885,1.885,0,0,1,9.4,42.42l-.027.011a1.7,1.7,0,0,1-.613.116,2.171,2.171,0,0,1-1.537-.733,13.868,13.868,0,0,1-1.995-2.967.342.342,0,0,1,.6-.332,13.287,13.287,0,0,0,1.89,2.824,1.3,1.3,0,0,0,1.414.456,1.006,1.006,0,0,0,.2-.1,1.2,1.2,0,0,0,.574-.918,6.88,6.88,0,0,0-.184-1.523c-.043-.212-.093-.435-.153-.674-.041-.169-.087-.344-.137-.524-.394-1.473-1.025-3.375-1.858-5.579a.341.341,0,1,1,.638-.241A59.97,59.97,0,0,1,10.2,38.317c0,.009,0,.016.007.025a14.77,14.77,0,0,1,.321,1.6,4.99,4.99,0,0,1,.055.858" transform="translate(-3.919 -24.183)" fill="#734c37"/>
        <path id="Trazado_115166" data-name="Trazado 115166" d="M65.806,92.856c-6.046,2.311-7.435,9.366-7.715,11.417-1.038-1.555-.719-6.323-.608-7.4a15.077,15.077,0,0,1,1.974-6.581c.082-.132.171-.26.26-.387a4.3,4.3,0,0,0,3.268,1.913c.1,0,.2.007.3.007a7.315,7.315,0,0,0,1.9-.273,2.323,2.323,0,0,0,.622,1.3" transform="translate(-43.319 -67.913)" fill="#ec8b56"/>
        <path id="Trazado_115167" data-name="Trazado 115167" d="M24.017,69.607a.342.342,0,0,1-.231-.593c.515-.486,5.085-4.64,10.812-4.64h.109a.342.342,0,0,1-.006.683h-.1c-5.467,0-9.855,3.993-10.34,4.451a.361.361,0,0,1-.24.1" transform="translate(-17.883 -48.626)" fill="#734c37"/>
      </g>
    </g>
  </g>
</svg>
