<svg xmlns="http://www.w3.org/2000/svg" xmlns:xlink="http://www.w3.org/1999/xlink" width="74" height="74" viewBox="0 0 74 74">
  <defs>
    <clipPath id="clip-path">
      <rect id="Rectángulo_34769" data-name="Rectángulo 34769" width="42.333" height="41.466" fill="none"/>
    </clipPath>
  </defs>
  <g id="Grupo_59144" data-name="Grupo 59144" transform="translate(-296 -9802)">
    <g id="Elipse_4074" data-name="Elipse 4074" transform="translate(296 9802)" fill="#fff" stroke="#12263f" stroke-width="3">
      <circle cx="37" cy="37" r="37" stroke="none"/>
      <circle cx="37" cy="37" r="35.5" fill="none"/>
    </g>
    <g id="Grupo_58985" data-name="Grupo 58985" transform="translate(316 9818.268)">
      <g id="Grupo_58984" data-name="Grupo 58984" clip-path="url(#clip-path)">
        <path id="Trazado_115121" data-name="Trazado 115121" d="M4.19,41.1V32.31A31.918,31.918,0,0,1,1.636,21.388C1.353,15.289.927,7.913,2.913,6.353a2.824,2.824,0,0,1,3.688,0,3.867,3.867,0,0,1,3.05-3.577,3.318,3.318,0,0,1,3.616.882A3.9,3.9,0,0,1,16.619,1.4a3.646,3.646,0,0,1,3.6,2.262,4.477,4.477,0,0,1,3.546-1.277c2.553,0,2.837,2.412,3.4,6.1a36.8,36.8,0,0,1,0,8.369,7.736,7.736,0,0,0,4.4-3.4c1.56-2.7,6.241-4.681,8.794-3.972s3.688,2.411,1.986,3.4-3.262.284-4.965,2.269S30.005,26.211,26.318,28.48a23.85,23.85,0,0,0-4.823,3.546l.779,8.227S12.417,44.225,4.19,41.1" transform="translate(-1.107 -1.11)" fill="#ffb681"/>
        <path id="Trazado_115122" data-name="Trazado 115122" d="M10.142,41.466a20.216,20.216,0,0,1-7.16-1.2.285.285,0,0,1-.184-.267V31.262A32.661,32.661,0,0,1,.245,20.291l-.032-.68C-.073,13.518-.4,6.612,1.63,5.018a3.062,3.062,0,0,1,3.633-.285,4.242,4.242,0,0,1,3.2-3.342,3.661,3.661,0,0,1,3.631.677A4,4,0,0,1,15.486,0h.028A4.018,4.018,0,0,1,19.2,2.062,5.251,5.251,0,0,1,22.658.985c2.716,0,3.1,2.512,3.632,5.988l.054.354a36.032,36.032,0,0,1,.048,8,7.473,7.473,0,0,0,3.82-3.139c1.578-2.725,6.35-4.873,9.118-4.1,1.693.47,2.868,1.4,2.993,2.367a1.553,1.553,0,0,1-.94,1.56,6.169,6.169,0,0,1-2.009.675,4.382,4.382,0,0,0-2.883,1.534c-.455.531-1.2,1.577-2.139,2.9-2.492,3.507-6.259,8.808-8.992,10.489a26.646,26.646,0,0,0-4.676,3.407l.766,8.1a.286.286,0,0,1-.178.292,33.663,33.663,0,0,1-11.132,2.057M3.369,39.8c7.353,2.684,16.076-.317,17.493-.842L20.1,30.943a.286.286,0,0,1,.071-.217,23.921,23.921,0,0,1,4.886-3.6c2.634-1.621,6.36-6.864,8.825-10.334.949-1.336,1.7-2.391,2.171-2.942a4.913,4.913,0,0,1,3.2-1.722,5.63,5.63,0,0,0,1.835-.608,1.08,1.08,0,0,0,.661-.993c-.078-.605-.906-1.425-2.58-1.889-2.516-.7-7.027,1.347-8.471,3.839a7.958,7.958,0,0,1-4.575,3.538.286.286,0,0,1-.353-.312,36.748,36.748,0,0,0,0-8.291l-.054-.354c-.569-3.716-.937-5.5-3.068-5.5a4.2,4.2,0,0,0-3.322,1.168.286.286,0,0,1-.5-.089A3.346,3.346,0,0,0,15.511.571h-.023a3.626,3.626,0,0,0-3.065,2.092.286.286,0,0,1-.487.059,3.022,3.022,0,0,0-3.308-.783,3.567,3.567,0,0,0-2.847,3.3.286.286,0,0,1-.479.215,2.527,2.527,0,0,0-3.318.014C.187,6.879.518,13.924.784,19.584l.032.681A31.874,31.874,0,0,0,3.342,31.078a.284.284,0,0,1,.027.121Z" transform="translate(-0.001)" fill="#734c37"/>
        <path id="Trazado_115123" data-name="Trazado 115123" d="M17.175,33.633a2.5,2.5,0,0,1-.185.72,1.477,1.477,0,0,1-.969.87,1.354,1.354,0,0,1-.358.049,3.477,3.477,0,0,1-2.207-1.316s0,0,0,0a19.056,19.056,0,0,1-2.517-3.623.285.285,0,1,1,.5-.27,18.313,18.313,0,0,0,2.344,3.4c.756.832,1.514,1.38,2.079,1.217a.912.912,0,0,0,.605-.548,4.157,4.157,0,0,0,.055-2.216c-.057-.322-.132-.661-.219-1.007a35.878,35.878,0,0,0-2.393-6.252.286.286,0,0,1,.512-.255,37.624,37.624,0,0,1,2.38,6.151c.112.419.206.832.272,1.228a6.5,6.5,0,0,1,.1,1.86" transform="translate(-8.673 -19.279)" fill="#734c37"/>
        <path id="Trazado_115124" data-name="Trazado 115124" d="M43.159,26.109c-1.924.448-3.288-1.169-4.135-2.961a11.326,11.326,0,0,1-.643-1.689.289.289,0,0,1,.2-.352.286.286,0,0,1,.352.2c.013.049,1.375,4.878,4.1,4.246,1.771-.411,1.454-2.5.792-5.868-.621-3.185-1.405-8.165-1.42-8.3a.285.285,0,1,1,.564-.086c.006.034.537,3.471,1.152,6.886.628,3.432,1.81,7.28-.958,7.924" transform="translate(-30.522 -8.794)" fill="#734c37"/>
        <path id="Trazado_115125" data-name="Trazado 115125" d="M73.022,11.352c-.228,12.239-.215,11.838-.352,12.211a2.709,2.709,0,0,1-2.4,1.746A2.876,2.876,0,0,1,67.99,23.9a5.931,5.931,0,0,1-.561-1.154.286.286,0,1,1,.544-.177,4.254,4.254,0,0,0,.935,1.544,1.787,1.787,0,0,0,1.963.512,2.122,2.122,0,0,0,1.317-1.481c.022-.261.038-.921.042-.943a0,0,0,0,1,0,0c.1-3.443.212-10.515.221-10.854a.281.281,0,0,1,.289-.28.286.286,0,0,1,.282.289" transform="translate(-53.624 -8.799)" fill="#734c37"/>
        <path id="Trazado_115126" data-name="Trazado 115126" d="M97.281,29.413a21.618,21.618,0,0,0-.7,4.185c-.1,1.771-.537,4.826-2.256,5.439a2.43,2.43,0,0,1-1.961-.093,2.484,2.484,0,0,1-.981-1.074,4.549,4.549,0,0,1-.44-1.367.285.285,0,0,1,.564-.034.169.169,0,0,0,.008.032,2.759,2.759,0,0,0,1.127,1.944,1.844,1.844,0,0,0,1.78-.1c.859-.581,1.443-2.323,1.588-4.783a21.992,21.992,0,0,1,.722-4.312.288.288,0,0,1,.354-.194.284.284,0,0,1,.194.354" transform="translate(-72.339 -23.106)" fill="#734c37"/>
        <path id="Trazado_115127" data-name="Trazado 115127" d="M71.035,76.475l-.008,0c-6.262,1.742-7.549,8.655-7.81,11.056-.023.227-.038.411-.047.55,0,.032,0,.051,0,.061a.286.286,0,0,1-.284.257l-.03,0a.287.287,0,0,1-.255-.312l0-.042c.109-1.594.965-9.319,7.284-11.787a10.179,10.179,0,0,1,1-.333.285.285,0,1,1,.152.55" transform="translate(-49.792 -60.386)" fill="#734c37"/>
        <path id="Trazado_115128" data-name="Trazado 115128" d="M38.7,71.7c-6.319,2.467-7.176,10.193-7.284,11.787l0,.042c-3.815-2.719-7.9-12.71-8.021-13.022a3.478,3.478,0,0,0,2.207,1.316,1.354,1.354,0,0,0,.358-.049,1.477,1.477,0,0,0,.969-.87,2.513,2.513,0,0,0,.185-.72c.641,1.357,1.784,3.037,3.5,3.037a2.818,2.818,0,0,0,.638-.076,2.189,2.189,0,0,0,1.729-2.216,2.913,2.913,0,0,0,.535.638,2.545,2.545,0,0,0,1.75.773,2.268,2.268,0,0,0,.8-.15,2.822,2.822,0,0,0,1.6-1.6,2.486,2.486,0,0,0,.98,1.074.541.541,0,0,0,.067.034" transform="translate(-18.603 -55.825)" fill="#ec8b56"/>
      </g>
    </g>
  </g>
</svg>
