<svg id="Grupo_56667" data-name="Grupo 56667" xmlns="http://www.w3.org/2000/svg" xmlns:xlink="http://www.w3.org/1999/xlink" width="63.181" height="87" viewBox="0 0 63.181 87">
  <defs>
    <clipPath id="clip-path">
      <rect id="Rectángulo_33940" data-name="Rectángulo 33940" width="63.181" height="87" fill="#12263f"/>
    </clipPath>
  </defs>
  <g id="Grupo_56666" data-name="Grupo 56666" transform="translate(0 0)" clip-path="url(#clip-path)">
    <path id="Trazado_101265" data-name="Trazado 101265" d="M59.313,71.932H3.866A3.869,3.869,0,0,1,.257,66.675l3.209-8.337A71.256,71.256,0,0,0,8.237,32.649v-.221A23.268,23.268,0,0,1,16.89,14.282,23.337,23.337,0,0,1,54.942,32.649a71.264,71.264,0,0,0,4.772,25.689l3.208,8.337a3.867,3.867,0,0,1-3.609,5.256M31.636,11.662A20.757,20.757,0,0,0,10.815,32.429v.221A73.854,73.854,0,0,1,5.872,59.264L2.663,67.6a1.291,1.291,0,0,0,1.2,1.752H59.313a1.289,1.289,0,0,0,1.2-1.752l-3.208-8.337a73.836,73.836,0,0,1-4.944-26.616A20.867,20.867,0,0,0,36.131,12.133a21.789,21.789,0,0,0-4.495-.471" transform="translate(0 5.332)" fill="#12263f"/>
    <path id="Trazado_101266" data-name="Trazado 101266" d="M23.982,59.372A11.037,11.037,0,0,1,12.958,48.348a1.289,1.289,0,0,1,1.289-1.289H33.719a1.289,1.289,0,0,1,1.289,1.289A11.037,11.037,0,0,1,23.982,59.372m-8.348-9.735a8.448,8.448,0,0,0,16.7,0Z" transform="translate(7.608 27.628)" fill="#12263f"/>
    <path id="Trazado_101267" data-name="Trazado 101267" d="M16.934,17.677a1.29,1.29,0,0,1-1.29-1.29V6.761a6.761,6.761,0,1,1,13.522,0v9.624a1.289,1.289,0,0,1-1.6,1.251l-.316-.081c-.236-.062-.473-.125-.717-.171a21.162,21.162,0,0,0-9.28.252,1.272,1.272,0,0,1-.317.041m5.471-15.1a4.188,4.188,0,0,0-4.182,4.184v8.026a23.812,23.812,0,0,1,8.366-.014V6.761a4.189,4.189,0,0,0-4.184-4.184" transform="translate(9.185 -0.001)" fill="#12263f"/>
    <path id="Trazado_101268" data-name="Trazado 101268" d="M42.208,43.525H30.461a1.289,1.289,0,1,1,0-2.577H42.208a1.289,1.289,0,1,1,0,2.577" transform="translate(17.127 24.04)" fill="#12263f"/>
    <path id="Trazado_101269" data-name="Trazado 101269" d="M12.194,43.525H9.617a1.289,1.289,0,1,1,0-2.577h2.577a1.289,1.289,0,1,1,0,2.577" transform="translate(4.889 24.04)" fill="#12263f"/>
    <path id="Trazado_101270" data-name="Trazado 101270" d="M31.516,43.525H25.931a1.289,1.289,0,1,1,0-2.577h5.585a1.289,1.289,0,1,1,0,2.577m-11.17,0H14.761a1.289,1.289,0,1,1,0-2.577h5.585a1.289,1.289,0,1,1,0,2.577" transform="translate(7.909 24.04)" fill="#12263f"/>
    <path id="Trazado_101271" data-name="Trazado 101271" d="M31.415,43.525H28.838a1.289,1.289,0,1,1,0-2.577h2.577a1.289,1.289,0,0,1,0,2.577" transform="translate(16.174 24.04)" fill="#12263f"/>
    <path id="Trazado_101272" data-name="Trazado 101272" d="M13.56,43.525H2.9a1.289,1.289,0,1,1,0-2.577H13.56a1.289,1.289,0,1,1,0,2.577" transform="translate(0.946 24.04)" fill="#12263f"/>
  </g>
</svg>
