<svg xmlns="http://www.w3.org/2000/svg" xmlns:xlink="http://www.w3.org/1999/xlink" width="74" height="74" viewBox="0 0 74 74">
  <defs>
    <clipPath id="clip-path">
      <rect id="Rectángulo_34772" data-name="Rectángulo 34772" width="27.039" height="59.372" fill="none"/>
    </clipPath>
  </defs>
  <g id="Grupo_59147" data-name="Grupo 59147" transform="translate(-296 -10138)">
    <g id="Elipse_4077" data-name="Elipse 4077" transform="translate(296 10138)" fill="#fff" stroke="#12263f" stroke-width="3">
      <circle cx="37" cy="37" r="37" stroke="none"/>
      <circle cx="37" cy="37" r="35.5" fill="none"/>
    </g>
    <g id="Grupo_58991" data-name="Grupo 58991" transform="translate(319 10145)">
      <g id="Grupo_58990" data-name="Grupo 58990" clip-path="url(#clip-path)">
        <path id="Trazado_115149" data-name="Trazado 115149" d="M21.9,19.872c-.365-2.557-1.325-12.532-1.782-15.363S18,.642,16.69,1.971c-1,1.018-.512,6.279-.225,10.013.3,3.9.037,9.855.037,9.855l-1.273.225a31.587,31.587,0,0,0-1.072-4.742,2.757,2.757,0,0,0-3.427-1.144c-1.807.534-2.168,3.079-2.168,3.079a2.636,2.636,0,0,0-3.105.249c-1.677,1.3-.639,4.2-.639,4.2s-.639-1.553-2.466-.548-.548,6.667,0,8.037.226,4.709,1.87,11.1,3.331,6.766,4.609,8.41S10,60.131,10,60.131s10.647.548,14.861-1.36a25.806,25.806,0,0,1-.486-10.49c.239-1.034,3.165-8.965,3.483-10.413s-2.243-6.654-3.621-8.478a4.138,4.138,0,0,0-1.464-1.228s-.509-5.733-.874-8.291" transform="translate(-1.121 -1.116)" fill="#ffb681"/>
        <path id="Trazado_115150" data-name="Trazado 115150" d="M12.357,59.372c-1.936,0-3.341-.069-3.5-.077a.281.281,0,0,1-.266-.285c.031-2.136-.108-7.961-1.107-9.245a10.1,10.1,0,0,0-.862-.939c-1.168-1.169-2.491-2.493-3.8-7.574a52.241,52.241,0,0,1-1.466-8.585,10.883,10.883,0,0,0-.393-2.483c-.481-1.2-1.984-7.227.125-8.388a2.228,2.228,0,0,1,1.836-.279,1.631,1.631,0,0,1,.242.108,3.543,3.543,0,0,1,.991-3.458,2.943,2.943,0,0,1,3.076-.448c.185-.772.759-2.475,2.291-2.928a3.024,3.024,0,0,1,3.758,1.288,27.238,27.238,0,0,1,1.051,4.541l.771-.136c.044-1.121.218-6.182-.045-9.6L15,10.113c-.374-4.768-.585-8.492.365-9.455A1.82,1.82,0,0,1,17.255.078c.982.314,1.736,1.536,2.015,3.27.259,1.608.685,5.554,1.06,9.035.29,2.688.564,5.226.722,6.333.329,2.3.779,7.224.862,8.153A4.4,4.4,0,0,1,23.337,28.1c1.388,1.837,4.016,7.137,3.671,8.707-.18.818-1.123,3.514-2.035,6.122-.692,1.978-1.345,3.847-1.449,4.294a25.6,25.6,0,0,0,.482,10.351.281.281,0,0,1-.154.332c-2.725,1.234-7.984,1.462-11.5,1.462m-3.2-.626c1.645.066,10.386.334,14.243-1.253A26.2,26.2,0,0,1,22.977,47.1c.11-.477.738-2.273,1.466-4.353.864-2.472,1.844-5.273,2.016-6.057.282-1.283-2.121-6.329-3.57-8.249A3.863,3.863,0,0,0,21.522,27.3a.281.281,0,0,1-.153-.226c-.005-.057-.512-5.755-.872-8.276h0c-.159-1.116-.434-3.66-.724-6.352-.375-3.474-.8-7.412-1.056-9.005-.242-1.5-.867-2.58-1.632-2.824a1.3,1.3,0,0,0-1.316.439c-.846.858-.46,5.768-.205,9.017l.061.777c.3,3.874.04,9.83.037,9.889A.281.281,0,0,1,15.43,21l-1.273.224a.281.281,0,0,1-.326-.232,29.428,29.428,0,0,0-1.046-4.66,2.484,2.484,0,0,0-3.1-1c-1.615.477-1.967,2.826-1.97,2.85a.281.281,0,0,1-.439.19,2.347,2.347,0,0,0-2.772.241c-1.5,1.162-.557,3.858-.547,3.885a.281.281,0,0,1-.524.2,1.3,1.3,0,0,0-.7-.652,1.712,1.712,0,0,0-1.373.243c-1.534.843-.488,6.154.125,7.687a10.813,10.813,0,0,1,.431,2.637,51.771,51.771,0,0,0,1.45,8.5c1.268,4.932,2.534,6.2,3.651,7.317a10.484,10.484,0,0,1,.908.991c1.2,1.542,1.235,7.9,1.227,9.326" transform="translate(0 0)" fill="#734c37"/>
        <path id="Trazado_115151" data-name="Trazado 115151" d="M66.269,137.917c-1.226,1.484-4.01,5.466-3.358,10.36a.248.248,0,0,1-.011.118.276.276,0,0,1-.228.2l-.037,0a.282.282,0,0,1-.279-.243c-.017-.129-.032-.256-.045-.384a0,0,0,0,1,0,0c-.468-4.721,2.052-8.557,3.358-10.2a2.684,2.684,0,0,1-.738-2.361A14.01,14.01,0,0,1,61.65,134.4a5.385,5.385,0,0,1-2.825-3.388c-.022-.1-.039-.189-.052-.279a.279.279,0,0,1,.182-.3.211.211,0,0,1,.058-.015s.009,0,.013,0a.278.278,0,0,1,.3.24,2.45,2.45,0,0,0,.047.243,4.829,4.829,0,0,0,2.5,2.986,12.4,12.4,0,0,0,3.418,1.007.285.285,0,0,1,.208.126.278.278,0,0,1,.034.24,2.176,2.176,0,0,0,.695,2.265.273.273,0,0,1,.1.191.282.282,0,0,1-.062.206" transform="translate(-46.951 -104.184)" fill="#734c37"/>
        <path id="Trazado_115152" data-name="Trazado 115152" d="M76.549,126.471a.283.283,0,0,1-.127-.03,8.769,8.769,0,0,0-2.831-.7c-.32-.043-.651-.087-.976-.141a21.566,21.566,0,0,1-2.863-.709c-.309-.094-.576-.175-.822-.239a.281.281,0,0,1,.141-.544c.257.067.542.153.844.245a21.1,21.1,0,0,0,2.793.692c.316.053.643.1.958.139a9.321,9.321,0,0,1,3.01.751.281.281,0,0,1-.127.532" transform="translate(-54.899 -99.145)" fill="#734c37"/>
        <path id="Trazado_115153" data-name="Trazado 115153" d="M12.668,115.719a1.842,1.842,0,0,1-.036.275,1.4,1.4,0,0,1-.137.378,1.466,1.466,0,0,1-.805.676,2.093,2.093,0,0,1-.389.107,1.868,1.868,0,0,1-.35.032c-1.771,0-3.138-2.314-3.2-2.426a.281.281,0,0,1,.487-.283c.013.024,1.256,2.128,2.707,2.143a1.463,1.463,0,0,0,.548-.1.857.857,0,0,0,.594-.646.546.546,0,0,0,.013-.08v0a.618.618,0,0,0,.007-.064.007.007,0,0,1,0-.006,2.7,2.7,0,0,0-.249-1.189,10.543,10.543,0,0,0-2.2-3.124.279.279,0,0,1,0-.4.282.282,0,0,1,.4,0,11.046,11.046,0,0,1,2.284,3.22,3.466,3.466,0,0,1,.329,1.484" transform="translate(-6.16 -88.622)" fill="#734c37"/>
        <path id="Trazado_115154" data-name="Trazado 115154" d="M54.783,107.373c-.088.1-.182.195-.283.29a4.354,4.354,0,0,1-1.6.994,2.423,2.423,0,0,1-.55.112c-.05,0-.1.006-.15.006a1.663,1.663,0,0,1-.238-.015,1.506,1.506,0,0,1-.6-.217,1.834,1.834,0,0,1-.664-.768.242.242,0,0,1-.019-.049c0-.006,0-.011,0-.017a.278.278,0,0,1,.15-.311.281.281,0,0,1,.376.127c.006.009.009.019.015.028a1.073,1.073,0,0,0,.827.649,1.4,1.4,0,0,0,.44-.015c.022,0,.047-.009.071-.015a3.669,3.669,0,0,0,1.629-.979c.066-.066.129-.131.187-.2.461-.517.242-2.784-.006-4.092a.281.281,0,0,1,.552-.1c.116.61.651,3.7-.127,4.571" transform="translate(-40.472 -81.944)" fill="#734c37"/>
        <path id="Trazado_115155" data-name="Trazado 115155" d="M33.51,99.369a3.276,3.276,0,0,1-1.391.329,3.087,3.087,0,0,1-2.2-1.007,3,3,0,0,1-.354-.429.273.273,0,0,1-.045-.148v0c0-.021.006-.041.008-.064a.007.007,0,0,1,0-.006.28.28,0,0,1,.509-.08c.006.007.022.034.052.075a2.611,2.611,0,0,0,2.024,1.1,2.72,2.72,0,0,0,1.159-.275c.8-.372.67-1.483.509-2.136,0-.006,0-.011,0-.017a4.971,4.971,0,0,0-.146-.479.332.332,0,0,1-.013-.039c-.144-.633-.3-1.221-.461-1.763A16.342,16.342,0,0,0,30.8,89.258a.284.284,0,0,1,.043-.395.28.28,0,0,1,.4.043,16.307,16.307,0,0,1,2.415,5.221c.176.586.346,1.224.505,1.917a4.9,4.9,0,0,1,.157.507,4.54,4.54,0,0,1,.146.988,1.8,1.8,0,0,1-.955,1.829" transform="translate(-23.582 -70.941)" fill="#734c37"/>
        <path id="Trazado_115156" data-name="Trazado 115156" d="M35.779,149.436c-.045-.064-.1-.142-.161-.243-.571-.882-.955-1.866-1.569-2.735a16.5,16.5,0,0,0-4.532-4.339,5.07,5.07,0,0,1-1.773-1.5,5.364,5.364,0,0,1-.5-1.979,11.491,11.491,0,0,0-1.681-4.452,2.065,2.065,0,0,0,.389-.107,1.466,1.466,0,0,0,.805-.676,3.086,3.086,0,0,0,2.2,1.007,3.277,3.277,0,0,0,1.391-.329,1.8,1.8,0,0,0,.955-1.829,1.506,1.506,0,0,0,.6.217,1.668,1.668,0,0,0,.238.015c.049,0,.1,0,.15-.006a5.386,5.386,0,0,0,2.825,3.388,14.03,14.03,0,0,0,3.278,1.011,2.684,2.684,0,0,0,.738,2.361c-1.307,1.64-3.826,5.476-3.358,10.2" transform="translate(-20.422 -105.655)" fill="#ec8b56"/>
      </g>
    </g>
  </g>
</svg>
