<svg xmlns="http://www.w3.org/2000/svg" xmlns:xlink="http://www.w3.org/1999/xlink" width="74" height="74" viewBox="0 0 74 74">
  <defs>
    <clipPath id="clip-path">
      <rect id="Rectángulo_34770" data-name="Rectángulo 34770" width="25.059" height="61" fill="none"/>
    </clipPath>
  </defs>
  <g id="Grupo_59145" data-name="Grupo 59145" transform="translate(-296 -9911)">
    <g id="Elipse_4075" data-name="Elipse 4075" transform="translate(296 9911)" fill="#fff" stroke="#12263f" stroke-width="3">
      <circle cx="37" cy="37" r="37" stroke="none"/>
      <circle cx="37" cy="37" r="35.5" fill="none"/>
    </g>
    <g id="Grupo_58987" data-name="Grupo 58987" transform="translate(320 9918)">
      <g id="Grupo_58986" data-name="Grupo 58986" clip-path="url(#clip-path)">
        <path id="Trazado_115129" data-name="Trazado 115129" d="M5.819,60.38c-.324-.149.243-7.808-.973-9.218S.468,45.415,1.684,37.823a76.738,76.738,0,0,1,2.554-11.5s.109-15.195,2.44-16.262c1.772-.811,2.547,1.188,2.547,1.188.1-2.727.719-6.633,2.941-7.744a2.274,2.274,0,0,1,2.986.91s.174-3.1,2.607-3.022,2.607,3.1,2.694,4.8c1.477-2.015,3.541.4,3.789,1.113.981,2.836,1.744,25.8,1.6,27.809-.432,5.97-3.041,8.271-3.91,10.9s-.348,7.981.782,10.538a19.074,19.074,0,0,1,1.217,3.1s-10.5,4.216-18.109.714" transform="translate(-1.101 -1.09)" fill="#ffb681"/>
        <path id="Trazado_115130" data-name="Trazado 115130" d="M11.864,61A17.407,17.407,0,0,1,4.59,59.569c-.277-.127-.289-.4-.3-2.5-.016-2.225-.044-5.949-.772-6.793C1.81,48.3-.876,43.906.281,36.685a79.757,79.757,0,0,1,2.551-11.5c0-.458.05-4.046.347-7.7C3.83,9.44,5.049,8.881,5.45,8.7a1.983,1.983,0,0,1,1.619-.089,2.2,2.2,0,0,1,.8.589c.193-2.49.865-5.956,3.055-7.051a2.43,2.43,0,0,1,2.92.446A2.887,2.887,0,0,1,16.668,0c2.386.076,2.821,2.658,2.949,4.4a1.737,1.737,0,0,1,1.351-.356A3.829,3.829,0,0,1,23.43,6.126c1.028,2.972,1.746,26.111,1.614,27.931a18.58,18.58,0,0,1-2.74,8.534,14.467,14.467,0,0,0-1.184,2.445c-.872,2.643-.3,7.883.771,10.318a18.8,18.8,0,0,1,1.239,3.175.306.306,0,0,1-.188.333A33.119,33.119,0,0,1,11.864,61M4.956,59.063c6.744,3.024,15.866-.071,17.5-.672-.112-.348-.4-1.143-1.127-2.788-1.119-2.532-1.7-7.994-.793-10.758a15.1,15.1,0,0,1,1.231-2.552,18.049,18.049,0,0,0,2.664-8.279c.142-1.961-.631-24.936-1.582-27.687a3.244,3.244,0,0,0-1.976-1.679,1.3,1.3,0,0,0-1.277.646.306.306,0,0,1-.553-.165c-.109-2.15-.394-4.45-2.4-4.514-2.1-.058-2.285,2.619-2.292,2.734a.306.306,0,0,1-.57.138A1.961,1.961,0,0,0,11.2,2.694C8.914,3.839,8.5,8.308,8.43,10.176a.306.306,0,0,1-.592.1,2.165,2.165,0,0,0-1-1.1,1.4,1.4,0,0,0-1.13.08c-1.568.718-2.219,10.186-2.261,15.986a.3.3,0,0,1-.017.1A77.484,77.484,0,0,0,.886,36.782c-1.118,6.976,1.457,11.2,3.092,13.09.808.937.9,3.935.921,7.188.006.843.013,1.711.058,2" transform="translate(0 -0.001)" fill="#734c37"/>
        <path id="Trazado_115131" data-name="Trazado 115131" d="M52.422,122.607a.306.306,0,0,1-.6-.133,7.647,7.647,0,0,0-1-4.5c-.106-.165-.253-.418-.439-.739-1.086-1.866-3.975-6.821-5.966-6.635a15.583,15.583,0,0,1-5.7-.329c-.5-.2-1.689-.445-2.189.047-.376.365-.351,1.152.067,2.272a5.2,5.2,0,0,0,1.3,2.046,3.717,3.717,0,0,0,2.885,1.013.314.314,0,0,1,.245.071.31.31,0,0,1,.106.233c0,.076.024,1.876,1.445,1.94a.307.307,0,0,1,.165.555c-5.5,3.991-5.086,9.269-4.888,10.549.027.179.051.28.053.288a.306.306,0,0,1-.227.37.285.285,0,0,1-.071.01.306.306,0,0,1-.3-.235,11.437,11.437,0,0,1,4.54-11.076,2.466,2.466,0,0,1-1.315-2.08h-.014a4.5,4.5,0,0,1-3.16-1.307,5.86,5.86,0,0,1-1.343-2.162c-.517-1.384-.492-2.368.076-2.925.751-.735,2.189-.437,2.844-.178a15.373,15.373,0,0,0,5.42.29c2.1-.2,4.491,3.4,6.552,6.935.184.315.329.563.429.721a8.27,8.27,0,0,1,1.082,4.957" transform="translate(-27.831 -85.419)" fill="#734c37"/>
        <path id="Trazado_115132" data-name="Trazado 115132" d="M35.949,57.822a.306.306,0,0,1-.306-.306V45.247a.306.306,0,0,1,.612,0V57.516a.306.306,0,0,1-.306.306" transform="translate(-27.825 -35.084)" fill="#734c37"/>
        <path id="Trazado_115133" data-name="Trazado 115133" d="M60.89,31.538h-.008a.306.306,0,0,1-.3-.314l.456-17.141a.306.306,0,0,1,.612.016L61.2,31.24a.306.306,0,0,1-.306.3" transform="translate(-47.295 -10.761)" fill="#734c37"/>
        <path id="Trazado_115134" data-name="Trazado 115134" d="M84.293,38.468h-.012a.306.306,0,0,1-.294-.318L84.611,22.2a.306.306,0,0,1,.612.024L84.6,38.174a.306.306,0,0,1-.306.294" transform="translate(-65.566 -17.103)" fill="#734c37"/>
        <path id="Trazado_115135" data-name="Trazado 115135" d="M32.753,149.189s-3.089-4.824-2.938-8,2.989-6.466,2.989-6.466a4.5,4.5,0,0,0,3.16,1.307h.014a2.465,2.465,0,0,0,1.315,2.08,11.436,11.436,0,0,0-4.54,11.076" transform="translate(-23.271 -105.176)" fill="#ec8b56"/>
      </g>
    </g>
  </g>
</svg>
