<svg id="Grupo_56761" data-name="Grupo 56761" xmlns="http://www.w3.org/2000/svg" xmlns:xlink="http://www.w3.org/1999/xlink" width="90" height="90" viewBox="0 0 90 90">
  <defs>
    <clipPath id="clip-path">
      <rect id="Rectángulo_33986" data-name="Rectángulo 33986" width="90" height="90" fill="none"/>
    </clipPath>
    <clipPath id="clip-path-2">
      <rect id="Rectángulo_33981" data-name="Rectángulo 33981" width="90" height="90" fill="#387db8"/>
    </clipPath>
    <clipPath id="clip-path-3">
      <rect id="Rectángulo_33980" data-name="Rectángulo 33980" width="86.009" height="86.009" fill="none"/>
    </clipPath>
    <clipPath id="clip-path-4">
      <path id="Trazado_113652" data-name="Trazado 113652" d="M42.2,12.287c-2.247.541-3.369,2.475-6.24,3.035a6.526,6.526,0,0,0-2.586.743c-1.529.871-1.6,2.366-2.038,2.7-1.726,1.307-3.2,1.55-3.652,2.868a8.631,8.631,0,0,1-2.193,3.342c-.793.791-.252,2.194-1.106,2.851-1.222.939-1.643,3.2-2.428,6.022-.174.627-1.709,2.078-1.842,2.741-.208,1.043.247,1.739.164,2.8-.067.862-.593,3.121-.56,3.95a3.7,3.7,0,0,1-.281,2.1c-.516,1.679-1.015,1.526-1.453,3.321-.637,2.612-2.116,6.381.448,10.281,1.584,2.408.24,3.254.544,6.315.212,2.134,1.151,1.929,1.411,2.608a5.177,5.177,0,0,0,3.9,3.446c.68.088-.68,1.611,3.057,2.918.624.218.66,1.052,2.294,2.569a3.943,3.943,0,0,0,1.769,1.053c1.837.5,4.077.724,7.1,1.345,5.305,1.09,8.687-1.65,9.961-4.479s1.808-2.232.535-5.714c-.406-1.108-1.56-5.572-.766-8.1.6-1.919.909-3.562,1.5-5.314a9.972,9.972,0,0,0-.145-4.706,11.141,11.141,0,0,1-.9-5.635c.085-1.138,1.453-3.256,1.243-6.557-.248-3.9-1.151-4.718-.765-5.574a9.592,9.592,0,0,0-.339-8.972c-.516-.935.711-3.29.678-4.18a8.116,8.116,0,0,0-1.454-4.315c.18-2.478-.825-3-3.17-3-1.164,0-1.779-.5-2.418-.5a1.139,1.139,0,0,0-.269.031" transform="translate(-16.98 -12.256)" fill="none"/>
    </clipPath>
    <linearGradient id="linear-gradient" x1="-0.359" y1="1.175" x2="-0.336" y2="1.175" gradientUnits="objectBoundingBox">
      <stop offset="0" stop-color="#e6ebf0"/>
      <stop offset="0.014" stop-color="#e4e8ec"/>
      <stop offset="0.067" stop-color="#e0e4e5"/>
      <stop offset="0.187" stop-color="#e0e3e3"/>
      <stop offset="0.378" stop-color="#daddde"/>
      <stop offset="0.633" stop-color="#c9ccd2"/>
      <stop offset="0.924" stop-color="#aeb0be"/>
      <stop offset="1" stop-color="#a6a8b8"/>
    </linearGradient>
    <clipPath id="clip-path-6">
      <path id="Trazado_113668" data-name="Trazado 113668" d="M56.192,15.712a8.123,8.123,0,0,0-1.454,4.315c-.032.891,1.195,3.246.679,4.18a9.587,9.587,0,0,0-.339,8.972c.386.856-.517,1.67-.766,5.574-.21,3.3,1.159,5.419,1.243,6.557a11.142,11.142,0,0,1-.9,5.635,9.982,9.982,0,0,0-.145,4.706c.592,1.752,1.8,4.1,1.19,6.017-.56,1.776-.049,6.289-.456,7.4-1.272,3.483,1.251,3.843,2.524,6.672s2.668,4.612,7.973,3.522c3.026-.62,5.264-.846,7.1-1.345a3.94,3.94,0,0,0,1.769-1.053c1.634-1.517,1.67-2.352,2.294-2.569,3.737-1.307,2.378-2.83,3.057-2.918a5.176,5.176,0,0,0,3.9-3.446c.26-.68,1.2-.474,1.411-2.608.3-3.061-1.006-3.584.336-6.149a13.467,13.467,0,0,0,.932-9.727c-.363-1.484-1.336-3.615-1.908-5.584a24.668,24.668,0,0,0-1.309-2.383c.419-.209.8-1.592.841-2.57.093-2.4-1.013-1.307-.8-3.319.235-2.15-1.908-4.843-1.931-5.687a4.214,4.214,0,0,0-1.091-3.116A19.652,19.652,0,0,1,78.06,25c-.617-.616-.936-1.77-1.493-3.411-.448-1.318-1.925-1.561-3.653-2.868-.441-.335-.509-1.83-2.037-2.7a6.522,6.522,0,0,0-2.586-.743c-3.828-.747-3.066-3.263-8.371-3.263-2.345,0-3.908,1.22-3.727,3.7" transform="translate(-54.129 -12.014)" fill="none"/>
    </clipPath>
    <linearGradient id="linear-gradient-2" x1="-1.244" y1="1.174" x2="-1.22" y2="1.174" gradientUnits="objectBoundingBox">
      <stop offset="0" stop-color="#c757a8"/>
      <stop offset="0.004" stop-color="#c459a9"/>
      <stop offset="0.114" stop-color="#7d96d7"/>
      <stop offset="0.193" stop-color="#51bdf4"/>
      <stop offset="0.233" stop-color="#40ccff"/>
      <stop offset="0.292" stop-color="#5dcfd7"/>
      <stop offset="0.435" stop-color="#a1d67c"/>
      <stop offset="0.552" stop-color="#d4db39"/>
      <stop offset="0.636" stop-color="#f3de0f"/>
      <stop offset="0.679" stop-color="#ffe000"/>
      <stop offset="0.796" stop-color="#ffb400"/>
      <stop offset="0.932" stop-color="#ff8600"/>
      <stop offset="1" stop-color="#ff7500"/>
    </linearGradient>
  </defs>
  <g id="Grupo_56760" data-name="Grupo 56760" clip-path="url(#clip-path)">
    <g id="Grupo_56751" data-name="Grupo 56751">
      <g id="Grupo_56750" data-name="Grupo 56750" clip-path="url(#clip-path-2)">
        <g id="Grupo_56749" data-name="Grupo 56749" transform="translate(1.996 1.995)" opacity="0.41" style="mix-blend-mode: color-burn;isolation: isolate">
          <g id="Grupo_56748" data-name="Grupo 56748">
            <g id="Grupo_56747" data-name="Grupo 56747" clip-path="url(#clip-path-3)">
              <path id="Trazado_113650" data-name="Trazado 113650" d="M88.467,45.462a43,43,0,1,1-43-43,43,43,0,0,1,43,43" transform="translate(-2.458 -2.457)" fill="#8a8a8a"/>
            </g>
          </g>
        </g>
        <path id="Trazado_113651" data-name="Trazado 113651" d="M45,90A45,45,0,1,1,90,45,45.052,45.052,0,0,1,45,90M45,3.991A41.008,41.008,0,1,0,86.008,45,41.055,41.055,0,0,0,45,3.991" transform="translate(0 0)" fill="#387db8"/>
      </g>
    </g>
    <g id="Grupo_56753" data-name="Grupo 56753" transform="translate(13.789 9.953)">
      <g id="Grupo_56752" data-name="Grupo 56752" clip-path="url(#clip-path-4)">
        <rect id="Rectángulo_33982" data-name="Rectángulo 33982" width="35.343" height="68.139" transform="translate(-1.111 0)" fill="url(#linear-gradient)"/>
      </g>
    </g>
    <g id="Grupo_56755" data-name="Grupo 56755">
      <g id="Grupo_56754" data-name="Grupo 56754" clip-path="url(#clip-path)">
        <path id="Trazado_113653" data-name="Trazado 113653" d="M27.823,43.614a1.984,1.984,0,0,1,1.062-2.961c1.169-.5,2.08,1.6,3.1,2.874s3.822.741,5.182-2.047a3.474,3.474,0,0,1,2.945-2.206,3.838,3.838,0,0,1,3.13,1.99l.126-.394a3.627,3.627,0,0,0-3.483-2.293,5.528,5.528,0,0,0-3.761,2.578c-.68,1.161-2.766,3.214-4.139,1.545-1.038-1.261-2.01-3.281-3.143-2.7-1.108.568-2.421,2.047-1.019,3.614" transform="translate(-5.115 -7.249)" fill="#694343"/>
        <path id="Trazado_113654" data-name="Trazado 113654" d="M39.434,37.253c.125-3.614-2.814-6.068-7.478-4.985,0,0-2.867-4.612-6.361-.452,0,0,4.121-3.161,5.7,1.173,0,0,4.586-.859,5.9.775a6.863,6.863,0,0,1,1.372,3.676Z" transform="translate(-4.81 -5.653)" fill="#694343"/>
        <path id="Trazado_113655" data-name="Trazado 113655" d="M50.14,16.434c-1.622-1.553-3.292-.166-4.1.861-.406.25-1.3-2.251-5.207-1.205,3.143-2.265,5.181.319,5.181.319a3.339,3.339,0,0,1,2.841-1.056c1.288.278,1.288,1.082,1.288,1.082" transform="translate(-7.674 -2.849)" fill="#694343"/>
        <path id="Trazado_113656" data-name="Trazado 113656" d="M43.309,51.54c-1.359-.348-3.737,1.045-3.228,1.916s1.7,2.09.339,2.787-7.389,2.09-5.86,6.1c.259.679,2.547,1.67,1.713.935-1.06-.935-.619-4.041.834-4.942,1.027-.637,2.633-.174,3.823-1.393s-.511-3.484.849-4.355,2.483.6,2.888-.175c.3-.57-1.359-.871-1.359-.871" transform="translate(-6.449 -9.676)" fill="#694343"/>
        <path id="Trazado_113657" data-name="Trazado 113657" d="M53.765,36.358c0-1.742-1.808-4.906-3.676-5.081s-3.039,1.255-3.287,1.161c-.356-.133.569-1.945,3.287-1.77s4.417,2.265,4.417,2.961a14.165,14.165,0,0,1-.741,2.729" transform="translate(-8.783 -5.762)" fill="#694343"/>
        <path id="Trazado_113658" data-name="Trazado 113658" d="M22.788,58.22c.806.248-2.242,1.523-1.436,5.325.5,2.352,3.059,5.873,5.481,5.785,3.062-.11,4.535.869,5.319,3.306a2.142,2.142,0,0,0,2.52,1.355l-.09.526A2.064,2.064,0,0,1,31.5,73.148c-.769-2.3-1.341-2.992-2.791-3.156s-3.653.661-5.588-1.818-2.981-4.711-2.336-7.025a4.4,4.4,0,0,1,2-2.928" transform="translate(-3.871 -10.942)" fill="#694343"/>
        <path id="Trazado_113659" data-name="Trazado 113659" d="M37.5,87.41c0-1.22-1.383-3-3.917-2.8a6.993,6.993,0,0,0-3.115.93s-.015-2.773-2.392-3.645-3.888,1.877-2.59,2.482c.779.363.736-.028.736-.028s-1.571-1.307.935-1.916a2.26,2.26,0,0,1,2.109,1.727c0,.871-.325,2.193,1.2,1.844s2.862-1.153,4.077-.7c2.322.871,2.36,1.759,2.87,2.107s.084,0,.084,0" transform="translate(-4.7 -15.359)" fill="#694343"/>
        <path id="Trazado_113660" data-name="Trazado 113660" d="M35.2,92.36c1.529,0,2.038-2.439.849-3.309s-.637,0,0,.653c.51.522-.467,2.525-2.123,2.265a1.655,1.655,0,0,0,1.273.391" transform="translate(-6.376 -16.668)" fill="#694343"/>
        <path id="Trazado_113661" data-name="Trazado 113661" d="M21.495,81.286c.977-3.179,2.718-1.7,2.973-1.916.365-.312-3.27-1.35-3.355,1.089-.037,1.076.382.827.382.827" transform="translate(-3.968 -14.825)" fill="#694343"/>
        <path id="Trazado_113662" data-name="Trazado 113662" d="M46.154,94.212c-2.264.465-3.3-2.673-2.945-3.774.34-1.045-.17-1.162-.566-.233-.363.852-.039,3.317.66,3.632a11.959,11.959,0,0,0,2.85.375" transform="translate(-7.986 -16.835)" fill="#694343"/>
        <path id="Trazado_113663" data-name="Trazado 113663" d="M46.5,17.013c.4-.348,1.7,1.327,2.265,2.509a8.169,8.169,0,0,1,.567,2.37c.171,2.092-1.955,3.008-1.73,2.171.127-.468,1.221-.5,1.052-2.867-.2-2.8-2.4-3.964-2.153-4.182" transform="translate(-8.736 -3.189)" fill="#694343"/>
        <path id="Trazado_113664" data-name="Trazado 113664" d="M42.039,23.83c1.768.834,3.681,1.9,5.539,1.64a3.422,3.422,0,0,1,3.276.923c.659.254-.654-1.277-1.229-1.5a.59.59,0,0,0-.1-.027c.776-.606,1.639-1.3,1.594-2.429-.071-1.773.056-2.093-.233-1.846s-.094,2.22-.65,2.815c-.842.9-2.365,2.172-4.094,1.508s-3.857-1.845-5.68-2.453c-2-.665-5.607-1.869-6.824,1.449a2.35,2.35,0,0,0,.2,2.26c0-6.793,6.433-3.175,8.2-2.342" transform="translate(-6.287 -3.857)" fill="#694343"/>
        <path id="Trazado_113665" data-name="Trazado 113665" d="M36.436,65.711c-1.529-1.219-3.143-2.7-5.011-2.874a4.982,4.982,0,0,1-4.276-3.484c-.1-.7-1.185.187,1.807,3.428.023.025-.345.3-.312.312-1.14.279-1.334.81-1.551,1.921-.339,1.742,1.023,2.6.849,2.265-.357-.7-.764-2.352.426-3.048a4.127,4.127,0,0,1,4.389-.079c1.529,1.046,2.472,2.183,4.176,2.867,1.954.784,3.58,1.306,4.43.086a5.271,5.271,0,0,0,.849-2.7c-1.443,3.31-4.247,2.526-5.775,1.307" transform="translate(-5.051 -11.113)" fill="#694343"/>
        <path id="Trazado_113666" data-name="Trazado 113666" d="M18,58.656a7.353,7.353,0,0,1,.933,2.707c0,.655-.4,1.648-.405,2.677,0,.387.017.818.065,1.308a3.253,3.253,0,0,0,.794,2.085c.361.347.6.469.643.631a5.513,5.513,0,0,0,4.111,3.657l0,.011a3.221,3.221,0,0,0,.166.779c.27.7.973,1.457,2.875,2.12.188.062.309.228.611.674a10.059,10.059,0,0,0,1.576,1.83,4.244,4.244,0,0,0,1.9,1.125A34.163,34.163,0,0,0,35.1,79.384c.979.165,2.083-.02,3.28.225a17.423,17.423,0,0,0,3.412.42H41.8a8.72,8.72,0,0,0,3.732-1.019,5.405,5.405,0,0,0,2.789-3.279c.071-.292.478-.186,1.108-1.05.607-.834.123-2.62.153-3.813a3.2,3.2,0,0,0,.118-.724c.193-2.247-.5-4.939-.492-7.386a15.469,15.469,0,0,1-.063-1.932c.611-1.947.237-3.339.817-5.055a6.456,6.456,0,0,0,.247-1.958,10.5,10.5,0,0,0-.395-3.03,10.909,10.909,0,0,1-.922-4.283c0-.356.015-.744.047-1.175a14.034,14.034,0,0,1,.645-2.144,12.254,12.254,0,0,0,.622-3.758c0-.231-.006-.469-.023-.713a34.678,34.678,0,0,0-.858-5.094.642.642,0,0,1,.058-.282,10.628,10.628,0,0,0,.986-4.388,10.082,10.082,0,0,0-1.338-4.956.839.839,0,0,1-.076-.4,6.854,6.854,0,0,1,.384-1.774,7.334,7.334,0,0,0,.421-1.77c0-.009,0-.026,0-.054a8.589,8.589,0,0,0-1.446-4.418c0-.088.006-.174.006-.259a3.065,3.065,0,0,0-1.377-2.6c-1.216-.655-2.252,0-2.532-.28-1.119-1.119-4.085-.15-5.065.6A7.15,7.15,0,0,1,35.838,14.9a7.647,7.647,0,0,0-1.734.427,4.3,4.3,0,0,0-2.274,2.254,5.538,5.538,0,0,1-.51,1.025,19.061,19.061,0,0,1-2.508,1.2,3.066,3.066,0,0,0-1.495,1.63,5.708,5.708,0,0,1-1.944,3.013c-1.169.794-.4,2.605-1.3,3.005-1.769.793-1.885,5.591-2.676,6.436-1.4,1.5-2.111,2.417-1.87,3.926.093.584.552,1.592.561,1.846a17.488,17.488,0,0,0-.826,2.189,14.428,14.428,0,0,0,.167,2.919,7.263,7.263,0,0,0-1.2,2.052,25.3,25.3,0,0,0-1.631,6.84A10.384,10.384,0,0,0,18,58.656m.557.165a12.985,12.985,0,0,1-1.237-5.451c0-1.4,1.034-4.51,1.286-5.55.564-2.357,1.558-2.154,1.605-2.995.015-.274-.82-.175-.351-2.945.234-1.378.584-2,.584-2.243,0-.616.612-.374.211-.841a2.173,2.173,0,0,1-.187-2.758,16.005,16.005,0,0,1,1.705-2.033c.948-2.418.789-4.533,2.191-5.775,1.525-1.352.232-2.708,1.479-3.549a5.057,5.057,0,0,0,2.069-2.972,2.78,2.78,0,0,1,1.144-1.526l.1-.083a13.867,13.867,0,0,0,2.289-1.085c.376-.325.452-.787.713-1.272a3.15,3.15,0,0,1,1.291-1.406,6.256,6.256,0,0,1,2.5-.711A7.734,7.734,0,0,0,39.7,13.66c.922-.693,2.878-2.089,4.623-.632.333.278,1.833-.331,2.459.1.844.574.9,1.177.905,2.191,0,.112,0,.229-.014.35l-.012.16.093.12s.073.093.194.286a7.082,7.082,0,0,1,.456.84,7.718,7.718,0,0,1,.724,2.955v.019h0a7.211,7.211,0,0,1-.385,1.52,7.572,7.572,0,0,0-.421,2.024,1.651,1.651,0,0,0,.177.8,9.249,9.249,0,0,1,1.238,4.555,9.769,9.769,0,0,1-.913,4.045,1.5,1.5,0,0,0-.131.624c.027.991.659,1.942.86,5.148l.318-.028-.318.029c.015.223.022.443.022.657a11.39,11.39,0,0,1-.584,3.5,13.289,13.289,0,0,0-.68,2.335c-.033.448-.05.859-.05,1.239a11.745,11.745,0,0,0,.974,4.573,9.946,9.946,0,0,1,.343,2.739,5.653,5.653,0,0,1-.2,1.686c-.6,1.787-.908,3.432-1.5,5.322a7.694,7.694,0,0,0-.292,2.262,21.34,21.34,0,0,0,1.063,6.111,4.546,4.546,0,0,1,.313,1.571c0,.971.292,2.33-.315,3.166s-1.147,1-.994,1.748c.179.874-1.614,1.92-2.227,2.413a7.3,7.3,0,0,1-3.623,1.194,8.276,8.276,0,0,1-3.506-1.069,7.427,7.427,0,0,1-3.006.5c-2.685-.458-1.968-1.89-2.756-1.623a2.9,2.9,0,0,1-2.759-.54,9.317,9.317,0,0,1-1.475-1.713c-.281-.406-.49-.765-.926-.923a5.19,5.19,0,0,1-2.158-1.213,1.469,1.469,0,0,1-.408-.875,1.413,1.413,0,0,0-.158-.6.532.532,0,0,0-.39-.237,4.855,4.855,0,0,1-3.641-3.227c-.218-.519-.578-.633-.8-.888a2.442,2.442,0,0,1-.581-1.613c-.045-.461-.061-.862-.061-1.223,0-.955.118-1.636.119-2.4a6.065,6.065,0,0,0-.728-2.823" transform="translate(-3.12 -2.242)" fill="#694343"/>
        <path id="Trazado_113667" data-name="Trazado 113667" d="M32.986,21.242c.978-.277,3.2-1.121,3.5.561.216.083.376.439.328,0-.234-2.127-1.918-1.557-2.467-1.307s-1.366.745-1.366.745" transform="translate(-6.2 -3.803)" fill="#694343"/>
      </g>
    </g>
    <g id="Grupo_56757" data-name="Grupo 56757" transform="translate(43.956 9.756)">
      <g id="Grupo_56756" data-name="Grupo 56756" clip-path="url(#clip-path-6)">
        <rect id="Rectángulo_33984" data-name="Rectángulo 33984" width="34.469" height="68.335" transform="translate(-1.09 0)" fill="url(#linear-gradient-2)"/>
      </g>
    </g>
    <g id="Grupo_56759" data-name="Grupo 56759">
      <g id="Grupo_56758" data-name="Grupo 56758" clip-path="url(#clip-path)">
        <path id="Trazado_113669" data-name="Trazado 113669" d="M59.271,80.841c1.408.206,2.232,1.623,2.635,3.273s-.2,3.918-.8,3.506c0,1.443,1.81-.825,1.81-1.444.6,1.237,3.419.412,3.821-.825-1.407.413-2.816,1.031-3.419-.619a7.688,7.688,0,0,0-1.81-3.3,6.992,6.992,0,0,0-2.232-.592" transform="translate(-11.14 -15.194)" fill="#694343"/>
        <path id="Trazado_113670" data-name="Trazado 113670" d="M69.794,83.326a2.711,2.711,0,0,0,1.132-2.149c0-1.393-.339-2.09-2.038-4.18,2.209.174,3.765-2,3.087-3.4s-1.546-3-3.6-2.526c-5.04,1.16-8.494,1.567-9.6,1.336A5.453,5.453,0,0,1,55.3,69.041a5.5,5.5,0,0,0,2.435,4.065c1.472.7,4.36.231,7.078-.465s5.238-1.945,6,1.1c0,0,.17,2.149-2.888,3.136-1.077.174,2.379,2.382,2.435,3.774.113,2.845-1.252,3.374-.566,2.671" transform="translate(-10.393 -12.976)" fill="#694343"/>
        <path id="Trazado_113671" data-name="Trazado 113671" d="M75.224,69.729c-.708,1.453,3.955-2.137,5.323-1.974,2.466.292,2.491-.581,2.945-3.136s.68-5.343-2.038-8.362-2.663-7.607-.4-7.607c-1.812-.464-3.907,2.5-2.773,4.355s3.679,4.064,4.133,6.62.623,6.851-.962,6.851-6.116,3.02-6.229,3.252" transform="translate(-14.124 -9.135)" fill="#694343"/>
        <path id="Trazado_113672" data-name="Trazado 113672" d="M54.733,59.2c-.3-.814-.391-1.309-.16-1.28,6.583.832,8.376-3.29,6.8-7.367-1.058-2.73-1.654-3.885-1.121-5.468.565-1.684,2.465-5.045,2.023-6.462-.65-2.089-1.784-3.832-4.869-1.568,1.133-1.393,2.037-3.019,3.85-1.393-.227-1.858,2.208-4.877,4.757-3.716-3.822-.551-4.53,3.019-3.4,5.109s.169,2.875-.453,5.575c-.472,2.047-2.1,3.833-.736,5.924a8.131,8.131,0,0,1,1.018,6.387c-1.3,4.355-7.708,4.26-7.708,4.26" transform="translate(-10.232 -5.954)" fill="#694343"/>
        <path id="Trazado_113673" data-name="Trazado 113673" d="M79.34,40c-1.133-.581-2.106,1.439-3.143,2.7-1.373,1.67-3.827-.422-4.465-1.607A4.13,4.13,0,0,0,68.3,38.577a3.627,3.627,0,0,0-3.483,2.293l.126.394a3.838,3.838,0,0,1,3.13-1.99,3.473,3.473,0,0,1,2.945,2.206c1.359,2.788,4.163,3.325,5.182,2.047s1.931-3.374,3.1-2.874a1.984,1.984,0,0,1,1.061,2.961c1.4-1.567.089-3.047-1.019-3.614" transform="translate(-12.182 -7.249)" fill="#694343"/>
        <path id="Trazado_113674" data-name="Trazado 113674" d="M73.349,22.614c-.272-.128-.339-.7-.339-.7a3.74,3.74,0,0,1,3.68,4.82c.284.348,8.523,4.907,4.191,10.481a9.2,9.2,0,0,0-1.19.088s2.662-3.949.4-6.5a17.6,17.6,0,0,0-4.133-3.58s1.241-2.664-.849-4.027a15.3,15.3,0,0,0-1.756-.581" transform="translate(-13.722 -4.119)" fill="#694343"/>
        <path id="Trazado_113675" data-name="Trazado 113675" d="M83.33,34.858c2.038-.174,4.53,2.788,3.624,7.084,0,0,2.654,2.7-1.833,5.135,0,0,4.1-3.16,1.039-4.786,0,0,.68-3.485-.452-4.762A5.6,5.6,0,0,0,83.444,35.9Z" transform="translate(-15.661 -6.55)" fill="#694343"/>
        <path id="Trazado_113676" data-name="Trazado 113676" d="M59.626,16.434c1.622-1.553,3.293-.166,4.1.861.405.25,1.3-2.251,5.207-1.205-3.143-2.265-5.181.319-5.181.319a3.339,3.339,0,0,0-2.841-1.056c-1.288.278-1.288,1.082-1.288,1.082" transform="translate(-11.206 -2.849)" fill="#694343"/>
        <path id="Trazado_113677" data-name="Trazado 113677" d="M54.88,21.512c1.442,3.31,3.86,3.335,5.388,2.115s3.529-3.509,5.4-3.683,3.992.436,4.332,2.178-.51,2.439-.849,2.265.765-2.353-.425-3.049c-1.062-.623-2.8-1.568-4.332-.522s-2.542,3.061-4.246,3.745c-1.954.784-3.567.871-4.417-.348a5.277,5.277,0,0,1-.849-2.7" transform="translate(-10.314 -3.743)" fill="#694343"/>
        <path id="Trazado_113678" data-name="Trazado 113678" d="M58.377,19.822c.4-1.087,2.362-1.951,2.872-1.254s-.179.5-1.109.665a2.936,2.936,0,0,0-1.646,2.456c.1.555-.015.568-.191.055a2.951,2.951,0,0,1,.074-1.923" transform="translate(-10.933 -3.443)" fill="#694343"/>
        <path id="Trazado_113679" data-name="Trazado 113679" d="M66.906,25.409c1.359-.348,3.737,1.045,3.228,1.916s-1.7,2.09-.339,2.787,7.389,2.09,5.861,6.1c-.472,1.236.68-2-2.548-4.007-1.028-.637-2.633-.174-3.822-1.393s.51-3.484-.849-4.355-2.888.7-2.888-.175,1.359-.871,1.359-.871" transform="translate(-12.319 -4.765)" fill="#694343"/>
        <path id="Trazado_113680" data-name="Trazado 113680" d="M63.3,61.176c.17,1.046,2.406,4.413,5.463,3.368s6.794-1.446,8.069.679A5.187,5.187,0,0,1,77.4,69.5c-.138.3-1.463.979-1.29.787.737-.813,1.216-4.162-1.145-5.077-1.955-.758-3.293-.43-5.688.206-3.057.814-6.059-1.8-6.4-2.845a1.055,1.055,0,0,1,.425-1.393" transform="translate(-11.801 -11.498)" fill="#694343"/>
        <path id="Trazado_113681" data-name="Trazado 113681" d="M69.094,44.378c-1.868.522-1.953,2.09-1.274,4.53s2.549,6.271,4.246,5.749,4.928.348,4.589,1.219-.213.567-1.233-.13-2.845.3-4.713-.566S66.631,49.6,66.8,47.339s1.19-4.093,2.718-3.4-.425.436-.425.436" transform="translate(-12.553 -8.231)" fill="#694343"/>
        <path id="Trazado_113682" data-name="Trazado 113682" d="M68.438,50.663c1.529.522,6.064-2.317,5.1-3.31a3.717,3.717,0,0,0-1.02-.7c1.529-.175,2.209,1.219,1.529,1.742s-1.359,1.51-.849,1.51,2.322-.058,1.644.291c-.594.3-1.683-.493-3.115.581-2.208,1.655-3.455.754-3.455.754Z" transform="translate(-12.83 -8.766)" fill="#694343"/>
        <path id="Trazado_113683" data-name="Trazado 113683" d="M54.782,35.4c-1.029-2.517,1.807-4.906,3.676-5.08s2.548,1.045,3.057.871c.361-.123-.339-1.655-3.057-1.48s-4.418,2.265-4.418,2.961a14.153,14.153,0,0,0,.741,2.729" transform="translate(-10.157 -5.581)" fill="#694343"/>
        <path id="Trazado_113684" data-name="Trazado 113684" d="M80.157,49.4a1.749,1.749,0,0,1,2.124-.7c1.854,1.023,2.661,5.11,3.17,3.716s3.567-1.393,4.247-.522a3.1,3.1,0,0,1,.68,1.742,2.148,2.148,0,0,0-1.869-1.393c-1.359,0-2.379,1.045-3.058,1.219s-1.742-2.8-2.888-3.484a1.453,1.453,0,0,0-2.378.871Z" transform="translate(-15.065 -9.127)" fill="#694343"/>
        <path id="Trazado_113685" data-name="Trazado 113685" d="M83.781,54.6c-.567,0,.452,2.09,1.813,2.787s3.057.348,2.887,1.916-3.4,3.31-3.4,3.31l-.171,1.044s5.606-3.367,4.248-5.109-2.492-1.219-3.4-1.8A6.722,6.722,0,0,1,83.781,54.6" transform="translate(-15.716 -10.261)" fill="#694343"/>
        <path id="Trazado_113686" data-name="Trazado 113686" d="M86.517,61.629c-.85.261,2.362,1.605,1.513,5.612-.526,2.479-3.224,6.189-5.776,6.1-3.228-.116-4.779.916-5.606,3.485a2.258,2.258,0,0,1-2.655,1.428l.094.555a2.176,2.176,0,0,0,3.245-1.443c.81-2.428,1.412-3.152,2.942-3.327s3.849.7,5.887-1.916,3.143-4.966,2.463-7.4a4.637,4.637,0,0,0-2.106-3.087" transform="translate(-13.906 -11.583)" fill="#694343"/>
        <path id="Trazado_113687" data-name="Trazado 113687" d="M71.368,88.787c0-1.22.995-4.637,4.021-4.181a10.474,10.474,0,0,1,3.113.929s.015-2.772,2.392-3.644,3.888,1.877,2.591,2.482c-.779.363-.737-.028-.737-.028s1.572-1.307-.935-1.916a2.261,2.261,0,0,0-2.109,1.727c0,.871.325,2.192-1.2,1.844s-2.862-1.153-4.077-.7c-2.322.871-2.463,3.136-2.972,3.485s-.085,0-.085,0" transform="translate(-13.382 -15.359)" fill="#694343"/>
        <path id="Trazado_113688" data-name="Trazado 113688" d="M76.078,92.36c-1.53,0-2.039-2.439-.85-3.309s.637,0,0,.653c-.509.522.467,2.525,2.124,2.265a1.656,1.656,0,0,1-1.273.391" transform="translate(-14.015 -16.668)" fill="#694343"/>
        <path id="Trazado_113689" data-name="Trazado 113689" d="M89.644,81.286c-.978-3.179-2.719-1.7-2.973-1.916-.365-.312,3.269-1.35,3.355,1.089.038,1.076-.382.827-.382.827" transform="translate(-16.285 -14.825)" fill="#694343"/>
        <path id="Trazado_113690" data-name="Trazado 113690" d="M64.921,94.212c2.264.465,3.3-2.673,2.945-3.774-.34-1.045.17-1.162.567-.233.362.852.037,3.317-.661,3.632a11.955,11.955,0,0,1-2.85.375" transform="translate(-12.202 -16.835)" fill="#694343"/>
        <path id="Trazado_113691" data-name="Trazado 113691" d="M60.613,81.316a3.88,3.88,0,0,0-5.152.58,2.565,2.565,0,0,0-.361,2.361s3.292-5.328,5.869-.943c1.087,1.848-.355-2-.355-2" transform="translate(-10.329 -15.147)" fill="#694343"/>
        <path id="Trazado_113692" data-name="Trazado 113692" d="M55.3,50.1a2.878,2.878,0,0,0,2.944,1.567c.68,0,.11.394-.114.465-1.641.522-2.83-.639-1.981.232s1.756,1.22,2.038,2.845c.175,1,.14,1.268-.339,0a2.2,2.2,0,0,0-2.07-1.691Z" transform="translate(-10.393 -9.417)" fill="#694343"/>
        <path id="Trazado_113693" data-name="Trazado 113693" d="M59.591,40.144c-.4-.291-1.7,1.105-2.265,2.09a5.864,5.864,0,0,0-.567,1.974c-.171,1.743,1.7,2.381,1.473,1.684-.127-.39-.964-.291-.794-2.265.2-2.331,2.4-3.3,2.153-3.484" transform="translate(-10.666 -7.538)" fill="#694343"/>
        <path id="Trazado_113694" data-name="Trazado 113694" d="M76.428,58.067c1.316,0,2,3.223-.849,2.788-.382.479,1.869.784,2.548-.436S78.849,58.5,78,57.98a1.373,1.373,0,0,0-1.572.087" transform="translate(-14.197 -10.857)" fill="#694343"/>
        <path id="Trazado_113695" data-name="Trazado 113695" d="M83.35,28.087c-1.415-1.161-4.115,1.29-3.447,1.679.4.231.953-1.388,2.82-1.231a2.5,2.5,0,0,1,1.61.527Z" transform="translate(-14.998 -5.221)" fill="#694343"/>
        <path id="Trazado_113696" data-name="Trazado 113696" d="M59.482,29.188a6.082,6.082,0,0,0,3.567-2.265c-.34,1.393-2.379,2.613-2.379,2.613Z" transform="translate(-11.179 -5.06)" fill="#694343"/>
        <path id="Trazado_113697" data-name="Trazado 113697" d="M91.913,64.813c.085-.784,1.2-2.169,2.223-1.3a5.585,5.585,0,0,0-.071-1.373s-2.575.493-2.575,1.538.424,1.133.424,1.133" transform="translate(-17.195 -11.679)" fill="#694343"/>
        <path id="Trazado_113698" data-name="Trazado 113698" d="M68.162,19.555A3.417,3.417,0,0,0,71.135,17.9c.583-.4-.339,1.393-.849,1.742s-2.124-.087-2.124-.087" transform="translate(-12.811 -3.353)" fill="#694343"/>
        <path id="Trazado_113699" data-name="Trazado 113699" d="M73.559,65.537a5.567,5.567,0,0,0-4.36,2.729c-.68.871-1.077.929-.567.058s1.7-2.439,2.547-2.613a15.81,15.81,0,0,1,2.379-.174" transform="translate(-12.856 -12.317)" fill="#694343"/>
        <path id="Trazado_113700" data-name="Trazado 113700" d="M64.169,73.622c-.287,2.581.643,5.328,2.075,5.661s.635.592-.322.5c-1.718-.166-3.62-5.219-2.184-6.118.931-.583.43-.042.43-.042" transform="translate(-11.884 -13.794)" fill="#694343"/>
        <path id="Trazado_113701" data-name="Trazado 113701" d="M56.189,86.857s.394,1.29,1.11,1.623,1.681-.791,2.253-1.79-.214-2.372-.43-1.915c.287,1.04-1.216,3.412-2.482,2.217Z" transform="translate(-10.56 -15.916)" fill="#694343"/>
        <path id="Trazado_113702" data-name="Trazado 113702" d="M87.27,53.45a14.574,14.574,0,0,0-.981-5c-.812-2.088-1.11-4.456-1.636-5.609-.322-.7-1.028-1.028-.982-1.729.018-.263,1-1.251.748-2.571-.258-1.367-.74-1.721-.7-2.15a9.575,9.575,0,0,0-.588-3.4,30.814,30.814,0,0,1-1.454-3.238,4.037,4.037,0,0,0-1.651-3.645c-.772-.6-1.308-.841-1.869-1.247-.485-.351-.737-1.638-1.368-3.5a3.069,3.069,0,0,0-1.5-1.63,19.061,19.061,0,0,1-2.508-1.2,5.6,5.6,0,0,1-.51-1.025A4.3,4.3,0,0,0,70,15.253a7.628,7.628,0,0,0-1.732-.427,7.146,7.146,0,0,1-3.509-1.857,7.172,7.172,0,0,0-4.915-1.411,4.413,4.413,0,0,0-2.889.895,3.491,3.491,0,0,0-1.171,2.793c0,.085,0,.171.007.259a8.569,8.569,0,0,0-1.447,4.418c0,.028,0,.045,0,.054a7.372,7.372,0,0,0,.421,1.77,6.894,6.894,0,0,1,.385,1.774.849.849,0,0,1-.076.4,10.071,10.071,0,0,0-1.339,4.956,10.63,10.63,0,0,0,.986,4.388.641.641,0,0,1,.057.282,34.872,34.872,0,0,0-.858,5.094c-.017.244-.023.482-.023.713a12.258,12.258,0,0,0,.622,3.758,14.034,14.034,0,0,1,.645,2.144c.031.431.047.819.047,1.175a10.91,10.91,0,0,1-.923,4.283,10.532,10.532,0,0,0-.394,3.03A6.448,6.448,0,0,0,54.14,55.7c.581,1.717.887,3.358,1.5,5.305.118.375-.371.853-.337,1.324,0,2.447-1.09,5.5-.9,7.744a3.2,3.2,0,0,0,.118.724,5.083,5.083,0,0,0,1.172,2.931c.63.863,1.037.758,1.108,1.05a12.4,12.4,0,0,0,2.461,4.282,4.611,4.611,0,0,0,3.042.9h.009a17.4,17.4,0,0,0,3.411-.42c1.2-.245,2.3-.061,3.28-.225a34.425,34.425,0,0,0,3.84-1.125,4.246,4.246,0,0,0,1.895-1.125,10.026,10.026,0,0,0,1.576-1.83c.3-.446.422-.613.611-.674,1.9-.663,2.605-1.419,2.875-2.12a3.179,3.179,0,0,0,.166-.78v-.01a5.515,5.515,0,0,0,4.113-3.657c.041-.162.281-.284.642-.631a3.245,3.245,0,0,0,.794-2.086c.048-.49.065-.92.065-1.307,0-1.029-.406-2.022-.405-2.677a7.353,7.353,0,0,1,.933-2.707A10.857,10.857,0,0,0,87.27,53.45m-2.447,8.124c0,.759.121,1.44.12,2.4,0,.361-.016.762-.062,1.223a2.447,2.447,0,0,1-.581,1.613c-.226.254-.586.369-.8.888a4.856,4.856,0,0,1-3.641,3.227.533.533,0,0,0-.39.237,1.4,1.4,0,0,0-.158.6,1.466,1.466,0,0,1-.409.875A5.174,5.174,0,0,1,76.74,73.85c-.436.158-.645.516-.926.923a9.326,9.326,0,0,1-1.475,1.712,2.9,2.9,0,0,1-2.759.541c-.789-.266-.072,1.165-2.756,1.623a7.422,7.422,0,0,1-3.005-.5,8.284,8.284,0,0,1-3.507,1.069,4.06,4.06,0,0,1-2.689-.768,8.285,8.285,0,0,1-1.57-4.338c.152-.744-1.272-.033-1.874-.863A4.228,4.228,0,0,1,55.154,70.7a4.565,4.565,0,0,1,.313-1.571c.322-.892.064-4,.068-6.468,0-.8.915-1.226.7-1.905-.594-1.89-.9-3.535-1.5-5.322a5.656,5.656,0,0,1-.2-1.686A9.9,9.9,0,0,1,54.876,51a11.744,11.744,0,0,0,.973-4.573c0-.38-.016-.791-.05-1.239a13.138,13.138,0,0,0-.68-2.335,11.4,11.4,0,0,1-.583-3.5c0-.214,0-.434.021-.657l-.318-.029.318.028c.2-3.207.833-4.158.86-5.148a1.5,1.5,0,0,0-.131-.624,9.771,9.771,0,0,1-.914-4.045,9.254,9.254,0,0,1,1.238-4.556,1.655,1.655,0,0,0,.177-.8,7.542,7.542,0,0,0-.422-2.024,7.3,7.3,0,0,1-.384-1.52v-.019A7.742,7.742,0,0,1,55.706,17a7.353,7.353,0,0,1,.456-.84c.121-.193.194-.284.194-.286l.093-.12-.013-.16c-.008-.122-.013-.238-.013-.35a2.692,2.692,0,0,1,.905-2.192,3.865,3.865,0,0,1,2.517-.755c2.617.008,3.644.6,4.565,1.292a7.738,7.738,0,0,0,3.753,1.967,6.252,6.252,0,0,1,2.5.711,3.141,3.141,0,0,1,1.291,1.406c.261.486.338.948.714,1.272a13.907,13.907,0,0,0,2.29,1.085l.1.083A2.78,2.78,0,0,1,76.2,21.639a33.837,33.837,0,0,0,1.244,3.378,11.482,11.482,0,0,1,2.648,1.838,3.329,3.329,0,0,1,.966,2.742c-.172.449.573,1.463,1.543,3.684a6.742,6.742,0,0,1,.3,3.482c-.047.187.89.288,1.005,1.986a2.161,2.161,0,0,1-1.122,2.408c-.327.7.823.876,1.074,1.682.8,2.566,1.873,4.826,2.3,6.621a16.32,16.32,0,0,1,.629,3.84,12.985,12.985,0,0,1-1.237,5.451,6.065,6.065,0,0,0-.728,2.823" transform="translate(-10.099 -2.172)" fill="#694343"/>
        <path id="Trazado_113703" data-name="Trazado 113703" d="M77.758,20.982a3.915,3.915,0,0,0-2.72.277c-.214.084-.286-.11.1-.332s1.122-.639,1.67-.389.954.444.954.444" transform="translate(-14.07 -3.845)" fill="#694343"/>
        <path id="Trazado_113704" data-name="Trazado 113704" d="M48.94,93.66c0-1-.2-2.566,1.432-3.5a3.4,3.4,0,0,1,3.288.111c.71-.717.582-.777.582-.777s-1.527-1.272-4.135.222a3.872,3.872,0,0,0-1.75,4.218c.213.722.583-.278.583-.278" transform="translate(-9.07 -16.726)" fill="#694343"/>
        <path id="Trazado_113705" data-name="Trazado 113705" d="M45.987,57.876c-1.7-.888-4.043,3.191-2.89,5.731.968,2.131,3.937,7.158,4.732,8.657.784,1.477-.075,3.608-2.823,1.29-2.863-2.414-4.652-2.83-7.2-.833-2.335,1.834,1.392,5.134,2.718,5.356s3.339.443,2.491,1.554c0,0,.239,0,.318-.333s.477-1.5-1.67-1.582-4.413-2.671-3.9-3.87a3.207,3.207,0,0,1,3.658-1.624,8.749,8.749,0,0,1,3.817,2.248c1.113,1.082,2.7,1.415,3.26.416s.477-2-.477-3.62c-.81-1.376-3.511-6.764-4.215-7.95-.914-1.54.24-4.246,1.272-4.578L46.12,58.4Z" transform="translate(-6.965 -10.854)" fill="#694343"/>
        <path id="Trazado_113706" data-name="Trazado 113706" d="M41.405,82.556c-1.087,1.055-2.616,3.741-1.246,5.05,1.22,1.166,3.526.694,5.805-1.082.637-.334.61-.75,1.087-.583a3.825,3.825,0,0,0,4.877-3.385l.053-.971a5.858,5.858,0,0,1-.954,2.109,3.939,3.939,0,0,1-3.791,1.721c-.689,0-.883-.173-1.352.443-.927,1.221-4.867,2.315-5.355,1.082a4.155,4.155,0,0,1,1.432-4.328c.425-.056-.556-.056-.556-.056" transform="translate(-7.446 -15.334)" fill="#694343"/>
        <path id="Trazado_113707" data-name="Trazado 113707" d="M39.726,21.71c.607-2.15,1.465-2.68,2.587-2.555s1.869,1.121,2.617.872,1.371-1.308,1.994-.529c.281.351-.468-.826-.468-.826a8.152,8.152,0,0,1-1.651.888c-.467.093-.794-.437-1.589-.717a2.384,2.384,0,0,0-2.492.032,3.957,3.957,0,0,0-1.465,2.741c.047.28.467.093.467.093" transform="translate(-7.378 -3.477)" fill="#694343"/>
        <path id="Trazado_113708" data-name="Trazado 113708" d="M31.049,30.025c.253-1.682,1.358-4.392,3.348-3.364,1.5.776,3.791,2.305,6.791,1.433,2.667-.776,5.149.966,2.5,4.02-.158.405-.335-.078-.335-.078s2.483-3.163-.486-3.444c-1.792-.169-3.032.842-5.118.281s-3.411-1.9-4.454-1.341S31.712,28.9,31.838,30.68c.037.527-.789-.655-.789-.655" transform="translate(-5.836 -4.968)" fill="#694343"/>
        <path id="Trazado_113709" data-name="Trazado 113709" d="M17.618,57.123c.607-2.15,2.475-4.623,4.347-1.543.093.561.981.032,1.355-.467s4.876-4.347,3.506-5.842-3.646-1.7-3.646-2.571,2.641-.987,2.84-2.2-.549-1.213-.549-1.213.514,1.169-.234,1.542-3.007,1.2-2.758,2.322,1.823,1.075,2.945,1.7.717,2.711-.281,3.459-2.1,2.758-3.318,1.449a2.359,2.359,0,0,0-3.72.845,20.165,20.165,0,0,0-.486,2.521" transform="translate(-3.311 -8.136)" fill="#694343"/>
        <path id="Trazado_113710" data-name="Trazado 113710" d="M19.921,53.355c.421-.327,2.538-1.653,3.583-1.441s.992-.194.156-.405-2.886.352-2.929.685-.81,1.161-.81,1.161" transform="translate(-3.744 -9.672)" fill="#694343"/>
        <path id="Trazado_113711" data-name="Trazado 113711" d="M22.05,39.609c1.543-1.519,4.11-3.794,6.45-2.1,1.683,1.215,4.44.841,5.095,0s.654-1.122.654-1.122.281-.374-.093-.187a8.792,8.792,0,0,1-1.823,1.169,4.643,4.643,0,0,1-3.692-.374,3.323,3.323,0,0,0-4.02-.234,4.235,4.235,0,0,0-1.776,1.5Z" transform="translate(-4.144 -6.793)" fill="#694343"/>
        <path id="Trazado_113712" data-name="Trazado 113712" d="M36.662,43.289c.374,1.5,1.309,3.739-.063,5.484-1.048,1.333-4.425,3.49-4.8,5.36s-.172,5.6.35,5.727c-.849.007-.911-.055-.911-.055s-1.308-5.173.312-7.042,4.237-3.553,4.985-5.173-.872-3.178-.872-3.178Z" transform="translate(-5.778 -8.136)" fill="#694343"/>
        <path id="Trazado_113713" data-name="Trazado 113713" d="M43.194,43.365c-1.5.5-2.919,1.566-2.618,3.178.5,2.68-2.742,1.994-2.992,2.243-.373.374,3.864.749,3.74-1.371-.058-1-.624-2.617.749-3.116s1.869.125,1.994-.374-.872-.561-.872-.561" transform="translate(-7.059 -8.15)" fill="#694343"/>
        <path id="Trazado_113714" data-name="Trazado 113714" d="M24.991,72.067c.56.748-.654,2.586-2.088,2.337-1.289-.224-1.4-1.623-1.651-1.558-.717.187.436,2.087,1.932,2.275s.5-.624,1.807.124-.166,1.546,1.683,3.241c2.244,2.056,8.164,3.178,9.846,1.5l-.747-.686s-.529.841-2.275.78-5.852-.939-6.825-2.493a17.6,17.6,0,0,1-.872-2.524c-.25-.312-1.731-.694-1.372-.749.624-.093,1.714-1.526,1.341-1.9a1.077,1.077,0,0,0-.78-.343" transform="translate(-3.953 -13.545)" fill="#694343"/>
        <path id="Trazado_113715" data-name="Trazado 113715" d="M36.46,66.772c.561,1.308-.56,2.43,0,3.552s.237-.76.468-1.5c.312-1,1.869-.655,1.869-.655Z" transform="translate(-6.822 -12.549)" fill="#694343"/>
        <path id="Trazado_113716" data-name="Trazado 113716" d="M27.288,35.819c1.4-.81.56-1.932.935-2.43a3.031,3.031,0,0,1,.405,1.808,1.106,1.106,0,0,1-.468.748Z" transform="translate(-5.129 -6.274)" fill="#694343"/>
        <path id="Trazado_113717" data-name="Trazado 113717" d="M20.761,44.962s1.511.4,3.506-1.472,2.452-2.348,3.084-2.594.819-.8-.117-.351c-.563.267-3.225,2.8-5.024,3.318A1.6,1.6,0,0,1,20.2,43a12.989,12.989,0,0,0,.561,1.963" transform="translate(-3.789 -7.589)" fill="#694343"/>
        <path id="Trazado_113718" data-name="Trazado 113718" d="M52.235,45.674c-.685-3.116-5.671-4.923-6.231-2.493s3.053,4.363,2.679,6.045a1.628,1.628,0,0,1-2.076,1.225s.269.084,1.2-.851-.875-1.9-2.181-4.238c-1.184-2.119-1.731-3.442.81-4.175s5.671,1.932,6.045,2.867a1.6,1.6,0,0,1-.249,1.62" transform="translate(-8.389 -7.717)" fill="#694343"/>
        <path id="Trazado_113719" data-name="Trazado 113719" d="M48.336,39.334c1.917-.966,3.1-3.022.737-3.989s-4.424-1.631-1.917-3.294c1.033-1.057.455-.457.455-.457l.421.046s-2.121,1.094-.795,1.94,3.531,1.194,3.826,2.524S50.4,39.7,49.515,39.939a.958.958,0,0,1-1.18-.6" transform="translate(-8.648 -5.906)" fill="#694343"/>
        <path id="Trazado_113720" data-name="Trazado 113720" d="M54.076,56.147c-1.121-1.621-2.929-1.932-4.8-.81s-1.478,1.625-1.372,2.43c.257,1.927,2.681,1.87,2.93,3.116s-1.745.25-1.372,3.365,3.717,7.056,4.425,6.045a1.445,1.445,0,0,0,.142-1.311s-3.507-.372-3.757-5.17c-.072-1.375,1.807-1.931,1.433-2.929s-2.892-1.713-3.054-3.49a2.239,2.239,0,0,1,2.8-1.994,3.42,3.42,0,0,1,2.369,1.744Z" transform="translate(-8.984 -10.275)" fill="#694343"/>
        <path id="Trazado_113721" data-name="Trazado 113721" d="M45.713,52.179c.685.561.436,2.742-.436,2.867s-1.122.5-.561.561a2.14,2.14,0,0,0,1.87-1.184c.311-.748-.188-1.372.248-1.433a1.16,1.16,0,0,1,1.309.436c.5.841.6.686.374.156A2.144,2.144,0,0,0,47.4,52.428c-.188-.063-1.247-.561-1.5-.623s-.187.374-.187.374" transform="translate(-8.348 -9.735)" fill="#694343"/>
      </g>
    </g>
  </g>
</svg>
