<svg xmlns="http://www.w3.org/2000/svg" xmlns:xlink="http://www.w3.org/1999/xlink" width="90" height="90" viewBox="0 0 90 90">
  <defs>
    <clipPath id="clip-path">
      <rect id="Rectángulo_34017" data-name="Rectángulo 34017" width="90" height="90" fill="none"/>
    </clipPath>
    <clipPath id="clip-path-3">
      <rect id="Rectángulo_34014" data-name="Rectángulo 34014" width="85.283" height="85.283" fill="none"/>
    </clipPath>
    <clipPath id="clip-path-4">
      <rect id="Rectángulo_34015" data-name="Rectángulo 34015" width="31.301" height="2.121" fill="none"/>
    </clipPath>
  </defs>
  <g id="Grupo_56788" data-name="Grupo 56788" transform="translate(0.186 0.314)">
    <g id="Grupo_56798" data-name="Grupo 56798" transform="translate(-0.186 -0.314)">
      <g id="Grupo_56787" data-name="Grupo 56787" clip-path="url(#clip-path)">
        <g id="Grupo_56786" data-name="Grupo 56786">
          <g id="Grupo_56785" data-name="Grupo 56785" clip-path="url(#clip-path)">
            <g id="Grupo_56781" data-name="Grupo 56781" transform="translate(2.205 2.362)" opacity="0.41" style="mix-blend-mode: color-burn;isolation: isolate">
              <g id="Grupo_56780" data-name="Grupo 56780">
                <g id="Grupo_56779" data-name="Grupo 56779" clip-path="url(#clip-path-3)">
                  <path id="Trazado_113883" data-name="Trazado 113883" d="M87.741,45.1A42.642,42.642,0,1,1,45.1,2.458,42.641,42.641,0,0,1,87.741,45.1" transform="translate(-2.458 -2.458)" fill="#8a8a8a"/>
                </g>
              </g>
            </g>
            <path id="Trazado_113884" data-name="Trazado 113884" d="M44.621,89.241A44.621,44.621,0,1,1,89.242,44.62,44.672,44.672,0,0,1,44.621,89.241m0-85.284A40.663,40.663,0,1,0,85.283,44.62,40.709,40.709,0,0,0,44.621,3.957" transform="translate(0.226 0.383)" fill="#387db8"/>
            <g id="Grupo_56784" data-name="Grupo 56784" transform="translate(22.063 74.392)" style="mix-blend-mode: multiply;isolation: isolate">
              <g id="Grupo_56783" data-name="Grupo 56783">
                <g id="Grupo_56782" data-name="Grupo 56782" clip-path="url(#clip-path-4)">
                  <path id="Trazado_113885" data-name="Trazado 113885" d="M27.12,92.722c0-1.434,7.076-.525,15.719-.525s15.582-.788,15.582.525c0,.747-7.007,1.312-15.65,1.312S27.12,93.146,27.12,92.722" transform="translate(-27.12 -91.913)" fill="#e6e6e6"/>
                </g>
              </g>
            </g>
            <path id="Trazado_113886" data-name="Trazado 113886" d="M73.187,43.911c-1.331-1.573-1.6-4.3-1.642-5.928a16.887,16.887,0,0,0-.894-5.071,16.51,16.51,0,0,0-6.2-8.585A18.853,18.853,0,0,0,59,21.944a23.509,23.509,0,0,0-17.7,2.313A18.017,18.017,0,0,0,31.858,41.57a37.583,37.583,0,0,0,1.688,8.209,41.318,41.318,0,0,1,1.63,9.946c.29,6.1-2.035,12-3.87,17.72l-.075.017.063.02-.141.44,1.814.024a40.885,40.885,0,0,0,9.308,1.292,83.948,83.948,0,0,0,12.106-1.01,41.576,41.576,0,0,1,.483-6.269c.45-1.936,1.081-4.412,5.447-3.466s9,.54,11.255-.5,1.531-4.232,1.216-6.708.045-2.611.675-3.512-.45-1.4-.45-1.4c1.351-.63.766-1.621.766-1.621a2.754,2.754,0,0,1-.626-2.067,1.206,1.206,0,0,1,.956-1.118c2.675-.531,3.331-1.879,3.5-2.623.18-.81-2.431-2.7-4.412-5.042" transform="translate(-5.843 -3.738)" fill="#387db8"/>
            <path id="Trazado_113887" data-name="Trazado 113887" d="M41.992,46.091c.05.134.1.169.129.166a.423.423,0,0,0-.129-.166" transform="translate(-7.954 -8.596)" fill="#58b6f0"/>
            <path id="Trazado_113888" data-name="Trazado 113888" d="M43.046,47.332c-.01-.085-.046-.152-.077-.148s-.052.06-.043.125a.206.206,0,0,0,.077.147c.035.018.055-.036.043-.124" transform="translate(-8.135 -8.808)" fill="#58b6f0"/>
            <path id="Trazado_113889" data-name="Trazado 113889" d="M42.717,49.3c-.089.072-.009.37.1.359s.124-.275.03-.355a.1.1,0,0,0-.126,0" transform="translate(-8.088 -9.217)" fill="#58b6f0"/>
            <path id="Trazado_113890" data-name="Trazado 113890" d="M42.789,50.015c-.065.14-.046.18.119.238.085.03.158.092.163.138s.072.1.151.122a.611.611,0,0,1,.258.189.858.858,0,0,0-.577.261.57.57,0,0,1,.14.283.193.193,0,0,0,.109.163c.148.044.2.027.195-.064a.355.355,0,0,1,.1-.2c.1-.116.106-.117.151-.008.18.443.293.393.227-.1-.077-.573-.253-.816-.513-.746-.172.045-.192.035-.244-.13-.062-.2-.21-.278-.275-.141" transform="translate(-8.102 -9.346)" fill="#58b6f0"/>
            <path id="Trazado_113891" data-name="Trazado 113891" d="M41.507,26.644c-.257-.089-.327-.024-.2.046a.2.2,0,0,0,.2-.046" transform="translate(-7.808 -4.799)" fill="#58b6f0"/>
            <path id="Trazado_113892" data-name="Trazado 113892" d="M41.937,33.337c.057.028.115.031.131-.048a.537.537,0,0,0-.2-.076c-.023.042,0,.093.065.123" transform="translate(-7.929 -6.087)" fill="#58b6f0"/>
            <path id="Trazado_113893" data-name="Trazado 113893" d="M42.589,27.647c.183-.205.186-.267.012-.259-.106,0-.486.395-.422.447.088.072.242,0,.41-.188" transform="translate(-7.989 -4.952)" fill="#58b6f0"/>
            <path id="Trazado_113894" data-name="Trazado 113894" d="M42.536,27.112c.093-.107.1-.258.019-.275s-.144.038-.181.2c-.033.142.067.187.163.076" transform="translate(-8.027 -4.845)" fill="#58b6f0"/>
            <path id="Trazado_113895" data-name="Trazado 113895" d="M41.188,43.083c.042-.073-.041-.262-.111-.256-.03,0-.05.076-.043.163.012.157.09.2.154.093" transform="translate(-7.767 -7.96)" fill="#58b6f0"/>
            <path id="Trazado_113896" data-name="Trazado 113896" d="M46.3,67.707c-.032,0-.06.052-.063.119a.232.232,0,0,0,.049.166c.031.024.061-.027.066-.12s-.02-.163-.052-.165" transform="translate(-8.782 -12.806)" fill="#58b6f0"/>
            <path id="Trazado_113897" data-name="Trazado 113897" d="M43.949,62.665c.13.062.185.035.2,0-.152-.062-.206-.035-.2,0" transform="translate(-8.335 -11.817)" fill="#58b6f0"/>
            <path id="Trazado_113898" data-name="Trazado 113898" d="M40.253,27.716c.151-.338.2-.4.261-.344.04.033.027.129-.035.244-.11.2-.1.313,0,.269a.245.245,0,0,1,.18.062q.186.144.161-.085a.455.455,0,0,1,.133-.257c.159-.173.072-.284-.1-.124-.143.134-.217.028-.153-.232s-.048-.335-.156-.1c-.037.08-.1.143-.132.14a.782.782,0,0,0-.25.081c-.128.061-.194.125-.209.209a.215.215,0,0,1-.083.149c.225.112.339.089.379-.01" transform="translate(-7.541 -4.878)" fill="#58b6f0"/>
            <path id="Trazado_113899" data-name="Trazado 113899" d="M38.869,29.3c.291-.1.366-.252.17-.336a.437.437,0,0,1-.192-.182c-.056-.113-.072-.115-.135-.019s-.089.089-.147.011c-.151.142-.3.287-.439.435a.8.8,0,0,0,.744.091" transform="translate(-7.201 -5.208)" fill="#58b6f0"/>
            <path id="Trazado_113900" data-name="Trazado 113900" d="M40.076,36.536c0,.145.145.2.184.074a.238.238,0,0,0-.118-.258c-.053-.015-.066.021-.065.184" transform="translate(-7.581 -6.698)" fill="#58b6f0"/>
            <path id="Trazado_113901" data-name="Trazado 113901" d="M41.623,33.876c.16-.157.141-.207.04-.179-.069.019-.076.052-.04.179" transform="translate(-7.878 -6.18)" fill="#58b6f0"/>
            <path id="Trazado_113902" data-name="Trazado 113902" d="M39.684,39.694c-.08.034-.1.108-.035.149.085.056.228-.043.163-.113a.124.124,0,0,0-.127-.036" transform="translate(-7.49 -7.348)" fill="#58b6f0"/>
            <path id="Trazado_113903" data-name="Trazado 113903" d="M42.359,47.642a.183.183,0,0,0,.043-.149c-.16.159-.137.227-.043.149" transform="translate(-8.011 -8.869)" fill="#58b6f0"/>
            <path id="Trazado_113904" data-name="Trazado 113904" d="M41,41.782c-.04-.122-.064-.121-.193.023-.094.105-.1.129-.015.192.114.091.259-.063.209-.216" transform="translate(-7.71 -7.739)" fill="#58b6f0"/>
            <path id="Trazado_113905" data-name="Trazado 113905" d="M76.215,42.607a.162.162,0,0,0-.134.2c.036.119.234.038.225-.093,0-.065-.046-.113-.09-.105" transform="translate(-14.593 -7.917)" fill="#58b6f0"/>
            <path id="Trazado_113906" data-name="Trazado 113906" d="M75.837,28.879c.21-.265.208-.473-.006-.446a.4.4,0,0,1-.255-.079c-.1-.083-.118-.075-.129.056s-.036.138-.125.092-.116-.027-.127.105a.673.673,0,0,1-.079.263c-.28.405.376.428.721.009" transform="translate(-14.393 -5.13)" fill="#58b6f0"/>
            <path id="Trazado_113907" data-name="Trazado 113907" d="M78.078,37.94c-.036.22.093.31.17.112.05-.143.014-.365-.063-.4-.052-.021-.072.034-.107.284" transform="translate(-14.982 -6.952)" fill="#58b6f0"/>
            <path id="Trazado_113908" data-name="Trazado 113908" d="M73.959,26.79a1.374,1.374,0,0,1,.155-.221A.33.33,0,0,0,74.2,26.4c-.074-.068-.147-.135-.224-.2-.012.055-.025.109-.033.173-.066.464-.068.563.015.415" transform="translate(-14.168 -4.721)" fill="#58b6f0"/>
            <path id="Trazado_113909" data-name="Trazado 113909" d="M75.249,46.277c-.176.074-.2.1-.209.244-.014.206.245.111.37-.137.1-.2.081-.21-.162-.107" transform="translate(-14.391 -8.619)" fill="#58b6f0"/>
            <path id="Trazado_113910" data-name="Trazado 113910" d="M74.115,47.906c-.161.195-.179.306-.009.235.11-.051.265-.344.214-.393-.021-.022-.114.05-.205.158" transform="translate(-14.186 -8.918)" fill="#58b6f0"/>
            <path id="Trazado_113911" data-name="Trazado 113911" d="M53.388,59.041c-.081.089.019.265.13.228-.008-.1-.021-.156,0-.184.045-.08-.053-.117-.126-.043" transform="translate(-10.168 -11.11)" fill="#58b6f0"/>
            <path id="Trazado_113912" data-name="Trazado 113912" d="M53.874,63.6a.278.278,0,0,0,.011.194c.027.034.065-.018.091-.119s.019-.185-.012-.194-.072.044-.09.119" transform="translate(-10.266 -11.982)" fill="#58b6f0"/>
            <path id="Trazado_113913" data-name="Trazado 113913" d="M52.155,63.592c.068.1.11.044.124-.011-.063-.126-.1-.068-.124.011" transform="translate(-9.934 -11.988)" fill="#58b6f0"/>
            <path id="Trazado_113914" data-name="Trazado 113914" d="M51.574,69.956c.034-.147-.107-.378-.191-.312-.062.048-.064.068-.034.254.034.2.182.243.225.058" transform="translate(-9.773 -13.181)" fill="#58b6f0"/>
            <path id="Trazado_113915" data-name="Trazado 113915" d="M66.671,54.915c.037.093.408-.019.482-.166a.086.086,0,0,0-.029-.128c-.114-.039-.493.2-.453.294" transform="translate(-12.761 -10.256)" fill="#58b6f0"/>
            <path id="Trazado_113916" data-name="Trazado 113916" d="M65.833,55.085c-.2.008-.25.048-.293.242a.375.375,0,0,1-.151.234.309.309,0,0,0-.143.207.822.822,0,0,1-.219.342c-.047-.2-.127-.287-.465-.463a1.145,1.145,0,0,1-.366.267.381.381,0,0,0-.211.174c-.043.165-.01.214.117.172a.654.654,0,0,1,.3.014c.177.049.18.055.034.148-.612.358-.527.463.177.184.805-.342,1.122-.632.966-.862-.1-.15-.088-.176.126-.313.261-.168.327-.355.128-.347" transform="translate(-12.235 -10.347)" fill="#58b6f0"/>
            <path id="Trazado_113917" data-name="Trazado 113917" d="M53.034,67.413c-.138.666-.134,1.1.008.721a2.783,2.783,0,0,0,.117-.457c.024-.141.105-.6.18-1.023s.144-.844.149-.946c-.126.07-.2.353-.246.615s-.138.747-.208,1.089" transform="translate(-10.085 -12.417)" fill="#58b6f0"/>
            <path id="Trazado_113918" data-name="Trazado 113918" d="M52.689,70.412c.1-.168.234-.991.156-.956-.047.021-.107.283-.156.956" transform="translate(-10.038 -13.146)" fill="#58b6f0"/>
            <path id="Trazado_113919" data-name="Trazado 113919" d="M53.17,58.371c.089.1.144.115.17.115-.108-.105-.159-.129-.17-.115" transform="translate(-10.131 -10.987)" fill="#58b6f0"/>
            <path id="Trazado_113920" data-name="Trazado 113920" d="M50.5,67.289c-.085.066-.08.158.009.182.047.013.1-.026.11-.086.026-.113-.035-.162-.118-.1" transform="translate(-9.6 -12.719)" fill="#58b6f0"/>
            <path id="Trazado_113921" data-name="Trazado 113921" d="M51.349,62.754a11.718,11.718,0,0,0-.537,2.376c.084.184.147.052.305-.635.258-1.112.345-1.709.232-1.742" transform="translate(-9.671 -11.841)" fill="#58b6f0"/>
            <path id="Trazado_113922" data-name="Trazado 113922" d="M51.237,70.864c.085.017.108-.151-.049-.139,0,.07.018.134.049.139" transform="translate(-9.745 -13.394)" fill="#58b6f0"/>
            <path id="Trazado_113923" data-name="Trazado 113923" d="M69.214,53.241a.313.313,0,0,0,.2-.06c-.258-.046-.334.021-.2.06" transform="translate(-13.244 -9.974)" fill="#58b6f0"/>
            <path id="Trazado_113925" data-name="Trazado 113925" d="M69.813,53.54a.417.417,0,0,0-.164.177c-.01.046.066.027.176-.045s.181-.149.164-.177-.1-.007-.176.045" transform="translate(-13.341 -10.035)" fill="#58b6f0"/>
            <path id="Trazado_113926" data-name="Trazado 113926" d="M70.849,51.988A.614.614,0,0,0,71,51.739c-.138.155-.167.22-.148.249" transform="translate(-13.574 -9.696)" fill="#58b6f0"/>
            <path id="Trazado_113927" data-name="Trazado 113927" d="M47.755,51.519c-.1.61-5.8,15.134-7.461,19.365a1.127,1.127,0,0,1-1.554.6l-4.108-2.05a1.129,1.129,0,0,1-.506-1.515l9.252-18.52Z" transform="translate(-6.399 -9.239)" fill="#014769"/>
            <path id="Trazado_113928" data-name="Trazado 113928" d="M45.949,54.967c-.011.012,0,.031.016.042s.041.008.048-.007A.034.034,0,0,0,46,54.96a.041.041,0,0,0-.048.007" transform="translate(-8.724 -10.322)" fill="#013752"/>
            <path id="Trazado_113929" data-name="Trazado 113929" d="M46.23,54.2c.038-.031.03-.05.014-.058-.033.033-.025.052-.014.058" transform="translate(-8.778 -10.165)" fill="#013752"/>
            <path id="Trazado_113930" data-name="Trazado 113930" d="M45.626,53.374c-.01.022-.01.045,0,.052s.04-.015.039-.055-.022-.038-.041,0" transform="translate(-8.66 -10.008)" fill="#013752"/>
            <path id="Trazado_113931" data-name="Trazado 113931" d="M45.334,54.661c-.052-.023-.15-.07-.215-.105-.129-.07-.226-.071-.164,0a.281.281,0,0,0,.085.058l.2.092a1.158,1.158,0,0,0,.194.076c0-.06-.052-.1-.1-.119" transform="translate(-8.527 -10.234)" fill="#013752"/>
            <path id="Trazado_113932" data-name="Trazado 113932" d="M44.081,52.064c.044-.071.067-.053.027.022a.207.207,0,0,0-.008.116.128.128,0,0,1-.025.13.144.144,0,0,0-.034.114c.01.078-.042.147-.1.132s-.119.06-.081.085c-.011.044-.027.041-.033.026-.035.018-.012.039.036.059a.177.177,0,0,0,.223-.114.083.083,0,0,1,.118-.052c.093.059.115.064.148.038s.035-.04.028-.1c-.013-.1.009-.134.1-.148s.239.055.243.105c.007.069.048.089.094.052s.058-.031.13.032c.116.1.164.087.166-.055,0-.061,0-.065.035-.076a.106.106,0,0,0,.053-.05c.015-.031.027-.028.062.01s.056.042.077.03.031-.007.029.031.007.046.039.036.044,0,.056.035c.023.06-.019.163-.056.139a.039.039,0,0,0-.046.006c-.014.014.01.039.063.069s.077.035.061.01-.017-.056.018-.138c.049-.111.05-.112.089-.034.019.035.038.049.056.039a.366.366,0,0,1,.159.059c.093.052.139.064.159.043S46,52.7,46,52.746s.009.063.068.031.076-.023.133.023.083.049.105.035.033-.011.035.016a.05.05,0,0,0,.043.043.121.121,0,0,1,.079.133c-.006.016-.023.019-.039.006a.165.165,0,0,0-.175.035c-.014.031.019.076.08.111.35.2.419.214.446.156s.1-.055.13.017a.131.131,0,0,0,.1.068c.118.03.291.121.267.141a.224.224,0,0,1-.055.027.1.1,0,0,0-.058.072c-.008.031-.029.1-.047.144-.035.092-.022.128.03.084a.089.089,0,0,1,.085.006c.077.039.119,0,.125-.13,0-.087.023-.176.037-.169a.249.249,0,0,0,.034,0c.022,0,.021.013,0,.077-.04.119-.015.347.038.32s.234.017.246.054c.007.019,0,.042-.034.082-.056.07-.076.129-.057.172s.008.039-.023.076c-.047.053-.081.009-.055-.068a.176.176,0,0,0,0-.1c-.025-.054-.062-.039-.058.021s-.043.134-.081.1a.064.064,0,0,0-.076,0c-.05.031-.106.01-.153-.063-.032-.048-.039-.047-.108.014s-.081.06-.108.027a.115.115,0,0,0-.151-.043.229.229,0,0,1-.159-.03c-.057-.028-.112-.042-.122-.031s-.1-.01-.227-.075a.078.078,0,0,0-.065-.007.841.841,0,0,1-.244-.063c-.3-.108-.343-.085-.068.041.124.056.272.126.329.148.146.06.818.267.953.29.062.01.186.037.275.062a1.065,1.065,0,0,0,.618.05c.052-.012.065-.056.032-.115s-.025-.1.018-.1a.368.368,0,0,0,.079-.023.091.091,0,0,1,.093.017c.05.045.05.109,0,.1s-.1.064-.092.1c.01.056.229.11.289.074.056-.147.112-.292.164-.432.587-1.545.965-2.577.992-2.73l-2-.972c-.093-.031-.18-.063-.26-.1-.056-.031-.518-.2-.963-.41s-.882-.422-.929-.447l-.263-.125-1.313,2.628c.085.016.11.006.144-.052m4.863.465c-.025.084-.07.124-.105.1s-.022-.11.019-.161.11-.014.087.065m-.123-.74c.061-.076.081-.068.082.037s-.028.16-.081.134-.064-.094,0-.172m-.088.055c.006.032-.023.065-.043.055s-.013-.027-.006-.051c.013-.042.045-.044.05,0m-.084-.172c.013-.042.045-.044.05,0s-.023.064-.044.055-.012-.027-.006-.051m-.205,2.548c.066-.073.13-.085.143-.025a.14.14,0,0,1-.055.145c-.056.051-.064.077-.028.1s.03.084-.028.12-.055.026-.071-.02-.01-.057,0-.064c.029-.018.04-.064.017-.073-.051-.02-.039-.121.019-.187m-.2-.079a.083.083,0,0,1,.147.052c-.006.072-.031.087-.112.064s-.093-.056-.035-.115m-.179,0c.036-.009.035-.01.04.048s-.011.081-.051.038-.032-.076.01-.085m-.155-.089c.1.047.13.1.064.139a.089.089,0,0,0-.023.055.15.15,0,0,1-.035.078.242.242,0,0,0-.044.105c-.012.068-.015.07-.062.031-.089-.073-.1-.184-.023-.172.114.016.146-.015.079-.079a.052.052,0,0,0-.077-.007c-.063.052-.081-.048-.026-.135.038-.061.046-.062.147-.016m-.176-2.379c.019-.051.031-.065.049-.056s.027.026-.018.09-.061.047-.031-.035m-2.228,0c-.076-.066-.077-.072-.018-.065l.085.009c.039,0,.078.056.064.087s-.072.022-.131-.031m.8.767c.04-.082.084-.089.083-.013-.124.1-.126.1-.083.013m.405-.448c-.047.06-.072.071-.068.029a.1.1,0,0,1,.043-.059c.056-.035.066-.023.026.03m.052.053c.01-.052.036-.059.073-.021a.051.051,0,0,1,.007.056.044.044,0,0,1-.081-.035m.209-.114c-.064.032-.3-.1-.28-.158.031-.1.065-.11.146-.034.048.043.086.063.1.051a.064.064,0,0,1,.065.027c.035.035.02.088-.031.114m-1.784-1.2a.73.73,0,0,0,.115-.068c.111-.078.215-.036.38.121.052.051.068.056.1.026s.042-.027.064.016c.057.11.143.12.189.019.012-.027.03-.044.04-.038s.007.034,0,.061c-.027.056-.013.105.024.1.014,0,.027.023.028.055s.009.052.024.035a.021.021,0,0,1,.036.006c.01.016.043.021.076.01s.06-.01.067.024c.061.006.059.034.046.063a.182.182,0,0,0-.017.076c.038-.05.106-.094.118-.068s.039.026.07.026c.063,0,.088.046.093.162,0,.081.044.1.072.034a.181.181,0,0,0,.016-.076c-.023-.1.1-.131.18-.043a.308.308,0,0,0,.242.111c.161,0,.329.1.308.193.06-.023.06-.023.06.039a.677.677,0,0,1-.01.083.042.042,0,0,1-.079-.01c0-.028-.013-.029-.038,0s-.043.023-.068,0a.075.075,0,0,0-.089-.016.132.132,0,0,1-.093,0,.048.048,0,0,0-.053,0c-.014.017-.134-.031-.507-.2a.207.207,0,0,0-.118-.021c-.049.019-.14-.068-.127-.123s-.061-.093-.089-.03-.1.085-.1.044c-.056.035-.06.03-.056-.018.006-.071-.012-.084-.053-.036-.023.027-.039.026-.063-.006a.181.181,0,0,0-.124-.047c-.083,0-.093-.01-.1-.064-.012-.074-.039-.091-.122-.075a.1.1,0,0,1-.1-.028.083.083,0,0,0-.076-.03c-.037.009-.048,0-.049-.035s-.01-.041-.033-.027c-.049.029-.237-.122-.22-.178a.1.1,0,0,1,.048-.058m-.125-.014c.028-.031.056-.052.067-.046s.011.018-.029.057c-.071.069-.1.061-.038-.011m-.316,1.529c.041.029.08.039.1.024s.062-.007.123.059c.035.039.028.063-.033.1-.029.019-.045.017-.051-.008-.01-.048-.088-.1-.1-.066-.006.014-.052,0-.1-.04a.44.44,0,0,1-.081-.079c.02-.038.088-.034.146.009m-.564.039c-.01,0-.018-.015-.015-.043.049-.019.042.033.015.043" transform="translate(-8.308 -9.257)" fill="#013752"/>
            <path id="Trazado_113933" data-name="Trazado 113933" d="M46.422,53.759a1.216,1.216,0,0,0-.45-.237c-.052.039-.034.069.094.144.209.114.333.147.356.093" transform="translate(-8.724 -10.043)" fill="#013752"/>
            <path id="Trazado_113934" data-name="Trazado 113934" d="M43.8,53.209a.1.1,0,0,1-.039-.081l-.089.176c.088.042.205-.044.129-.1" transform="translate(-8.281 -9.966)" fill="#013752"/>
            <path id="Trazado_113935" data-name="Trazado 113935" d="M47.275,54.619c-.027-.031-.089.028-.083.079.035-.011.053-.02.064-.015.029.014.043-.035.019-.064" transform="translate(-8.967 -10.255)" fill="#013752"/>
            <path id="Trazado_113936" data-name="Trazado 113936" d="M47.589,54.46c-.037.054-.04.082-.036.1.041-.064.043-.092.036-.1" transform="translate(-9.037 -10.226)" fill="#013752"/>
            <path id="Trazado_113937" data-name="Trazado 113937" d="M43.911,54.056c.194.093.247.108.263.075a.979.979,0,0,0-.282-.22l-.18-.121a.246.246,0,0,0-.163-.056c-.043,0-.061,0-.075-.021l-.052.1c.036.02.073.04.1.055l.386.183" transform="translate(-8.232 -10.08)" fill="#013752"/>
            <path id="Trazado_113938" data-name="Trazado 113938" d="M44.588,54.375c.021.047.184.115.189.08s-.047-.053-.189-.08" transform="translate(-8.46 -10.209)" fill="#013752"/>
            <path id="Trazado_113939" data-name="Trazado 113939" d="M44.808,53.676a.039.039,0,0,0-.039.022c-.019.04.015.051.039-.022" transform="translate(-8.494 -10.073)" fill="#013752"/>
            <path id="Trazado_113940" data-name="Trazado 113940" d="M45,53.772c0-.029,0-.031-.05-.017s-.085.084-.05.1.1-.048.1-.088" transform="translate(-8.517 -10.087)" fill="#013752"/>
            <path id="Trazado_113941" data-name="Trazado 113941" d="M65.967,29.516A14.307,14.307,0,1,0,51.66,43.823,14.307,14.307,0,0,0,65.967,29.516" transform="translate(-7.05 -2.58)" fill="#fff"/>
            <path id="Trazado_113942" data-name="Trazado 113942" d="M34.9,29.038A16.279,16.279,0,1,1,51.183,45.317,16.3,16.3,0,0,1,34.9,29.038m3.943,0A12.336,12.336,0,1,0,51.183,16.7,12.35,12.35,0,0,0,38.847,29.038" transform="translate(-6.573 -2.103)" fill="#014769"/>
            <path id="Trazado_113943" data-name="Trazado 113943" d="M57.926,21.933c-2.937-3.257-9.325-1.794-9.593,2.894a.846.846,0,0,0,1.524.543c1.131-1.292,2.37-2.834,4.313-2.495a2.668,2.668,0,0,1,2.268,2.591c-.044,1.167-.928,1.864-1.714,2.56-1.58,1.4-3.848,3.427-2.652,5.7a1.17,1.17,0,0,0,2,.155,12.878,12.878,0,0,1,2.305-3.408,9.5,9.5,0,0,0,2.394-2.795,5.269,5.269,0,0,0-.841-5.747" transform="translate(-9.189 -3.548)" fill="#fe0065"/>
            <path id="Trazado_113944" data-name="Trazado 113944" d="M55.168,41.576a1.367,1.367,0,0,0-.978-.229,1.767,1.767,0,0,0-1.136.4,1.708,1.708,0,0,0,.068,2.656c.039.03.081.049.122.076a1.5,1.5,0,0,0,1.347.4,1.578,1.578,0,0,0,1.162-1.1,1.839,1.839,0,0,0-.585-2.2" transform="translate(-9.991 -7.669)" fill="#fe0065"/>
            <path id="Trazado_113945" data-name="Trazado 113945" d="M23.569,94.017c.221.3.7.118,1.006.13a20.011,20.011,0,0,0,2.709.082c.134-.015.6-.051.461-.3a.4.4,0,0,0-.245-.165,12.483,12.483,0,0,1-1.262-.382,1.6,1.6,0,0,1-.169-.1,1.122,1.122,0,0,1-.635-.832,6.7,6.7,0,0,1,.28-1.511c.418-2,.84-4,1.424-5.958A15.618,15.618,0,0,0,28,81.222a2.255,2.255,0,0,0-.489-1.719,2.248,2.248,0,0,0-1.858-.461,1.12,1.12,0,0,0-.465.122.861.861,0,0,0-.378.746c-.008.584.165,1.147.189,1.727a1.653,1.653,0,0,1-.107.635c-.1.3-.256.6-.35.9-.683,2.181-.411,4.468-.533,6.711a17.738,17.738,0,0,1-.378,3.237c-.019.091-.047.182-.071.272a.718.718,0,0,0,.008.623" transform="translate(-4.35 -15.009)" fill="#f9a124"/>
            <path id="Trazado_113946" data-name="Trazado 113946" d="M30.918,88.378a37.142,37.142,0,0,1,.564,4.428,1.125,1.125,0,0,0,0,.114c0,.3-.181.875.039,1.116.268.3,1.416.043,1.822.052a14.86,14.86,0,0,0,2.649.019.188.188,0,0,0,.151-.075.176.176,0,0,0,.011-.118.611.611,0,0,0-.339-.387,2.488,2.488,0,0,0-.5-.154,8.093,8.093,0,0,1-.93-.26A1.628,1.628,0,0,1,33.133,91.8a10.359,10.359,0,0,1,.17-2.441c.134-1.262.358-2.511.441-3.777.134-2.125.272-4.2.221-6.348a1.535,1.535,0,0,0-.09-.584c-.237-.508-.923-.584-1.483-.536a1.516,1.516,0,0,0-1.269.6c-.343.647.043,1.494.1,2.168a5.435,5.435,0,0,1-.1,1.345c-.087.5-.2,1.017-.245,1.5a22.659,22.659,0,0,0,.043,4.649" transform="translate(-5.769 -14.831)" fill="#f9a124"/>
            <path id="Trazado_113947" data-name="Trazado 113947" d="M47.89,61.019a.7.7,0,0,1,.365.324.573.573,0,0,1-.221.644,1.679,1.679,0,0,1-.68.258l-1.229.27a.351.351,0,0,1-.182.007c-.1-.032-.144-.138-.18-.234-.49-1.341,1.146-1.735,2.127-1.269" transform="translate(-8.671 -11.467)" fill="#ffa017"/>
            <path id="Trazado_113948" data-name="Trazado 113948" d="M44.328,40.025a1.322,1.322,0,0,0,.165-.511.544.544,0,0,0-.2-.477.659.659,0,0,0-.817.2,8.5,8.5,0,0,1-.568.725c-.428.376-.608.99.192,1.067.552.053,1.011-.577,1.226-1" transform="translate(-8.061 -7.206)" fill="#ffa017"/>
            <path id="Trazado_113949" data-name="Trazado 113949" d="M39.738,40.223c-.147.07-3.179,3.505-4.325,4.111a37.534,37.534,0,0,1-6.48,2.334,2.415,2.415,0,0,0-1.326.752c-.678.9.415,2.044,1.25,2.326a4.254,4.254,0,0,0,2.78-.177,18.591,18.591,0,0,0,5.386-3.421,34.974,34.974,0,0,0,4.164-5.185c-.029-.078-1.14-.887-1.449-.739" transform="translate(-5.111 -7.449)" fill="#e6e6e6"/>
            <path id="Trazado_113950" data-name="Trazado 113950" d="M30.052,47.863a3.6,3.6,0,0,0-.333-1.387,4.445,4.445,0,0,1-.287-1.731,2.471,2.471,0,0,1,.668-1.594,2.6,2.6,0,0,1,1.85-.682,1.932,1.932,0,0,1,1.027.249,2.452,2.452,0,0,1,.858,2.007,6.223,6.223,0,0,1-.44,2.8,1.19,1.19,0,0,1-.23.388c-.306.314-.926-.073-1.08.359-.072.205.067,1.381-.083,1.556-.339.4-2.257-.526-2.351-.31a7.453,7.453,0,0,0,.4-1.651" transform="translate(-5.506 -7.89)" fill="#ffa017"/>
            <path id="Trazado_113951" data-name="Trazado 113951" d="M26.326,51.648a6.455,6.455,0,0,0-.661,2.723c-.222,1.357,0,5.388-.022,6.257a21.036,21.036,0,0,1-.751,3.539c-.328,1.48-.57,2.977-.813,4.473q-.484,2.989-.969,5.979a.567.567,0,0,0,.019.349.54.54,0,0,0,.286.215c2.011.873,2.074.018,5.3.195,3.156.174,5.6.92,6.153-.089.244-.444-1.176-11.241-1.219-14.107-.042-2.755.435-3.338.242-6.088-.052-.742-.25-1.46-.358-2.2-.306-2.066-2.075-1.818-3.722-2.066-1.39-.21-2.629-.4-3.487.816" transform="translate(-4.272 -9.489)" fill="#fff"/>
            <path id="Trazado_113952" data-name="Trazado 113952" d="M32.054,63.362a9.493,9.493,0,0,1-1.468.4,7.847,7.847,0,0,1-.913-.006A7.225,7.225,0,0,1,27.4,63.3c-.205-.074-.392.235-.219.376a3.965,3.965,0,0,0,2.489.653,3.333,3.333,0,0,0,2.553-.668.179.179,0,0,0-.172-.3" transform="translate(-5.056 -11.945)" fill="#e6e6e6"/>
            <path id="Trazado_113953" data-name="Trazado 113953" d="M28.861,41.618a2.914,2.914,0,0,0-1.788,1.118c-.344.489-.412,1.143-.8,1.6a5.855,5.855,0,0,1-1.448.9,2.089,2.089,0,0,0-1,1.5,5.461,5.461,0,0,1-.057,1.327c-.217.606-.92.866-1.347,1.346a1.726,1.726,0,0,0,1.036,2.855,2.51,2.51,0,0,1,.949.177c.45.271.471.9.7,1.377a1.908,1.908,0,0,0,2.267.864,2.956,2.956,0,0,0,1.767-1.851,1.633,1.633,0,0,1,.511-.887c.19-.122.429-.143.63-.246a1.243,1.243,0,0,0,.453-1.464,9.977,9.977,0,0,0-.754-1.478,1.619,1.619,0,0,1-.051-1.585c.243-.359.687-.522,1-.821.393-.375.34-.748.462-1.218a3.379,3.379,0,0,1,.737-1.3.883.883,0,0,0,.023-1.1,2.472,2.472,0,0,0-.666-.647,3.344,3.344,0,0,0-2.616-.467" transform="translate(-4.057 -7.708)" fill="#014769"/>
            <path id="Trazado_113954" data-name="Trazado 113954" d="M36.891,63.123c1.033.436,7.7-1.658,7.757-1.9a5.632,5.632,0,0,0-.828-2.514,15.646,15.646,0,0,1-5.885,1.8c-.8-2.831-.892-4.952-1.734-7.149-.544-1.42-1.06-1.794-1.582-1.893-.773-.147-.813,1.759-.839,2.394-.1,2.62,2.063,8.825,3.111,9.267" transform="translate(-6.354 -9.64)" fill="#e6e6e6"/>
            <path id="Trazado_113955" data-name="Trazado 113955" d="M31.669,97.593c.268.3,1.416.043,1.821.052a14.943,14.943,0,0,0,2.65.019.185.185,0,0,0,.15-.075.171.171,0,0,0,.012-.118.611.611,0,0,0-.339-.386,2.489,2.489,0,0,0-.5-.154,8.149,8.149,0,0,1-.931-.26,3.846,3.846,0,0,1-1.857.024,8.061,8.061,0,0,0-1.037-.332,1.123,1.123,0,0,0,0,.114c0,.3-.181.875.039,1.116" transform="translate(-5.922 -18.388)" fill="#014769"/>
            <path id="Trazado_113956" data-name="Trazado 113956" d="M23.569,97.429c.221.3.7.118,1.006.13a20.012,20.012,0,0,0,2.709.082c.134-.015.6-.051.461-.3a.4.4,0,0,0-.245-.165,12.483,12.483,0,0,1-1.262-.382,1.592,1.592,0,0,1-.169-.1,3.872,3.872,0,0,1-1.889.031c-.181-.055-.366-.13-.548-.193-.019.091-.047.182-.071.272a.718.718,0,0,0,.008.623" transform="translate(-4.35 -18.421)" fill="#014769"/>
            <path id="Trazado_113957" data-name="Trazado 113957" d="M24.365,54.819a1.406,1.406,0,0,1-.144.049c.064,0,.128.01.192.019a1.332,1.332,0,0,1,.1-.142.568.568,0,0,1-.143.074" transform="translate(-4.492 -10.281)" fill="#013752"/>
            <path id="Trazado_113958" data-name="Trazado 113958" d="M26,51.433a.083.083,0,0,1-.021.021c-.019.018.024.015.072,0a.045.045,0,0,0,.031-.026c-.063,0-.08,0-.082,0" transform="translate(-4.834 -9.635)" fill="#013752"/>
            <path id="Trazado_113959" data-name="Trazado 113959" d="M29.29,44.758c-.043.02-.039.059.008.076.031.011.067-.043.049-.073-.007-.013-.033-.014-.057,0" transform="translate(-5.474 -8.334)" fill="#013752"/>
            <path id="Trazado_113960" data-name="Trazado 113960" d="M29.6,44.542c-.052-.031-.059-.029-.062.014,0,.062.074.11.11.071s.025-.04-.048-.085" transform="translate(-5.528 -8.29)" fill="#013752"/>
            <path id="Trazado_113961" data-name="Trazado 113961" d="M28.733,45.934a.029.029,0,1,0,.044-.037.033.033,0,0,0-.04,0,.032.032,0,0,0,0,.041" transform="translate(-5.37 -8.556)" fill="#013752"/>
            <path id="Trazado_113962" data-name="Trazado 113962" d="M28.47,45.73a.049.049,0,0,0,.048,0c-.09-.039-.1-.023-.048,0" transform="translate(-5.314 -8.52)" fill="#013752"/>
            <path id="Trazado_113963" data-name="Trazado 113963" d="M26.811,53.362l-.163-.267a.18.18,0,0,1-.04-.1c0-.024-.009-.046-.013-.064a1.233,1.233,0,0,1-.009-.461.7.7,0,0,1,.12-.226c.023-.029.051-.061.077-.089l.019-.02c0,.008.01.052.008.026l0-.068,0-.137a2.9,2.9,0,0,0-.159-.783,2.773,2.773,0,0,0-.565-.949,2.9,2.9,0,0,0-.418-.374c-.069-.049-.138-.094-.208-.138l-.1-.057-.048-.027a.106.106,0,0,0,0-.038.072.072,0,0,1-.028-.019c-.006-.01-.015-.01-.057.011a.114.114,0,0,0-.056.081l0,.039c0,.014.016.012.04-.007s.031-.023.013,0,0,.037.027.01c.007-.008.008,0,0,.011.016.031-.028,0,.056.047a2.285,2.285,0,0,1,.454.3,2.336,2.336,0,0,1,.439.487,1.949,1.949,0,0,1,.261.514c.015.072,0,.076-.043.081a.215.215,0,0,0-.112.046c-.027.028-.05-.023-.163-.225-.125-.219-.171-.263-.138-.314s-.056-.213-.22-.311c-.052-.035-.176-.149-.293-.254a1.131,1.131,0,0,0-.2-.144.523.523,0,0,0-.082-.035c-.038-.014-.041-.008-.042,0-.021.032-.03.027-.018,0s0-.026-.049.042c-.033.05-.09.1-.1.093s.02-.047.066-.1a.292.292,0,0,0,.068-.105s-.021.015-.057.06-.048.056-.06.059c-.044-.011-.173.085-.146.106.009.006,0,.031-.009.053s-.015.037,0,.038c.032,0,.03,0,0,.046-.052.064-.039.069.022.01.042-.04.046-.041.04-.008a.106.106,0,0,1-.082.1.233.233,0,0,0-.081.048.175.175,0,0,1-.083.042c-.113,0-.133.009-.2.072s-.087.053-.019-.014a.268.268,0,0,0,.056-.1.2.2,0,0,1,.085-.108.338.338,0,0,0,.088-.1.276.276,0,0,1,.147-.12c.028,0,.114-.074.1-.085.033-.036.04-.037.035-.027.031-.023.031-.032.013-.035a.535.535,0,0,0-.221.128c-.047.043-.108.068-.123.051-.029-.043-.039-.048-.084-.031a.2.2,0,0,0-.1.076c-.065.08-.105.11-.194.1s-.15-.114-.105-.152.054-.081-.013-.076-.068-.006-.043-.082c.044-.118.007-.135-.145-.061-.064.034-.07.036-.1.02a.149.149,0,0,0-.08-.007c-.039.007-.043,0-.017-.052s.02-.064,0-.072-.02-.021.023-.037.048-.026.027-.045-.013-.035.021-.058c.06-.039.188-.042.174-.01,0,.013,0,.026.022.028s.04-.021.057-.064.018-.059-.007-.042-.058.027-.16.027c-.138,0-.139,0-.06-.057.035-.025.046-.043.031-.056s0-.073.045-.137c.051-.081.068-.116.043-.131s-.017-.022.039-.026.069,0,.037-.052-.019-.064.039-.1.064-.059.053-.078-.006-.03.023-.026a.052.052,0,0,0,.053-.024.119.119,0,0,1,.146-.023c.014.01.014.024,0,.031-.035.018-.027.117.011.136a.115.115,0,0,0,.116-.022c.2-.124.354-.289.292-.323-.043-.057.014-.14.11-.155a.272.272,0,0,0,.143-.108c.118-.14.354-.378.358-.34a.447.447,0,0,1-.016.088.086.086,0,0,0,.029.1,1.1,1.1,0,0,1,.114.1c.068.071.118.06.114-.029a.271.271,0,0,1,.076-.129c.108-.122.1-.193-.036-.22-.091-.019-.171-.064-.153-.084a.488.488,0,0,0,.024-.054c.012-.035.031-.031.084.013.094.085.37.059.384-.035a2.04,2.04,0,0,1,.257-.477c.027-.016.047,0,.068.06.038.105.089.142.151.1.043-.029.053-.023.07.039.024.089-.056.17-.124.122a.113.113,0,0,0-.113.01c-.081.048-.1.12-.024.11.089-.014.115.081.041.155a.273.273,0,0,0-.073.14.382.382,0,0,1-.208.265c-.082.049-.088.063-.081.18s-.006.139-.065.172a.315.315,0,0,0-.172.209.552.552,0,0,1-.155.2c-.072.066-.119.122-.115.138s-.016.043-.055.085l-.067.066-.043.039c-.012.01-.01,0-.016.006s-.006.009,0,.018.012.021.008.028.029.027.054.033.019.013.032.006a1.689,1.689,0,0,0,.139-.145l.3-.337a6.525,6.525,0,0,0,.56-.73c.07-.112.22-.349.326-.551a3.411,3.411,0,0,0,.328-.813,1.674,1.674,0,0,0,.048-.5c-.006-.083-.05-.094-.116-.032s-.1.057-.1-.013a.692.692,0,0,0-.014-.122.173.173,0,0,1,.027-.133c.05-.068.114-.072.1-.007-.006.047.056.126.1.112s.067-.1.085-.17.023-.132,0-.155a.118.118,0,0,1-.013-.081c.009-.044,0-.059-.043-.077a.564.564,0,0,1-.2-.11.46.46,0,0,0-.109-.07c-.037-.016-.064-.035-.059-.041a.046.046,0,0,0,0-.035.245.245,0,0,1,.012-.1.19.19,0,0,0,0-.121c-.033-.058-.013-.076.047-.039s.065.025.074-.068c0-.048.014-.068.034-.059s.074-.019.046-.039c-.065-.048-.072-.1-.016-.109s.053-.013.039-.053,0-.059.044-.081a.247.247,0,0,0,.077-.328c.115.053.155.034.165-.074.006-.075.01-.078.083-.068s.077,0,.076-.028a.051.051,0,0,1,.045-.048c.026,0,.041-.02.036-.038a.041.041,0,0,1,.02-.048.231.231,0,0,0,.049-.17c0-.014.028-.019.068-.007.072.022.075.02.09-.046a.177.177,0,0,1,.076-.1.572.572,0,0,0,.09-.052c.018-.016.042-.006.072.028.059.066.068.061.065-.036,0-.067.012-.081.073-.089s.147-.1.126-.155c.09.07.135-.006.094-.091-.023-.048-.019-.064.028-.09s.052-.043.036-.073c-.051-.1.066-.138.253-.052a.059.059,0,0,0,.06,0,.072.072,0,0,0-.025-.105c.007-.072.022-.064.056-.014.062.1.127.066.1-.049-.014-.058-.011-.089.01-.1s.035,0,.044.042a.236.236,0,0,0,.072.1c.032.027.055.056.051.068s.027.033.069.053c.11.052.188-.042.1-.118-.054-.046-.055-.045-.023-.111a.213.213,0,0,0,.027-.1c.05-.021.073-.037.082-.063.06,0,.043.105.006.124a.052.052,0,0,0-.03.05c.008.044.036.035.056-.017a.1.1,0,0,1,.081-.051c.056,0,.064-.019.072-.109.01-.115.033-.127.1-.058.033.035.047.039.062.011.027-.051.056-.045.048.01-.012.078.02.106.056.049s.072-.055.205-.061c.271-.007.3.009.307.126,0,.068.012.1.032.1.033.105.118.052.2-.078.1-.151.141-.171.14-.081a.155.155,0,0,0,.061.107c.085.069.091.067.1-.042a.957.957,0,0,1,.032-.312,1.087,1.087,0,0,0,.014-.167c0-.158,0-.17-.054-.183A.11.11,0,0,1,30.7,42.1a.091.091,0,0,0,.028-.068c-.014-.1.046-.042.067.064.014.066.037.122.052.122.047,0,.089.1.085.184a.2.2,0,0,0,.017.1.119.119,0,0,1,.018.071.45.45,0,0,0,.043.152c.041.093.046.1.068.048a.246.246,0,0,0,.017-.113.124.124,0,0,1,.027-.093.146.146,0,0,0,.038-.083c.006-.1.065-.161.1-.1.029.043.069.056.213.068.173.013.179.014.18-.054a.123.123,0,0,1,.075-.114c-.079-.067-.16-.131-.244-.192-.022.011-.026.032-.027.086,0,.093,0,.093-.117.083-.155-.013-.19-.047-.181-.187a.322.322,0,0,0-.052-.207,3.468,3.468,0,0,0-2.25-.25,2.913,2.913,0,0,0-1.788,1.118c-.344.49-.411,1.143-.8,1.6a5.874,5.874,0,0,1-1.447.9,2.441,2.441,0,0,0-.434.354c.023.018.027.047.011.088-.03.078-.08.091-.138.052-.044.053-.086.108-.125.164,0,.008.009.015,0,.023s-.014.01-.026.01a1.8,1.8,0,0,0-.3.81c-.006.057-.008.114-.009.172l.01.018c.025.05.018.071-.008.061a3.024,3.024,0,0,1-.05,1.077c-.217.6-.92.866-1.347,1.346-.006.006-.009.012-.014.018.006.025,0,.04-.033.057l-.02.012c-.014.019-.031.039-.045.059a.057.057,0,0,0,.031.04c.032.019.033.044,0,.106a.472.472,0,0,0-.014.234c.025.134.027.154-.018.215-.061.085-.056.146,0,.258a.3.3,0,0,1,.049.173.239.239,0,0,0,.048.142c.035.042.042.064.025.1s-.011.056.021.072a.811.811,0,0,1,.135.227c.057.1.1.2.086.217a.084.084,0,0,1-.088.015,1.471,1.471,0,0,0-.182-.056c-.175-.047-.342-.246-.361-.692-.006-.14-.01-.174-.052-.2a1.692,1.692,0,0,0,.089.733,1.762,1.762,0,0,0,1.368,1.119c.11.016.221.023.333.031a1.413,1.413,0,0,0,.144-.049.554.554,0,0,0,.143-.074,1.361,1.361,0,0,0-.1.142,1.058,1.058,0,0,1,.424.127c.451.271.472.9.7,1.376a1.9,1.9,0,0,0,2.248.869,4.154,4.154,0,0,0-.266-.813,5.62,5.62,0,0,0-.269-.511M24.478,50.3c.011,0,.007.011-.009.034-.055.019-.021-.024.009-.034m2.29-4.606c.046.017.046.019.008.035a.075.075,0,0,1-.051,0,.022.022,0,0,1-.012-.032c.007-.013.031-.016.055-.007m-.1.116a.135.135,0,0,1,.143.059c.048.059.076.066.1.031s.084-.026.119.032c.027.043.024.056-.023.072s-.058.014-.065,0c-.016-.033-.062-.044-.072-.018-.024.061-.126.054-.188-.015s-.078-.148-.018-.159m-.015.234c.073,0,.087.029.054.149s-.068.153-.122.07-.006-.224.068-.219m-.039.44c.072-.023.085,0,.028.085s-.089.075-.089,0,0-.064.06-.085m-.213.406c.1-.221.161-.278.18-.159a.048.048,0,0,0,.051.035.09.09,0,0,1,.071.056.132.132,0,0,0,.1.066c.069.01.073.012,0,.127-.132.222-.275.271-.205.091.084-.257.056-.31-.043-.156a.245.245,0,0,0-.053.17c.017.126-.11.184-.171.08-.046-.073-.034-.085.07-.31M25,45.42c.083.028.118.09.083.148a.1.1,0,0,1-.163-.01A.083.083,0,0,1,25,45.42m-.731.391a.043.043,0,0,1,.052.055c-.006.014-.029.019-.052.01-.042-.014-.042-.055,0-.065m-1.49,5.674a.131.131,0,0,1-.112-.008c-.023-.026-.015-.03.056-.035.121-.008.167.011.056.043m.092-1.433c-.027.144-.031.154-.059.075a1.082,1.082,0,0,1-.031-.114c-.014-.055.027-.143.068-.147s.053.073.023.186m.835-1.282c.081.133.083.13-.009.085s-.076-.091.009-.085m.352,1.521a.083.083,0,0,1-.12-.062c-.006-.043-.027-.068-.054-.066-.045,0-.052-.031-.029-.114.018-.048.048-.059.121-.052.036,0,.045.013.024.033-.042.038-.034.116.009.1.019-.008.031.027.042.072a.35.35,0,0,1,.007.091m.8.159c-.031.04-.077.024-.043-.016s.081-.067.075-.04a.186.186,0,0,1-.031.056m.106-.106c-.077-.013-.064-.047-.006-.11.02-.022.035-.027.042-.018s-.014,0,.015.029a.291.291,0,0,1,.058.076c.047.094.032.082-.109.023m.584.32a.1.1,0,0,0-.024.1.049.049,0,0,1-.045.068.35.35,0,0,1-.163-.1c-.1-.088-.1-.1,0-.17.105-.088.342.029.238.1m.213.3c-.048.053-.143-.1-.135-.2,0-.048.026-.079.048-.067.065.034.127.229.087.271m.239,2.077a.7.7,0,0,1-.1.114c-.044.036-.064.043-.081.025-.054-.062.042-.158.158-.185.063-.017.062-.018.021.047m0-1.342c-.091.009-.113-.023-.1-.134.008-.07.021-.079.079-.035.1.081.1.156.021.169m.522.4c-.031.034-.043.029-.06-.018-.029-.085-.019-.143.051-.142.053,0,.06.109.009.159" transform="translate(-4.057 -7.708)" fill="#013752"/>
            <path id="Trazado_113964" data-name="Trazado 113964" d="M32.534,43.712c0,.032.009.059.038.048a.374.374,0,0,0-.008-.105c-.018,0-.031.023-.03.057" transform="translate(-6.112 -8.121)" fill="#013752"/>
            <path id="Trazado_113965" data-name="Trazado 113965" d="M30.011,43.768c0,.048.057.1.067.059a.086.086,0,0,0-.012-.064c-.026-.032-.053-.03-.055,0" transform="translate(-5.62 -8.138)" fill="#013752"/>
            <path id="Trazado_113966" data-name="Trazado 113966" d="M28.283,46.335c-.08-.04-.086-.047-.078-.082a.088.088,0,0,0-.087-.1c-.052,0-.051.013.006.066.029.027.048.055.043.062s.012.032.04.056a.327.327,0,0,1,.076.088.914.914,0,0,0-.289-.106c.021.041.024.064.015.076s0,.035.021.049c.057.039.085.048.1.034a.129.129,0,0,1,.074,0c.061.008.064.01.067.033.01.1.071.111.114.04s.025-.152-.1-.215" transform="translate(-5.227 -8.608)" fill="#013752"/>
            <path id="Trazado_113967" data-name="Trazado 113967" d="M32.293,43.681c.08.043.093.024.067-.017s-.031-.025-.067.017" transform="translate(-6.065 -8.119)" fill="#013752"/>
            <path id="Trazado_113968" data-name="Trazado 113968" d="M31.149,43.466c-.048.025-.041.1.007.1a.1.1,0,0,0,.064-.1c0-.027-.019-.027-.072,0" transform="translate(-5.836 -8.08)" fill="#013752"/>
            <path id="Trazado_113969" data-name="Trazado 113969" d="M28.715,45.5a.145.145,0,0,0,0-.064.051.051,0,0,0,0,.064" transform="translate(-5.366 -8.468)" fill="#013752"/>
            <path id="Trazado_113970" data-name="Trazado 113970" d="M25.237,51.189c-.039-.022-.057-.02-.064-.013.041.019.06.017.064.013" transform="translate(-4.678 -9.585)" fill="#013752"/>
            <path id="Trazado_113971" data-name="Trazado 113971" d="M25.194,51.738c-.03.014-.029.017.009.021a.218.218,0,0,0,.134-.043c0-.012-.1,0-.143.023" transform="translate(-4.678 -9.69)" fill="#013752"/>
            <path id="Trazado_113972" data-name="Trazado 113972" d="M25.247,51.835c.049-.021.042-.033-.043.006.006,0,.025,0,.043-.006" transform="translate(-4.684 -9.711)" fill="#013752"/>
            <path id="Trazado_113973" data-name="Trazado 113973" d="M24.463,51.626c-.043.017-.034.031.019.025.028,0,.053-.013.056-.023s-.032-.019-.076,0" transform="translate(-4.534 -9.671)" fill="#013752"/>
            <path id="Trazado_113974" data-name="Trazado 113974" d="M24.534,51.3c.06.027.083,0,.14-.089.092-.147.13-.215.072-.238s-.262.3-.212.327" transform="translate(-4.552 -9.546)" fill="#013752"/>
            <path id="Trazado_113975" data-name="Trazado 113975" d="M28.3,46.079a.108.108,0,0,0-.048-.039c-.048-.018-.075.047-.031.076s.1,0,.08-.036" transform="translate(-5.266 -8.585)" fill="#013752"/>
            <path id="Trazado_113976" data-name="Trazado 113976" d="M26.064,51.4a.135.135,0,0,0,.023.009l.036.008-.023-.008-.035-.009" transform="translate(-4.851 -9.629)" fill="#013752"/>
            <path id="Trazado_113977" data-name="Trazado 113977" d="M26.028,51.492c.039-.019.039-.025,0-.014-.025.006-.035.017,0,.014" transform="translate(-4.84 -9.644)" fill="#013752"/>
            <path id="Trazado_113978" data-name="Trazado 113978" d="M25.717,50.288c.028.063.055.075.071.073-.035-.069-.061-.082-.071-.073" transform="translate(-4.784 -9.413)" fill="#013752"/>
            <path id="Trazado_113979" data-name="Trazado 113979" d="M25.663,50.7c-.048.021-.027.111.027.12.01-.043.013-.067.025-.077.031-.027-.009-.061-.052-.043" transform="translate(-4.768 -9.493)" fill="#013752"/>
            <path id="Trazado_113980" data-name="Trazado 113980" d="M64.977,17.747a.29.29,0,0,0,.127.063c.026,0,0-.038-.061-.085s-.118-.071-.13-.06.019.048.064.082" transform="translate(-12.418 -3.058)" fill="#013752"/>
            <path id="Trazado_113981" data-name="Trazado 113981" d="M50.26,15.159a.249.249,0,0,1,.127-.1.213.213,0,0,0,.115-.1.543.543,0,0,1,.184-.148c0,.1.029.155.2.275a.859.859,0,0,1,.258-.1.25.25,0,0,0,.151-.068c.051-.08.039-.107-.041-.1a.389.389,0,0,1-.172-.033c-.1-.042-.1-.045,0-.077.205-.068.3-.106.288-.127s-.137-.023-.364.019c-.528.084-.757.212-.7.34.033.084.023.1-.126.147-.18.062-.25.151-.132.163s.155,0,.213-.1" transform="translate(-9.512 -2.456)" fill="#013752"/>
            <path id="Trazado_113982" data-name="Trazado 113982" d="M64.672,18.572c.074,0,.047-.037.015-.063-.089-.012-.061.027-.015.063" transform="translate(-12.363 -3.223)" fill="#013752"/>
            <path id="Trazado_113983" data-name="Trazado 113983" d="M48.015,16.163a.229.229,0,0,0-.128.019c.143.039.2.008.128-.019" transform="translate(-9.102 -2.765)" fill="#013752"/>
            <path id="Trazado_113984" data-name="Trazado 113984" d="M64.036,18.644a.938.938,0,0,0,.188.159l.43.344c.324.24.628.519.672.524.123.027.064-.048-.295-.365-.6-.492-.955-.711-1-.663" transform="translate(-12.248 -3.248)" fill="#013752"/>
            <path id="Trazado_113985" data-name="Trazado 113985" d="M49.738,15.433c-.008-.055-.241-.019-.308.052-.026.025-.027.055,0,.067.061.029.318-.07.312-.118" transform="translate(-9.399 -2.618)" fill="#013752"/>
            <path id="Trazado_113986" data-name="Trazado 113986" d="M68.425,21.8c.034.034.072.054.085.043.034-.027-.044-.113-.085-.043" transform="translate(-13.103 -3.859)" fill="#013752"/>
            <path id="Trazado_113987" data-name="Trazado 113987" d="M68.249,20.528c-.006.034.137.161.466.5-.052-.126-.461-.552-.466-.5" transform="translate(-13.068 -3.615)" fill="#013752"/>
            <path id="Trazado_113988" data-name="Trazado 113988" d="M47.705,15.953a.308.308,0,0,0,.124-.082c.013-.023-.034-.019-.11.013s-.126.073-.122.087.053.006.107-.018" transform="translate(-9.046 -2.706)" fill="#013752"/>
            <path id="Trazado_113989" data-name="Trazado 113989" d="M67.937,21.23c.007.047.019.054.123.124s.176.035.094-.067c-.064-.082-.229-.119-.217-.057" transform="translate(-13.008 -3.747)" fill="#013752"/>
            <path id="Trazado_113990" data-name="Trazado 113990" d="M66.578,18.991c.151.115.407.368.586.539.355.333.576.536.412.3a1.652,1.652,0,0,0-.229-.249l-.55-.508c-.234-.2-.48-.394-.541-.436.016.085.173.229.321.35" transform="translate(-12.68 -3.249)" fill="#013752"/>
            <path id="Trazado_113991" data-name="Trazado 113991" d="M66.446,20.633c.015.062.065.1.1.067.019-.016.01-.052-.019-.081-.055-.055-.1-.048-.082.014" transform="translate(-12.717 -3.627)" fill="#013752"/>
            <path id="Trazado_113992" data-name="Trazado 113992" d="M66.567,27.765a12.333,12.333,0,0,0-.134-1.242,14.774,14.774,0,0,0-.367-1.575,12.139,12.139,0,0,0-1.1-2.64c-.181-.345-.557-.889-.787-1.233-.436-.574-.557-.712-.589-.692s.291.441.636.984l.377.624a2.762,2.762,0,0,0,.309.5.617.617,0,0,1,.168.3,2.084,2.084,0,0,0,.292.6.482.482,0,0,1,.075.178c.016.06.1.262.176.45a5.752,5.752,0,0,1,.277.784c.108.442.108.448.031.454a.259.259,0,0,0-.115.035c-.028.022-.055-.023-.108-.187-.06-.183-.063-.221-.019-.254s.037-.159-.049-.265a.9.9,0,0,1-.091-.262A.641.641,0,0,0,65.408,24a.3.3,0,0,1-.1-.224c-.006-.117-.064-.187-.151-.183-.063,0-.2-.13-.251-.242-.04-.09,0-.123.092-.075s.119-.027.072-.133a.108.108,0,0,0-.122-.078c-.079.011-.085-.012-.2-.208-.161-.289-.391-.427-.25-.154a.533.533,0,0,1,.068.233.317.317,0,0,0,.068.2c.064.109.067.131.018.148-.075.026-.046.089.067.15.077.041.091.064.1.165.014.149-.045.138-.145-.023a.555.555,0,0,0-.159-.17.534.534,0,0,1-.152-.168c-.25-.382-.285-.417-.368-.4s-.126-.067-.048-.1c.025-.01.035-.09.022-.178-.019-.13-.01-.161.055-.162s.077-.03.07-.113c-.026-.153.085-.157.19.007.092.142.228.184.157.048.023-.05.051-.009.062.032.068.056.027-.034-.065-.188-.164-.26-.393-.412-.449-.326-.034.049-.151-.041-.239-.181-.192-.316-.249-.356-.314-.388s-.072-.009-.05.11c.038.193-.006.2-.2.024a3.6,3.6,0,0,1-.548-.674.387.387,0,0,0-.222-.272c-.093-.028-.119-.07-.3-.308-.3-.378-.41-.442-.382-.226.011.093.007.1-.068.051-.043-.026-.094-.035-.114-.02s-.059-.008-.149-.132a.587.587,0,0,0-.2-.179.1.1,0,0,1-.082-.1c-.007-.055-.031-.082-.1-.121a.351.351,0,0,1-.153-.153c-.072-.128,0-.213.1-.114a.248.248,0,0,0,.112.071c.028,0-.039-.079-.18-.217s-.209-.176-.159-.113.062.109,0,.172c-.086.086-.089.085-.219-.093a.4.4,0,0,0-.159-.147c-.039-.009-.223-.173-.435-.337-.27-.214-.4-.3-.438-.3s-.065-.018-.1-.1c-.039-.1-.049-.1-.2-.137a.845.845,0,0,1-.376-.21.845.845,0,0,0-.306-.185c-.06-.007-.09-.025-.109-.064a.349.349,0,0,0-.143-.11c-.137-.065-.32-.238-.292-.275.01-.014.06,0,.11.039a1.081,1.081,0,0,0,.482.163c.022-.027-.091-.126-.281-.246-1.116-.679-1.34-.734-1.387-.686s-.275-.025-.4-.143a.963.963,0,0,0-.34-.168c-.189-.064-.43-.155-.616-.232s-.324-.123-.293-.13a1.074,1.074,0,0,1,.155,0c.079,0,.127-.014.132-.051a.559.559,0,0,1,.056-.142c.049-.088-.016-.139-.15-.118a.884.884,0,0,1-.268-.056c-.268-.092-.367-.064-.3.08.044.1.04.194-.006.178l-.1-.016c-.064-.007-.075-.027-.048-.091.052-.121-.186-.395-.333-.386a5.1,5.1,0,0,1-.825-.155c-.036-.023-.023-.046.05-.082.128-.062.151-.121.06-.172-.06-.035-.057-.046.019-.077.11-.048.256.013.227.093-.01.03.022.081.072.113.114.072.226.072.167,0s.046-.134.19-.076a.613.613,0,0,0,.242.039.921.921,0,0,1,.53.155.355.355,0,0,0,.333.048.384.384,0,0,1,.32.035,1.139,1.139,0,0,0,.5.169,1.929,1.929,0,0,1,.515.17,1.91,1.91,0,0,0,.386.153,2.832,2.832,0,0,1,.726.332.772.772,0,0,0,.2.082,4.759,4.759,0,0,1,.747.37c.474.255.718.418.754.422a2.554,2.554,0,0,0-.575-.393l-.6-.353-.45-.234a13.42,13.42,0,0,0-1.556-.665,15.276,15.276,0,0,0-1.577-.475l-.928-.195a6.784,6.784,0,0,0-2.059-.138c-.165.019-.168.064-.011.119s.154.092.019.1c-.052,0-.163.019-.243.035a.914.914,0,0,1-.316-.006c-.2-.039-.251-.1-.081-.1.126,0,.272-.075.219-.111a1.518,1.518,0,0,0-.5-.052,2.55,2.55,0,0,0-.563.058c-.042.019-.213.035-.382.064-.25.035-.308.056-.315.1-.021.158-.035.186-.126.246a.213.213,0,0,0-.1.138.073.073,0,0,1-.054.078.388.388,0,0,0-.123.039,3.2,3.2,0,0,1-.391.107,1.393,1.393,0,0,0-.408.141c-.118.091-.206.106-.214.036s-.067-.06-.369.073c-.155.064-.232.1-.249.084s-.225.024-.217.06c.015.081-.11.167-.253.176a.255.255,0,0,0-.223.091.638.638,0,0,1-.291.148c-.386.107-.831.483-.822.6-.183-.041-.317.038-.5.24a.422.422,0,0,1-.3.188c-.133.039-.176.064-.214.124a.442.442,0,0,1-.163.132.285.285,0,0,0-.13.1.34.34,0,0,1-.1.109,1.139,1.139,0,0,0-.262.362c-.006.023-.08.065-.164.094-.145.052-.151.062-.227.2a1.324,1.324,0,0,1-.229.279,2.216,2.216,0,0,0-.214.221.142.142,0,0,1-.143.063c-.1-.02-.123,0-.155.164-.021.111-.051.147-.176.267-.155.147-.315.414-.273.457-.172.051-.258.256-.177.305.046.028.038.058-.045.179-.072.1-.089.151-.058.167.1.055-.084.293-.423.548a.34.34,0,0,0-.1.126c-.035.09.012.141.076.083.014.1-.01.121-.083.126-.137.01-.225.179-.132.253a.093.093,0,0,1,.029.131c-.027.053-.054.066-.086.041s-.1-.006-.155.033-.109.052-.108.031-.057.02-.13.091c-.188.186-.252.455-.081.338.1-.069.1-.068.1.062a.277.277,0,0,0,.021.149.541.541,0,0,0-.065.229c-.079.124-.122,0-.087-.1.019-.052.023-.1.007-.112-.037-.026-.069.044-.061.136a.523.523,0,0,1-.071.221c-.068.123-.071.155-.016.248.069.118.055.173-.067.254-.063.043-.081.072-.078.125.006.1-.031.156-.062.1-.045-.085-.1-.035-.1.086a1.31,1.31,0,0,1-.162.5c-.25.619-.281.686-.391.633-.062-.03-.1-.022-.117.026-.122.023-.143.265-.092.523.057.3.062.4-.026.369-.031-.014-.088.03-.141.11-.122.182-.124.2-.023.245.186.081.286.142.277.172a.509.509,0,0,0,.154.081.69.69,0,0,0,.1.024,12.326,12.326,0,0,1,16.839-8.032.191.191,0,0,1,.048,0,2.023,2.023,0,0,1,.593.3,12.317,12.317,0,0,1,5.392,16.608.219.219,0,0,0,.283.01l.256-.165c.164-.106.3-.2.424-.284s.209-.172.3-.252a4.355,4.355,0,0,0,.542-.566A7.805,7.805,0,0,0,66,31.738a8.136,8.136,0,0,0,.307-.967,6.028,6.028,0,0,0,.175-.844A6.746,6.746,0,0,0,66.569,29c.006-.174.019-.362.019-.565s-.014-.425-.021-.668M50.116,14.846c-.06,0-.107-.013-.105-.038,0-.049.014-.052.134-.035.046.006.083.029.082.043s-.051.024-.11.03m.444-.006c-.089-.053-.074-.1.06-.157s.151-.094,0-.108c-.172-.014-.175-.068,0-.123a.289.289,0,0,1,.258,0c.068.027.084.051.045.062-.088.027-.084.074,0,.075.192,0,.23.111.09.184a.559.559,0,0,1-.456.072m.517,1.733c-.105.066-.32.048-.313-.035s.117-.142.253-.126c.119.019.15.107.06.162m.668-1.754c-.136.064-.479.043-.517-.032s.031-.09.312-.076c.3.014.346.042.205.109m.58-.006c-.114.007-.108.009-.172-.052s-.023-.085.138-.037.161.081.034.089m1.03.122c-.08.057-.1.056-.465-.019-.369-.056-.5-.116-.311-.15a.042.042,0,0,0,.036-.056c-.01-.026.015-.061.056-.079a.1.1,0,0,0,.062-.107c-.013-.072,0-.073.18-.029.345.1.469.226.2.192-.382-.048-.463,0-.2.066a.465.465,0,0,0,.254.027c.163-.04.3.072.183.155m4.078,3.123c-.046-.037-.069-.073-.05-.084.054-.03.246.085.243.142s-.074.035-.193-.058m.448.259c-.138-.018-.172-.047-.085-.07s.167-.01.176.041c0,.023-.037.036-.091.029m.829-.175a.144.144,0,0,1-.221-.093c.295.021.3.027.221.093m2.358,2.5-.2-.169c-.093-.082-.206-.22-.178-.243s.175.086.321.279c.19.24.195.253.056.134m1.584.431a.824.824,0,0,0-.223-.229c-.062-.02-.14-.114-.29-.342-.086-.132-.072-.156.057-.1a.2.2,0,0,1,.117.116c.029.1.214.331.244.312a.943.943,0,0,1,.229.265c.107.159.181.3.181.3-.038.022-.184-.127-.316-.32m1.182,1.164a.132.132,0,0,1,.031.1c-.1-.077-.086-.15-.031-.1m.973,1.889c-.058-.02-.157-.217-.094-.2s.167.136.155.183c0,.021-.032.031-.061.022m.18-.189a.394.394,0,0,1,.116.358c-.023.091-.027.089-.1-.052-.132-.278-.154-.4-.02-.306m.246.889a.053.053,0,0,1-.069.042.252.252,0,0,1-.1-.138c-.039-.111-.033-.122.084-.138s.272.134.151.16a.1.1,0,0,0-.068.074m.1.022c.023-.037.055-.055.071-.04a.22.22,0,0,1-.029.234c-.062.037-.094-.113-.042-.193m.177.9c-.089.014-.123-.033-.107-.143.01-.07.024-.076.08-.032.1.076.11.163.027.176m.268,4.143a.2.2,0,0,1-.143.074c-.053-.008-.068-.037-.063-.121.018-.269.14-.353.231-.151.048.11.048.114-.025.2m.309-3.7c-.022.049-.036.045-.064-.017-.053-.119-.047-.175.022-.183.052-.006.077.119.042.2" transform="translate(-7.488 -2.398)" fill="#013752"/>
            <path id="Trazado_113993" data-name="Trazado 113993" d="M39.408,27.641a.139.139,0,0,0,.1.023.076.076,0,0,0-.027-.1c-.03-.014-.061,0-.076.076" transform="translate(-7.451 -4.986)" fill="#013752"/>
            <path id="Trazado_113994" data-name="Trazado 113994" d="M40.092,29.286a.1.1,0,0,0-.109.013.074.074,0,0,1-.078.023.294.294,0,0,0-.17.066c-.114.078-.118.089-.077.152a.127.127,0,0,0,.1.06c.035,0,.069.031.081.08a.149.149,0,0,0,.068.1.143.143,0,0,1,.09.1q.058-.3.13-.589a.13.13,0,0,1-.039,0" transform="translate(-7.495 -5.32)" fill="#013752"/>
            <path id="Trazado_113995" data-name="Trazado 113995" d="M40.015,30.215c-.055.059-.081.151-.128.481-.053.348-.048.4,0,.411.033-.3.077-.6.131-.891" transform="translate(-7.536 -5.503)" fill="#013752"/>
            <path id="Trazado_113996" data-name="Trazado 113996" d="M61.442,16.635c.1.062.248.057.2-.019a1.6,1.6,0,0,1-.182-.045c-.093-.045-.109.006-.02.064" transform="translate(-11.731 -2.842)" fill="#013752"/>
            <path id="Trazado_113997" data-name="Trazado 113997" d="M60.635,16.555c.079-.035.072-.068.052-.089-.084.044-.076.077-.052.089" transform="translate(-11.582 -2.825)" fill="#013752"/>
            <path id="Trazado_113998" data-name="Trazado 113998" d="M42.685,21.785a.112.112,0,0,0,.093-.111c0-.07-.117-.029-.127.047-.006.039.01.067.034.064" transform="translate(-8.082 -3.832)" fill="#013752"/>
            <path id="Trazado_113999" data-name="Trazado 113999" d="M39.674,27.149c.04-.032.048-.064.04-.177-.1.18-.1.225-.04.177" transform="translate(-7.494 -4.871)" fill="#013752"/>
            <path id="Trazado_114000" data-name="Trazado 114000" d="M43.78,19.588c.036-.114-.118-.068-.218.064-.081.106-.072.114.072.064.1-.036.121-.05.146-.129" transform="translate(-8.25 -3.421)" fill="#013752"/>
            <path id="Trazado_114001" data-name="Trazado 114001" d="M44.508,18.711c-.065.026-.192.182-.171.21.009.013.069-.024.134-.081.116-.1.135-.168.036-.13" transform="translate(-8.41 -3.26)" fill="#013752"/>
            <path id="Trazado_114002" data-name="Trazado 114002" d="M46.9,16.73a.54.54,0,0,0-.12.13c.1-.077.126-.115.12-.13" transform="translate(-8.886 -2.876)" fill="#013752"/>
            <path id="Trazado_114003" data-name="Trazado 114003" d="M41.14,24.386c.046-.127-.01-.188-.072-.075-.044.081-.057.213-.022.235s.041-.016.093-.16" transform="translate(-7.766 -4.341)" fill="#013752"/>
          </g>
        </g>
      </g>
    </g>
  </g>
</svg>
