<svg id="Grupo_56598" data-name="Grupo 56598" xmlns="http://www.w3.org/2000/svg" xmlns:xlink="http://www.w3.org/1999/xlink" width="175" height="249.89" viewBox="0 0 175 249.89">
  <defs>
    <clipPath id="clip-path">
      <rect id="Rectángulo_5287" data-name="Rectángulo 5287" width="175" height="249.89" fill="none"/>
    </clipPath>
    <clipPath id="clip-path-2">
      <rect id="Rectángulo_5286" data-name="Rectángulo 5286" width="175" height="249.889" fill="none"/>
    </clipPath>
    <clipPath id="clip-path-3">
      <rect id="Rectángulo_5283" data-name="Rectángulo 5283" width="71.491" height="95.856" fill="none"/>
    </clipPath>
    <clipPath id="clip-path-4">
      <rect id="Rectángulo_5284" data-name="Rectángulo 5284" width="61.435" height="82.371" fill="none"/>
    </clipPath>
    <clipPath id="clip-path-5">
      <rect id="Rectángulo_5285" data-name="Rectángulo 5285" width="17.054" height="36.127" fill="none"/>
    </clipPath>
  </defs>
  <g id="Grupo_56597" data-name="Grupo 56597" clip-path="url(#clip-path)">
    <g id="Grupo_56596" data-name="Grupo 56596" transform="translate(0 0)">
      <g id="Grupo_56595" data-name="Grupo 56595" clip-path="url(#clip-path-2)">
        <path id="Trazado_101201" data-name="Trazado 101201" d="M463.794,88.514l-.278,2.068-21.5,159.308h71.9c-1.809-30.973-10.164-174.212-10.077-175.984.1-1.987,2.882-4.969,2.882-4.969,7.044-10.23,6.455-22.839,5.991-31.678a58.092,58.092,0,0,1-.128-7.475c.7-7.452-11.925-13.613-12.72-13.912s-4.67-.8-4.273-2.384-4.371-6.36-8.148-7.155-7.155,2.187-7.155,2.187S478.8,1.861,476.215.869s-8.744-1.094-10.235-.5S462.7,5.142,462.7,5.142s.893,1.887-1.989-2.087S447.2,3.948,446.6,5.838c-.311.988-.57,5.889-.744,10.341-.16,4.06-.25,7.744-.25,7.744S441.222,37.736,441.222,43s18.6,24.745,21.281,28.619,1.291,16.894,1.291,16.894" transform="translate(-338.917 -0.002)" fill="#945c3a"/>
        <g id="Grupo_56588" data-name="Grupo 56588" transform="translate(102.305 0)" style="mix-blend-mode: multiply;isolation: isolate">
          <g id="Grupo_56587" data-name="Grupo 56587">
            <g id="Grupo_56586" data-name="Grupo 56586" clip-path="url(#clip-path-3)">
              <path id="Trazado_101202" data-name="Trazado 101202" d="M462.5,71.621c2.683,3.874,1.291,16.894,1.291,16.894s3.578,6.5,9.342,7.274-1.989-5.187-1.989-5.187V74.1s6.033.995,6.594-2.184c0,0-4.208,1.788-6.791-.8,0,0,8.347.8,9.143-3.977,0,0-8.006,4.531-14.707,2.187S454.255,58.8,454.255,58.8s-11.153-11.331-11.4-17.754c-.007-.2,5.236-21,5.632-21.264s3.179,4.7,5.632,4.438,4.306-.728,3.179-1.92c-1.108-1.176-4.593-3.891-4.7-3.974l2.384,3.179s-2.782.6-3.974-1.326a10.721,10.721,0,0,1-1.458-3.443l8.088-4.241s1.783,3.842,3.638,4.241,10.534-1.062,11.593-3.313.862-2.982.862-2.982,1.987,1.458.6,4.373-7.355,9.806-10.334,10.6-6.3.73-7.155,2.254l4.57.86s1.326,1.458-1.72,3.71l-.846,1.391a7.92,7.92,0,0,0,3.1-.264c.8-.464-.927,9.738-4.373,12.189,0,0,3.578,1.259,6.36-8.479,0,0,4.769.264,6.56,1.922s8.28,8.081,9.8,10.068,2.054,3.114,2.054,5.3.332,5.036,0,6.161a18.871,18.871,0,0,0-.464,3.114s4.041-1.723,4.041-3.246,1.324-7.088-.663-9.01l-.8,2.982s.067-6.293-2.319-7.684c0,0,5.1-.863,5.632-1.458s2.119,2.982,5.3,2.717,5.166-1.79,6.557-5.632,1.656-5.365,2.386-5.266,10.691.22,10.691.22h0a58.092,58.092,0,0,1-.128-7.475c.7-7.452-11.925-13.613-12.72-13.912s-4.67-.8-4.273-2.384-4.371-6.36-8.148-7.155-7.155,2.187-7.155,2.187S478.8,1.861,476.215.869s-8.744-1.094-10.235-.5S462.7,5.142,462.7,5.142s.893,1.887-1.989-2.087S447.2,3.948,446.6,5.838c-.311.988-.57,5.889-.744,10.341-.16,4.06-.25,7.744-.25,7.744S441.222,37.736,441.222,43s18.6,24.745,21.281,28.619" transform="translate(-441.222 -0.001)" fill="#945c3a"/>
            </g>
          </g>
        </g>
        <path id="Trazado_101203" data-name="Trazado 101203" d="M534.668,27.505s5.317,3.031,3.379,5.515-8.447,4.322-9.49,3.577a3.749,3.749,0,0,1-1.342-1.938s2.087.4,1.838.05l-1.838-2.574s4.074-6.468,7.453-4.63" transform="translate(-404.971 -20.876)" fill="#945c3a"/>
        <path id="Trazado_101204" data-name="Trazado 101204" d="M466.572,25.713s.3-8.16,1.54-9.819,8.5-3.548,10.285-3.4,2.534,4.919,2.534,4.919Z" transform="translate(-358.389 -9.593)" fill="#945c3a"/>
        <path id="Trazado_101205" data-name="Trazado 101205" d="M553.747,4.532c.18.084,4.571,1.661,4.968,4.938s-1.609,20.7-1.8,21.826-.984,7.42-.984,7.42-1.126-1.126-1.126-.861,1.656,2.584-1.06,2.65-5.3-.133-5.565-.927-.6-1.789,0-2.252,4.226-1.789,5.293-1.391-.39-2.782-2.51-2.65-3.616.265-4.226,2.319-.345.662-.345.662-1.325-5.631-.861-6.294a3.9,3.9,0,0,1,3.578-1.325c1.391.4,4.24.927,4.24.927l1.325-1.458-4.77-.331s5.7-7.354,6.161-9.738-.729-6.89-3.114-8.877-7.484-1.325-7.518-1.524-.432-2.12.363-2.716,6.139-1.247,7.95-.4" transform="translate(-418.866 -3.169)" fill="#945c3a"/>
        <path id="Trazado_101206" data-name="Trazado 101206" d="M605.536,33.644s-3.606.795-3.658,21.265l-.449,7.883s3.18-1.7,4.372-.518a44.642,44.642,0,0,1,3.776,5.619,10.753,10.753,0,0,0,1.457-1.259c.133-.265.927-15.1,2.054-18.682s4.571-8.347,4.637-9.341-2.716-6.161-6.757-6.161-3.776.265-5.432,1.192" transform="translate(-461.978 -24.928)" fill="#945c3a"/>
        <path id="Trazado_101207" data-name="Trazado 101207" d="M608.748,173.561s-4.174-.994-4.77,0a6.556,6.556,0,0,0-.61,2.716s6.44.2,6.109,0-.119-2.586-.729-2.716" transform="translate(-463.467 -132.979)" fill="#945c3a"/>
        <path id="Trazado_101208" data-name="Trazado 101208" d="M611.1,166.517c-.221.09,2.517.729,2.385,0s-.927-.6-2.385,0" transform="translate(-469.397 -127.525)" fill="#945c3a"/>
        <path id="Trazado_101209" data-name="Trazado 101209" d="M586.249,169.654a1.585,1.585,0,0,1,.047.314,13.841,13.841,0,0,1-.047,1.66l-1.391-.987Z" transform="translate(-449.249 -130.317)" fill="#945c3a"/>
        <path id="Trazado_101210" data-name="Trazado 101210" d="M653.258,180.119v2.926s-1.391.248-1.689-.646a16.42,16.42,0,0,1-.5-2.28Z" transform="translate(-500.11 -138.356)" fill="#945c3a"/>
        <path id="Trazado_101211" data-name="Trazado 101211" d="M661.549,149.226s-4.472.3-5.763-.845c0,0,1.739,2.882,5.763.845" transform="translate(-503.731 -113.977)" fill="#945c3a"/>
        <path id="Trazado_101212" data-name="Trazado 101212" d="M656.683,97.828c-.167-.149.181-3.633-1.657-5.046s-2.882-1.225-2.882-1.225.5-10.473,1.938-15.74,4.025-7.285,4.025-7.285l6.906,3.062.646,3.279.845-1.292s4.273,3.925,5.316,6.061-3.925,1.838-3.925,1.838,2.335-3.478,1.888-3.23a8.036,8.036,0,0,0-5.913,4.928C662.081,87.543,661.187,93.406,659.8,95a21.232,21.232,0,0,1-3.113,2.832" transform="translate(-500.934 -52.642)" fill="#945c3a"/>
        <path id="Trazado_101213" data-name="Trazado 101213" d="M713.714,126.524c-.149,0-6.956,1.689-7.453,3.627a16.672,16.672,0,0,0-.547,3.014l9.092-.381Z" transform="translate(-542.083 -97.188)" fill="#945c3a"/>
        <path id="Trazado_101214" data-name="Trazado 101214" d="M5.937,229.078s2.391,2.562,2.476,4.271c.023.473-.656,12.706-1.649,30.138C4.712,299.548,1.314,357.853,0,380.349H60.972L43.063,247.679l-.239-1.776s-1.194-11.188,1.111-14.517,18.287-20.068,18.287-24.594-3.77-16.4-3.77-16.4-.079-3.165-.216-6.655a74.832,74.832,0,0,0-.64-8.885c-.512-1.625-9.65-5.808-12.124-2.393s-1.709,1.795-1.709,1.795-1.537-3.587-2.817-4.1-6.576-.427-8.795.429-3.5,6.576-3.5,6.576-2.9-2.562-6.149-1.88-7.343,4.783-7,6.149-2.989,1.795-3.67,2.05S.3,189.03.9,195.434a49.7,49.7,0,0,1-.109,6.423c-.373,7.111-.839,17.061,4.069,25.512q.5.866,1.08,1.709" transform="translate(0 -130.46)" fill="#f29b8b"/>
        <g id="Grupo_56591" data-name="Grupo 56591" transform="translate(0.787 39.38)" style="mix-blend-mode: multiply;isolation: isolate">
          <g id="Grupo_56590" data-name="Grupo 56590">
            <g id="Grupo_56589" data-name="Grupo 56589" clip-path="url(#clip-path-4)">
              <path id="Trazado_101215" data-name="Trazado 101215" d="M46.543,231.387c-2.305,3.329-1.11,14.518-1.11,14.518s-3.075,5.585-8.028,6.25,1.71-4.457,1.71-4.457V233.521s-5.184.855-5.667-1.877c0,0,3.616,1.536,5.836-.684,0,0-7.173.684-7.857-3.417,0,0,6.88,3.893,12.639,1.879s9.564-9.052,9.564-9.052,9.584-9.738,9.793-15.257c.006-.17-4.5-18.046-4.84-18.273s-2.732,4.041-4.84,3.814-3.7-.626-2.732-1.65c.952-1.01,3.947-3.343,4.041-3.415l-2.048,2.732s2.391.512,3.415-1.14a9.214,9.214,0,0,0,1.253-2.959l-6.95-3.644s-1.532,3.3-3.126,3.644-9.052-.912-9.963-2.847-.741-2.563-.741-2.563-1.708,1.253-.512,3.758,6.32,8.426,8.881,9.107,5.409.628,6.149,1.937l-3.927.739s-1.14,1.253,1.478,3.188l.727,1.2a6.8,6.8,0,0,1-2.662-.227c-.683-.4.8,8.369,3.758,10.475,0,0-3.074,1.082-5.465-7.287,0,0-4.1.227-5.637,1.652s-7.115,6.943-8.424,8.651a6.432,6.432,0,0,0-1.765,4.555c0,1.879-.285,4.328,0,5.294a16.217,16.217,0,0,1,.4,2.676s-3.473-1.48-3.473-2.789-1.138-6.091.57-7.743l.683,2.563s-.058-5.408,1.992-6.6c0,0-4.383-.741-4.84-1.253S23,211.263,20.27,211.036s-4.439-1.538-5.635-4.84-1.423-4.611-2.05-4.525-9.187.189-9.187.189h0a49.942,49.942,0,0,0,.109-6.424c-.6-6.4,10.247-11.7,10.931-11.955s4.013-.684,3.672-2.048,3.756-5.466,7-6.149,6.149,1.879,6.149,1.879,1.281-5.722,3.5-6.575,7.514-.941,8.795-.429,2.817,4.1,2.817,4.1-.767,1.622,1.71-1.793,11.612.767,12.124,2.391a75.056,75.056,0,0,1,.64,8.887c.137,3.489.215,6.655.215,6.655s3.77,11.869,3.77,16.394-15.982,21.264-18.287,24.593" transform="translate(-3.396 -169.843)" fill="#f29b8b"/>
            </g>
          </g>
        </g>
        <path id="Trazado_101216" data-name="Trazado 101216" d="M156.007,193.478s-4.568,2.6-2.9,4.739,7.259,3.714,8.155,3.074a3.222,3.222,0,0,0,1.153-1.665s-1.793.342-1.58.043l1.58-2.212s-3.5-5.559-6.4-3.979" transform="translate(-117.323 -148.4)" fill="#f29b8b"/>
        <path id="Trazado_101217" data-name="Trazado 101217" d="M205.69,191.936s-.256-7.012-1.323-8.438-7.3-3.049-8.838-2.92-2.177,4.227-2.177,4.227Z" transform="translate(-148.519 -138.704)" fill="#f29b8b"/>
        <path id="Trazado_101218" data-name="Trazado 101218" d="M133.33,173.735c-.155.073-3.928,1.427-4.27,4.243s1.383,17.788,1.545,18.756.846,6.376.846,6.376.968-.968.968-.74-1.423,2.22.911,2.277,4.554-.114,4.782-.8.512-1.537,0-1.935-3.631-1.537-4.548-1.2.335-2.391,2.157-2.277,3.107.228,3.631,1.992.3.569.3.569,1.138-4.839.74-5.408a3.352,3.352,0,0,0-3.074-1.139c-1.2.342-3.644.8-3.644.8L132.533,194l4.1-.285s-4.9-6.319-5.294-8.369.626-5.92,2.676-7.628,6.432-1.139,6.461-1.31.371-1.822-.312-2.334-5.275-1.071-6.831-.342" transform="translate(-99.101 -133.183)" fill="#f29b8b"/>
        <path id="Trazado_101219" data-name="Trazado 101219" d="M80.754,198.754s3.1.683,3.143,18.274l.386,6.774s-2.733-1.46-3.757-.445a38.371,38.371,0,0,0-3.245,4.829A9.236,9.236,0,0,1,76.03,227.1c-.114-.228-.8-12.98-1.765-16.054s-3.928-7.173-3.985-8.027,2.334-5.294,5.807-5.294,3.245.228,4.668,1.025" transform="translate(-53.983 -151.883)" fill="#f29b8b"/>
        <path id="Trazado_101220" data-name="Trazado 101220" d="M106.965,318.987s3.586-.854,4.1,0a5.637,5.637,0,0,1,.524,2.334s-5.534.171-5.25,0,.1-2.223.627-2.334" transform="translate(-81.674 -244.733)" fill="#f29b8b"/>
        <path id="Trazado_101221" data-name="Trazado 101221" d="M115.531,312.934c.19.078-2.163.626-2.049,0s.8-.512,2.049,0" transform="translate(-87.166 -240.047)" fill="#f29b8b"/>
        <path id="Trazado_101222" data-name="Trazado 101222" d="M139.6,315.63a1.356,1.356,0,0,0-.04.27,11.865,11.865,0,0,0,.04,1.426l1.2-.848Z" transform="translate(-107.191 -242.446)" fill="#f29b8b"/>
        <path id="Trazado_101223" data-name="Trazado 101223" d="M79.92,324.623v2.514s1.2.214,1.452-.555a14.071,14.071,0,0,0,.427-1.959Z" transform="translate(-61.389 -249.354)" fill="#f29b8b"/>
        <path id="Trazado_101224" data-name="Trazado 101224" d="M62.61,298.076s3.843.256,4.953-.726c0,0-1.494,2.476-4.953.726" transform="translate(-48.093 -228.405)" fill="#f29b8b"/>
        <path id="Trazado_101225" data-name="Trazado 101225" d="M26.778,253.908c.143-.128-.156-3.122,1.424-4.336s2.477-1.052,2.477-1.052-.427-9-1.665-13.526-3.458-6.26-3.458-6.26l-5.935,2.631-.555,2.818-.726-1.11s-3.672,3.373-4.569,5.209,3.373,1.58,3.373,1.58-2.007-2.989-1.623-2.775A6.9,6.9,0,0,1,20.6,241.32c1.537,3.75,2.306,8.788,3.5,10.154a18.262,18.262,0,0,0,2.675,2.434" transform="translate(-10.483 -175.698)" fill="#f29b8b"/>
        <path id="Trazado_101226" data-name="Trazado 101226" d="M8.307,278.567c.128,0,5.978,1.452,6.4,3.117a14.326,14.326,0,0,1,.47,2.59l-7.813-.327Z" transform="translate(-5.66 -213.977)" fill="#f29b8b"/>
        <g id="Grupo_56594" data-name="Grupo 56594" transform="translate(4.856 96.901)" style="mix-blend-mode: multiply;isolation: isolate">
          <g id="Grupo_56593" data-name="Grupo 56593">
            <g id="Grupo_56592" data-name="Grupo 56592" clip-path="url(#clip-path-5)">
              <path id="Trazado_101227" data-name="Trazado 101227" d="M38,423.949q-3.311,1.544-6.622,3.084a6.452,6.452,0,0,0-2.177,1.4,5.929,5.929,0,0,0-.937,1.646,36.518,36.518,0,0,0-2.736,10.81,61.1,61.1,0,0,1-.659,6.58c-.459,2.237-1.377,4.382-2.015,6.573.992-17.432,1.672-29.665,1.649-30.138-.086-1.709-2.476-4.271-2.476-4.271q-.581-.842-1.08-1.709a2.864,2.864,0,0,1,1.259.23c3.6,1.338,7.524,4.487,11.688,3.828q-2.282.362-4.563.721A17.6,17.6,0,0,0,38,423.949" transform="translate(-20.945 -417.919)" fill="#f29b8b"/>
            </g>
          </g>
        </g>
      </g>
    </g>
  </g>
</svg>
