<svg xmlns="http://www.w3.org/2000/svg" xmlns:xlink="http://www.w3.org/1999/xlink" width="60" height="68" viewBox="0 0 60 68">
  <defs>
    <clipPath id="clip-path">
      <rect id="Rectángulo_34839" data-name="Rectángulo 34839" width="60" height="68" transform="translate(-0.131 -0.001)" fill="#fff"/>
    </clipPath>
  </defs>
  <g id="Grupo_59135" data-name="Grupo 59135" transform="translate(0.131 0.001)">
    <g id="Grupo_59132" data-name="Grupo 59132">
      <g id="Grupo_59131" data-name="Grupo 59131" clip-path="url(#clip-path)">
        <path id="Trazado_115870" data-name="Trazado 115870" d="M128.457,227.59a1,1,0,1,0,0,1.992h2.555a1,1,0,1,0,0-1.992Z" transform="translate(-104.89 -187.288)" fill="#fff"/>
        <path id="Trazado_115871" data-name="Trazado 115871" d="M162.254,275.93h-3.2a1,1,0,1,0,0,1.992h3.2a1,1,0,1,0,0-1.992" transform="translate(-130.072 -227.068)" fill="#fff"/>
        <path id="Trazado_115872" data-name="Trazado 115872" d="M162.254,302.48h-3.2a1,1,0,1,0,0,1.992h3.2a1,1,0,1,0,0-1.992" transform="translate(-130.072 -248.917)" fill="#fff"/>
      </g>
    </g>
    <g id="Grupo_59134" data-name="Grupo 59134">
      <g id="Grupo_59133" data-name="Grupo 59133" clip-path="url(#clip-path)">
        <path id="Trazado_115873" data-name="Trazado 115873" d="M191.406,228.586a1,1,0,0,0-1-1h-2.555a1,1,0,1,0,0,1.992h2.555a1,1,0,0,0,1-1" transform="translate(-153.77 -187.288)" fill="#fff"/>
        <path id="Trazado_115874" data-name="Trazado 115874" d="M60.446,20.328A4.6,4.6,0,0,0,58,17.012a14.306,14.306,0,0,0-6.495-1.28,14.134,14.134,0,0,0-6.922,1.7,9.284,9.284,0,0,0-4.159-3.486v-3A4.574,4.574,0,0,0,36.6,6.435V6.093a6.093,6.093,0,0,0-12.185,0v.342a4.574,4.574,0,0,0-3.831,4.507v3a9.283,9.283,0,0,0-4.154,3.478A14.106,14.106,0,0,0,9.5,15.732a14.306,14.306,0,0,0-6.495,1.28A4.6,4.6,0,0,0,.562,20.328a4.7,4.7,0,0,0,1.174,4.04c3.123,3.4,4.717,6.533,4.373,8.6,0,0-.37,2.2-.5,3.042a1,1,0,0,0,.834,1.135.942.942,0,0,0,.152.012,1,1,0,0,0,.983-.846c.127-.831.5-3.015.5-3.015.464-2.787-1.311-5.927-3.344-8.489A13.952,13.952,0,0,1,9.5,24.1a11.658,11.658,0,0,1,7.794,2.711,10.891,10.891,0,0,0-1.556,6.09l.41,10.392a14.4,14.4,0,0,0,1.294,5.436,5.463,5.463,0,0,1-4.037,3.395,4.781,4.781,0,0,1-4.5-2.064c-1.558-1.973-2.15-5.149-1.807-9.708A1,1,0,0,0,5.112,40.2c-.382,5.079.347,8.707,2.229,11.092a6.957,6.957,0,0,0,5.435,2.869,6.118,6.118,0,0,0,.928-.07A7.211,7.211,0,0,0,18.6,50.786,14.359,14.359,0,0,0,24.325,55.7V61.6A6.4,6.4,0,0,0,30.719,68h1.331a1,1,0,1,0,0-1.992H30.719a4.407,4.407,0,0,1-4.4-4.4V45.67a1,1,0,0,0-1.992,0v7.778a12.315,12.315,0,0,1-6.187-10.235l-.41-10.392a8.921,8.921,0,0,1,1.25-4.945,12.249,12.249,0,0,0,8.2,7.611,3.38,3.38,0,0,0,6.65,0,12.373,12.373,0,0,0,8.2-7.613,8.92,8.92,0,0,1,1.252,4.949l-.41,10.392a12.458,12.458,0,0,1-5.335,9.7V45.67a1,1,0,0,0-1.992,0V57.885a3.454,3.454,0,0,0,4.808,3.176l4-1.706a.381.381,0,0,1,.531.351v2.621a.383.383,0,0,1-.154.306l-1.545,1.15a11.335,11.335,0,0,1-6.719,2.224,1,1,0,1,0,0,1.992h.14a13.346,13.346,0,0,0,7.767-2.617l1.546-1.15a2.384,2.384,0,0,0,.957-1.905V59.705a2.373,2.373,0,0,0-3.305-2.183l-4,1.707a1.461,1.461,0,0,1-2.035-1.344V55.255A14.381,14.381,0,0,0,42.4,50.764a7.212,7.212,0,0,0,4.841,3.318,6.14,6.14,0,0,0,1,.081,6.952,6.952,0,0,0,5.433-2.869C57.228,46.783,54.9,32.965,54.9,32.965c-.345-2.065,1.249-5.2,4.372-8.6a4.7,4.7,0,0,0,1.174-4.04m-3.352-1.543a2.625,2.625,0,0,1,1.391,1.893,2.726,2.726,0,0,1-.68,2.342l-.172.189a14.873,14.873,0,0,0-6.125-1.1A13.787,13.787,0,0,0,42.533,25.2c-.1-.118-.211-.237-.322-.352a11.143,11.143,0,0,0-1.2-1.08,11.768,11.768,0,0,1,2.03-2.716,11.538,11.538,0,0,1,8.467-3.329,12.391,12.391,0,0,1,5.586,1.061M26.4,6.093a4.1,4.1,0,0,1,8.2,0v.282H26.4Zm-3.831,4.849a2.578,2.578,0,0,1,2.575-2.575H35.861a2.578,2.578,0,0,1,2.575,2.575v2.411a9.3,9.3,0,0,0-1.636-.146H24.209a9.3,9.3,0,0,0-1.636.146ZM24.209,15.2H36.8a7.3,7.3,0,0,1,6.12,3.32,13.234,13.234,0,0,0-1.352,1.192,13.79,13.79,0,0,0-2.239,2.983,10.92,10.92,0,0,0-4.834-1.214,9.758,9.758,0,0,0-2.512-4.284,2.05,2.05,0,0,0-2.954,0,9.762,9.762,0,0,0-2.512,4.284,10.913,10.913,0,0,0-4.834,1.214,13.791,13.791,0,0,0-3.589-4.179A7.3,7.3,0,0,1,24.209,15.2m8.456,7.653a6.794,6.794,0,0,1-2.119,4.275.058.058,0,0,1-.083,0,6.79,6.79,0,0,1-2.119-4.275,6.793,6.793,0,0,1,2.119-4.276.059.059,0,0,1,.083,0,6.8,6.8,0,0,1,2.119,4.276M9.5,22.107a14.873,14.873,0,0,0-6.125,1.1L3.2,23.02a2.726,2.726,0,0,1-.681-2.342,2.628,2.628,0,0,1,1.392-1.893A12.391,12.391,0,0,1,9.5,17.724,11.506,11.506,0,0,1,20,23.768a11.17,11.17,0,0,0-1.2,1.081c-.111.115-.217.233-.322.352A13.8,13.8,0,0,0,9.5,22.107m21,14.162a1.388,1.388,0,1,1,1.388-1.388A1.39,1.39,0,0,1,30.5,36.268m3.077-2.786a3.379,3.379,0,0,0-6.154,0,10.257,10.257,0,0,1-6.937-7.507,8.908,8.908,0,0,1,5.9-2.5,9.178,9.178,0,0,0,2.641,5.035,2.05,2.05,0,0,0,2.954,0,9.178,9.178,0,0,0,2.641-5.035,8.912,8.912,0,0,1,5.9,2.5,10.358,10.358,0,0,1-6.937,7.508m19.354-.189s2.182,12.95-.831,16.767a4.771,4.771,0,0,1-4.545,2.057,5.469,5.469,0,0,1-4-3.409,14.294,14.294,0,0,0,1.305-5.415L45.271,32.9a10.9,10.9,0,0,0-1.556-6.089A11.644,11.644,0,0,1,51.508,24.1a13.967,13.967,0,0,1,4.769.7c-2.032,2.561-3.808,5.7-3.343,8.489" transform="translate(-0.4)" fill="#fff"/>
      </g>
    </g>
  </g>
</svg>
