<svg xmlns="http://www.w3.org/2000/svg" xmlns:xlink="http://www.w3.org/1999/xlink" width="92" height="68" viewBox="0 0 92 68">
  <defs>
    <clipPath id="clip-path">
      <rect id="Rectángulo_34833" data-name="Rectángulo 34833" width="92" height="68" transform="translate(0 0.042)" fill="#12263f"/>
    </clipPath>
  </defs>
  <g id="Grupo_59122" data-name="Grupo 59122" transform="translate(0 -0.042)">
    <g id="Grupo_59119" data-name="Grupo 59119" transform="translate(0)">
      <g id="Grupo_59118" data-name="Grupo 59118" clip-path="url(#clip-path)">
        <path id="Trazado_115850" data-name="Trazado 115850" d="M44.6,30.689a4.437,4.437,0,0,0-4.006-4.277h-.007a6.07,6.07,0,0,0-2.117.188,6.522,6.522,0,0,0-1.136.406l-.023-17.3c0-.011,0-.023,0-.036a5.522,5.522,0,0,0-5.151-5.386c-.1,0-.2-.007-.3-.007a5.665,5.665,0,0,0-3.181.967,5.675,5.675,0,0,0-10.214-1.81A5.7,5.7,0,0,0,8.717,7.465V7.5A5.7,5.7,0,0,0,0,12.346L.044,25.678a1.347,1.347,0,0,0,2.694-.008L2.7,12.341a3.011,3.011,0,0,1,6.021,0v16.8a1.348,1.348,0,1,0,2.7,0V7.465a3.011,3.011,0,0,1,6.021,0V25.674a1.348,1.348,0,0,0,2.7,0V6.733a3.078,3.078,0,0,1,2.926-3.1,3.011,3.011,0,0,1,3.1,3.01V22.86a1.348,1.348,0,1,0,2.7,0V9.986A3.009,3.009,0,0,1,32.018,6.98a2.812,2.812,0,0,1,2.6,2.751l.024,19.6a6.548,6.548,0,0,0-1.1,3.64v2.214a6.687,6.687,0,0,1-1.971,4.759L30.3,41.214a9.361,9.361,0,0,0-2.761,6.665v5.053a1.348,1.348,0,0,0,2.7,0V47.879a6.685,6.685,0,0,1,1.971-4.759l1.267-1.267a9.365,9.365,0,0,0,2.761-6.665V32.973c0-2.085,2.046-4.312,4.261-3.852a1.835,1.835,0,0,1,1.418,1.41s0,.009,0,.014c.2,1.008.035,13.9.035,13.926a21.541,21.541,0,0,1-6.309,15.71A19.3,19.3,0,0,1,2.7,46.327l.041-14.382a1.347,1.347,0,1,0-2.694.034L0,46.314A22,22,0,0,0,37.55,62.086a24.121,24.121,0,0,0,7.1-17.46c0-.026,0-9.7,0-12.159,0-.61,0-1.206-.052-1.779" transform="translate(-0.001 -0.712)" fill="#12263f"/>
        <path id="Trazado_115851" data-name="Trazado 115851" d="M49.223,161.647l1.526-1.567a14.762,14.762,0,0,1,8.153-4.245,1.348,1.348,0,1,0-.432-2.661,17.486,17.486,0,0,0-9.653,5.026l-1.525,1.567a1.348,1.348,0,1,0,1.932,1.88" transform="translate(-35.671 -116.463)" fill="#12263f"/>
        <path id="Trazado_115852" data-name="Trazado 115852" d="M242.148,27.035a1.347,1.347,0,0,0-1.339-1.355H240.8a1.348,1.348,0,0,0-1.348,1.339l.026,19.321a19.3,19.3,0,0,1-32.947,13.841,21.543,21.543,0,0,1-6.309-15.71c0-.025,0-.05,0-.075,0-1.07-.008-2.14-.013-3.211q-.011-2.632-.017-5.266c0-1.443-.007-2.888.014-4.331a5.651,5.651,0,0,1,.053-1.044,1.836,1.836,0,0,1,1.424-1.423c2.224-.458,4.258,1.744,4.258,3.852v2.215a9.367,9.367,0,0,0,2.76,6.665l1.267,1.266a6.684,6.684,0,0,1,1.972,4.759v5.053a1.348,1.348,0,1,0,2.7,0V47.878a9.363,9.363,0,0,0-2.761-6.664l-1.267-1.267a6.687,6.687,0,0,1-1.971-4.759V32.972a6.548,6.548,0,0,0-1.1-3.639l.025-19.6a2.814,2.814,0,0,1,2.6-2.752c.052,0,.106,0,.159,0a3.011,3.011,0,0,1,3.012,3.011V22.86a1.348,1.348,0,0,0,2.7,0V6.642a3.01,3.01,0,0,1,3.1-3.01,3.078,3.078,0,0,1,2.925,3.1v18.94a1.348,1.348,0,0,0,2.7,0V7.464a3.011,3.011,0,0,1,6.021,0V29.136a1.348,1.348,0,0,0,2.7,0V12.34a3.011,3.011,0,0,1,6.021,0l-.026,8.4a1.348,1.348,0,0,0,2.7.008l.027-8.4A5.7,5.7,0,0,0,233.458,7.5V7.465a5.7,5.7,0,0,0-9.744-4.028A5.686,5.686,0,0,0,213.5,5.247a5.669,5.669,0,0,0-3.182-.967q-.152,0-.3.007a5.522,5.522,0,0,0-5.152,5.386c0,.012,0,.023,0,.036l-.023,17.3a5.264,5.264,0,0,0-5.991.707,4.5,4.5,0,0,0-1.3,2.738c-.117,1.052-.02,14.15-.02,14.175a24.123,24.123,0,0,0,7.1,17.461,22,22,0,0,0,37.548-15.76Z" transform="translate(-150.175 -0.712)" fill="#12263f"/>
      </g>
    </g>
    <g id="Grupo_59121" data-name="Grupo 59121">
      <g id="Grupo_59120" data-name="Grupo 59120" clip-path="url(#clip-path)">
        <path id="Trazado_115853" data-name="Trazado 115853" d="M293.527,158.2a17.483,17.483,0,0,0-9.653-5.026,1.348,1.348,0,1,0-.432,2.661,14.762,14.762,0,0,1,8.153,4.245l1.526,1.567a1.347,1.347,0,1,0,1.932-1.879Z" transform="translate(-214.673 -116.463)" fill="#12263f"/>
      </g>
    </g>
  </g>
</svg>
