<svg id="Grupo_59128" data-name="Grupo 59128" xmlns="http://www.w3.org/2000/svg" xmlns:xlink="http://www.w3.org/1999/xlink" width="61.869" height="56.001" viewBox="0 0 61.869 56.001">
  <defs>
    <clipPath id="clip-path">
      <rect id="Rectángulo_34837" data-name="Rectángulo 34837" width="61.868" height="56.001" fill="#12263f"/>
    </clipPath>
  </defs>
  <g id="Grupo_59127" data-name="Grupo 59127" clip-path="url(#clip-path)">
    <path id="Trazado_115858" data-name="Trazado 115858" d="M60.22,44.224a5.306,5.306,0,0,0-4.851-.58c-.768.276-1.622.624-2.549,1.037V41.142a2.966,2.966,0,0,0-2.963-2.963h-.991V17.823h.991a2.967,2.967,0,0,0,2.963-2.964V11.305c.926.412,1.78.761,2.549,1.038a5.83,5.83,0,0,0,1.974.351,5.037,5.037,0,0,0,2.905-.888,3.57,3.57,0,0,0,1.619-2.9A3.557,3.557,0,0,0,60.22,6.045a5.306,5.306,0,0,0-4.851-.58c-.77.277-1.624.626-2.55,1.038V2.964A2.966,2.966,0,0,0,49.857,0H48.623a1.577,1.577,0,0,0-1.575,1.575v.411H27.308a.909.909,0,0,0,0,1.818h19.74V14.018H14.821V3.8h8.245a.909.909,0,0,0,0-1.818H14.821V1.575A1.577,1.577,0,0,0,13.245,0H12.011A2.967,2.967,0,0,0,9.048,2.964V6.5C8.121,6.089,7.266,5.74,6.5,5.464a5.306,5.306,0,0,0-4.851.581A3.557,3.557,0,0,0,0,8.9a3.57,3.57,0,0,0,1.619,2.9,5.03,5.03,0,0,0,2.905.888A5.83,5.83,0,0,0,6.5,12.343c.767-.276,1.622-.624,2.549-1.037v3.553a2.966,2.966,0,0,0,2.963,2.963H13V38.179h-.991a2.967,2.967,0,0,0-2.963,2.964v3.538c-.928-.413-1.782-.761-2.549-1.038a5.306,5.306,0,0,0-4.851.581,3.356,3.356,0,0,0-.029,5.761,5.03,5.03,0,0,0,2.905.888A5.83,5.83,0,0,0,6.5,50.522c.767-.276,1.622-.624,2.549-1.037v3.553A2.966,2.966,0,0,0,12.011,56h1.234a1.577,1.577,0,0,0,1.575-1.575v-.411H33.547a.909.909,0,0,0,0-1.818H14.821V41.983H47.048V52.2H37.789a.909.909,0,1,0,0,1.818h9.259v.411A1.577,1.577,0,0,0,48.623,56h1.234a2.966,2.966,0,0,0,2.963-2.963V49.485c.927.413,1.782.761,2.549,1.037a5.83,5.83,0,0,0,1.974.351,5.037,5.037,0,0,0,2.905-.888,3.356,3.356,0,0,0-.029-5.761M55.986,7.175a3.489,3.489,0,0,1,3.189.358A1.81,1.81,0,0,1,60.05,8.9a1.786,1.786,0,0,1-.847,1.414,3.526,3.526,0,0,1-3.218.315c-.913-.329-2-.784-3.166-1.325V8.5c1.166-.541,2.252-1,3.166-1.324m-7.12-5.356h.991A1.146,1.146,0,0,1,51,2.964v11.9A1.146,1.146,0,0,1,49.857,16h-.991ZM47.048,40.046H14.821V15.837H47.048ZM5.883,10.633a3.526,3.526,0,0,1-3.218-.315A1.786,1.786,0,0,1,1.818,8.9a1.81,1.81,0,0,1,.876-1.371,3.489,3.489,0,0,1,3.189-.358c.923.332,1.989.779,3.166,1.325v.808c-1.177.546-2.242.992-3.166,1.325M12.011,16a1.146,1.146,0,0,1-1.145-1.145V2.964a1.147,1.147,0,0,1,1.145-1.146H13V16ZM5.883,48.811A3.524,3.524,0,0,1,2.665,48.5a1.786,1.786,0,0,1-.847-1.414,1.809,1.809,0,0,1,.876-1.371,3.487,3.487,0,0,1,3.189-.358c.923.332,1.988.779,3.166,1.325v.807c-1.177.546-2.242.993-3.166,1.325M13,54.183h-.991a1.147,1.147,0,0,1-1.145-1.146v-11.9A1.146,1.146,0,0,1,12.011,40H13Zm38-1.146a1.146,1.146,0,0,1-1.145,1.145h-.991V40h.991A1.146,1.146,0,0,1,51,41.142ZM59.2,48.5a3.524,3.524,0,0,1-3.218.314c-.924-.333-1.989-.779-3.166-1.325v-.807c1.176-.546,2.242-.992,3.166-1.325a3.487,3.487,0,0,1,3.189.358,1.809,1.809,0,0,1,.876,1.371A1.786,1.786,0,0,1,59.2,48.5" fill="#12263f"/>
    <path id="Trazado_115859" data-name="Trazado 115859" d="M104.988,128.447h10.775a.909.909,0,0,0,0-1.818H104.988a.909.909,0,1,0,0,1.818" transform="translate(-87.309 -106.227)" fill="#12263f"/>
    <path id="Trazado_115860" data-name="Trazado 115860" d="M202.667,128.447h10.775a.909.909,0,1,0,0-1.818H202.667a.909.909,0,0,0,0,1.818" transform="translate(-169.252 -106.227)" fill="#12263f"/>
    <path id="Trazado_115861" data-name="Trazado 115861" d="M104.988,156.529h10.775a.909.909,0,0,0,0-1.818H104.988a.909.909,0,1,0,0,1.818" transform="translate(-87.309 -129.785)" fill="#12263f"/>
    <path id="Trazado_115862" data-name="Trazado 115862" d="M202.667,156.529h10.775a.909.909,0,1,0,0-1.818H202.667a.909.909,0,0,0,0,1.818" transform="translate(-169.252 -129.785)" fill="#12263f"/>
    <path id="Trazado_115863" data-name="Trazado 115863" d="M104.988,184.615h10.775a.909.909,0,0,0,0-1.818H104.988a.909.909,0,1,0,0,1.818" transform="translate(-87.309 -153.345)" fill="#12263f"/>
    <path id="Trazado_115864" data-name="Trazado 115864" d="M202.667,184.615h10.775a.909.909,0,1,0,0-1.818H202.667a.909.909,0,0,0,0,1.818" transform="translate(-169.252 -153.345)" fill="#12263f"/>
    <path id="Trazado_115865" data-name="Trazado 115865" d="M104.988,212.7h10.775a.909.909,0,0,0,0-1.818H104.988a.909.909,0,1,0,0,1.818" transform="translate(-87.309 -176.903)" fill="#12263f"/>
    <path id="Trazado_115866" data-name="Trazado 115866" d="M202.667,212.7h10.775a.909.909,0,1,0,0-1.818H202.667a.909.909,0,0,0,0,1.818" transform="translate(-169.252 -176.903)" fill="#12263f"/>
    <path id="Trazado_115867" data-name="Trazado 115867" d="M142.459,287.542a.909.909,0,0,0-.909-.909H119.815a.909.909,0,0,0,0,1.818H141.55a.909.909,0,0,0,.909-.91" transform="translate(-99.748 -240.452)" fill="#12263f"/>
    <path id="Trazado_115868" data-name="Trazado 115868" d="M118.906,50.577a.909.909,0,0,0,.909.909H141.55a.909.909,0,0,0,0-1.818H119.815a.909.909,0,0,0-.909.91" transform="translate(-99.748 -41.666)" fill="#12263f"/>
  </g>
</svg>
