<svg xmlns="http://www.w3.org/2000/svg" xmlns:xlink="http://www.w3.org/1999/xlink" width="90" height="90" viewBox="0 0 90 90">
  <defs>
    <clipPath id="clip-path">
      <rect id="Rectángulo_33965" data-name="Rectángulo 33965" width="90" height="90" fill="#cce951"/>
    </clipPath>
    <clipPath id="clip-path-2">
      <rect id="Rectángulo_33964" data-name="Rectángulo 33964" width="90" height="90" fill="none"/>
    </clipPath>
    <clipPath id="clip-path-3">
      <rect id="Rectángulo_33956" data-name="Rectángulo 33956" width="85.251" height="86.048" fill="#cce951"/>
    </clipPath>
    <clipPath id="clip-path-4">
      <rect id="Rectángulo_33957" data-name="Rectángulo 33957" width="34.952" height="52.103" fill="none"/>
    </clipPath>
    <clipPath id="clip-path-5">
      <rect id="Rectángulo_33962" data-name="Rectángulo 33962" width="43.728" height="82.951" fill="none"/>
    </clipPath>
  </defs>
  <g id="Grupo_56709" data-name="Grupo 56709" transform="translate(0 0)">
    <g id="Grupo_56708" data-name="Grupo 56708" transform="translate(0 0)" clip-path="url(#clip-path)">
      <g id="Grupo_56707" data-name="Grupo 56707">
        <g id="Grupo_56706" data-name="Grupo 56706" clip-path="url(#clip-path-2)">
          <g id="Grupo_56699" data-name="Grupo 56699" transform="translate(2.367 1.668)" opacity="0.41" style="mix-blend-mode: color-burn;isolation: isolate">
            <g id="Grupo_56698" data-name="Grupo 56698">
              <g id="Grupo_56697" data-name="Grupo 56697" clip-path="url(#clip-path-3)">
                <path id="Trazado_113524" data-name="Trazado 113524" d="M87.709,45.481A42.627,42.627,0,1,1,45.084,2.458,42.826,42.826,0,0,1,87.709,45.481" transform="translate(-2.458 -2.457)" fill="#cce951"/>
              </g>
            </g>
          </g>
          <path id="Trazado_113525" data-name="Trazado 113525" d="M44.6,90.041C20.009,90.041,0,69.844,0,45.019S20.009,0,44.6,0s44.6,20.2,44.6,45.02S69.2,90.041,44.6,90.041m0-86.048a41.029,41.029,0,0,0,0,82.054,41.029,41.029,0,0,0,0-82.054" transform="translate(0.389 -0.328)" fill="#387db8"/>
          <g id="Grupo_56702" data-name="Grupo 56702" transform="translate(12.218 26.863)" opacity="0.7" style="mix-blend-mode: multiply;isolation: isolate">
            <g id="Grupo_56701" data-name="Grupo 56701">
              <g id="Grupo_56700" data-name="Grupo 56700" clip-path="url(#clip-path-4)">
                <path id="Trazado_113526" data-name="Trazado 113526" d="M27.449,34.2H16.781A2.093,2.093,0,0,0,14.7,36.3v.727a1.052,1.052,0,0,0,.907,1.045v1.046h.7v25.43l4.67,5.125V80.63h-.3l-.629,5.079h4.01l-.629-5.079h-.249V69.677l4.669-5.126V39.122h.7V38.085a1.053,1.053,0,0,0,.988-1.053V36.3a2.093,2.093,0,0,0-2.084-2.1M25.644,63.686,22.075,67.6l-3.569-3.917V52.359h7.138Zm0-13.073H18.506V39.122h7.138Z" transform="translate(-14.697 -33.606)" fill="gray"/>
                <path id="Trazado_113527" data-name="Trazado 113527" d="M51.87,35.6,41.405,33.51a2.084,2.084,0,0,0-2.449,1.654l-.14.712a1.056,1.056,0,0,0,.689,1.2L39.3,38.1l.687.137-4.9,24.945,3.594,5.943-2.11,10.743-.3-.059-1.6,4.859,3.934.787.361-5.106-1.417-.284,1.172.235,2.11-10.743,5.568-4.111,4.9-24.945-1.771-.354L52,40.644l.2-1.018a1.047,1.047,0,0,0,1.171-.839l.14-.712A2.1,2.1,0,0,0,51.87,35.6M44.42,64.17l-4.256,3.142-2.746-4.543,2.187-11.142-.006.031,7,1.4.295-1.5Zm2.518-12.823-7-1.4,2.213-11.272,7,1.4Z" transform="translate(-18.597 -33.468)" fill="gray"/>
              </g>
            </g>
          </g>
          <rect id="Rectángulo_33958" data-name="Rectángulo 33958" width="12.941" height="1.904" transform="translate(12.431 29.773)" fill="#3b251c"/>
          <path id="Trazado_113528" data-name="Trazado 113528" d="M27.62,37.228H14.883a1.055,1.055,0,0,1-1.05-1.059v-.727a2.094,2.094,0,0,1,2.084-2.1H26.585a2.094,2.094,0,0,1,2.084,2.1v.727a1.054,1.054,0,0,1-1.049,1.059" transform="translate(-2.31 -6.581)" fill="#3b3b3b"/>
          <path id="Trazado_113529" data-name="Trazado 113529" d="M25.17,39.4V63.959L21.6,67.876l-3.57-3.917V39.4h-2.2v25.43l4.67,5.126V80.9h2.2V69.95l4.669-5.125V39.4Z" transform="translate(-2.7 -7.717)" fill="#ff7142"/>
          <path id="Trazado_113530" data-name="Trazado 113530" d="M24.487,95.565h-4.01l.629-5.079h2.752Z" transform="translate(-3.606 -17.301)" fill="#121212"/>
          <rect id="Rectángulo_33959" data-name="Rectángulo 33959" width="7.139" height="1.746" transform="translate(15.332 43.169)" fill="#bf5431"/>
          <path id="Trazado_113632" data-name="Trazado 113632" d="M.059.009l1.9,0L1.94,12.952l-1.9,0Z" transform="matrix(0.194, -0.981, 0.981, 0.194, 32.209, 30.854)" fill="#3b251c"/>
          <path id="Trazado_113531" data-name="Trazado 113531" d="M52.269,38.757l-12.494-2.5a1.058,1.058,0,0,1-.825-1.244l.14-.713a2.084,2.084,0,0,1,2.449-1.654L52,34.739a2.1,2.1,0,0,1,1.639,2.471l-.14.713a1.05,1.05,0,0,1-1.233.833" transform="translate(-7.206 -6.444)" fill="#3b3b3b"/>
          <path id="Trazado_113532" data-name="Trazado 113532" d="M48.387,40.314,43.655,64.409,39.4,67.55l-2.747-4.542,4.731-24.095-2.16-.432-4.9,24.945,3.594,5.944-2.11,10.743,2.16.432L40.081,69.8l5.567-4.111,4.9-24.945Z" transform="translate(-6.309 -7.546)" fill="#ff7142"/>
          <path id="Trazado_113533" data-name="Trazado 113533" d="M37.756,95.3l-3.934-.787,1.6-4.858,2.7.539Z" transform="translate(-6.21 -17.144)" fill="#121212"/>
          <path id="Trazado_113633" data-name="Trazado 113633" d="M.033.008l1.745,0L1.765,7.146l-1.745,0Z" transform="translate(32.512 44.382) rotate(-78.79)" fill="#bf5431"/>
          <g id="Grupo_56705" data-name="Grupo 56705" transform="translate(37.69 2.622)" opacity="0.7" style="mix-blend-mode: multiply;isolation: isolate">
            <g id="Grupo_56704" data-name="Grupo 56704">
              <g id="Grupo_56703" data-name="Grupo 56703" clip-path="url(#clip-path-5)">
                <path id="Trazado_113534" data-name="Trazado 113534" d="M52.646,102.946a2.313,2.313,0,0,0,1.993,1.414,9.326,9.326,0,0,0,2.747-.847c.561-.059.555-3.1.555-3.1l-3.748.093s-1.633,1.93-1.546,2.44" transform="translate(-47.572 -21.785)" fill="gray"/>
                <path id="Trazado_113535" data-name="Trazado 113535" d="M61.808,100.412s-.006,3.043.555,3.1a9.334,9.334,0,0,0,2.747.847,2.314,2.314,0,0,0,1.993-1.415c.087-.509-1.545-2.439-1.545-2.439Z" transform="translate(-49.36 -21.785)" fill="gray"/>
                <path id="Trazado_113536" data-name="Trazado 113536" d="M89.763,44.99a24.426,24.426,0,0,0-1.809-1.92c-.727-1.634-1.916-3.8-2.854-5.559a9.3,9.3,0,0,0-2.732-3.3c-.3-1.211-.778-2.877-1.252-5.2a20.446,20.446,0,0,0-.925-3.2l.3-.206a6.422,6.422,0,0,0-1.8-2.529l.058-.1a.411.411,0,0,0-.138-.561.4.4,0,0,0-.46.033.413.413,0,0,0-.14-.556.4.4,0,0,0-.552.135.409.409,0,0,0-.153-.52.4.4,0,0,0-.555.14l-.03.05a.411.411,0,0,0-.192-.393.4.4,0,0,0-.555.14l-.392.656c-.4-.1-.756-.192-1-.266a6.576,6.576,0,0,1-1.694-1.8,5.222,5.222,0,0,1-.188-1.225c-.009-.123-.017-.247-.023-.373,0-.033,0-.067-.006-.1a5.576,5.576,0,0,0,.553-.422l-.089.15a4.316,4.316,0,0,0,2.173-3.09.965.965,0,0,0,.741-.378c.336-.535-.839-3.154-1.633-3.945-.559-.557-.881-.366-1.025-.2a2.891,2.891,0,0,0-2.8-.253c-1.98-.04-2.62,2.6-2.62,2.6s.071-.031.192-.076c-.058.123-.126.23-.176.362-1.014,2.606-.379,5.459.833,6.078a1.711,1.711,0,0,0,.231.069,3.649,3.649,0,0,1-.151.808,1.548,1.548,0,0,1-.153.288,3.94,3.94,0,0,1-.419.509,11.548,11.548,0,0,0-1.126-1.481c-.006,0-.013.012-.019.016-.314-.5-1.891-.877-3.317-1.323-.823-.257-1.587-.557-2.036-.741-.528-.359-1.172-.864-1.258-1.258-.039-.174-.092-.524-.149-.947-.017-.121-.034-.249-.051-.38,0-.022-.006-.045-.009-.067-.012-.1-.024-.193-.037-.292,1.3-.79,2.216-3.064,2.358-5.364a5.453,5.453,0,0,0-.274-2.1c.044.025.073.044.073.044a3.677,3.677,0,0,0-2.8-3.213,4.4,4.4,0,0,0-4.857,2.339c-1.2,2.443.073,5.75.79,6.271-.085.747-.372,3.242-.5,3.818a2.281,2.281,0,0,1-.861.971,26.075,26.075,0,0,1-2.446.916,16.547,16.547,0,0,0-3.036,1.068.615.615,0,0,0-.175-.048,4.517,4.517,0,0,0-1.925,2.174c-.434,1.349-.324,9.223-.324,9.223l.468.132c-.071,1.166-.13,2.362-.091,2.877a2.834,2.834,0,0,0,.139.679,1.994,1.994,0,0,0,.212.932c.461.966,1.346,1.514,4.007.431a12.887,12.887,0,0,0,.328,4.155A71.986,71.986,0,0,0,50.3,47.06c-.15,2.6,1.112,13.981,1.117,15.234s-.08,5.1,0,8.872,1.044,11.2,1.044,11.2l2.206-.055,2.577-.064s.007-15.949.007-18.456c0-.705.047-2.256.115-4.122.023-.622.047-1.279.074-1.951.009-.223.018-.449.027-.676.153-3.845.337-7.967.375-8.807.067,1.483.591,13.208.591,15.555,0,2.507-.006,18.456-.006,18.456l4.784.12s.245-1.856.5-4.185.519-5.128.559-7.014c.035-1.651.038-3.316.031-4.771,0-.208,0-.412,0-.61,0-.4-.006-.776-.01-1.128-.01-1.059-.02-1.894-.019-2.363,0-.1.01-.279.026-.506l.542.117.25.057c.013.063.025.119.032.152a4.063,4.063,0,0,0,.111.422,12.978,12.978,0,0,0-.726,4.6c.034,1.172,1.529,9.284,2.156,12.409a5.511,5.511,0,0,1,.087,1.562c-.138.433-.438,1.354-.705,2.079-.24.388-.586.948-.9,1.453-.359.579-.446,1.142-.2,1.248a2.808,2.808,0,0,0,1.759-.177c.551-.23.922-1.033,1.331-1.4a3.225,3.225,0,0,1,.992-.617s.071-2.075.046-2.229-.438-.5-.47-.526a2.8,2.8,0,0,1-.092-1.011c.306-3.31.9-10.735.8-13.972A18.041,18.041,0,0,0,69,62.626c0-.019.006-.043.009-.063.508.046,1,.076,1.465.076.654,0,1.289-.018,1.908-.045.011.1.022.166.029.2a2.36,2.36,0,0,0,.225.6A11.63,11.63,0,0,0,73.2,65.5h0s.417,2.7,2.122,2.835l-.048.011,2.116,12.571-.37.055a.3.3,0,0,0-.246.335.275.275,0,0,0,.195.214c0,.049-.142,2.553-.146,3.349,0,.583.54,1.711,1.471,1.711.468,0,2.1-1.078,1.978-1.826A13.258,13.258,0,0,0,78.8,81.261a.279.279,0,0,0,.146-.274.293.293,0,0,0-.332-.249l-.423.063L76.371,68.11h0c1.541-.825.792-3.484.792-3.484l0,0a7.633,7.633,0,0,0-.507-2.423,38.21,38.21,0,0,0,4.5-.864s-1.9-12.179-2.388-15.506c-.421-2.863-1.987-5.715-2.614-7.411l-.268-.958c.042-.577.125-1.223.237-1.914.341-1.833.97-4.468,1.415-6.266q.19.593.4,1.207c1.246,3.58,1.9,5.8,2.787,6.519a16.846,16.846,0,0,0,2.1,2.794c1.207,1.361,2.424,3,3.455,4.169a7.089,7.089,0,0,0-.2.691,6.134,6.134,0,0,1-.089,1.444c-.134.295-.3.43-.3.5s.378.562.713.115c.021-.028.034-.059.053-.088a1.427,1.427,0,0,0,.877,1.353L85.648,82.776a.475.475,0,0,0-.342.432l-.081,1.673a.481.481,0,0,0,.453.5l.634.031a.48.48,0,0,0,.5-.457l.08-1.673a.478.478,0,0,0-.3-.464l1.644-34.067c.026.093.108.275.189.286s.392-.3.421-.4.207.037.279-.03.291-.337.291-.337a1.554,1.554,0,0,0,.389-.4,6.566,6.566,0,0,0,.265-.956,10,10,0,0,0-.307-1.93M65.723,38.477c-.275.75-.713,1.7-1.161,2.729-.014-.077-.028-.152-.041-.225-.024-.8-.043-1.609-.031-2.383,0-.188,0-.37,0-.552.113-1.88-.03-4.439-.03-5.978.039-.148.08-.3.121-.455a9.472,9.472,0,0,1,1.424,5.732,1.662,1.662,0,0,1-.029.256Z" transform="translate(-46.342 -3.631)" fill="gray"/>
              </g>
            </g>
          </g>
          <path id="Trazado_113537" data-name="Trazado 113537" d="M63.611,32.023c1.149-3.565,4.124-9.677,2.383-10.74-2.271-1.387-8.8-2.237-8.8-2.237v.114s-6.587.557-8.858,1.943c-1.742,1.063,1.289,7.469,2.439,11.034.275.855.245,4.691.14,8.093a62.568,62.568,0,0,0-.586,6.291c.034.476,5.369,3.423,6.865,3.5V49.9c1.495-.076,6.83-3.022,6.865-3.5a62.825,62.825,0,0,0-.586-6.292c-.105-3.4-.136-7.236.14-8.092" transform="translate(-8.938 -3.9)" fill="#ffceb0"/>
          <path id="Trazado_113538" data-name="Trazado 113538" d="M48.358,21.4c-1.334-.07-2.482,1.431-2.57,3.94s.124,4.232.118,4.884c-.006.674-.334,4.576-.256,5.631a2.01,2.01,0,0,0,1.781,2.051c.887.032,2.022-1.527,2.432-3.3s2.078-13.017-1.505-13.2" transform="translate(-8.515 -4.341)" fill="#ffb391"/>
          <path id="Trazado_113539" data-name="Trazado 113539" d="M67.5,21.159c1.2-.587,2.838.346,3.884,2.624s1.513,3.948,1.77,4.547c.266.619,2.069,4.086,2.4,5.089a2.025,2.025,0,0,1-.852,2.588c-.8.377-2.451-.614-3.512-2.09S64.272,22.736,67.5,21.159" transform="translate(-12.594 -4.265)" fill="#ffceb0"/>
          <path id="Trazado_113540" data-name="Trazado 113540" d="M74.368,36.343c-.823-.715-1.125-1.745.759-4.2a83.387,83.387,0,0,1,6.22-6.621l1.332,1.158a49.105,49.105,0,0,1-2.829,6.155c-.966,1.379-3.327,5.383-5.482,3.51" transform="translate(-13.995 -5.115)" fill="#ffceb0"/>
          <path id="Trazado_113541" data-name="Trazado 113541" d="M70.632,21.815a10.322,10.322,0,0,1,1.746,2.64c.579,1.393,2.16,5.286,2.16,5.286a4.414,4.414,0,0,1-1.953,2.376c-1.595.992-1.953,1.168-1.953,1.168s-1.754-3.388-1.875-3.894.013-6.43,1.875-7.576" transform="translate(-13.02 -4.42)" fill="#f0f0f0"/>
          <path id="Trazado_113542" data-name="Trazado 113542" d="M47.43,21.461a4.517,4.517,0,0,0-1.925,2.174c-.433,1.349-.324,9.223-.324,9.223s4.458,1.258,4.694,1.241.339-.555.339-.555-.673-11.874-2.784-12.083" transform="translate(-8.424 -4.353)" fill="#f0f0f0"/>
          <path id="Trazado_113543" data-name="Trazado 113543" d="M61.057,16.813c-.15-.679-.523-4.037-.523-4.037H58.329v.114H56.123s-.373,3.357-.522,4.036-1.965,1.7-1.965,1.7h4.693v-.113h4.693s-1.815-1.024-1.965-1.7" transform="translate(-10.076 -2.724)" fill="#ffceb0"/>
          <path id="Trazado_113544" data-name="Trazado 113544" d="M60.908,15.866c-.14-1.029-.307-2.493-.358-2.947l-.142-.141H58.329v.113H56.123s-.373,3.358-.523,4.036-1.964,1.7-1.964,1.7h.221c2.094-.564,4.177-1.125,4.458-1.206A19.193,19.193,0,0,0,60.908,15.866Z" transform="translate(-10.076 -2.724)" fill="#ffb391"/>
          <path id="Trazado_113545" data-name="Trazado 113545" d="M63.5,7.9c-.175,2.829-1.515,5.618-3.316,5.656-1.721.037-4.8-2.578-4.86-5.412S56.9,2.981,59.47,2.855c2.164-.106,4.21,2.133,4.03,5.047" transform="translate(-10.405 -0.863)" fill="#ffceb0"/>
          <path id="Trazado_113546" data-name="Trazado 113546" d="M54.213,48.253c-2.692-.008-3.738,1.886-3.664,7.7s.934,12.109,1.307,13.014,4.187.925,4.561.4,1.308-12.581,1.308-14.467-.582-6.631-3.513-6.64" transform="translate(-9.473 -9.379)" fill="#ffceb0"/>
          <path id="Trazado_113547" data-name="Trazado 113547" d="M55.007,78l-1.284-.031a1.67,1.67,0,0,1-1.616-1.712l.072-2.993a1.668,1.668,0,0,1,1.7-1.631l1.283.031a1.669,1.669,0,0,1,1.616,1.712L56.7,76.374A1.668,1.668,0,0,1,55.007,78" transform="translate(-9.777 -13.765)" fill="#ffceb0"/>
          <path id="Trazado_113548" data-name="Trazado 113548" d="M54.207,75.089c-.823,0-2.84.275-2.729,5.691S53.87,93.614,53.87,93.614h1.944s.948-10.027.953-11.951c.01-4.377.037-6.574-2.56-6.574" transform="translate(-9.654 -14.413)" fill="#ffceb0"/>
          <path id="Trazado_113549" data-name="Trazado 113549" d="M62.979,48.113c2.691-.008,3.737,1.886,3.662,7.7s-.933,12.109-1.306,13.014-4.187.925-4.561.4-1.308-12.581-1.308-14.467.582-6.631,3.513-6.64" transform="translate(-11.213 -9.353)" fill="#ffceb0"/>
          <path id="Trazado_113550" data-name="Trazado 113550" d="M62.794,77.866l1.284-.031a1.671,1.671,0,0,0,1.616-1.712l-.072-2.993a1.668,1.668,0,0,0-1.7-1.631l-1.283.031a1.671,1.671,0,0,0-1.617,1.712l.072,2.993a1.668,1.668,0,0,0,1.7,1.631" transform="translate(-11.518 -13.739)" fill="#ffceb0"/>
          <path id="Trazado_113551" data-name="Trazado 113551" d="M63.442,74.95c.823,0,2.84.275,2.729,5.691s-2.392,12.834-2.392,12.834H61.835s-.948-10.028-.953-11.951c-.01-4.377-.037-6.574,2.56-6.574" transform="translate(-11.489 -14.387)" fill="#ffceb0"/>
          <path id="Trazado_113552" data-name="Trazado 113552" d="M51.2,46.82a72.014,72.014,0,0,0-1.117,7.389c-.149,2.6,1.113,13.98,1.117,15.233s-.079,5.1,0,8.872,1.044,11.2,1.044,11.2l4.784-.12s.006-15.949.006-18.456.6-15.711.6-15.711v-8.2Z" transform="translate(-9.38 -9.11)" fill="#003f2f"/>
          <path id="Trazado_113553" data-name="Trazado 113553" d="M66.559,21.358c-.25-.522-1.885-.905-3.349-1.362a26.039,26.039,0,0,1-2.447-.916l-3.582,2.071L53.6,19.08a25.906,25.906,0,0,1-2.447.915c-1.464.458-3.1.842-3.349,1.363S50.173,32.04,50.468,32.9s-.46,6.906.287,8.713l6.418.2h.014l6.419-.2c.586-2.072-.016-7.963.278-8.827s2.928-10.9,2.674-11.432" transform="translate(-8.934 -3.907)" fill="#f0f0f0"/>
          <path id="Trazado_113554" data-name="Trazado 113554" d="M65.882,46.82A71.859,71.859,0,0,1,67,54.209c.15,2.6-1.112,13.98-1.116,15.233s.079,5.1,0,8.872-1.058,11.2-1.058,11.2l-4.784-.12s.007-15.949.007-18.456-.6-15.711-.6-15.711v-8.2Z" transform="translate(-11.21 -9.11)" fill="#003f2f"/>
          <path id="Trazado_113555" data-name="Trazado 113555" d="M63.255,5.775a4.376,4.376,0,0,0-4.983.448c-.577.429-.118,2.622-.27,2.792s-.63-1.73-.746-1.509c-.837,1.6-.489,3.754-.705,3.743-.652-.035-2.257-3.7-.955-6.348a4.4,4.4,0,0,1,4.857-2.338,3.676,3.676,0,0,1,2.8,3.212" transform="translate(-10.361 -0.789)" fill="#6b4a3f"/>
          <path id="Trazado_113556" data-name="Trazado 113556" d="M57.96,9.5c.139.8.127,1.854-.289,1.929s-.868-.514-1.008-1.315.084-1.509.5-1.583.656.169.8.969" transform="translate(-10.658 -1.925)" fill="#ffceb0"/>
          <path id="Trazado_113557" data-name="Trazado 113557" d="M53.019,99.333s-1.633,1.93-1.546,2.44a2.314,2.314,0,0,0,1.994,1.414,9.328,9.328,0,0,0,2.746-.847c.56-.059.555-3.1.555-3.1Z" transform="translate(-9.653 -18.943)" fill="#191919"/>
          <path id="Trazado_113558" data-name="Trazado 113558" d="M64.384,99.333s1.633,1.93,1.545,2.44a2.314,2.314,0,0,1-1.993,1.414,9.335,9.335,0,0,1-2.747-.847c-.56-.059-.554-3.1-.554-3.1Z" transform="translate(-11.441 -18.943)" fill="#191919"/>
          <path id="Trazado_113559" data-name="Trazado 113559" d="M58.173,41.574c-.617-.389-1.543-.778-2.1-1.129s-.017-1.557-.024-2.181,1.7-1.791,2.862-2.22,3.163-.272,3.626-1.09-.772-1.6-1.312-1.6-4.012-1.012-4.552-.934-4.629.506-5.285,0-3.917-10.029-3.917-10.029c.732,3.2,2.751,10.582,2.938,11.132.295.864-.46,6.906.287,8.712l6.419.2h.014l6.419-.2a19.537,19.537,0,0,1-1.976-.375c-.579-.177-2.778.1-3.4-.291" transform="translate(-8.872 -4.528)" fill="#fff"/>
          <path id="Trazado_113560" data-name="Trazado 113560" d="M65.1,56.463c.092,1.724-.79,13.154-.813,13.806-.021.636-.243,18.386-.254,19.206l1.574.04s.979-7.426,1.058-11.2,0-7.621,0-8.873,1.266-12.63,1.116-15.233a71.859,71.859,0,0,0-1.116-7.389l-3.034.1-.157.106s1.533,7.716,1.625,9.44" transform="translate(-11.996 -9.11)" fill="#005641"/>
          <path id="Trazado_113561" data-name="Trazado 113561" d="M57.67,53.049a1.828,1.828,0,0,0-3.414.767,16.671,16.671,0,0,0-.031,4c.408,2.154,1,12.687.926,12.963s.006,19.62.006,19.62l.085.051,2.578-.065s.006-15.949.006-18.456.6-15.711.6-15.711V55.5l.048-1.034Z" transform="translate(-10.17 -10.103)" fill="#005641"/>
          <path id="Trazado_113562" data-name="Trazado 113562" d="M46.037,39.785c.471.988,1.372,1.552,4.181.366s8.962-4.787,8.962-4.787l-.761-1.6S52.305,34.8,50.753,35.38s-5.95,1.818-4.716,4.4" transform="translate(-8.551 -6.661)" fill="#ffceb0"/>
          <path id="Trazado_113563" data-name="Trazado 113563" d="M61.457,32.842a3.7,3.7,0,0,0,.966-.782,33.068,33.068,0,0,1,1.756-3.216c.2,0-.632,4.086-.569,4.285a1.4,1.4,0,0,1-1.39,1.31c-1.127.053-.763-1.6-.763-1.6" transform="translate(-11.591 -5.738)" fill="#ffceb0"/>
          <path id="Trazado_113564" data-name="Trazado 113564" d="M66.667,26.2c-1.028-.135-2.133,2.511-2.436,5.445-.527,5.1-1.564,6.659.237,7.04,1.633.347,1.953-1.718,3.08-5.983.881-3.334,1.247-6.223-.881-6.5" transform="translate(-11.991 -5.241)" fill="#ffb391"/>
          <path id="Trazado_115622" data-name="Trazado 115622" d="M0,.042,36.363.026V.972L0,.988Z" transform="translate(75.949 82.109) rotate(-87.22)" fill="#4f4f4f"/>
          <path id="Trazado_113565" data-name="Trazado 113565" d="M97.827,55.174a1.417,1.417,0,1,1-1.347-1.5,1.422,1.422,0,0,1,1.347,1.5" transform="translate(-18.145 -10.396)" fill="#1c1c1c"/>
          <path id="Trazado_113566" data-name="Trazado 113566" d="M94.632,102.514l-.775-.038a.41.41,0,0,1-.386-.43l.088-1.814a.409.409,0,0,1,.426-.39l.775.038a.41.41,0,0,1,.386.43l-.087,1.814a.409.409,0,0,1-.426.39" transform="translate(-17.847 -19.056)" fill="#1c1c1c"/>
          <path id="Trazado_113567" data-name="Trazado 113567" d="M71.895,97.592s.456.381.481.535-.047,2.229-.047,2.229a3.205,3.205,0,0,0-.992.617c-.408.369-.781,1.172-1.331,1.4a2.8,2.8,0,0,1-1.759.177c-.25-.1-.163-.668.2-1.248.544-.877,1.2-1.936,1.2-1.936Z" transform="translate(-12.899 -18.634)" fill="#191919"/>
          <path id="Trazado_113568" data-name="Trazado 113568" d="M67.2,51.989c-.819,1.267-.968,3.65-.848,6.776a78.406,78.406,0,0,0,1.718,11.19c.566,2.8,3.261,2.89,3.836.749.159-.591,1.562-12.572,1.516-13.933s0-3.844-.855-5.419c-.633-1.172-4.145-1.25-5.367.638" transform="translate(-12.55 -9.803)" fill="#ffceb0"/>
          <path id="Trazado_113569" data-name="Trazado 113569" d="M70.371,72.893c1.491,0,2.052.894,2.172,5.092.093,3.238-.5,10.663-.8,13.973a4.816,4.816,0,0,0,.247,1.591c-.409.073-2.4.762-2.012-.408a5.51,5.51,0,0,0-.086-1.563c-.628-3.125-2.123-11.237-2.156-12.409-.039-1.363.255-6.27,2.639-6.276" transform="translate(-12.825 -14.001)" fill="#ffceb0"/>
          <path id="Trazado_113570" data-name="Trazado 113570" d="M84.135,26.161c1.01-.233,2.465,2.751,3.155,6.129,1.2,5.871,2.444,7.6.693,8.179-1.588.524-2.18-1.846-3.871-6.7-1.322-3.8-2.069-7.12.023-7.6" transform="translate(-15.771 -5.233)" fill="#ffb391"/>
          <path id="Trazado_113571" data-name="Trazado 113571" d="M81.315,26.4c-.385-.875-2.863-1.335-3.775-1.609a23.937,23.937,0,0,0-3.686-.376,23.945,23.945,0,0,0-3.686.376c-.912.274-3.39.734-3.775,1.609-.581,1.323,3.339,10.377,3.339,14.436,0,1.628-3.485,6.543-3.082,8.119.493,1.927,6.832,3.12,6.832,3.12h.745s6.339-1.193,6.832-3.12c.4-1.576-2.252-6.151-2.252-7.779,0-4.059,3.09-13.454,2.509-14.776" transform="translate(-12.553 -4.907)" fill="#ffceb0"/>
          <path id="Trazado_113572" data-name="Trazado 113572" d="M82.739,52.118c.77,1.3.827,3.685.586,6.8a78.443,78.443,0,0,1-2.147,11.114c-.674,2.771-3.372,2.76-3.863.6-.136-.6-1.076-12.624-.979-13.982s.154-3.842,1.064-5.381c.678-1.146,4.19-1.087,5.338.847" transform="translate(-14.503 -9.803)" fill="#ffceb0"/>
          <path id="Trazado_113573" data-name="Trazado 113573" d="M79.352,72.474c-1.463.286-2.347,1.465-.757,5.56.809,2.082,3.641,1,3.736-.212.192-2.466-.639-5.806-2.98-5.348" transform="translate(-14.78 -13.914)" fill="#ffceb0"/>
          <path id="Trazado_113574" data-name="Trazado 113574" d="M76.776,21.85a17.681,17.681,0,0,1-.251-3.5H73.043a17.7,17.7,0,0,1-.252,3.5,6.577,6.577,0,0,1-1.694,1.8H78.47a6.576,6.576,0,0,1-1.694-1.8" transform="translate(-13.483 -3.771)" fill="#ffceb0"/>
          <path id="Trazado_113575" data-name="Trazado 113575" d="M76.564,20.252l-1.731-1.9H73.042a17.682,17.682,0,0,1-.251,3.5,6.576,6.576,0,0,1-1.694,1.8l.027.647,5.463-3.674c-.009-.123-.017-.249-.023-.375" transform="translate(-13.482 -3.771)" fill="#ffb391"/>
          <path id="Trazado_113576" data-name="Trazado 113576" d="M81.579,49.6c-.514-3.5-2.762-7.01-2.884-8.374s2.15-10.146,2.15-10.146c-.62-1.35-5.422-2.094-7.271-2.246-1.743-.143-6.28-.184-6.9,1.166a12.185,12.185,0,0,0,.668,4.69c.518,1.6,1.549,2.057,1.481,6.422-.022,1.369-2.644,5.633-2.977,8.488-.51,4.373-.056,15.642-.056,15.642a38.094,38.094,0,0,0,7.5,1.162,44.318,44.318,0,0,0,10.68-1.3s-1.9-12.179-2.388-15.506" transform="translate(-12.411 -5.723)" fill="#ee5f30"/>
          <path id="Trazado_113577" data-name="Trazado 113577" d="M78.552,43.185c.172-.545-1.1-5.6-1.288-6.69-.146-.846-3.566-.49-4.969-.7s-3.134.472-4.181-.608-.758-5.672-.758-5.672l-.684.622a11.136,11.136,0,0,0,.319,4.322c.49,1.9,1.9,2.424,1.83,6.789-.022,1.37-2.643,5.633-2.977,8.489-.51,4.373-.056,15.642-.056,15.642l2.264.519s.22-16.017,1.223-17.184a10.8,10.8,0,0,1,4.01-2.726c.924-.234,5.094-2.259,5.266-2.8" transform="translate(-12.41 -5.864)" fill="#f0764e"/>
          <path id="Trazado_113578" data-name="Trazado 113578" d="M70.31,97.512s-.772,2.462-1.122,3.154c-.257.505-.212.876.579.642a6.122,6.122,0,0,0,2.476-2.951c.262-.951-1.933-.845-1.933-.845" transform="translate(-13.083 -18.618)" fill="#ffceb0"/>
          <path id="Trazado_113579" data-name="Trazado 113579" d="M78.661,10.952s.324-.721,1.118.071,1.97,3.409,1.633,3.944-1.32.368-1.32.368Z" transform="translate(-14.958 -2.326)" fill="#6b4a3f"/>
          <path id="Trazado_113580" data-name="Trazado 113580" d="M78.353,16.759c-1.234,2.464-4.327,3.393-5.573,2.757-1.213-.619-1.847-3.471-.834-6.078,1-2.57,3.272-3.416,5.117-2.475s2.524,3.333,1.29,5.8" transform="translate(-13.55 -2.314)" fill="#ffceb0"/>
          <path id="Trazado_113581" data-name="Trazado 113581" d="M75.288,12.069c.052.818.625,1.489,2.149,2.124,1.091.454,1.318,2.256,1.107,2.874-.08.236-.712,1.293-.712,1.293a4.219,4.219,0,0,0,1.94-5.25c-1.209-3.689-4.385-2.845-4.48-2.62a6.9,6.9,0,0,0,0,1.58" transform="translate(-14.291 -2.25)" fill="#6b4a3f"/>
          <path id="Trazado_113582" data-name="Trazado 113582" d="M75.5,11.726s-.344,1.089-1.331,1.01a5.27,5.27,0,0,0-2.119.408s.641-2.639,2.62-2.6.83,1.181.83,1.181" transform="translate(-13.668 -2.306)" fill="#6b4a3f"/>
          <path id="Trazado_113583" data-name="Trazado 113583" d="M87.925,39.682c.79-.53,2.756.927,4.2,3.619,1.659,3.1,4.107,7.508,3.383,7.944-.99.595-3.348-3.039-5.663-5.648-2.346-2.644-3.553-4.817-1.916-5.914" transform="translate(-16.619 -7.751)" fill="#ffceb0"/>
          <path id="Trazado_113584" data-name="Trazado 113584" d="M94.691,51.731s-.241.734-.252.855a6.138,6.138,0,0,1-.09,1.444c-.134.295-.3.43-.3.5s.378.562.714.115.437-1.045.594-1.123.885.857.951,1.106.269,1.943.286,2.024.109.3.2.312.392-.3.422-.4.207.037.279-.03.291-.337.291-.337a1.555,1.555,0,0,0,.388-.4,6.6,6.6,0,0,0,.265-.956,9.991,9.991,0,0,0-.306-1.93,27.132,27.132,0,0,0-1.867-1.977Z" transform="translate(-17.96 -9.882)" fill="#ffceb0"/>
          <path id="Trazado_113585" data-name="Trazado 113585" d="M78.532,78.411a8.031,8.031,0,0,0,2.18,0,4.054,4.054,0,0,0,1.781-.875s.938,3.3-1.4,3.694c-2.074.345-2.558-2.819-2.558-2.819" transform="translate(-14.933 -14.872)" fill="#1c1c1c"/>
          <path id="Trazado_113586" data-name="Trazado 113586" d="M81.108,82.061l2.2,13.1.789-.116L82.208,81.824Z" transform="translate(-15.436 -15.676)" fill="#4f4f4f"/>
          <path id="Trazado_113587" data-name="Trazado 113587" d="M85,98A13.4,13.4,0,0,1,86.48,101.5c.126.749-1.508,1.826-1.978,1.826-.93,0-1.473-1.128-1.471-1.711,0-.8.146-3.353.146-3.353Z" transform="translate(-15.811 -18.71)" fill="#1c1c1c"/>
          <path id="Trazado_113588" data-name="Trazado 113588" d="M84.9,97.951l-1.594.236a.3.3,0,0,1-.085-.584l1.594-.236a.3.3,0,0,1,.085.584" transform="translate(-15.798 -18.591)" fill="#4f4f4f"/>
          <path id="Trazado_113589" data-name="Trazado 113589" d="M69.506,44.228A19.648,19.648,0,0,0,75.1,45a9.674,9.674,0,0,0,4.3-.9l.3,1.053a20.19,20.19,0,0,1-4.628.74,16,16,0,0,1-5.832-.759Z" transform="translate(-13.12 -8.6)" fill="#303030"/>
          <path id="Trazado_113590" data-name="Trazado 113590" d="M69.4,28.237l-.551-3.025a4.735,4.735,0,0,0-2.3.76,6.785,6.785,0,0,0-1.7,2.192l1.673,1.167Z" transform="translate(-12.264 -5.057)" fill="#f0764e"/>
          <path id="Trazado_113591" data-name="Trazado 113591" d="M80.931,28.915l.9-3.636a20.883,20.883,0,0,1,2.161.613c1.483.654,2.306,2.829,2.306,2.829l-2.458,1.7Z" transform="translate(-15.401 -5.069)" fill="#f0764e"/>
          <path id="Trazado_113592" data-name="Trazado 113592" d="M64.475,38.436c-.941.123-1.481,2.523-.821,5.508.76,3.442,1.769,8.389,2.6,8.239,1.133-.2.556-4.51.613-8.012.057-3.548-.442-5.988-2.391-5.735" transform="translate(-11.973 -7.534)" fill="#ffceb0"/>
          <path id="Trazado_113593" data-name="Trazado 113593" d="M67.243,52.925s.579.507.649.607a6.127,6.127,0,0,0,.806,1.2c.264.184.476.215.512.273s-.042.678-.556.466-.9-.674-1.078-.66-.33,1.193-.261,1.44.749,1.81.776,1.889.056.314-.013.37a.948.948,0,0,1-.565-.128c-.075-.069-.159.138-.254.118s-.42-.141-.42-.141a1.537,1.537,0,0,1-.535-.143,6.544,6.544,0,0,1-.711-.687,10.02,10.02,0,0,1-.711-1.819c-.009-.36.609-2.661.609-2.661Z" transform="translate(-12.27 -10.255)" fill="#ffceb0"/>
          <path id="Trazado_113594" data-name="Trazado 113594" d="M81.185,26.16h0a.413.413,0,0,1-.138-.561l.745-1.247a.405.405,0,0,1,.556-.14.412.412,0,0,1,.138.561l-.744,1.247a.4.4,0,0,1-.556.14" transform="translate(-15.412 -4.858)" fill="#ffceb0"/>
          <path id="Trazado_113595" data-name="Trazado 113595" d="M82.15,26.41h0a.412.412,0,0,1-.138-.561l.744-1.247a.405.405,0,0,1,.556-.14.412.412,0,0,1,.138.561l-.744,1.247a.4.4,0,0,1-.556.14" transform="translate(-15.601 -4.905)" fill="#ffceb0"/>
          <path id="Trazado_113596" data-name="Trazado 113596" d="M83.025,26.884h0a.412.412,0,0,1-.138-.561l.744-1.247a.405.405,0,0,1,.556-.14.412.412,0,0,1,.138.561l-.744,1.247a.4.4,0,0,1-.556.14" transform="translate(-15.771 -4.994)" fill="#ffceb0"/>
          <path id="Trazado_113597" data-name="Trazado 113597" d="M83.77,27.526h0a.413.413,0,0,1-.138-.561l.745-1.247a.4.4,0,0,1,.556-.139.411.411,0,0,1,.138.561l-.744,1.247a.4.4,0,0,1-.556.14" transform="translate(-15.917 -5.115)" fill="#ffceb0"/>
        </g>
      </g>
    </g>
  </g>
</svg>
