<svg xmlns="http://www.w3.org/2000/svg" xmlns:xlink="http://www.w3.org/1999/xlink" width="95" height="95" viewBox="0 0 95 95">
  <defs>
    <clipPath id="clip-path">
      <rect id="Rectángulo_34750" data-name="Rectángulo 34750" width="52.34" height="52.339" transform="translate(0 0)" fill="#12263f"/>
    </clipPath>
  </defs>
  <g id="Grupo_59080" data-name="Grupo 59080" transform="translate(-335 -7156)">
    <circle id="Elipse_4070" data-name="Elipse 4070" cx="47.5" cy="47.5" r="47.5" transform="translate(335 7156)" fill="#cce951"/>
    <g id="Grupo_58975" data-name="Grupo 58975" transform="translate(356 7177)">
      <g id="Grupo_58974" data-name="Grupo 58974" clip-path="url(#clip-path)">
        <path id="Trazado_115089" data-name="Trazado 115089" d="M26.182,45.983a.844.844,0,0,1-.844-.842l-.009-3.952a.844.844,0,1,1,1.688,0l.009,3.952a.844.844,0,0,1-.842.846Z" fill="#12263f"/>
        <path id="Trazado_115090" data-name="Trazado 115090" d="M21.481,28.254a5.233,5.233,0,1,1,.011,0Zm0-8.791a3.551,3.551,0,1,0,2.5,1.034,3.529,3.529,0,0,0-2.5-1.034" fill="#12263f"/>
        <path id="Trazado_115091" data-name="Trazado 115091" d="M16.877,46a.844.844,0,0,1-.844-.842l-.009-3.974a.844.844,0,0,1,1.688,0l.009,3.974a.844.844,0,0,1-.842.846Z" fill="#12263f"/>
        <path id="Trazado_115092" data-name="Trazado 115092" d="M21.274,37.75A16.477,16.477,0,0,1,9.624,9.623,16.367,16.367,0,0,1,21.274,4.8a.844.844,0,0,1,0,1.688A14.785,14.785,0,1,0,35.322,25.9a.844.844,0,1,1,1.6.526A16.489,16.489,0,0,1,21.274,37.75" fill="#12263f"/>
        <path id="Trazado_115093" data-name="Trazado 115093" d="M22.623,6.543l-.074,0c-.419-.037-.849-.055-1.275-.055a.844.844,0,0,1,0-1.688c.475,0,.953.02,1.421.061a.844.844,0,0,1-.072,1.685" fill="#12263f"/>
        <path id="Trazado_115094" data-name="Trazado 115094" d="M36.894,22.748a.852.852,0,0,1-.844-.879c.008-.2.012-.395.012-.592a14.727,14.727,0,0,0-.166-2.218.844.844,0,0,1,1.67-.252,16.491,16.491,0,0,1,.184,2.47c0,.22,0,.441-.013.661a.844.844,0,0,1-.843.81m-.885-5.859a.844.844,0,0,1-.795-.562,14.829,14.829,0,0,0-1.189-2.551.844.844,0,1,1,1.455-.855,16.473,16.473,0,0,1,1.325,2.842.844.844,0,0,1-.513,1.077.827.827,0,0,1-.283.049m-3-5.1a.84.84,0,0,1-.633-.286q-.308-.348-.642-.683a15.279,15.279,0,0,0-1.411-1.245.844.844,0,1,1,1.035-1.333,16.612,16.612,0,0,1,1.57,1.385q.371.37.714.759a.844.844,0,0,1-.633,1.4M28.32,8.159a.848.848,0,0,1-.38-.09,14.755,14.755,0,0,0-2.622-1.023.844.844,0,0,1,.461-1.624A16.569,16.569,0,0,1,28.7,6.561a.844.844,0,0,1-.381,1.6" fill="#12263f"/>
        <path id="Trazado_115095" data-name="Trazado 115095" d="M36.124,27.011a.843.843,0,0,1-.8-1.108c.133-.4.249-.816.346-1.229a.844.844,0,0,1,1.644.386c-.109.462-.238.923-.386,1.371a.845.845,0,0,1-.8.58" fill="#12263f"/>
        <path id="Trazado_115096" data-name="Trazado 115096" d="M21.274,42.547a21.274,21.274,0,1,1,15.05-6.224,21.219,21.219,0,0,1-15.05,6.224m0-40.86A19.587,19.587,0,1,0,35.13,7.417a19.534,19.534,0,0,0-13.856-5.73" fill="#12263f"/>
        <path id="Trazado_115097" data-name="Trazado 115097" d="M47.626,52.34a4.7,4.7,0,0,1-3.334-1.379L32.13,38.8a.844.844,0,0,1,.123-1.3,19.536,19.536,0,0,0,5.251-5.25.844.844,0,0,1,1.295-.124L50.961,44.292a4.714,4.714,0,0,1-3.335,8.048m-13.6-14.03L45.485,49.767a3.028,3.028,0,0,0,4.283-4.282L38.31,34.028a21.156,21.156,0,0,1-4.282,4.282" fill="#12263f"/>
        <path id="Trazado_115098" data-name="Trazado 115098" d="M43.02,45.3a.841.841,0,0,1-.6-.247l-8.031-8.031a.844.844,0,0,1,1.194-1.194l8.031,8.031a.844.844,0,0,1-.6,1.441" fill="#12263f"/>
        <path id="Trazado_115099" data-name="Trazado 115099" d="M21.274,42.547a21.274,21.274,0,1,1,15.05-6.224,21.219,21.219,0,0,1-15.05,6.224m0-40.86A19.587,19.587,0,1,0,35.13,7.417a19.534,19.534,0,0,0-13.856-5.73" fill="#12263f"/>
        <path id="Trazado_115100" data-name="Trazado 115100" d="M21.272,37.737a16.428,16.428,0,0,1-8.086-2.124.844.844,0,0,1-.43-.733V34.6A5.623,5.623,0,0,1,17.73,29a32.743,32.743,0,0,1,3.771-.135,32.82,32.82,0,0,1,3.752.117,5.627,5.627,0,0,1,5,5.58.912.912,0,0,1-.4.762,16.446,16.446,0,0,1-8.579,2.412m-6.823-3.358a14.773,14.773,0,0,0,14.093-.243,3.939,3.939,0,0,0-3.477-3.475,31.039,31.039,0,0,0-3.56-.107,30.633,30.633,0,0,0-3.579.123,3.938,3.938,0,0,0-3.477,3.7" fill="#12263f"/>
        <path id="Trazado_115101" data-name="Trazado 115101" d="M15.374,46.007A2.56,2.56,0,0,1,12.8,43.86a2.526,2.526,0,0,1-.024-.349l-.008-3.282a.843.843,0,0,1,1.16-.784,19.742,19.742,0,0,0,15.159-.2.844.844,0,0,1,1.18.773l.008,3.457a2.746,2.746,0,0,1-.022.343,2.562,2.562,0,0,1-2.571,2.163l-12.3.028Zm-.915-4.567.005,2.069a.962.962,0,0,0,.008.122.883.883,0,0,0,.9.688l12.3-.028a.884.884,0,0,0,.9-.693.978.978,0,0,0,.008-.123l0-2.214a21.487,21.487,0,0,1-14.123.179" fill="#12263f"/>
        <path id="Trazado_115102" data-name="Trazado 115102" d="M16.877,37.12a.844.844,0,0,1-.844-.844V33.834a.844.844,0,1,1,1.688,0v2.442a.844.844,0,0,1-.844.844" fill="#12263f"/>
        <path id="Trazado_115103" data-name="Trazado 115103" d="M26.182,36.944a.844.844,0,0,1-.844-.844V33.834a.844.844,0,1,1,1.688,0V36.1a.844.844,0,0,1-.844.844" fill="#12263f"/>
      </g>
    </g>
  </g>
</svg>
