<svg xmlns="http://www.w3.org/2000/svg" xmlns:xlink="http://www.w3.org/1999/xlink" width="92.46" height="105" viewBox="0 0 92.46 105">
  <defs>
    <clipPath id="clip-path">
      <rect id="Rectángulo_5261" data-name="Rectángulo 5261" width="92.46" height="105" fill="#12263f"/>
    </clipPath>
  </defs>
  <g id="Grupo_56553" data-name="Grupo 56553" clip-path="url(#clip-path)">
    <path id="Trazado_100707" data-name="Trazado 100707" d="M12.566,58.961A12.581,12.581,0,0,1,0,46.395V25.206A13.216,13.216,0,0,1,13.2,12a1.662,1.662,0,1,1,0,3.324,9.888,9.888,0,0,0-9.877,9.877V46.395A9.255,9.255,0,0,0,10.9,55.486V31.212a1.662,1.662,0,1,1,3.324,0V57.3a1.663,1.663,0,0,1-1.663,1.663" transform="translate(0 16.684)" fill="#12263f"/>
    <path id="Trazado_100708" data-name="Trazado 100708" d="M11.349,64.679a1.66,1.66,0,0,1-1.661-1.661V30.674a1.661,1.661,0,1,1,3.322,0V63.018a1.66,1.66,0,0,1-1.661,1.661" transform="translate(13.465 40.322)" fill="#12263f"/>
    <path id="Trazado_100709" data-name="Trazado 100709" d="M6.224,62.942a1.66,1.66,0,0,1-1.661-1.661V31.924a1.662,1.662,0,0,1,3.324,0V61.281a1.662,1.662,0,0,1-1.663,1.661" transform="translate(6.342 42.059)" fill="#12263f"/>
    <path id="Trazado_100710" data-name="Trazado 100710" d="M11.349,64.59a1.66,1.66,0,0,1-1.661-1.661V30.738a1.661,1.661,0,1,1,3.322,0V62.929a1.66,1.66,0,0,1-1.661,1.661" transform="translate(13.465 40.411)" fill="#12263f"/>
    <path id="Trazado_100711" data-name="Trazado 100711" d="M16.474,61.7a1.662,1.662,0,0,1-1.663-1.661V32.816a1.662,1.662,0,0,1,3.324,0V60.041A1.66,1.66,0,0,1,16.474,61.7" transform="translate(20.585 43.299)" fill="#12263f"/>
    <path id="Trazado_100712" data-name="Trazado 100712" d="M17.4,24.147A12.073,12.073,0,1,1,29.478,12.073,12.086,12.086,0,0,1,17.4,24.147m0-20.823a8.749,8.749,0,1,0,8.749,8.749A8.758,8.758,0,0,0,17.4,3.324" transform="translate(7.409 -0.001)" fill="#12263f"/>
    <path id="Trazado_100713" data-name="Trazado 100713" d="M34.768,58.961A1.661,1.661,0,0,1,33.107,57.3V31.212a1.661,1.661,0,1,1,3.322,0V55.486a9.255,9.255,0,0,0,7.581-9.091V25.206a9.888,9.888,0,0,0-9.877-9.877,1.662,1.662,0,1,1,0-3.324,13.216,13.216,0,0,1,13.2,13.2V46.395A12.581,12.581,0,0,1,34.768,58.961" transform="translate(45.127 16.684)" fill="#12263f"/>
    <path id="Trazado_100714" data-name="Trazado 100714" d="M29.273,64.679a1.66,1.66,0,0,1-1.661-1.661V30.674a1.662,1.662,0,0,1,3.324,0V63.018a1.662,1.662,0,0,1-1.663,1.661" transform="translate(38.376 40.322)" fill="#12263f"/>
    <path id="Trazado_100715" data-name="Trazado 100715" d="M34.4,62.942a1.66,1.66,0,0,1-1.661-1.661V31.924a1.661,1.661,0,0,1,3.322,0V61.281A1.66,1.66,0,0,1,34.4,62.942" transform="translate(45.498 42.059)" fill="#12263f"/>
    <path id="Trazado_100716" data-name="Trazado 100716" d="M35.822,15.393H16.206a1.662,1.662,0,0,1,0-3.324H35.822a1.662,1.662,0,0,1,0,3.324" transform="translate(20.215 16.773)" fill="#12263f"/>
    <path id="Trazado_100717" data-name="Trazado 100717" d="M29.273,64.59a1.66,1.66,0,0,1-1.661-1.661V30.738a1.662,1.662,0,0,1,3.324,0V62.929a1.662,1.662,0,0,1-1.663,1.661" transform="translate(38.376 40.411)" fill="#12263f"/>
    <path id="Trazado_100718" data-name="Trazado 100718" d="M24.148,61.7a1.66,1.66,0,0,1-1.661-1.661V32.816a1.661,1.661,0,0,1,3.322,0V60.041A1.66,1.66,0,0,1,24.148,61.7" transform="translate(31.253 43.299)" fill="#12263f"/>
    <path id="Trazado_100719" data-name="Trazado 100719" d="M35.328,24.147A12.073,12.073,0,1,1,47.4,12.073,12.086,12.086,0,0,1,35.328,24.147m0-20.823a8.749,8.749,0,1,0,8.749,8.749,8.758,8.758,0,0,0-8.749-8.749" transform="translate(32.321 -0.001)" fill="#12263f"/>
    <path id="Trazado_100720" data-name="Trazado 100720" d="M46.909,21.455H13.294a1.662,1.662,0,0,1,0-3.324H46.909a1.662,1.662,0,1,1,0,3.324" transform="translate(16.168 25.198)" fill="#12263f"/>
    <path id="Trazado_100721" data-name="Trazado 100721" d="M25.2,29.618a1.662,1.662,0,0,1-1.176-2.837l3.984-3.991-3.981-3.974a1.663,1.663,0,1,1,2.349-2.354l5.157,5.15a1.664,1.664,0,0,1,0,2.352l-5.16,5.167a1.654,1.654,0,0,1-1.176.488" transform="translate(32.718 22.202)" fill="#12263f"/>
    <path id="Trazado_100722" data-name="Trazado 100722" d="M18.42,29.618a1.658,1.658,0,0,1-1.176-.488l-5.16-5.167a1.665,1.665,0,0,1,0-2.352l5.16-5.15A1.663,1.663,0,0,1,19.6,18.816L15.612,22.79,19.6,26.781a1.661,1.661,0,0,1-1.176,2.837" transform="translate(16.121 22.202)" fill="#12263f"/>
    <path id="Trazado_100723" data-name="Trazado 100723" d="M46.928,28.672H13.312a1.662,1.662,0,1,1,0-3.324H46.928a1.662,1.662,0,0,1,0,3.324" transform="translate(16.19 35.228)" fill="#12263f"/>
    <path id="Trazado_100724" data-name="Trazado 100724" d="M25.221,36.834A1.661,1.661,0,0,1,24.042,34l3.984-3.991-3.984-3.974a1.663,1.663,0,0,1,2.349-2.354l5.162,5.15a1.662,1.662,0,0,1,0,2.352l-5.16,5.167a1.652,1.652,0,0,1-1.173.488" transform="translate(32.74 32.233)" fill="#12263f"/>
    <path id="Trazado_100725" data-name="Trazado 100725" d="M18.437,36.834a1.654,1.654,0,0,1-1.176-.488L12.1,31.18a1.665,1.665,0,0,1,0-2.352l5.157-5.15a1.663,1.663,0,1,1,2.349,2.354l-3.981,3.974L19.612,34a1.662,1.662,0,0,1-1.176,2.837" transform="translate(16.144 32.233)" fill="#12263f"/>
    <path id="Trazado_100726" data-name="Trazado 100726" d="M90.8,45.87H1.663a1.662,1.662,0,1,1,0-3.324H90.8a1.662,1.662,0,0,1,0,3.324" transform="translate(0 59.131)" fill="#12263f"/>
  </g>
</svg>
