<svg xmlns="http://www.w3.org/2000/svg" xmlns:xlink="http://www.w3.org/1999/xlink" width="74" height="74" viewBox="0 0 74 74">
  <defs>
    <clipPath id="clip-path">
      <rect id="Rectángulo_34771" data-name="Rectángulo 34771" width="30.54" height="53.161" fill="none"/>
    </clipPath>
  </defs>
  <g id="Grupo_59146" data-name="Grupo 59146" transform="translate(-296 -10020)">
    <g id="Elipse_4076" data-name="Elipse 4076" transform="translate(296 10020)" fill="#fff" stroke="#12263f" stroke-width="3">
      <circle cx="37" cy="37" r="37" stroke="none"/>
      <circle cx="37" cy="37" r="35.5" fill="none"/>
    </g>
    <g id="Grupo_58989" data-name="Grupo 58989" transform="translate(318 10030)">
      <g id="Grupo_58988" data-name="Grupo 58988" clip-path="url(#clip-path)">
        <path id="Trazado_115136" data-name="Trazado 115136" d="M30.156,31.732c-1.024,1.54-.855,3.306-1.2,4.045s-3.519,6.2-5.344,8.782-8.444,5.633-8.729,8.939,1.994,9.4,2.981,13.908c-6.649,2.229-14.159,0-14.159,0s-.254-9.039-1.527-10.822-.729-22.453.76-26.087c.944-2.3,1.875-4.5,2.654-5.962v0a5.48,5.48,0,0,1,1.167-1.676c.513-.373,4.01-2.981,5.093-2.97A28.471,28.471,0,0,0,17.25,19.5c.817-.163.786.863.13,1.732a2.855,2.855,0,0,1-1.156.924l-.551.21a9.429,9.429,0,0,1,.126,3.385,10.507,10.507,0,0,0,1.653,8.432,6,6,0,0,0,4.5,2.279c.968-.056,1.651-2.223,2.734-4.5s3.932-4.387,5.755-3.989.741,2.223-.285,3.76" transform="translate(-1.169 -15.512)" fill="#ffb681"/>
        <path id="Trazado_115137" data-name="Trazado 115137" d="M10.093,67.564a30.133,30.133,0,0,1-7.635-.995.285.285,0,0,1-.2-.265c-.07-2.49-.471-9.26-1.474-10.665-1.377-1.924-.8-22.619.729-26.361.908-2.213,1.858-4.465,2.653-5.963a.279.279,0,0,1,.013-.029,5.473,5.473,0,0,1,1.251-1.773l.114-.084c2.7-1.979,4.385-2.941,5.14-2.941h.008a28.41,28.41,0,0,0,5.336-.378.749.749,0,0,1,.83.3,1.845,1.845,0,0,1-.418,1.887,3.128,3.128,0,0,1-1.271,1.014l-.337.128a9.076,9.076,0,0,1,.077,3.268,10.222,10.222,0,0,0,1.6,8.2,5.689,5.689,0,0,0,4.256,2.163c.577-.034,1.179-1.4,1.815-2.841.213-.484.434-.985.678-1.5,1.067-2.245,4.012-4.595,6.072-4.144a1.424,1.424,0,0,1,1.116.805c.361.9-.407,2.166-1.225,3.391a6.606,6.606,0,0,0-.907,2.827,4.639,4.639,0,0,1-.267,1.18c-.345.749-3.533,6.23-5.37,8.827a18.1,18.1,0,0,1-3.657,3.233C16.745,48.561,14.165,50.5,14,52.413c-.189,2.187.793,5.7,1.743,9.1.449,1.6.912,3.264,1.232,4.726a.284.284,0,0,1-.187.329,21.214,21.214,0,0,1-6.7,1M2.816,66.078c1.206.32,7.716,1.881,13.548.028-.311-1.377-.728-2.868-1.168-4.442-.963-3.446-1.96-7.01-1.762-9.3.186-2.162,2.759-4.1,5.246-5.972a17.84,17.84,0,0,0,3.535-3.107c1.823-2.576,4.977-8,5.318-8.736a4.4,4.4,0,0,0,.221-1.025,7.176,7.176,0,0,1,1-3.059h0c.47-.7,1.449-2.171,1.171-2.863a.891.891,0,0,0-.71-.462c-1.622-.355-4.366,1.58-5.437,3.833-.241.506-.46,1-.671,1.484-.8,1.815-1.378,3.126-2.3,3.18a6.337,6.337,0,0,1-4.748-2.4,10.8,10.8,0,0,1-1.7-8.663,9.194,9.194,0,0,0-.126-3.26.285.285,0,0,1,.177-.328l.551-.21a2.556,2.556,0,0,0,1.029-.827c.418-.554.5-1.077.392-1.243-.033-.052-.113-.066-.237-.041a29.025,29.025,0,0,1-5.453.389h0c-.285,0-1.318.28-4.8,2.831l-.116.085A4.906,4.906,0,0,0,4.69,23.53a.286.286,0,0,1-.013.029c-.787,1.476-1.735,3.725-2.642,5.936C1.283,31.33.792,37.667.64,43.134c-.177,6.32.077,11.44.6,12.175,1.213,1.7,1.526,9.36,1.573,10.769" transform="translate(0 -14.403)" fill="#734c37"/>
        <path id="Trazado_115138" data-name="Trazado 115138" d="M39.452,64.555c3.715-8.934-6.166-12.665-.8-19.825.218-.291-.233-.645-.453-.343A15.9,15.9,0,0,0,38,38.46a6.843,6.843,0,0,0,1.019-.558c.144.419.546.076.531-.381a10.532,10.532,0,0,0,1.626-1.584l.07-.009c.117.538.461.436.579-.078a14.46,14.46,0,0,0,1.933-.393,8.391,8.391,0,0,1,.068,2.95c-2.154,7.414,4.339,22.781-4.371,26.148" transform="translate(-29.471 -28.23)" fill="#ec8b56"/>
        <path id="Trazado_115139" data-name="Trazado 115139" d="M36.268,9.976a.971.971,0,0,1-.716.595,9.23,9.23,0,0,1-2.051.067c.656-.869.687-1.9-.13-1.732a28.454,28.454,0,0,1-5.394.383c-1.083-.011-4.579,2.6-5.093,2.97a5.476,5.476,0,0,0-1.167,1.676c.029-.155.676-3.765.89-4.569.176-.658.8-1.016,2.053-1.4.316-.1.674-.195,1.075-.3,3.021-.794,4.033-1.888,5.059-1.343,3.5,1.856,4.544,1.5,5.2,2.16a1.379,1.379,0,0,1,.272,1.494" transform="translate(-17.291 -4.918)" fill="#ffb681"/>
        <path id="Trazado_115140" data-name="Trazado 115140" d="M20.6,13.107a.285.285,0,0,1-.279-.338l.034-.185c.444-2.444.734-3.926.861-4.4.221-.827,1.023-1.225,2.245-1.6.35-.107.745-.214,1.085-.3a20.027,20.027,0,0,0,2.8-.979c1.048-.437,1.741-.725,2.467-.34a17.666,17.666,0,0,0,3.944,1.6,2.745,2.745,0,0,1,1.325.609,1.665,1.665,0,0,1,.332,1.809,1.258,1.258,0,0,1-.926.761,9.415,9.415,0,0,1-2.126.071.285.285,0,0,1-.2-.455c.416-.552.494-1.076.39-1.241-.033-.052-.112-.066-.237-.041a29.008,29.008,0,0,1-5.453.389h0c-.285,0-1.318.28-4.8,2.831l-.116.085a4.972,4.972,0,0,0-1.083,1.579.285.285,0,0,1-.252.151m8.49-7.759a4.592,4.592,0,0,0-1.527.476,20.506,20.506,0,0,1-2.872,1c-.334.089-.723.195-1.064.3-1.238.379-1.725.693-1.861,1.2-.071.267-.235,1.024-.61,3.048a2.278,2.278,0,0,1,.445-.459l.114-.084c2.7-1.979,4.385-2.941,5.14-2.941h.009A28.306,28.306,0,0,0,32.2,7.514a.749.749,0,0,1,.83.3,1.543,1.543,0,0,1-.143,1.455,7.616,7.616,0,0,0,1.5-.087.7.7,0,0,0,.508-.429h0a1.1,1.1,0,0,0-.213-1.178,2.324,2.324,0,0,0-1.076-.463,18.175,18.175,0,0,1-4.058-1.647.938.938,0,0,0-.454-.113" transform="translate(-16.179 -3.804)" fill="#734c37"/>
        <path id="Trazado_115141" data-name="Trazado 115141" d="M49.391,5.889a6.5,6.5,0,0,1-1.626.277,1.38,1.38,0,0,0-.272-1.494c-.658-.658-1.7-.3-5.2-2.16-1.026-.545-2.038.549-5.059,1.343-.4.107-.758.205-1.075.3a5.967,5.967,0,0,1,.756-1.2c.658-.769,2.112-.769,3.811-1.1,1.429-.277,2.409-.8,3.968-.153h0a6.483,6.483,0,0,1,.951.507A9.86,9.86,0,0,0,49.6,3.61c.381.088.631.2.737.465.329.821.017,1.462-.949,1.814" transform="translate(-28.788 -1.107)" fill="#ffb681"/>
        <path id="Trazado_115142" data-name="Trazado 115142" d="M46.654,5.343a.285.285,0,0,1-.261-.4,1.1,1.1,0,0,0-.213-1.178A2.327,2.327,0,0,0,45.1,3.3a18.175,18.175,0,0,1-4.058-1.647c-.468-.249-.946-.068-1.981.363a20.515,20.515,0,0,1-2.872,1c-.334.089-.723.195-1.064.3a.285.285,0,0,1-.338-.4,6.308,6.308,0,0,1,.8-1.264A4.459,4.459,0,0,1,38.364.666c.384-.058.78-.118,1.195-.2.3-.058.581-.128.854-.2a4.66,4.66,0,0,1,3.26.052l.021.008a6.754,6.754,0,0,1,.993.529,8.578,8.578,0,0,0,3.391,1.271c.176.032.335.061.477.093a1.171,1.171,0,0,1,.938.637,1.567,1.567,0,0,1,.031,1.254,1.868,1.868,0,0,1-1.147.933h0a6.716,6.716,0,0,1-1.708.293h-.014m1.626-.561h0ZM40.6.974a1.49,1.49,0,0,1,.716.18,17.666,17.666,0,0,0,3.944,1.6,2.746,2.746,0,0,1,1.325.609,1.658,1.658,0,0,1,.451,1.38,5.209,5.209,0,0,0,1.149-.229A1.337,1.337,0,0,0,49,3.884a1.026,1.026,0,0,0-.04-.81c-.048-.118-.151-.2-.537-.293-.133-.03-.284-.058-.451-.088a9.2,9.2,0,0,1-3.594-1.35,6.218,6.218,0,0,0-.892-.478L43.471.857A4.083,4.083,0,0,0,40.549.825c-.28.069-.569.141-.882.2-.426.082-.828.143-1.218.2a4.116,4.116,0,0,0-2.431.8,4.3,4.3,0,0,0-.4.558l.426-.115a20,20,0,0,0,2.8-.979A4.952,4.952,0,0,1,40.6.974" transform="translate(-27.676 0)" fill="#734c37"/>
        <path id="Trazado_115143" data-name="Trazado 115143" d="M82.949,4.749a9.864,9.864,0,0,1-3.957-1.4,6.483,6.483,0,0,0-.951-.507,11.025,11.025,0,0,1,2.837.182c1.408.331,2.541.065,2.723.44.193.394-.245.916-.652,1.286" transform="translate(-62.135 -2.246)" fill="#ffb681"/>
        <path id="Trazado_115144" data-name="Trazado 115144" d="M81.838,3.922a.279.279,0,0,1-.063-.007c-.134-.031-.285-.058-.452-.088a9.2,9.2,0,0,1-3.594-1.35,6.176,6.176,0,0,0-.909-.485.285.285,0,0,1,.1-.546,11.305,11.305,0,0,1,2.916.189,8.612,8.612,0,0,0,1.655.191c.631.027,1.087.047,1.259.4.217.444-.023.989-.716,1.621a.284.284,0,0,1-.192.074M78.038,2a8.584,8.584,0,0,0,3.386,1.268c.117.021.226.041.327.061.373-.365.561-.692.483-.852a2.985,2.985,0,0,0-.772-.082A9.071,9.071,0,0,1,79.7,2.189,8.5,8.5,0,0,0,78.038,2" transform="translate(-61.023 -1.135)" fill="#734c37"/>
        <path id="Trazado_115145" data-name="Trazado 115145" d="M37.972,98.869a.273.273,0,0,1-.089.129.285.285,0,0,1-.182.064.3.3,0,0,1-.089-.013.284.284,0,0,1-.18-.36q.074-.225.142-.444A11.478,11.478,0,0,0,36.9,89.3a.006.006,0,0,0,0,0c-.144-.315-.292-.622-.436-.926a17.4,17.4,0,0,1-1.151-2.8,8.258,8.258,0,0,1,1.319-6.746.284.284,0,1,1,.453.343,7.832,7.832,0,0,0-1.224,6.251,17.072,17.072,0,0,0,1.115,2.705c1.267,2.641,2.7,5.635,1,10.74" transform="translate(-27.903 -62.673)" fill="#734c37"/>
        <path id="Trazado_115146" data-name="Trazado 115146" d="M57.211,35.339a13.327,13.327,0,0,1-.322,2.349.285.285,0,0,1-.556-.127,12.752,12.752,0,0,0,.283-1.838c.037-.19-.028-.428.1-.586a.287.287,0,0,1,.5.2" transform="translate(-44.844 -27.899)" fill="#734c37"/>
        <path id="Trazado_115147" data-name="Trazado 115147" d="M46.909,45.472a.285.285,0,0,1-.275.212.308.308,0,0,1-.072-.008.287.287,0,0,1-.205-.347,3.123,3.123,0,0,0,.089-.985,3.022,3.022,0,0,0-.063-.451.278.278,0,0,1,.063-.247.236.236,0,0,1,.095-.07.2.2,0,0,1,.059-.021.284.284,0,0,1,.34.216c.013.063.026.127.038.192a3.709,3.709,0,0,1-.068,1.508" transform="translate(-36.901 -34.673)" fill="#734c37"/>
        <path id="Trazado_115148" data-name="Trazado 115148" d="M40.708,32.778a11.263,11.263,0,0,1-2.263.5c-.239.036-.442.061-.578.078l-.07.01a10.534,10.534,0,0,1-1.626,1.584c-.167.129-.345.258-.531.381a6.826,6.826,0,0,1-1.019.558,5.409,5.409,0,0,1-1.345,3.629l-.118.051a.253.253,0,0,1-.273-.042l-.087-.078a.3.3,0,0,1,.057-.315,4.219,4.219,0,0,0,.307-.389,4.7,4.7,0,0,0,.88-3.026.277.277,0,0,1,.177-.281,6.358,6.358,0,0,0,1.421-.806l.095-.07a9.929,9.929,0,0,0,1.687-1.641.283.283,0,0,1,.2-.108c.006,0,.14-.017.349-.044.106-.013.23-.03.366-.049a15.287,15.287,0,0,0,1.821-.355,3.427,3.427,0,0,0,.336-.116.285.285,0,0,1,.22.525" transform="translate(-26.095 -25.661)" fill="#734c37"/>
      </g>
    </g>
  </g>
</svg>
