<svg id="Grupo_56669" data-name="Grupo 56669" xmlns="http://www.w3.org/2000/svg" xmlns:xlink="http://www.w3.org/1999/xlink" width="84" height="91.241" viewBox="0 0 84 91.241">
  <defs>
    <clipPath id="clip-path">
      <rect id="Rectángulo_33941" data-name="Rectángulo 33941" width="84" height="91.241" fill="#12263f"/>
    </clipPath>
  </defs>
  <g id="Grupo_56668" data-name="Grupo 56668" transform="translate(0 0)" clip-path="url(#clip-path)">
    <path id="Trazado_101273" data-name="Trazado 101273" d="M30.7,24.916A12.458,12.458,0,1,1,43.157,12.458,12.472,12.472,0,0,1,30.7,24.916m0-22.229a9.77,9.77,0,1,0,9.77,9.77,9.781,9.781,0,0,0-9.77-9.77" transform="translate(11.95 0)" fill="#12263f"/>
    <path id="Trazado_101274" data-name="Trazado 101274" d="M39.19,72.129a1.352,1.352,0,0,1-.746-.225l-2.229-1.486a20.668,20.668,0,0,0-11.5-3.484H4.641A1.344,1.344,0,0,1,3.3,65.589V30.517a1.343,1.343,0,0,1,1.344-1.344h20.07a23.349,23.349,0,0,1,12.995,3.934l2.229,1.486a1.345,1.345,0,0,1,.6,1.119V70.785a1.345,1.345,0,0,1-.71,1.185,1.329,1.329,0,0,1-.634.159M5.985,64.245H24.711A23.349,23.349,0,0,1,37.706,68.18l.141.094V36.431l-1.632-1.087a20.666,20.666,0,0,0-11.5-3.482H5.985Z" transform="translate(2.16 19.112)" fill="#12263f"/>
    <path id="Trazado_101275" data-name="Trazado 101275" d="M25.515,72.129a1.344,1.344,0,0,1-1.344-1.344V35.711a1.345,1.345,0,0,1,.6-1.117L27,33.106a23.349,23.349,0,0,1,12.994-3.934h21.37a1.344,1.344,0,0,1,1.344,1.344V65.59a1.344,1.344,0,0,1-1.344,1.344H39.994a20.666,20.666,0,0,0-11.5,3.482L26.26,71.9a1.347,1.347,0,0,1-.745.225m1.344-35.7V68.275L27,68.18a23.349,23.349,0,0,1,12.994-3.934H60.02V31.86H39.994a20.668,20.668,0,0,0-11.5,3.484Z" transform="translate(15.835 19.112)" fill="#12263f"/>
    <path id="Trazado_101276" data-name="Trazado 101276" d="M24.988,37.553H9.364a1.344,1.344,0,1,1,0-2.688H24.988a1.344,1.344,0,1,1,0,2.688" transform="translate(5.254 22.841)" fill="#12263f"/>
    <path id="Trazado_101277" data-name="Trazado 101277" d="M24.988,42.556H9.364a1.344,1.344,0,0,1,0-2.688H24.988a1.344,1.344,0,0,1,0,2.688" transform="translate(5.254 26.119)" fill="#12263f"/>
    <path id="Trazado_101278" data-name="Trazado 101278" d="M35.056,44.084a1.36,1.36,0,0,1-.746-.225L32.08,42.371a20.679,20.679,0,0,0-11.5-3.482H10.951a1.344,1.344,0,0,1-1.344-1.344V35.383A16.712,16.712,0,0,1,24.422,18.774c1.322-.151,2.946-.262,4.821-.328a1.344,1.344,0,1,1,.094,2.686c-1.806.065-3.357.169-4.61.313A14.023,14.023,0,0,0,12.295,35.383V36.2h8.282a23.349,23.349,0,0,1,12.995,3.934l1.485.99,1.486-.99A23.345,23.345,0,0,1,49.537,36.2H60.416v-.818A14.024,14.024,0,0,0,47.983,21.445c-1.117-.127-2.476-.227-4.044-.291a1.343,1.343,0,0,1,.111-2.685c1.632.066,3.059.169,4.239.3A16.712,16.712,0,0,1,63.1,35.383v2.162a1.345,1.345,0,0,1-1.344,1.344H49.537a20.681,20.681,0,0,0-11.5,3.482L35.8,43.859a1.351,1.351,0,0,1-.745.225" transform="translate(6.294 12.084)" fill="#12263f"/>
    <path id="Trazado_101279" data-name="Trazado 101279" d="M6.8,50.77H6.1a6.1,6.1,0,0,1,0-12.208h.7a1.343,1.343,0,0,1,1.344,1.344v9.52A1.343,1.343,0,0,1,6.8,50.77M5.457,41.311a3.417,3.417,0,0,0,0,6.71Z" transform="translate(0 25.263)" fill="#12263f"/>
    <path id="Trazado_101280" data-name="Trazado 101280" d="M47.869,50.77h-.7a1.343,1.343,0,0,1-1.344-1.344v-9.52a1.343,1.343,0,0,1,1.344-1.344h.7a6.1,6.1,0,1,1,0,12.208m.649-9.459v6.71a3.417,3.417,0,0,0,0-6.71" transform="translate(30.025 25.263)" fill="#12263f"/>
  </g>
</svg>
