<svg xmlns="http://www.w3.org/2000/svg" xmlns:xlink="http://www.w3.org/1999/xlink" width="74" height="74" viewBox="0 0 74 74">
  <defs>
    <clipPath id="clip-path">
      <rect id="Rectángulo_34774" data-name="Rectángulo 34774" width="26.805" height="55.998" fill="none"/>
    </clipPath>
  </defs>
  <g id="Grupo_59149" data-name="Grupo 59149" transform="translate(-296 -10455)">
    <g id="Elipse_4079" data-name="Elipse 4079" transform="translate(296 10455)" fill="#fff" stroke="#12263f" stroke-width="3">
      <circle cx="37" cy="37" r="37" stroke="none"/>
      <circle cx="37" cy="37" r="35.5" fill="none"/>
    </g>
    <g id="Grupo_58995" data-name="Grupo 58995" transform="translate(320 10464)">
      <g id="Grupo_58994" data-name="Grupo 58994" clip-path="url(#clip-path)">
        <path id="Trazado_115168" data-name="Trazado 115168" d="M24.725,25.025a14.985,14.985,0,0,1-2.944-1.639s.443-7.1-2.7-7.2-3.6,4.05-3.6,4.05l-.695.068s.395-7.662.5-10.6.869-8.1-1.627-8.3-2.494,4.563-2.494,4.563A1.611,1.611,0,0,0,8.888,4.948C7.3,5.638,7.261,9.708,7.261,9.708a1.952,1.952,0,0,0-2.934,0C3.191,10.78,1.62,22.667,1.4,26.72s2.179,17.351,3.51,18.1c1.878,1.051,2.346,10.759,2.346,11.061a23.573,23.573,0,0,0,13.281,0c-.767-3.188-2.389-9.647-1.878-11.48a13.486,13.486,0,0,1,4.1-5.9,14.169,14.169,0,0,0,3.585-4.3,43.872,43.872,0,0,0,1.281-6.776c.01-2.14-1.929-2.043-2.9-2.392m-2.266,5.229s-1.131.278-1.278.874a3.829,3.829,0,0,0-1.738-2.135,4.768,4.768,0,0,0,0-2.45,1.709,1.709,0,0,0,1.351-.407,4.173,4.173,0,0,0,1.922,2.254c-.7.576-.257,1.864-.257,1.864" transform="translate(-1.108 -1.113)" fill="#ffb681"/>
        <path id="Trazado_115169" data-name="Trazado 115169" d="M12.9,56a23.468,23.468,0,0,1-6.842-.965.285.285,0,0,1-.192-.269c0-1.366-.634-9.937-2.2-10.813S-.194,29.435.013,25.591c.194-3.654,1.72-15.984,3.011-17.2a2.389,2.389,0,0,1,1.762-.75,2.236,2.236,0,0,1,1.106.373c.075-1.214.4-3.837,1.776-4.436A1.9,1.9,0,0,1,9.26,3.511a1.785,1.785,0,0,1,.565.416A5.719,5.719,0,0,1,11.1.512a1.864,1.864,0,0,1,1.47-.5c2.4.2,2.162,4.068,1.966,7.179-.032.508-.062.988-.078,1.419-.093,2.556-.408,8.77-.484,10.271l.147-.014c.158-.893.92-4.075,3.735-4.075l.123,0a2.174,2.174,0,0,1,1.581.753c1.528,1.68,1.441,5.718,1.4,6.588a14.113,14.113,0,0,0,2.748,1.514h0a5.738,5.738,0,0,0,.637.166c.981.219,2.463.551,2.455,2.495a44.517,44.517,0,0,1-1.305,6.89,14.208,14.208,0,0,1-3.655,4.4,13.234,13.234,0,0,0-4.015,5.765c-.461,1.653.969,7.564,1.737,10.74l.144.6a.284.284,0,0,1-.193.338A22.511,22.511,0,0,1,12.9,56M6.429,54.552a23.627,23.627,0,0,0,12.666.016l-.081-.335c-.835-3.453-2.233-9.231-1.732-11.027a13.8,13.8,0,0,1,4.183-6.035,13.69,13.69,0,0,0,3.515-4.208A44.248,44.248,0,0,0,26.236,26.3c.007-1.487-1.019-1.716-2.01-1.938a6.062,6.062,0,0,1-.7-.186A15.081,15.081,0,0,1,20.508,22.5a.284.284,0,0,1-.118-.249c0-.046.271-4.661-1.249-6.331a1.6,1.6,0,0,0-1.179-.567h-.1c-2.76,0-3.206,3.76-3.21,3.8a.285.285,0,0,1-.255.252l-.695.068a.282.282,0,0,1-.224-.077.285.285,0,0,1-.088-.22c0-.077.4-7.694.5-10.592.016-.438.047-.922.079-1.434.17-2.712.4-6.426-1.445-6.576a1.3,1.3,0,0,0-1.038.355c-1.133,1.044-1.148,3.9-1.148,3.925a.284.284,0,0,1-.555.085,1.665,1.665,0,0,0-.764-.912A1.365,1.365,0,0,0,7.893,4.1C6.731,4.6,6.448,7.516,6.437,8.6a.284.284,0,0,1-.5.185,1.88,1.88,0,0,0-1.185-.576,1.85,1.85,0,0,0-1.339.6c-1,.94-2.591,12.262-2.834,16.82A54.924,54.924,0,0,0,1.75,35.843c.922,4.9,1.785,7.381,2.2,7.612,1.938,1.084,2.418,9.636,2.483,11.1M20.073,30.3h0a.284.284,0,0,1-.274-.223,3.547,3.547,0,0,0-1.6-1.948.284.284,0,0,1-.136-.319,4.516,4.516,0,0,0,.013-2.269.285.285,0,0,1,.285-.393,1.441,1.441,0,0,0,1.123-.321.286.286,0,0,1,.473.1,3.911,3.911,0,0,0,1.763,2.086.284.284,0,0,1,.072.482c-.446.368-.273,1.245-.168,1.552a.285.285,0,0,1-.2.368c-.315.078-.99.344-1.07.666a.285.285,0,0,1-.276.216m-1.416-2.554A4.311,4.311,0,0,1,20.163,29.4a2.736,2.736,0,0,1,.843-.453,2.232,2.232,0,0,1,.152-1.581,4.41,4.41,0,0,1-1.6-1.906,2.082,2.082,0,0,1-.843.252,5.355,5.355,0,0,1-.061,2.032" transform="translate(0 0)" fill="#734c37"/>
        <path id="Trazado_115170" data-name="Trazado 115170" d="M49.867,162.606a.284.284,0,0,1-.281-.246c-.011-.082-1.018-8.239,6.8-9.747a.284.284,0,0,1,.108.558c-7.283,1.405-6.382,8.8-6.341,9.113a.284.284,0,0,1-.244.32l-.038,0" transform="translate(-39.451 -121.532)" fill="#734c37"/>
        <path id="Trazado_115171" data-name="Trazado 115171" d="M24.529,54.781h-.02a.284.284,0,0,1-.264-.3l.931-13.408a.284.284,0,0,1,.567.039l-.931,13.408a.284.284,0,0,1-.283.265" transform="translate(-19.308 -32.495)" fill="#734c37"/>
        <path id="Trazado_115172" data-name="Trazado 115172" d="M45.541,37.832H45.53a.284.284,0,0,1-.273-.295l.556-14.816a.284.284,0,0,1,.568.021l-.556,14.816a.284.284,0,0,1-.284.274" transform="translate(-36.041 -17.877)" fill="#734c37"/>
        <path id="Trazado_115173" data-name="Trazado 115173" d="M24.528,119.8a.284.284,0,0,1-.192-.494c.429-.4,4.233-3.862,9-3.862h.091a.284.284,0,0,1-.005.569h-.086c-4.551,0-8.2,3.324-8.607,3.705a.3.3,0,0,1-.2.082" transform="translate(-19.307 -91.934)" fill="#734c37"/>
        <path id="Trazado_115174" data-name="Trazado 115174" d="M94.746,111.3a.283.283,0,0,1-.249-.148,2.194,2.194,0,0,1,0-1.988A2.364,2.364,0,0,1,95.641,108a.284.284,0,1,1,.186.537,1.953,1.953,0,0,0-.831.9,1.614,1.614,0,0,0,0,1.444.285.285,0,0,1-.251.419" transform="translate(-75.061 -85.996)" fill="#734c37"/>
        <path id="Trazado_115175" data-name="Trazado 115175" d="M82.295,95.293h-.022c-1.246-.1-1.571-1.212-1.738-2.4-.189-1.353-.222-5.075-.223-5.233a.284.284,0,0,1,.282-.287h0a.284.284,0,0,1,.284.282c0,.038.033,3.843.217,5.159.19,1.358.509,1.859,1.219,1.914a.284.284,0,0,1-.022.568" transform="translate(-63.958 -69.579)" fill="#734c37"/>
      </g>
    </g>
  </g>
</svg>
