<svg xmlns="http://www.w3.org/2000/svg" xmlns:xlink="http://www.w3.org/1999/xlink" width="56" height="68" viewBox="0 0 56 68">
  <defs>
    <clipPath id="clip-path">
      <rect id="Rectángulo_34836" data-name="Rectángulo 34836" width="56" height="68" transform="translate(0 0)" fill="#12263f"/>
    </clipPath>
  </defs>
  <g id="Grupo_59125" data-name="Grupo 59125" transform="translate(0 0)" clip-path="url(#clip-path)">
    <path id="Trazado_115857" data-name="Trazado 115857" d="M54.23,51.579a8.19,8.19,0,0,0-4.493-4.363L37.265,42.3a.784.784,0,0,1-.5-.732V37.633a17.339,17.339,0,0,0,5.792-8.764c.254-.805.461-1.611.629-2.411a5.524,5.524,0,0,0,5.131-5.141,5.056,5.056,0,0,0-4.677-5.035A22.147,22.147,0,0,0,41,7.618a1,1,0,0,0-1.733.987,20.567,20.567,0,0,1,2.457,8.561,29.79,29.79,0,0,1-1.066,11.1,14.948,14.948,0,0,1-6.108,8.487,10.524,10.524,0,0,1-11.218,0C19.027,34.026,16.6,28.9,16.116,21.507c-.252-3.845-.053-13.288,7.216-17.894a10.523,10.523,0,0,1,11.218,0,13.836,13.836,0,0,1,2.173,1.7A1,1,0,0,0,38.1,3.876a15.842,15.842,0,0,0-2.487-1.949,12.524,12.524,0,0,0-13.352,0C17.716,4.81,14.912,9.9,14.222,16.3a5.057,5.057,0,0,0-4.49,5.018,5.385,5.385,0,0,0,5.041,5.147,24.592,24.592,0,0,0,1.382,4.495,16.332,16.332,0,0,0,4.953,6.662v3.944a.783.783,0,0,1-.5.732L8.138,47.216a8.191,8.191,0,0,0-4.494,4.363A36.032,36.032,0,0,0,2.379,55a1,1,0,1,0,1.9.6,33.992,33.992,0,0,1,1.195-3.228,6.179,6.179,0,0,1,3.391-3.293L14.883,46.7c.726,5.626,3.727,10.493,8,12.928v1.338a1.494,1.494,0,0,0,1.493,1.493h1.4V66H12.493A23.2,23.2,0,0,1,13,61.676a1,1,0,0,0-1.949-.428A25.271,25.271,0,0,0,10.5,66H2.989a.261.261,0,0,1-.26-.261,34.064,34.064,0,0,1,.532-5.986A1,1,0,1,0,1.3,59.406a36.059,36.059,0,0,0-.563,6.338A2.258,2.258,0,0,0,2.989,68h51.9a2.258,2.258,0,0,0,2.255-2.256A35.735,35.735,0,0,0,54.23,51.579M46.325,21.318A3.06,3.06,0,0,1,43.55,24.36a34.171,34.171,0,0,0,.245-6.052,3.06,3.06,0,0,1,2.531,3.01m-34.6,0a3.06,3.06,0,0,1,2.347-2.972,32.565,32.565,0,0,0,.051,3.292q.091,1.4.277,2.712a3.06,3.06,0,0,1-2.676-3.032M37.433,44.508a14.751,14.751,0,0,1-4.722,2.833V44.2a13.411,13.411,0,0,0,2.566-1.035,2.779,2.779,0,0,0,1.257.987Zm-8.454.221a13.56,13.56,0,0,0,1.736-.114v3.255a10.449,10.449,0,0,1-1.767.155,9.953,9.953,0,0,1-1.764-.161V44.609a13.521,13.521,0,0,0,1.8.12m-.039-4.362a12.5,12.5,0,0,0,5.832-1.439v2.236a11.476,11.476,0,0,1-11.62-.019l-.05-.026V38.924a12.491,12.491,0,0,0,5.838,1.443m-7.6,3.787a2.781,2.781,0,0,0,1.28-1.02,13.448,13.448,0,0,0,2.568,1.05v3.122A14.536,14.536,0,0,1,20.6,44.444ZM16.8,45.943l1.766-.7a14.842,14.842,0,0,0,10.38,4.774,15.338,15.338,0,0,0,10.532-4.705l1.592.627c-.494,4.848-2.87,9.151-6.317,11.485a1.494,1.494,0,0,0-1.258-.69h-1.4v-2.25A1.494,1.494,0,0,0,30.6,52.994H27.273a1.5,1.5,0,0,0-1.493,1.493v2.25h-1.4a1.491,1.491,0,0,0-1.257.691C19.665,55.095,17.3,50.823,16.8,45.943M27.775,66V61.958a1.5,1.5,0,0,0-1.493-1.493h-1.4V58.732h1.4a1.5,1.5,0,0,0,1.493-1.493v-2.25H30.1v2.25a1.494,1.494,0,0,0,1.493,1.493H33v1.732h-1.4A1.5,1.5,0,0,0,30.1,61.958V66Zm27.109,0H47.376a25.274,25.274,0,0,0-.553-4.756,1,1,0,0,0-1.949.428A23.214,23.214,0,0,1,45.381,66H32.093V62.459h1.4a1.5,1.5,0,0,0,1.493-1.493V59.622c.031-.014.063-.028.093-.046C39.3,57.131,42.27,52.255,42.991,46.7l6.014,2.371A6.182,6.182,0,0,1,52.4,52.365a33.757,33.757,0,0,1,2.748,13.379.261.261,0,0,1-.26.26" transform="translate(-0.604 0)" fill="#12263f"/>
  </g>
</svg>
