<svg id="Grupo_56746" data-name="Grupo 56746" xmlns="http://www.w3.org/2000/svg" xmlns:xlink="http://www.w3.org/1999/xlink" width="90" height="90" viewBox="0 0 90 90">
  <defs>
    <clipPath id="clip-path">
      <rect id="Rectángulo_33979" data-name="Rectángulo 33979" width="90" height="90" fill="none"/>
    </clipPath>
    <clipPath id="clip-path-2">
      <rect id="Rectángulo_33977" data-name="Rectángulo 33977" width="90" height="90" fill="#387db8"/>
    </clipPath>
    <clipPath id="clip-path-3">
      <rect id="Rectángulo_33976" data-name="Rectángulo 33976" width="83.017" height="83.518" fill="none"/>
    </clipPath>
    <clipPath id="clip-path-4">
      <path id="Trazado_113648" data-name="Trazado 113648" d="M5.015,48.125a39.505,39.505,0,1,0,39.5-39.743,39.624,39.624,0,0,0-39.5,39.743" transform="translate(-5.015 -8.382)" fill="none"/>
    </clipPath>
  </defs>
  <g id="Grupo_56745" data-name="Grupo 56745" clip-path="url(#clip-path)">
    <g id="Grupo_56740" data-name="Grupo 56740" transform="translate(0 0)">
      <g id="Grupo_56739" data-name="Grupo 56739" clip-path="url(#clip-path-2)">
        <g id="Grupo_56738" data-name="Grupo 56738" transform="translate(1.927 4.544)" opacity="0.41" style="mix-blend-mode: color-burn;isolation: isolate">
          <g id="Grupo_56737" data-name="Grupo 56737">
            <g id="Grupo_56736" data-name="Grupo 56736" clip-path="url(#clip-path-3)">
              <path id="Trazado_113634" data-name="Trazado 113634" d="M85.475,47.522A41.51,41.51,0,1,1,43.966,5.763,41.635,41.635,0,0,1,85.475,47.522" transform="translate(-2.458 -5.763)" fill="#8a8a8a"/>
            </g>
          </g>
        </g>
        <path id="Trazado_113635" data-name="Trazado 113635" d="M43.436,90.7A43.7,43.7,0,1,1,86.87,47,43.617,43.617,0,0,1,43.436,90.7m0-83.517A39.821,39.821,0,1,0,83.017,47,39.747,39.747,0,0,0,43.436,7.181" transform="translate(0 -0.699)" fill="#387db8"/>
        <path id="Trazado_113636" data-name="Trazado 113636" d="M92.722,4.608,88.141,0l-9,9.052-5.788-5.82-1.769,9.906-1.771,9.906,9.846-1.781,9.848-1.781-5.785-5.82Z" transform="translate(-15.093 0)" fill="#ffdc59" fill-rule="evenodd"/>
      </g>
    </g>
    <g id="Grupo_56742" data-name="Grupo 56742" transform="translate(3.931 6.61)">
      <g id="Grupo_56741" data-name="Grupo 56741" clip-path="url(#clip-path-4)">
        <path id="Trazado_113637" data-name="Trazado 113637" d="M72.226,60.655,67.9,48.9l-5.487-11.43c-2.228.427-2.937,2.8-.785,6.492l2.007,5.174,3.381,13.229Z" transform="translate(-16.973 -14.534)" fill="#ffc197"/>
        <path id="Trazado_113638" data-name="Trazado 113638" d="M62.8,37.451c-.219-.308-.741.233-.683.955.063.786.832,2.3,1.238,2.362a.951.951,0,0,0,.872-.408,26.9,26.9,0,0,0-1.427-2.91" transform="translate(-17.358 -14.51)" fill="#fc445b"/>
        <path id="Trazado_113639" data-name="Trazado 113639" d="M64.9,53.721,54.058,42.689,42.081,32.609c-2.3,1.626-1.908,4.67,2.4,7.732l6.8,6.132,8.62,11.86Z" transform="translate(-12.728 -13.505)" fill="#ffc197"/>
        <path id="Trazado_113640" data-name="Trazado 113640" d="M42.138,32.422c-.4-.236-.613.543-.18,1.328.471.854,2.378,2.318,2.867,2.183a.726.726,0,0,0,.55-.817,35.847,35.847,0,0,0-3.237-2.694" transform="translate(-12.95 -13.456)" fill="#fc445b"/>
        <path id="Trazado_113641" data-name="Trazado 113641" d="M56.9,54.486,42.817,47.193l-14.677-6.3c-1.742,2.216-.163,5.088,4.828,6.793l8.31,4.344,11.555,8.5Z" transform="translate(-9.867 -15.256)" fill="#ffc197"/>
        <path id="Trazado_113642" data-name="Trazado 113642" d="M28.455,40.7c-.453-.11-.424.639.212,1.267.693.684,2.612,1.6,3.043,1.329a4.841,4.841,0,0,0,.921-.739A39.223,39.223,0,0,0,28.455,40.7" transform="translate(-10.016 -15.213)" fill="#fc445b"/>
        <path id="Trazado_113643" data-name="Trazado 113643" d="M56.327,59.523c-5.378-1.065-13.584-1.355-17.344-.066L31.526,73.412c-.408.837,1.8,2.135,3.969.639,2.271-1.566,6.282-9.319,6.282-9.319s6.541.751,9.34,2.675Z" transform="translate(-10.736 -19.002)" fill="#ffc197"/>
        <path id="Trazado_113644" data-name="Trazado 113644" d="M68.141,57.766s8.235,13.527,12.637,15.739c1.684.846,10.38,5.5,20.477,10.926a120.9,120.9,0,0,1-8.048,13.295C83.736,91.408,75.4,86.2,73.462,86.078c-4.979-.319-10.353-1.646-18.83-5.48,0,0,1.5-6.054-1.422-7.292,6.886-1.154,2.254-6.971,1.466-7.811-1.175-3.354,6.764-12.257,13.464-7.73" transform="translate(-15.434 -18.559)" fill="#ffc197"/>
        <path id="Trazado_113645" data-name="Trazado 113645" d="M56.9,79.566s-3.635,6.317-6.472,5.308-9.474-2.721-11.86-2.814c-.685-.026-1.43-.04-2.279-.043-.694,0-1.945.1-2.4-.542-.5-.708.3-3.1,4.019-4.354,3.486-1.173,8.449.67,11.1.461,1.756.333,7.894,1.983,7.894,1.983" transform="translate(-11.227 -22.835)" fill="#ffc197"/>
        <path id="Trazado_113646" data-name="Trazado 113646" d="M36.646,81.043c-1.209.062-2.728,1.322-2.072,1.852a6.048,6.048,0,0,0,1.856.035c.85,0,1.772.089,2.457.116a3.649,3.649,0,0,0,.023-.434c.066-1.348-.669-1.65-2.264-1.568" transform="translate(-11.371 -23.744)" fill="#fc445b"/>
        <path id="Trazado_113647" data-name="Trazado 113647" d="M95.763,78.871h0c-4.625-2.492-9.578-5.155-14.722-7.917L75.36,67.907l-.814-.663-.785-.695a46.709,46.709,0,0,1-5.4-6.147c-1.629-2.177-3.091-4.346-4.429-6.365l-.746-1.126-2.137-5.374L55.345,35.792a.156.156,0,0,0-.082-.084.146.146,0,0,0-.113,0l-.449.2-.042.02a.758.758,0,0,0-.1.049l-.243.144a1.291,1.291,0,0,0-.2.138l-.059.045c-.021.018-.044.035-.066.052a.987.987,0,0,0-.158.137,2.775,2.775,0,0,0-.67.981,4.024,4.024,0,0,0-.159,2.119,9.047,9.047,0,0,0,.5,1.791c.066.179.14.349.216.522l.017.04c.031.074.063.147.1.227l.335.7,1.379,3.407q.113.276.209.508l-4.4-4.57-4.677-3.977-7.437-6.272a.61.61,0,0,1-.07-.06.33.33,0,0,0-.263-.121.242.242,0,0,0-.164.1l-.288.231c-.025.02-.036.03-.047.039l-.14.128a3.826,3.826,0,0,0-.607.714,3.057,3.057,0,0,0-.388.878,2.965,2.965,0,0,0-.089.95,3.923,3.923,0,0,0,.179.892,6.069,6.069,0,0,0,.767,1.51,11.059,11.059,0,0,0,.989,1.244,22.314,22.314,0,0,0,2.15,2.027l3.831,3.392c1.147,1,2.153,1.885,2.971,2.6l1.495,1.943L43.074,44.99c-.133-.074-.276-.138-.4-.194L31.217,39.664l-3.059-1.358a.133.133,0,0,0-.1-.006.17.17,0,0,0-.092.073l-.319.477a4.022,4.022,0,0,0-.64,1.749,3.012,3.012,0,0,0,.059.96,3.345,3.345,0,0,0,.339.871,4.1,4.1,0,0,0,.51.729,6.08,6.08,0,0,0,.6.607,9.649,9.649,0,0,0,1.313.954,18.672,18.672,0,0,0,2.714,1.346l.145.059,4.194,2.151,4.121,2.088,1.664,1.174,1.254.869c.187.128.352.238.492.331-.342.018-.681.039-1.032.063-1.2.084-2.32.2-3.426.355-.582.08-1.2.179-1.877.3l-.183.032a.166.166,0,0,0-.121.08L30,68.368a.153.153,0,0,0-.032.121.174.174,0,0,0,.1.124l.274.17a2.642,2.642,0,0,0,.318.183l.092.047a1.679,1.679,0,0,0,.235.1,3.211,3.211,0,0,0,1.48.235,3.339,3.339,0,0,0,.662-.118,4.607,4.607,0,0,0-.731,1.091,3.924,3.924,0,0,0-.325,1.053l-.032.276-.012.278.011.278.027.255a.385.385,0,0,0,.006.042l.092.479a.083.083,0,0,0,0,.017.055.055,0,0,0,.005.024.159.159,0,0,0,.144.089l.97-.026c.24-.009.48-.012.722-.015l.248,0c.324-.007.658,0,.971,0s.617,0,.973.016a38.581,38.581,0,0,1,3.9.294,40.536,40.536,0,0,1,8.965,2.3l1.068.406,1.018.478c.254.122.509.237.766.352l.468.211c.283.128.575.259.865.381,1.423.62,2.848,1.177,4.237,1.658a41.163,41.163,0,0,0,4.3,1.251,25.351,25.351,0,0,0,4.373.638,17.237,17.237,0,0,0,2.192-.019L68.806,81,70,81.724c1.211.733,2.427,1.491,3.5,2.16l.045.028c3.971,2.479,8.131,5.166,13.093,8.456l.682.453a.138.138,0,0,0,.19-.037l.289-.414a.142.142,0,0,0,.023-.107.138.138,0,0,0-.06-.088l-.691-.464c-4.9-3.284-9.061-5.991-13.081-8.517l-.027-.017c-1.144-.718-2.326-1.459-3.519-2.186L69.1,80.172a.2.2,0,0,0-.169-.048l-.634.049a16.586,16.586,0,0,1-2.087.013,30.971,30.971,0,0,1-8.436-1.857C56.406,77.854,55,77.3,53.6,76.689c-.279-.117-.562-.244-.836-.368l-.459-.207c-.259-.117-.519-.233-.777-.359l-.981-.464-.053-.023-1.12-.427a41.223,41.223,0,0,0-9.159-2.349c-.786-.1-1.633-.176-2.659-.234a1.708,1.708,0,0,0-.062-.654,1.957,1.957,0,0,0-.246-.547,1.587,1.587,0,0,0-.219-.266,1.271,1.271,0,0,0-.321-.229,1.9,1.9,0,0,0-.745-.191,4.8,4.8,0,0,0-.738.017,4.623,4.623,0,0,0-1.4.27,2.2,2.2,0,0,0-.588.341,1.953,1.953,0,0,0-.224.225,3.03,3.03,0,0,1,.19-.52,4.108,4.108,0,0,1,1.072-1.359,7.213,7.213,0,0,1,3.24-1.482c.324-.065.618-.11.9-.141.185-.021.324-.033.449-.04l.1-.008c.024,0,.046,0,.042-.006l.019,0,8.123.85.02,0a.39.39,0,0,0,.113,0l.076-.013c.111.045.218.084.335.121a7.987,7.987,0,0,0,3.827.2,1.791,1.791,0,0,0,.83-.308.185.185,0,0,0,.022-.118c-.035-.168-.2-.159-.8-.125a16.7,16.7,0,0,1-1.941.021c-.188-.009-.38-.024-.581-.043a6.476,6.476,0,0,0,.819-.244,6.685,6.685,0,0,0,2.134-1.3,6.141,6.141,0,0,0,.7-.749c.243-.313.517-.736.49-.9a.172.172,0,0,0-.064-.1c-.129-.086-.222.008-.529.327-.086.09-.188.195-.306.311s-.246.24-.387.366l-1.015-3.3q-.122-.4-.243-.789l-.111-.352a.172.172,0,0,0-.108-.134l-.536-.291c-.466-.252-.963-.5-1.478-.736a18.846,18.846,0,0,0-3.067-1.117,12.9,12.9,0,0,0-3.193-.457l-.125,0c-.221,0-.45.006-.673.025-.154.009-.282.021-.4.037l-.183.022a3.97,3.97,0,0,0-.433-.769c-.367-.518-.873-.964-1.105-.975a.174.174,0,0,0-.144.056c-.131.145.018.349.417.894.092.126.193.264.3.411s.2.289.293.418l.036.052c.056.081.109.157.158.225l-.7,1.326c-.521.96-1.006,1.8-1.481,2.582-.548.9-1.075,1.678-1.61,2.387a12.629,12.629,0,0,1-1.851,2.028,4.078,4.078,0,0,1-2.228,1.08,2.55,2.55,0,0,1-1.154-.18,1.106,1.106,0,0,1-.174-.078l-.091-.044c-.045-.021-.073-.035-.092-.046l6.54-12.666c.157-.3.312-.6.463-.9l.318-.621h0c.657-.126,1.271-.232,1.827-.314,1.086-.163,2.193-.291,3.383-.392,2.25-.185,4.164-.215,5.409-.222s2.239.018,2.971.035l1.309.032c.316,0,.412,0,.422-.14s-.082-.155-.42-.188c-.2-.018-.491-.043-.877-.07-.735-.048-1.887-.114-3.4-.139-1.333-.02-2.58-.006-3.812.045-.156-.138-.428-.36-.83-.679l-2.861-2.2L37.569,47.8l-4.534-2.415-.175-.075a18.438,18.438,0,0,1-2.581-1.312,8.866,8.866,0,0,1-1.189-.877,5.007,5.007,0,0,1-.513-.525,3.283,3.283,0,0,1-.407-.586,2.219,2.219,0,0,1-.286-1.322,2.543,2.543,0,0,1,.145-.609,2.252,2.252,0,0,0,.644.584A9.083,9.083,0,0,0,29.7,41.2a9.9,9.9,0,0,0,1.079.42,1.471,1.471,0,0,0,1.112-.017.907.907,0,0,0,.43-.477l8.223,3.634,1.787.783c.132.058.258.112.381.179l5.595,2.837c2.242,1.129,4,2,5.226,2.6.624.3,1.108.531,1.439.68.544.244.628.271.7.136s-.019-.2-.516-.493c-.32-.188-.786-.452-1.387-.783-.849-.469-1.973-1.078-3.34-1.81-.082-.132-.188-.3-.329-.51l-.652-.964-.923-1.326-2.939-2.732-3.773-3.468a22.028,22.028,0,0,1-2.056-1.982,10.321,10.321,0,0,1-.9-1.157,5.209,5.209,0,0,1-.651-1.3,3.081,3.081,0,0,1-.135-.683,2.108,2.108,0,0,1,.066-.669,2,2,0,0,1,.258-.578,2.359,2.359,0,0,0,.466.688,9.959,9.959,0,0,0,.853.845,10.1,10.1,0,0,0,.946.736,1.975,1.975,0,0,0,.53.272.888.888,0,0,0,.63-.028.905.905,0,0,0,.375-.327c.017-.024.032-.049.047-.073l2.681,2.25,5.9,4.922,3.618,3.612,2.819,2.78c.8.777,1.416,1.372,1.842,1.769.707.658.77.7.881.584s.088-.166-.569-.895c-.393-.435-.977-1.066-1.739-1.873L56.443,47.5l-.02-.063c-.1-.3-.261-.743-.47-1.316l-1.285-3.46-.323-.71c-.034-.089-.071-.177-.107-.267-.063-.152-.134-.324-.194-.5A8.428,8.428,0,0,1,53.6,39.5a3.45,3.45,0,0,1,.147-1.781,2.273,2.273,0,0,1,.477-.7,2.522,2.522,0,0,0,.023.55,4.742,4.742,0,0,0,.25,1,4.532,4.532,0,0,0,.216.494,1.941,1.941,0,0,0,.313.454,1.177,1.177,0,0,0,.468.309,1.19,1.19,0,0,0,.479.055,1.08,1.08,0,0,0,.489-.171l3.867,8.149,2.1,5.383a.258.258,0,0,0,.037.073l.773,1.185c1.333,2.034,2.794,4.221,4.433,6.426A47.1,47.1,0,0,0,73.166,67.2l.808.718.851.695c.012.009.025.021.056.041l5.743,3.085c5.028,2.7,9.986,5.356,14.736,7.9a.143.143,0,0,0,.106.009.138.138,0,0,0,.081-.068l.085-.162.189-.359a.14.14,0,0,0-.057-.188M54.955,36.522l1.309,2.766a.854.854,0,0,1-.3.04h0a.627.627,0,0,1-.463-.237,2.817,2.817,0,0,1-.379-.756,5.724,5.724,0,0,1-.248-.876,1.724,1.724,0,0,1-.039-.663.716.716,0,0,1,.108-.266Zm-13.08-1.189a.59.59,0,0,1-.254.192.37.37,0,0,1-.242-.023,1.569,1.569,0,0,1-.356-.222c-.306-.237-.6-.479-.88-.723s-.558-.508-.831-.781a1.634,1.634,0,0,1-.463-.642.518.518,0,0,1-.021-.143.694.694,0,0,1,.053-.054l.071-.065Zm-9.98,5.607a.521.521,0,0,1-.23.166c-.287.111-.8-.116-1.353-.358-.113-.05-.227-.1-.339-.148-.415-.19-.725-.344-.977-.483a1.777,1.777,0,0,1-.6-.492.852.852,0,0,1-.084-.151c.017-.032.036-.065.056-.1ZM33.067,72.2a1.242,1.242,0,0,1,.223-.437,1.5,1.5,0,0,1,.3-.294,1.77,1.77,0,0,1,.445-.222,4.89,4.89,0,0,1,1.234-.2,2.471,2.471,0,0,1,1.161.084,1.18,1.18,0,0,1,.542.649,1.593,1.593,0,0,1,.114.453l-.183-.01c-.227-.013-.455-.026-.68-.032-.331-.01-.631-.016-.918-.016h-.074l-.456,0c-.174,0-.354,0-.532,0l-.218,0c-.256,0-.512.007-.766.016Zm2.793-4.779q.154-.157.311-.33c.288-.312.575-.659.935-1.126.558-.734,1.1-1.534,1.663-2.444.486-.786.981-1.641,1.513-2.612l.655-1.225.1-.012h0c.1-.014.218-.024.364-.032.2-.017.408-.02.623-.021l.113,0a12.125,12.125,0,0,1,2.986.44,18.286,18.286,0,0,1,2.931,1.079c.494.229.974.47,1.427.716l.313.172L50.978,65.9a1.111,1.111,0,0,1-.08.09l-.048.05a3.216,3.216,0,0,1-.233.229l-.053.048a4.5,4.5,0,0,1-.665.472,6.271,6.271,0,0,1-1.558.631c-.3.083-.611.143-.844.186l-.283.047L39.1,66.792l-.02,0a.54.54,0,0,0-.066-.006l-.031,0L38.8,66.8c-.143.009-.3.023-.489.044-.3.032-.619.082-.975.152a9.668,9.668,0,0,0-1.474.428M55.2,35.77h0v-.006Z" transform="translate(-9.767 -13.33)"/>
      </g>
    </g>
    <g id="Grupo_56744" data-name="Grupo 56744" transform="translate(0 0)">
      <g id="Grupo_56743" data-name="Grupo 56743" clip-path="url(#clip-path)">
        <path id="Trazado_113649" data-name="Trazado 113649" d="M2.773,92.853l4.582,4.608,9-9.054,5.786,5.821,1.771-9.906,1.768-9.906L15.835,76.2,5.987,77.979,11.774,83.8Z" transform="translate(-0.6 -15.736)" fill="#ffdc59" fill-rule="evenodd"/>
      </g>
    </g>
  </g>
</svg>
