<svg id="Grupo_56689" data-name="Grupo 56689" xmlns="http://www.w3.org/2000/svg" xmlns:xlink="http://www.w3.org/1999/xlink" width="59.49" height="118.679" viewBox="0 0 59.49 118.679">
  <defs>
    <clipPath id="clip-path">
      <rect id="Rectángulo_33949" data-name="Rectángulo 33949" width="59.49" height="118.679" fill="rgba(0,0,0,0)"/>
    </clipPath>
  </defs>
  <path id="Trazado_101319" data-name="Trazado 101319" d="M50.98,320.073v-1.809H7.486v10.388H50.98Z" transform="translate(-4.995 -212.369)" fill="#387db8"/>
  <path id="Trazado_101320" data-name="Trazado 101320" d="M19.6,302.844H54.959v-4.117H16.816v4.117H19.6Z" transform="translate(-11.221 -199.332)" fill="#fff"/>
  <g id="Grupo_56688" data-name="Grupo 56688">
    <g id="Grupo_56687" data-name="Grupo 56687" clip-path="url(#clip-path)">
      <path id="Trazado_101321" data-name="Trazado 101321" d="M15.8,95.292a15.04,15.04,0,0,0,6.82-.59,10.585,10.585,0,0,0,2.671-1.258A1.2,1.2,0,0,1,26.7,95.383,15.592,15.592,0,0,1,18,97.847a18.451,18.451,0,0,1-4.153-.483,33.915,33.915,0,0,1,.5,4.432h30a16.063,16.063,0,0,1,.325-3.972,1.17,1.17,0,0,1-.591-.253,1.2,1.2,0,0,1-.171-1.686c.334-.415.657-.811.978-1.216s.622-.785.923-1.167c.6-.765,1.171-1.524,1.729-2.273q.9-1.2,1.726-2.37C63.53,68.752,62.454,56.876,61.169,52.427c-.9-3.119-2.442-4.694-3.207-4.947a8.435,8.435,0,0,0-3.62-.545,17.763,17.763,0,0,1-4.183-.3c-.377-.062-.784-.142-1.229-.237-.379-.094-.791-.181-1.228-.3-.137-.029-.267-.065-.407-.1a3.281,3.281,0,0,0-3.256.921,2.434,2.434,0,0,0-.278,2.717,7.837,7.837,0,0,0,4.4,4.494,11.52,11.52,0,0,0,1.216.428c.416.126.826.227,1.213.324a.176.176,0,0,0,.054.013c.486.123.941.23,1.362.373a4.421,4.421,0,0,1,1.315.606,1.188,1.188,0,0,1,.3,1.654,1.2,1.2,0,0,1-1.654.321,2.762,2.762,0,0,0-.635-.288,2.993,2.993,0,0,0-.542-.094,3.029,3.029,0,0,0-1.2.1,4.538,4.538,0,0,0-1.154.519,7.416,7.416,0,0,0-1.683,1.537,1.217,1.217,0,0,1-1.688.156,1.2,1.2,0,0,1-.154-1.686,10,10,0,0,1,2.02-1.874,10.148,10.148,0,0,1-5.374-5.641,5.385,5.385,0,0,1-.354-1.1,1.126,1.126,0,0,1-.756.389,1.194,1.194,0,0,1-1.322-1.044c-.025-.256-3.008-25.9-3.473-34.458-.248-4.523-1.324-6.929-3.2-7.152a2.345,2.345,0,0,0-1.937.545c-1.387,1.212-2.129,4.241-2.214,9.026.657,5.333.881,31.219.887,32.324a1.194,1.194,0,0,1-2.386.088c-.013-.185-1.1-18.513-.895-32.282-.261-1.9-.813-3.191-1.653-3.836a3.124,3.124,0,0,0-2.428-.483c-2.653.357-3.5,6.52-2.952,12.139q.047.472.078,1.118a7.6,7.6,0,0,1,.053,5.509c-.032,2.36-.119,5.029-.259,7.674-.468,8.9-1.128,11.292-1.568,12.109a8.406,8.406,0,0,0,.182,1.271,1.555,1.555,0,0,1,.151.22,1.2,1.2,0,0,1-.48,1.624A1.25,1.25,0,0,1,15.512,54a.994.994,0,0,1-.129-.159,5.125,5.125,0,0,1-.481-1.919c-.049-.37-.095-.8-.133-1.323-.031-.386-.059-.824-.083-1.32-.07-1.381-.11-3.164-.1-5.5.02-4.221.225-9.561,1.135-11.011a10.418,10.418,0,0,0,.921-1.825,5.255,5.255,0,0,0,.088-4.237c-.043-.075-.081-.156-.127-.224a1.3,1.3,0,0,0-.8-.671c-3.726-.275-5.5,6.958-5.826,8.414-.618,2.814-1.4,7.8-1.957,13.095-.044.409-.083.821-.125,1.229-.34,3.44-.574,6.961-.605,10.051H7.29c0,.1-.006.211-.01.314V59.3c0,.052-.011.094-.015.142-.526,17.229,1.3,28.784,5.558,35.165a17.983,17.983,0,0,0,2.98.684" transform="translate(-4.789 -4.794)" fill="#fabfa3"/>
      <path id="Trazado_101322" data-name="Trazado 101322" d="M104.346,60.938a4.846,4.846,0,0,1,.885-1.547,5.6,5.6,0,0,1,5.219-1.77c-.795-7.742-1.774-16.8-2.429-22.821l-.289-2.7c-.41-3.758-2.386-3.852-3.031-3.878a3.014,3.014,0,0,0-2.277.583c-.609.6-.864,1.809-.814,3.832.073,2.756,2.121,22.442,2.736,28.3" transform="translate(-67.797 -18.826)" fill="#fabfa3"/>
      <path id="Trazado_101323" data-name="Trazado 101323" d="M7.166,97H4.4a1.2,1.2,0,0,0-1.2,1.193v5.317H1.293A1.192,1.192,0,0,0,.1,104.7v12.781a1.2,1.2,0,0,0,1.2,1.2H47.184a1.2,1.2,0,0,0,1.193-1.2V104.7a1.192,1.192,0,0,0-1.193-1.19H46.128V98.195A1.2,1.2,0,0,0,44.932,97H41.947a13.016,13.016,0,0,1,.248-3.356c.3-.979.647-2.305,1.019-3.868,7.038-9.1,11.868-17.644,14.352-25.428,2.663-8.335,2.076-14.055,1.115-17.381s-2.828-5.907-4.743-6.549a10.786,10.786,0,0,0-4.46-.671,16.366,16.366,0,0,1-4.36-.389c-.809-7.917-1.838-17.407-2.514-23.645l-.29-2.7c-.566-5.236-3.9-5.94-5.311-6a5.305,5.305,0,0,0-3.839,1.07C32.906,5.265,32,.519,27.956.042a4.692,4.692,0,0,0-3.793,1.115c-1.48,1.294-2.24,3.469-2.629,5.768a5.137,5.137,0,0,0-.6-.541,5.418,5.418,0,0,0-4.2-.953c-4.35.58-5.481,7.2-5.132,13.26a2,2,0,0,0-.422-.062c-5.38-.4-7.619,7.061-8.334,10.288a147.408,147.408,0,0,0-2.308,16.6v.013c-.256,3-.426,5.985-.439,8.644-.579,18.25,1.447,30.492,6.157,37.285A17.364,17.364,0,0,1,7.166,97m3.842-75.986a1.3,1.3,0,0,1,.8.671c.046.068.085.149.127.224a5.257,5.257,0,0,1-.088,4.237,10.433,10.433,0,0,1-.922,1.825c-.91,1.449-1.115,6.789-1.135,11.01-.006,2.341.034,4.124.1,5.505.024.5.052.934.083,1.32.038.519.084.953.133,1.323a5.137,5.137,0,0,0,.481,1.92,1.024,1.024,0,0,0,.129.159,1.25,1.25,0,0,0,1.529.253,1.2,1.2,0,0,0,.48-1.624,1.559,1.559,0,0,0-.151-.221,8.359,8.359,0,0,1-.181-1.271c.44-.817,1.1-3.213,1.568-12.11.14-2.646.227-5.314.259-7.674a7.594,7.594,0,0,0-.053-5.508q-.03-.647-.078-1.119c-.549-5.618.3-11.782,2.952-12.139a3.122,3.122,0,0,1,2.428.483c.84.645,1.392,1.932,1.653,3.835-.207,13.77.882,32.1.895,32.282a1.194,1.194,0,0,0,2.386-.088c-.007-1.106-.23-26.991-.888-32.324.085-4.786.828-7.814,2.214-9.026a2.345,2.345,0,0,1,1.937-.545c1.872.224,2.947,2.629,3.195,7.152.465,8.559,3.448,34.2,3.473,34.458a1.194,1.194,0,0,0,1.322,1.044,1.126,1.126,0,0,0,.756-.389,5.392,5.392,0,0,0,.354,1.1,10.149,10.149,0,0,0,5.374,5.641,10,10,0,0,0-2.02,1.874,1.2,1.2,0,0,0,.154,1.686,1.217,1.217,0,0,0,1.688-.156,7.4,7.4,0,0,1,1.683-1.537,4.543,4.543,0,0,1,1.154-.519,3.429,3.429,0,0,1,1.738-.007,2.794,2.794,0,0,1,.636.288,1.2,1.2,0,0,0,1.654-.321,1.188,1.188,0,0,0-.3-1.653,4.419,4.419,0,0,0-1.316-.606c-.421-.143-.875-.25-1.362-.373a.167.167,0,0,1-.054-.013c-.387-.1-.8-.2-1.213-.324a11.674,11.674,0,0,1-1.216-.428,7.839,7.839,0,0,1-4.4-4.494,2.434,2.434,0,0,1,.278-2.717,3.279,3.279,0,0,1,3.256-.921c.14.039.27.075.407.1.437.113.848.2,1.228.3.445.094.852.175,1.229.237a17.755,17.755,0,0,0,4.183.3,8.446,8.446,0,0,1,3.62.545c.765.253,2.3,1.829,3.207,4.948,1.285,4.448,2.361,16.324-11.905,36.432-.553.785-1.128,1.572-1.726,2.37-.558.749-1.132,1.508-1.729,2.273-.3.383-.611.775-.923,1.167s-.643.8-.978,1.216a1.2,1.2,0,0,0,.171,1.686,1.174,1.174,0,0,0,.591.253A16.05,16.05,0,0,0,39.556,97h-30a33.914,33.914,0,0,0-.5-4.432,18.452,18.452,0,0,0,4.153.483,15.6,15.6,0,0,0,8.709-2.464A1.2,1.2,0,0,0,20.5,88.65a10.591,10.591,0,0,1-2.671,1.258,15.04,15.04,0,0,1-6.82.59,17.984,17.984,0,0,1-2.98-.684C3.782,83.434,1.95,71.879,2.476,54.65c0-.049.015-.091.015-.142v-.389c0-.1.006-.211.01-.314H2.494c.032-3.09.265-6.611.605-10.051.042-.408.081-.82.125-1.229.557-5.3,1.338-10.281,1.956-13.1.323-1.456,2.1-8.689,5.826-8.413M34.627,9.976A3.014,3.014,0,0,1,36.9,9.393c.645.026,2.622.12,3.031,3.878l.289,2.7c.655,6.021,1.635,15.079,2.429,22.821a5.6,5.6,0,0,0-5.219,1.77,4.837,4.837,0,0,0-.885,1.547c-.615-5.862-2.663-25.548-2.736-28.3-.05-2.023.205-3.232.814-3.832m9.112,89.419v4.117H5.6V99.395H43.739ZM2.491,105.9H45.986v10.388H2.491Z" transform="translate(0 0)" fill="#2e1200"/>
    </g>
  </g>
</svg>
