<svg xmlns="http://www.w3.org/2000/svg" xmlns:xlink="http://www.w3.org/1999/xlink" width="90" height="90" viewBox="0 0 90 90">
  <defs>
    <clipPath id="clip-path">
      <rect id="Rectángulo_34010" data-name="Rectángulo 34010" width="90" height="90" fill="none"/>
    </clipPath>
    <clipPath id="clip-path-3">
      <rect id="Rectángulo_33987" data-name="Rectángulo 33987" width="85.576" height="86.548" fill="none"/>
    </clipPath>
    <clipPath id="clip-path-4">
      <rect id="Rectángulo_33988" data-name="Rectángulo 33988" width="60.297" height="68.579" fill="none"/>
    </clipPath>
  </defs>
  <g id="Grupo_56771" data-name="Grupo 56771" transform="translate(0.132 -0.157)">
    <g id="Grupo_56770" data-name="Grupo 56770" transform="translate(-0.132 0.157)" clip-path="url(#clip-path)">
      <g id="Grupo_56769" data-name="Grupo 56769">
        <g id="Grupo_56768" data-name="Grupo 56768" clip-path="url(#clip-path)">
          <g id="Grupo_56764" data-name="Grupo 56764" transform="translate(2.12 1.848)" opacity="0.41" style="mix-blend-mode: color-burn;isolation: isolate">
            <g id="Grupo_56763" data-name="Grupo 56763">
              <g id="Grupo_56762" data-name="Grupo 56762" clip-path="url(#clip-path-3)">
                <path id="Trazado_113722" data-name="Trazado 113722" d="M88.034,45.732c0,23.9-19.157,43.274-42.788,43.274S2.458,69.632,2.458,45.732,21.614,2.458,45.246,2.458,88.034,21.833,88.034,45.732" transform="translate(-2.458 -2.458)" fill="#8a8a8a"/>
              </g>
            </g>
          </g>
          <path id="Trazado_113723" data-name="Trazado 113723" d="M44.774,90.565C20.085,90.565,0,70.251,0,45.282S20.085,0,44.774,0,89.548,20.313,89.548,45.282,69.462,90.565,44.774,90.565m0-86.549c-22.5,0-40.8,18.512-40.8,41.265s18.3,41.266,40.8,41.266,40.8-18.512,40.8-41.266-18.3-41.265-40.8-41.265" transform="translate(0.134 -0.161)" fill="#387db8"/>
          <g id="Grupo_56767" data-name="Grupo 56767" transform="translate(14.968 11.043)" opacity="0.7" style="mix-blend-mode: multiply;isolation: isolate">
            <g id="Grupo_56766" data-name="Grupo 56766">
              <g id="Grupo_56765" data-name="Grupo 56765" clip-path="url(#clip-path-4)">
                <path id="Trazado_113724" data-name="Trazado 113724" d="M65.451,91.146a.217.217,0,1,0,.217-.22.219.219,0,0,0-.217.22" transform="translate(-27.403 -27.83)" fill="gray" fill-rule="evenodd"/>
                <path id="Trazado_113725" data-name="Trazado 113725" d="M36.259,80.085a.659.659,0,1,0-.651-.659.656.656,0,0,0,.651.659" transform="translate(-21.672 -25.607)" fill="gray" fill-rule="evenodd"/>
                <path id="Trazado_113726" data-name="Trazado 113726" d="M78.607,74.312l-1.071-2.227a.5.5,0,0,0-.667-.231l-8.6,4.346L66.2,71.824h0l.544,1.15.109-.062a10.879,10.879,0,0,1,.747,1.875c.38.924,1.189,1.13,2.506.485l6.764-3.417c.592-.5-.067-1.193-1.064-.6a20.434,20.434,0,0,0-4.839.315,2.279,2.279,0,0,1-1.133-.364L70,71.107,64.545,57.136c-1.353-2.789-5.017-3.32-8.394-3.514V50.964a9.187,9.187,0,0,0-.191-1.912.591.591,0,0,0,.6-.452,6.961,6.961,0,0,0,.076-2.9A3.716,3.716,0,0,0,54.9,43.284a5.589,5.589,0,0,0-3.1-.637A2.6,2.6,0,0,0,51.7,42.2c-.9-.177-1.891-.34-2.915-.492a56.5,56.5,0,0,0-5.64-10.605c0-1.008-.4-1.237,0-2.378a3.076,3.076,0,0,0-.3-.238,3.554,3.554,0,0,1,1.334-1.584,11.845,11.845,0,0,0,3.176-.288.573.573,0,0,0,.47-.835A1.74,1.74,0,0,1,47.565,25c-.025-.312.415-.476.385-.668-.016-.159-.232-.311-.5-.332.265-.1.394-.218.387-.387a1.97,1.97,0,0,1-.365-.934c.57-.573,1.461-.5,1.405-1.242-.183-.806-1.433-1.071-2.072-1.951-.25-.964.007-1.585-.47-2.712a1.427,1.427,0,0,0,.074-.48c-2.135-3.379-7.142-3.515-9.776.018-1.513,2.478-.2,5.092,1.276,7.816a4.666,4.666,0,0,1-.321,2.112c-.213-.047-.423-.089-.625-.118a4.973,4.973,0,0,1-.9,2.009h0c-2.229,2.4-2.825,6.406-2.765,10.416a5.561,5.561,0,0,0-1.134-2.083,4.3,4.3,0,0,0-3.309-1.477H27.007v-.2a.4.4,0,0,0-.4-.4H19.318a.4.4,0,0,0-.4.4v3.021a.4.4,0,0,0,.4.4h7.294a.4.4,0,0,0,.4-.4v-.263h1.858a1.856,1.856,0,0,1,1.432.628,3.652,3.652,0,0,1,.78,2.113L32.152,52.8A14.749,14.749,0,1,0,47.426,69.309h8.159v2.561a5.208,5.208,0,1,0,2.06,0V65.754H57.6l.1-.057-.949-4.02H58.61l7.4,15.663-.038.019a.509.509,0,0,0-.229.673l1.071,2.228a.5.5,0,0,0,.667.232l10.894-5.5a.511.511,0,0,0,.229-.675M59.966,75.745l-2.671.877a.739.739,0,0,0-.082-.113l1.651-2.3a3.615,3.615,0,0,1,1.1,1.535m.236,1.282a3.664,3.664,0,0,1-.128.948L57.4,77.1a.335.335,0,0,0,0-.139l2.672-.878a3.63,3.63,0,0,1,.128.948m-1.337,2.818-1.651-2.3a.707.707,0,0,0,.082-.114l2.671.878a3.625,3.625,0,0,1-1.1,1.535m-5.578-1.535,2.671-.878a.708.708,0,0,0,.082.114l-1.651,2.3a3.62,3.62,0,0,1-1.1-1.535m-.236-1.282a3.63,3.63,0,0,1,.128-.948l2.672.878a.335.335,0,0,0,0,.139l-2.672.878a3.63,3.63,0,0,1-.128-.948m1.336-2.818,1.652,2.3a.8.8,0,0,0-.082.113l-2.67-.877a3.614,3.614,0,0,1,1.1-1.535m2.675,2.818a.436.436,0,1,1-.436-.441.438.438,0,0,1,.436.441m-.61-.771a.757.757,0,0,0-.134.043L54.668,74a3.526,3.526,0,0,1,1.784-.583Zm-.134,1.5a.757.757,0,0,0,.134.043v2.836a3.53,3.53,0,0,1-1.783-.583Zm.482.043a.821.821,0,0,0,.133-.043l1.65,2.3a3.53,3.53,0,0,1-1.783.583Zm.133-1.5a.757.757,0,0,0-.134-.043V73.42A3.523,3.523,0,0,1,58.583,74ZM66.2,71.821l-1.277-2.7Zm-5.89-12.314c-.009-.009-.017-.02-.027-.029l.027.029m-.18-.158-.008,0,0,0,0,0M45.321,67.531a12.641,12.641,0,0,1-.456,3.363l-9.585-3.15c.006-.07.01-.141.01-.212s0-.143-.01-.213l9.585-3.15a12.647,12.647,0,0,1,.456,3.363m-24.748,0a12.641,12.641,0,0,1,.456-3.363l9.585,3.149c-.006.07-.011.141-.011.213s0,.142.011.212l-9.585,3.15a12.641,12.641,0,0,1-.456-3.363m13.3-2.18a2.3,2.3,0,0,0-.4-.13V61.676h3.041ZM50.441,46.534h1.273c2.828.065,3.143,2.524,3.143,4.752a13.088,13.088,0,0,1-3.23.179q-.482-2.5-1.185-4.931M32.947,66.21a1.321,1.321,0,1,1-1.306,1.321,1.314,1.314,0,0,1,1.306-1.321m-.922,3.5a2.371,2.371,0,0,0,.4.13V80.033A12.209,12.209,0,0,1,26.1,77.956Zm1.443.13a2.3,2.3,0,0,0,.4-.13l5.923,8.245a12.216,12.216,0,0,1-6.324,2.076Zm11.078-6.675-9.589,3.15a2.342,2.342,0,0,0-.246-.343l3.086-4.3h6.086a12.471,12.471,0,0,1,.663,1.49M53.874,45.81l-.041-.024.035.011Zm-1.463-.518a4.982,4.982,0,0,0-.7-.068h-.761q.137-.175.255-.351ZM32.426,55.986v9.235a2.3,2.3,0,0,0-.4.13L26.1,57.106a12.208,12.208,0,0,1,6.242-2.075ZM25.26,57.728l5.923,8.244a2.394,2.394,0,0,0-.246.344l-9.588-3.15a12.532,12.532,0,0,1,3.911-5.438M21.349,71.9l9.588-3.15a2.342,2.342,0,0,0,.246.343l-5.922,8.245A12.532,12.532,0,0,1,21.349,71.9m19.285,5.438L34.711,69.09a2.306,2.306,0,0,0,.246-.344L44.546,71.9a12.539,12.539,0,0,1-3.912,5.438m14.99-11.581h-8.2a14.8,14.8,0,0,0-1.088-4.078H54.7Z" transform="translate(-18.36 -13.711)" fill="gray" fill-rule="evenodd"/>
              </g>
            </g>
          </g>
          <path id="Trazado_113727" data-name="Trazado 113727" d="M40.3,27.276a4.184,4.184,0,0,0,1.294-4.194c-1.155-2.013-1.849-4.025-.917-6.023a5.36,5.36,0,0,1,9.034-1.5c1.025,1.671.58,2.335.882,3.5.641.879,1.889,1.145,2.072,1.951.057.739-.835.669-1.405,1.242a1.978,1.978,0,0,0,.365.934c.007.169-.121.288-.387.387.267.021.483.174.5.332.03.192-.41.355-.385.668a1.737,1.737,0,0,0,.255.784.573.573,0,0,1-.47.836,11.913,11.913,0,0,1-3.176.288A4.35,4.35,0,0,0,46.2,29.457Z" transform="translate(-7.593 -2.664)" fill="#ffceb0" fill-rule="evenodd"/>
          <path id="Trazado_113728" data-name="Trazado 113728" d="M80.1,83.055a3.094,3.094,0,0,0,1.722.766,20.434,20.434,0,0,1,4.839-.315c1-.588,1.656.107,1.063.6l-6.764,3.417c-1.317.646-2.126.44-2.5-.485a10.085,10.085,0,0,0-1.4-2.965Z" transform="translate(-14.662 -15.347)" fill="#ffceb0" fill-rule="evenodd"/>
          <path id="Trazado_113729" data-name="Trazado 113729" d="M37.279,50.159C36.4,44.711,34.96,34.6,39.41,30.375c1.437-1.364,4.629,1.318,6.032,2.2a54.564,54.564,0,0,1,9.88,25.632Z" transform="translate(-6.844 -5.645)" fill="#f0764e" fill-rule="evenodd"/>
          <path id="Trazado_113730" data-name="Trazado 113730" d="M39.76,30.391a4.973,4.973,0,0,0,.9-2.009,15.923,15.923,0,0,1,6.179,2.608c-.4,1.146.008,1.371,0,2.39a20.159,20.159,0,0,0-7.075-2.988" transform="translate(-7.501 -5.35)" fill="#ee5f30" fill-rule="evenodd"/>
          <path id="Trazado_113731" data-name="Trazado 113731" d="M40.451,36.53a27.071,27.071,0,0,0,2.724,11.908h11.6a3.136,3.136,0,0,0,.747-3.02c-2.641-.518-6.118-.945-8.791-1.209a58,58,0,0,0-.834-7.567c-.741-4.153-5.51-3.921-5.448-.111" transform="translate(-7.634 -6.304)" fill="#ee5f30" fill-rule="evenodd"/>
          <path id="Trazado_113732" data-name="Trazado 113732" d="M58.775,48.605a5.854,5.854,0,0,1,3.345.636,3.722,3.722,0,0,1,1.738,2.421,6.96,6.96,0,0,1-.075,2.9.547.547,0,0,1-1.046.118l-1.651-2.92L58.16,50.738a2.873,2.873,0,0,1,.615-2.133" transform="translate(-11.03 -9.048)" fill="#ffceb0" fill-rule="evenodd"/>
          <path id="Trazado_113733" data-name="Trazado 113733" d="M59.467,61.751c3.76.407,10.591-.3,12.554,3.747l5.45,13.971L74.22,81.336,68.149,68.493c-.2-.314-.28-.631-.548-.784a2.7,2.7,0,0,0-1.058-.227H59.6Z" transform="translate(-11.286 -11.452)" fill="#1f473d" fill-rule="evenodd"/>
          <path id="Trazado_113734" data-name="Trazado 113734" d="M34.038,63.851,32.377,44.533a3.646,3.646,0,0,0-.78-2.113,1.85,1.85,0,0,0-1.431-.628H27.31V39.233h2.856a4.292,4.292,0,0,1,3.309,1.477,6.179,6.179,0,0,1,1.423,3.6l1.661,19.318Z" transform="translate(-5.11 -7.334)" fill="#3b3b3b" fill-rule="evenodd"/>
          <path id="Trazado_113735" data-name="Trazado 113735" d="M26.229,38.5H18.935a.4.4,0,0,0-.4.4V41.92a.4.4,0,0,0,.4.4h7.294a.4.4,0,0,0,.4-.4V38.9a.4.4,0,0,0-.4-.4" transform="translate(-3.426 -7.2)" fill="#121212" fill-rule="evenodd"/>
          <path id="Trazado_113736" data-name="Trazado 113736" d="M58.913,65.956H36.239l-1.318-14.2H54.476c2.944.067,4.437,2.4,4.437,5.741Zm-1.3-8.136c0-2.228-.315-4.687-3.142-4.753H50.188c-.1,3.721,1.96,5.654,7.429,4.753" transform="translate(-6.572 -9.625)" fill="#121212" fill-rule="evenodd"/>
          <path id="Trazado_113737" data-name="Trazado 113737" d="M35.845,71.31l-.264-2.6,26.71.042a1.268,1.268,0,0,1,1.188.838l8.077,17.089a1.28,1.28,0,0,1-.593,1.7,1.254,1.254,0,0,1-1.681-.6L61.5,71.31Z" transform="translate(-6.699 -12.724)" fill="#3b3b3b" fill-rule="evenodd"/>
          <rect id="Rectángulo_33989" data-name="Rectángulo 33989" width="10.281" height="3.555" transform="translate(43.553 62.664)" fill="#121212"/>
          <rect id="Rectángulo_33990" data-name="Rectángulo 33990" width="2.06" height="7.47" transform="translate(51.775 62.664)" fill="#121212"/>
          <path id="Trazado_113738" data-name="Trazado 113738" d="M65.609,74.793l-2.128-9.021-1.765,1.053,2.051,9.066Z" transform="translate(-11.717 -12.187)" fill="#121212" fill-rule="evenodd"/>
          <rect id="Rectángulo_33991" data-name="Rectángulo 33991" width="0.347" height="4.132" transform="translate(52.642 69.189)" fill="#1f473d"/>
          <path id="Trazado_113739" data-name="Trazado 113739" d="M61.615,86.059l.281-.208,2.4,3.343-.282.206Z" transform="translate(-11.698 -15.858)" fill="#1f473d" fill-rule="evenodd"/>
          <path id="Trazado_113749" data-name="Trazado 113749" d="M0,0H.351L.337,4.089H-.014Z" transform="translate(48.298 72.637) rotate(-71.986)" fill="#1f473d"/>
          <path id="Trazado_113750" data-name="Trazado 113750" d="M0,0,4.09-.014V.338L0,.351Z" transform="translate(48.298 75.237) rotate(-18.014)" fill="#1f473d"/>
          <path id="Trazado_113751" data-name="Trazado 113751" d="M0,0,4.115-.022l0,.349L0,.349Z" transform="translate(49.916 77.674) rotate(-53.983)" fill="#1f473d"/>
          <rect id="Rectángulo_33995" data-name="Rectángulo 33995" width="0.347" height="4.132" transform="translate(52.642 74.552)" fill="#1f473d"/>
          <path id="Trazado_113752" data-name="Trazado 113752" d="M0,0,.349,0,.327,4.114l-.349,0Z" transform="matrix(0.809, -0.588, 0.588, 0.809, 53.032, 74.539)" fill="#1f473d"/>
          <path id="Trazado_113753" data-name="Trazado 113753" d="M0,0H.351L.337,4.088H-.014Z" transform="translate(53.341 74.294) rotate(-71.986)" fill="#1f473d"/>
          <path id="Trazado_113754" data-name="Trazado 113754" d="M0,0,4.09-.014V.338L0,.351Z" transform="matrix(0.951, -0.309, 0.309, 0.951, 53.341, 73.58)" fill="#1f473d"/>
          <path id="Trazado_113740" data-name="Trazado 113740" d="M67.873,85.852l.281.208-2.4,3.341-.281-.206Z" transform="translate(-12.439 -15.858)" fill="#1f473d" fill-rule="evenodd"/>
          <path id="Trazado_113741" data-name="Trazado 113741" d="M65.151,90.849a.22.22,0,1,0-.217-.22.219.219,0,0,0,.217.22" transform="translate(-12.335 -16.692)" fill="#121212" fill-rule="evenodd"/>
          <path id="Trazado_113742" data-name="Trazado 113742" d="M65.017,89.71a.791.791,0,1,1-.782.792.786.786,0,0,1,.782-.792m0,.351a.441.441,0,1,0,.436.441.439.439,0,0,0-.436-.441" transform="translate(-12.201 -16.564)" fill="#3b3b3b" fill-rule="evenodd"/>
          <path id="Trazado_113743" data-name="Trazado 113743" d="M63.966,84.237a5.263,5.263,0,1,1-5.2,5.263,5.234,5.234,0,0,1,5.2-5.263m0,1.647A3.617,3.617,0,1,0,67.542,89.5a3.6,3.6,0,0,0-3.576-3.617" transform="translate(-11.15 -15.563)" fill="#3b3b3b" fill-rule="evenodd"/>
          <rect id="Rectángulo_33999" data-name="Rectángulo 33999" width="1.042" height="12.382" transform="translate(28.616 50.214)" fill="#1f473d"/>
          <path id="Trazado_113755" data-name="Trazado 113755" d="M0,0,1.046-.006.98,12.328l-1.046.006Z" transform="translate(20.448 53.242) rotate(-36.008)" fill="#1f473d"/>
          <path id="Trazado_113756" data-name="Trazado 113756" d="M0,0,1.053,0,1.012,12.253l-1.053,0Z" transform="translate(15.599 60.543) rotate(-71.973)" fill="#1f473d"/>
          <path id="Trazado_113757" data-name="Trazado 113757" d="M0,0,12.256-.041l0,1.053L0,1.053Z" transform="translate(15.599 68.339) rotate(-18.027)" fill="#1f473d"/>
          <path id="Trazado_113758" data-name="Trazado 113758" d="M0,0,12.334-.066,12.329.98-.006,1.046Z" transform="matrix(0.588, -0.809, 0.809, 0.588, 20.447, 75.64)" fill="#1f473d"/>
          <rect id="Rectángulo_34004" data-name="Rectángulo 34004" width="1.042" height="12.382" transform="translate(28.616 66.284)" fill="#1f473d"/>
          <path id="Trazado_113759" data-name="Trazado 113759" d="M0,0,1.046-.006.98,12.329l-1.046.006Z" transform="matrix(0.809, -0.588, 0.588, 0.809, 29.787, 66.243)" fill="#1f473d"/>
          <path id="Trazado_113760" data-name="Trazado 113760" d="M0,0,1.053,0,1.012,12.253l-1.053,0Z" transform="translate(30.71 65.513) rotate(-72.015)" fill="#1f473d"/>
          <path id="Trazado_113761" data-name="Trazado 113761" d="M0,0,12.256-.041l0,1.053L0,1.053Z" transform="matrix(0.951, -0.309, 0.309, 0.951, 30.71, 63.368)" fill="#1f473d"/>
          <path id="Trazado_113762" data-name="Trazado 113762" d="M0,0,12.334-.066,12.328.98-.006,1.046Z" transform="matrix(0.588, -0.809, 0.809, 0.588, 29.787, 62.639)" fill="#1f473d"/>
          <path id="Trazado_113744" data-name="Trazado 113744" d="M32.43,61A14.754,14.754,0,1,1,17.843,75.756,14.671,14.671,0,0,1,32.43,61m0,2.238A12.516,12.516,0,1,0,44.8,75.756,12.445,12.445,0,0,0,32.43,63.241" transform="translate(-3.293 -11.315)" fill="#3b3b3b" fill-rule="evenodd"/>
          <path id="Trazado_113745" data-name="Trazado 113745" d="M35.742,79.568a.659.659,0,1,0-.651-.659.656.656,0,0,0,.651.659" transform="translate(-6.605 -14.469)" fill="#121212" fill-rule="evenodd"/>
          <path id="Trazado_113746" data-name="Trazado 113746" d="M35.34,76.156A2.371,2.371,0,1,1,33,78.527a2.358,2.358,0,0,1,2.344-2.371m0,1.049a1.321,1.321,0,1,0,1.306,1.321,1.314,1.314,0,0,0-1.306-1.321" transform="translate(-6.202 -14.086)" fill="#3b3b3b" fill-rule="evenodd"/>
          <path id="Trazado_113747" data-name="Trazado 113747" d="M87.6,84.335l-10.895,5.5a.511.511,0,0,0-.229.674l1.071,2.227a.5.5,0,0,0,.667.232l10.894-5.5a.51.51,0,0,0,.229-.674L88.27,84.568a.5.5,0,0,0-.667-.232" transform="translate(-14.543 -15.572)" fill="#121212" fill-rule="evenodd"/>
          <path id="Trazado_113748" data-name="Trazado 113748" d="M50.076,15.777c0,2.165-3.406.295-4.079,5.023l-.347.062c-.332-1-2.156-.823-1.975.4a4.031,4.031,0,0,1-.528,2.131,1.1,1.1,0,0,1-1.568.22C40.1,20.89,38.784,18.275,40.3,15.8c2.634-3.533,7.642-3.4,9.776-.018" transform="translate(-7.476 -2.573)" fill="#6b4a3f" fill-rule="evenodd"/>
        </g>
      </g>
    </g>
  </g>
</svg>
