<svg id="Grupo_56797" data-name="Grupo 56797" xmlns="http://www.w3.org/2000/svg" xmlns:xlink="http://www.w3.org/1999/xlink" width="90" height="90" viewBox="0 0 90 90">
  <defs>
    <clipPath id="clip-path">
      <rect id="Rectángulo_34022" data-name="Rectángulo 34022" width="90" height="90" fill="none"/>
    </clipPath>
    <clipPath id="clip-path-3">
      <rect id="Rectángulo_34018" data-name="Rectángulo 34018" width="86.008" height="86.008" fill="none"/>
    </clipPath>
    <clipPath id="clip-path-4">
      <path id="Trazado_114053" data-name="Trazado 114053" d="M5.273,46.136A40.863,40.863,0,1,0,46.136,5.273,40.863,40.863,0,0,0,5.273,46.136" transform="translate(-5.273 -5.273)" fill="none"/>
    </clipPath>
  </defs>
  <g id="Grupo_56796" data-name="Grupo 56796" clip-path="url(#clip-path)">
    <g id="Grupo_56793" data-name="Grupo 56793">
      <g id="Grupo_56792" data-name="Grupo 56792" clip-path="url(#clip-path)">
        <g id="Grupo_56791" data-name="Grupo 56791" transform="translate(1.996 1.996)" opacity="0.41" style="mix-blend-mode: color-burn;isolation: isolate">
          <g id="Grupo_56790" data-name="Grupo 56790">
            <g id="Grupo_56789" data-name="Grupo 56789" clip-path="url(#clip-path-3)">
              <path id="Trazado_114004" data-name="Trazado 114004" d="M88.466,45.462a43,43,0,1,1-43-43,43,43,0,0,1,43,43" transform="translate(-2.458 -2.458)" fill="#8a8a8a"/>
            </g>
          </g>
        </g>
        <path id="Trazado_114005" data-name="Trazado 114005" d="M45,90A45,45,0,1,1,90,45,45.052,45.052,0,0,1,45,90M45,3.991A41.008,41.008,0,1,0,86.008,45,41.055,41.055,0,0,0,45,3.991" transform="translate(0 0)" fill="#387db8"/>
      </g>
    </g>
    <g id="Grupo_56795" data-name="Grupo 56795" transform="translate(4.282 4.282)">
      <g id="Grupo_56794" data-name="Grupo 56794" clip-path="url(#clip-path-4)">
        <path id="Trazado_114006" data-name="Trazado 114006" d="M43.167,65.551s-2.7,2.059-3.223,3.727.762,5.714,1.972,6.441,7.779.509,8.772-.848.7-7.463-1.333-8.093-4.21-2.551-6.188-1.227" transform="translate(-11.767 -16.516)" fill="#f2f2f2"/>
        <path id="Trazado_114007" data-name="Trazado 114007" d="M50.134,101.4h8.982L59.13,83.78l7.5,7.386,5.7-24.516L68.3,65.392,64.968,78.179,56.873,66.111l-6.245-1.124.749,3.124L50.134,85.885Z" transform="translate(-13.704 -16.496)" fill="#375273"/>
        <path id="Trazado_114008" data-name="Trazado 114008" d="M28.347,70.245l-4.436,3.02L21.246,92.893l6,9.5h6.588L28.347,91.419l2.432-7.676.08,18.647H44.7V86.873l-9.259-15.82Z" transform="translate(-8.275 -17.484)" fill="#496d99"/>
        <path id="Trazado_114009" data-name="Trazado 114009" d="M46.754,57.182l-.191,2.434-8.431,1.416-.474-4.962s-1.312-4.768-1.715-5.734S33.9,37.834,46.381,37.255l6.389,7.652-2.288,1.562.277,2.193s-3.637-.58-3.545,1.41,3.591,2.3,3.591,2.3l-.045,3.349Z" transform="translate(-10.982 -11.284)" fill="#ffdba8"/>
        <path id="Trazado_114010" data-name="Trazado 114010" d="M38.039,64.262,36,65.975l4.357,3.954,2.055-5.18Z" transform="translate(-11.049 -16.36)" fill="#d1d9e0"/>
        <path id="Trazado_114011" data-name="Trazado 114011" d="M80.774,59.231s-.711,1.126-1.343,2.214c-.516.889-1.074,1.806-1.693,2.04l-.469,1.532-3.93-.408.521-1.7s1.547-2.454,1.272-3.555-.875-2.2-.713-2.4.387-.792.734-.957a1.278,1.278,0,0,1,1.2.237c.1.073,1.2-.74,1.412-.631.286.147.22.844.549,1.037.29.172.495.46.769.441.308-.02.21.26.327.383.3.305.947.682.951.849.006.227.071.229.491.371.306.1-.076.547-.076.547" transform="translate(-18.066 -14.73)" fill="#f6b968"/>
        <path id="Trazado_114012" data-name="Trazado 114012" d="M77.553,58.1c-.015.018-.057.009-.1-.02l-.451-.344c-.039-.029-.058-.069-.043-.088s.057-.011.1.019l.451.344c.037.03.058.07.044.089" transform="translate(-18.746 -15.114)" fill="#ffe0bc"/>
        <path id="Trazado_114013" data-name="Trazado 114013" d="M77.421,58.269c-.014.019-.058.01-.1-.019l-.45-.344c-.04-.03-.058-.069-.045-.089s.058-.009.1.021l.451.343c.038.03.058.07.045.088" transform="translate(-18.721 -15.147)" fill="#ffe0bc"/>
        <path id="Trazado_114014" data-name="Trazado 114014" d="M81.416,61.175c-.012.015-.049.009-.08-.016l-.369-.281c-.033-.025-.047-.058-.037-.072s.047-.008.08.016l.368.282c.032.024.05.057.038.071" transform="translate(-19.492 -15.708)" fill="#ffe0bc"/>
        <path id="Trazado_114015" data-name="Trazado 114015" d="M81.307,61.317c-.011.015-.047.008-.079-.016l-.369-.283c-.034-.023-.05-.055-.037-.071s.047-.008.08.017l.368.281c.032.024.049.057.037.072" transform="translate(-19.471 -15.735)" fill="#ffe0bc"/>
        <path id="Trazado_114016" data-name="Trazado 114016" d="M79.137,58.2l-2.484,2.276-7.4-7.124,2.927-1.5Z" transform="translate(-17.299 -14.027)" fill="#f33f37"/>
        <path id="Trazado_114017" data-name="Trazado 114017" d="M68.4,53.6l4.547-2.332L75.387,53.9l-4.492,2.3Z" transform="translate(-17.138 -13.918)" fill="#5dc1d1"/>
        <path id="Trazado_114018" data-name="Trazado 114018" d="M84.783,36.991l1.634-.2.958,1.869-1.372.7Z" transform="translate(-20.216 -11.197)" fill="#d1d9e0"/>
        <path id="Trazado_114019" data-name="Trazado 114019" d="M87.5,42.178l1.113-1.211-.96-1.871-1.372.7Z" transform="translate(-20.499 -11.63)" fill="#c6cfd8"/>
        <path id="Trazado_114020" data-name="Trazado 114020" d="M62,52.2l.538,1.048a.861.861,0,0,0,1.159.374l1.086-.556-.931-1.815Z" transform="translate(-15.934 -13.914)" fill="#f33f37"/>
        <path id="Trazado_114021" data-name="Trazado 114021" d="M62.766,49l-1.086.556a.86.86,0,0,0-.373,1.159l.541,1.058,1.853-.949Z" transform="translate(-15.787 -13.492)" fill="#f5655f"/>
        <path id="Trazado_114022" data-name="Trazado 114022" d="M70.98,46.076l0,0L69.35,42.9l-.007-.015-6.255,3.208a.806.806,0,0,0-.43,1.048l.368.716.935,1.824Z" transform="translate(-16.045 -12.341)" fill="#7dcdda"/>
        <path id="Trazado_114023" data-name="Trazado 114023" d="M64.278,50.415l.931,1.814.37.725a.807.807,0,0,0,1.1.263l6.254-3.208-.012-.024L71.3,46.815Z" transform="translate(-16.363 -13.081)" fill="#5dc1d1"/>
        <path id="Trazado_114024" data-name="Trazado 114024" d="M72.923,45.679l1.627,3.17,11.37-1.4L82.5,40.771Z" transform="translate(-17.988 -11.945)" fill="#f33f37"/>
        <path id="Trazado_114054" data-name="Trazado 114054" d="M0,.049H10.759v0H0Z" transform="translate(54.601 32.929) rotate(-18.413)" fill="#5dc1d1"/>
        <path id="Trazado_114025" data-name="Trazado 114025" d="M82.117,39.218l-3.425-6.681-7.777,8.414,1.629,3.176Z" transform="translate(-17.61 -10.397)" fill="#f5655f"/>
        <path id="Trazado_114026" data-name="Trazado 114026" d="M83.822,38.882l1.277-.655,0,0-3.665-7.149-.18-.352-1.277.655.42.819,3.426,6.682Z" transform="translate(-19.313 -10.056)" fill="#7dcdda"/>
        <path id="Trazado_114027" data-name="Trazado 114027" d="M84.712,40.619,88.136,47.3l.419.819,1.277-.655-.179-.352-3.665-7.144Z" transform="translate(-20.203 -11.793)" fill="#5dc1d1"/>
        <path id="Trazado_114028" data-name="Trazado 114028" d="M88.078,31.988a.865.865,0,0,0-1.126,1.184.853.853,0,0,0,.413.392,6.263,6.263,0,0,1,2.915,2.889h0l1.54-.79h0a7.992,7.992,0,0,0-3.743-3.676" transform="translate(-20.606 -10.28)" fill="#7dcdda"/>
        <path id="Trazado_114029" data-name="Trazado 114029" d="M91.718,41.376a.869.869,0,0,0,.079.566.865.865,0,0,0,1.618-.224,8,8,0,0,0-.8-5.185l-1.54.79a6.259,6.259,0,0,1,.644,4.053" transform="translate(-21.399 -11.148)" fill="#5dc1d1"/>
        <path id="Trazado_114030" data-name="Trazado 114030" d="M96.04,32.717a12.6,12.6,0,0,0-5.9-5.8,1.053,1.053,0,1,0-.866,1.921,10.508,10.508,0,0,1,4.9,4.845Z" transform="translate(-20.943 -9.323)" fill="#7dcdda"/>
        <path id="Trazado_114031" data-name="Trazado 114031" d="M95.442,35.044a10.5,10.5,0,0,1,1.076,6.8,1.054,1.054,0,1,0,2.067.416,12.613,12.613,0,0,0-1.268-8.179Z" transform="translate(-22.22 -10.688)" fill="#5dc1d1"/>
        <path id="Trazado_114032" data-name="Trazado 114032" d="M74.634,58.32s1.086-1.134,1.553-1.646c.592-.65.573-1.159.084-1.665a18.629,18.629,0,0,0-2.625,2.452,8.11,8.11,0,0,0-.341,1.631,23.8,23.8,0,0,0,.7,3.382s2.7-2.046.624-4.154" transform="translate(-18.059 -14.621)" fill="#ffcc90"/>
        <path id="Trazado_114033" data-name="Trazado 114033" d="M79.383,61.3a.642.642,0,1,1-1.024-.77l1.883-2.5a.641.641,0,1,1,1.022.768Z" transform="translate(-18.982 -15.133)" fill="#ffcc90"/>
        <path id="Trazado_114034" data-name="Trazado 114034" d="M78.053,60.3A.66.66,0,1,1,77,59.507L78.91,56.97a.66.66,0,1,1,1.052.792Z" transform="translate(-18.726 -14.935)" fill="#ffcc90"/>
        <path id="Trazado_114035" data-name="Trazado 114035" d="M76.944,58.983a.628.628,0,1,1-1-.754l1.816-2.413a.627.627,0,1,1,1,.753Z" transform="translate(-18.529 -14.721)" fill="#ffcc90"/>
        <path id="Trazado_114036" data-name="Trazado 114036" d="M80.832,62.051a.562.562,0,0,1-.9-.675l1.5-1.991a.562.562,0,0,1,.9.676Z" transform="translate(-19.285 -15.403)" fill="#ffcc90"/>
        <path id="Trazado_114037" data-name="Trazado 114037" d="M77.671,66.832l-4.657-1.5.378-1.58,4.69,1.787Z" transform="translate(-18.005 -16.263)" fill="#f8f1e4"/>
        <path id="Trazado_114038" data-name="Trazado 114038" d="M71.311,65.2,68.4,78.219c.62,2.262,1.665,12.987,1.665,12.987l8.2-23.809Z" transform="translate(-17.138 -16.537)" fill="#375273"/>
        <path id="Rectángulo_34021" data-name="Rectángulo 34021" d="M.477,0H6.148a.478.478,0,0,1,.478.478V2.527A.477.477,0,0,1,6.149,3H.477A.477.477,0,0,1,0,2.527V.477A.477.477,0,0,1,.477,0Z" transform="translate(24.865 78.857)" fill="#365a85"/>
        <path id="Trazado_114039" data-name="Trazado 114039" d="M53.4,93.6a.941.941,0,1,1-.907-.974.94.94,0,0,1,.907.974" transform="translate(-13.964 -21.691)" fill="#496d99"/>
        <path id="Trazado_114040" data-name="Trazado 114040" d="M52.393,93.731a.207.207,0,1,1-.414-.014.207.207,0,1,1,.414.014" transform="translate(-14.051 -21.858)" fill="#294464"/>
        <path id="Trazado_114041" data-name="Trazado 114041" d="M53.314,93.764a.208.208,0,1,1-.416-.013.208.208,0,0,1,.416.013" transform="translate(-14.224 -21.864)" fill="#294464"/>
        <path id="Trazado_114042" data-name="Trazado 114042" d="M53.4,105.2a.941.941,0,1,1-.907-.974.939.939,0,0,1,.907.974" transform="translate(-13.964 -23.872)" fill="#496d99"/>
        <path id="Trazado_114043" data-name="Trazado 114043" d="M52.393,105.332a.207.207,0,1,1-.2-.214.2.2,0,0,1,.2.214" transform="translate(-14.051 -24.038)" fill="#294464"/>
        <path id="Trazado_114044" data-name="Trazado 114044" d="M53.314,105.364a.208.208,0,1,1-.416-.014.208.208,0,0,1,.416.014" transform="translate(-14.224 -24.045)" fill="#294464"/>
        <path id="Trazado_114045" data-name="Trazado 114045" d="M45.267,64.726l-1.551.11-.8,2.01,2.053,2.662,1.179-.136Z" transform="translate(-12.349 -16.447)" fill="#f33f37"/>
        <path id="Trazado_114046" data-name="Trazado 114046" d="M47.144,69.3l1.014-3.258-.985-1.432-1.363.1L46.7,69.35Z" transform="translate(-12.892 -16.425)" fill="#f5655f"/>
        <path id="Trazado_114047" data-name="Trazado 114047" d="M45.206,70.583l-1.043,4.662,4.82,8.827-2.6-13.625Z" transform="translate(-12.582 -17.522)" fill="#f33f37"/>
        <path id="Trazado_114048" data-name="Trazado 114048" d="M50.02,74.855l-2.672-4.472-.448.052,2.6,13.625.028.053Z" transform="translate(-13.097 -17.51)" fill="#f5655f"/>
        <path id="Trazado_114049" data-name="Trazado 114049" d="M36.4,64.789l2.832,5.239,7.289,13.337-.173,2.482L34.874,75.421l1.977-3.476-6.861-2.726Z" transform="translate(-9.919 -16.459)" fill="#375273"/>
        <path id="Trazado_114050" data-name="Trazado 114050" d="M38.956,48.141l1.536-.258L39.38,41.277s5.684-5.1,5.679-5.26c-.031-1.09.5-3.89-3.087-5.352a3.539,3.539,0,0,1-2.986,2.294c-1.7.286-11.685,2.037-10.229,10.214,1,5.629,4.682,7.478,4.982,12.51l4.3-.723-.75-4.46c-3.322-.383-3.822-5.242-.748-5.67,2.361-.328,2.418,3.312,2.418,3.312" transform="translate(-9.659 -10.045)" fill="#a83d0d"/>
        <path id="Trazado_114051" data-name="Trazado 114051" d="M47.488,64.425l2.642,3.989v-3.68l-1.268-1.1Z" transform="translate(-13.207 -16.242)" fill="#d1d9e0"/>
        <path id="Trazado_114052" data-name="Trazado 114052" d="M50.628,64.988,50.134,83.1v2.787L54.567,73.6l-2.636-2.367,2.636-2.966Z" transform="translate(-13.704 -16.496)" fill="#496d99"/>
      </g>
    </g>
  </g>
</svg>
