<svg id="Grupo_59137" data-name="Grupo 59137" xmlns="http://www.w3.org/2000/svg" xmlns:xlink="http://www.w3.org/1999/xlink" width="58.77" height="59" viewBox="0 0 58.77 59">
  <defs>
    <clipPath id="clip-path">
      <rect id="Rectángulo_34841" data-name="Rectángulo 34841" width="58.77" height="59" fill="#12263f"/>
    </clipPath>
  </defs>
  <g id="Grupo_59136" data-name="Grupo 59136" clip-path="url(#clip-path)">
    <path id="Trazado_115875" data-name="Trazado 115875" d="M54.637,188.516a5.758,5.758,0,0,0-6.968-8.788,8.643,8.643,0,0,0-3.4-3.892,5.762,5.762,0,1,0-9.028,0,8.643,8.643,0,0,0-3.4,3.892,5.745,5.745,0,0,0-4.915,0,8.643,8.643,0,0,0-3.4-3.892,5.762,5.762,0,1,0-9.028,0,8.643,8.643,0,0,0-3.4,3.892,5.757,5.757,0,0,0-6.968,8.788A8.643,8.643,0,0,0,0,195.885v2.3a1.728,1.728,0,0,0,1.729,1.729H57.041a1.728,1.728,0,0,0,1.729-1.729v-2.3a8.643,8.643,0,0,0-4.132-7.368m-4.51-5.884a2.3,2.3,0,1,1-2.3,2.3,2.308,2.308,0,0,1,2.3-2.3M39.756,169.957a2.3,2.3,0,1,1-2.3,2.3,2.308,2.308,0,0,1,2.3-2.3M29.385,182.633a2.3,2.3,0,1,1-2.3,2.3,2.308,2.308,0,0,1,2.3-2.3M19.014,169.957a2.3,2.3,0,1,1-2.3,2.3,2.308,2.308,0,0,1,2.3-2.3M8.643,182.633a2.3,2.3,0,1,1-2.3,2.3,2.308,2.308,0,0,1,2.3-2.3m5.186,13.828H3.457v-.576a5.186,5.186,0,0,1,10.371,0Zm6.914-.576v.576H17.285v-.576a8.635,8.635,0,0,0-3.457-6.909v-1.528a5.75,5.75,0,0,0,.046-4.92,5.184,5.184,0,0,1,10.279,0,5.75,5.75,0,0,0,.046,4.92v1.528a8.635,8.635,0,0,0-3.457,6.909m13.828.576H24.2v-.576a5.186,5.186,0,0,1,10.371,0Zm6.914-.576v.576H38.027v-.576a8.635,8.635,0,0,0-3.457-6.909v-1.528a5.75,5.75,0,0,0,.046-4.92,5.184,5.184,0,0,1,10.279,0,5.75,5.75,0,0,0,.046,4.92v1.528a8.635,8.635,0,0,0-3.457,6.909m13.828.576H44.941v-.576a5.186,5.186,0,0,1,10.371,0Z" transform="translate(0 -140.918)" fill="#12263f"/>
    <path id="Trazado_115876" data-name="Trazado 115876" d="M124.6,24.2a12.1,12.1,0,1,0-12.1-12.1,12.113,12.113,0,0,0,12.1,12.1m0-20.742a8.643,8.643,0,1,1-8.643,8.643A8.652,8.652,0,0,1,124.6,3.457" transform="translate(-95.215)" fill="#12263f"/>
    <path id="Trazado_115877" data-name="Trazado 115877" d="M159.229,51.914h1.729v1.729a1.729,1.729,0,0,0,3.457,0V51.914h1.729a1.729,1.729,0,0,0,0-3.457h-1.729V46.729a1.729,1.729,0,0,0-3.457,0v1.729h-1.729a1.729,1.729,0,0,0,0,3.457" transform="translate(-133.301 -38.086)" fill="#12263f"/>
  </g>
</svg>
