<svg xmlns="http://www.w3.org/2000/svg" xmlns:xlink="http://www.w3.org/1999/xlink" width="49" height="68" viewBox="0 0 49 68">
  <defs>
    <clipPath id="clip-path">
      <rect id="Rectángulo_34838" data-name="Rectángulo 34838" width="49" height="68" transform="translate(0 -0.001)" fill="#12263f"/>
    </clipPath>
  </defs>
  <g id="Grupo_59130" data-name="Grupo 59130" transform="translate(0 -0.499)">
    <g id="Grupo_59129" data-name="Grupo 59129" transform="translate(0 0.5)" clip-path="url(#clip-path)">
      <path id="Trazado_115869" data-name="Trazado 115869" d="M46.571,61.768H44.425V58.461A1.925,1.925,0,0,0,42.5,56.538H41.78V21.526h1.26a1.386,1.386,0,0,0,1.384-1.384V16.22a1.386,1.386,0,0,0-1.384-1.384H41.759a9.944,9.944,0,0,0-9.912-9.309H29.206a5.071,5.071,0,0,0,.029-.537,4.989,4.989,0,0,0-9.978,0,4.9,4.9,0,0,0,.03.537H16.646a9.945,9.945,0,0,0-9.912,9.31H5.452A1.386,1.386,0,0,0,4.068,16.22v3.922a1.386,1.386,0,0,0,1.385,1.384h1.26V56.539H5.99a1.924,1.924,0,0,0-1.922,1.922v3.308H1.922A1.924,1.924,0,0,0,0,63.691v2.845a1.924,1.924,0,0,0,1.922,1.922H39.337a1,1,0,1,0,0-2.006H2.006V63.775H46.487v2.678H44.15a1,1,0,1,0,0,2.006h2.421a1.924,1.924,0,0,0,1.922-1.922V63.691a1.925,1.925,0,0,0-1.922-1.923m-6.8-5.23h-2.7V38.114a14.011,14.011,0,0,1,2.7-8.234ZM21.263,4.989a2.983,2.983,0,1,1,5.916.537H21.313a3,3,0,0,1-.05-.537M16.646,7.532h15.2a7.938,7.938,0,0,1,7.9,7.3H8.743a7.938,7.938,0,0,1,7.9-7.3M6.074,16.842H42.419V19.52H6.074Zm33.7,4.684v5l-1.529,2.045a16.03,16.03,0,0,0-3.173,9.541V56.538H32.6V38.114a16.035,16.035,0,0,0-3.174-9.541L27.7,26.262a4.306,4.306,0,0,0-6.9,0l-1.729,2.311A16.035,16.035,0,0,0,15.9,38.114V43.4a1,1,0,1,0,2.006,0V38.114a14.015,14.015,0,0,1,2.774-8.34L22.4,27.463a2.3,2.3,0,0,1,3.684,0l1.729,2.311a14.015,14.015,0,0,1,2.774,8.34V56.539H17.9V48.213a1,1,0,1,0-2.006,0v8.326H13.421V38.114a16.031,16.031,0,0,0-3.173-9.541L8.718,26.528v-5ZM8.718,29.881a14.018,14.018,0,0,1,2.7,8.234V56.538h-2.7ZM6.074,58.544H42.419v3.224H6.074Z" transform="translate(0 -0.459)" fill="#12263f"/>
    </g>
  </g>
</svg>
